<svg id="default" viewBox="0 0 20 20" fill="none" xmlns="http://www.w3.org/2000/svg">
<path d="M5.79036 16.6236C3.56404 15.2372 2.0788 12.7928 2.0788 9.99885C2.0788 5.67561 5.62431 2.16716 10.0001 2.16716C10.5567 2.16716 11.1009 2.22492 11.6268 2.33437L11.922 1.99082C11.3039 1.84489 10.6643 1.75977 10.0001 1.75977C5.40599 1.75977 1.66675 5.45671 1.66675 9.99885C1.66675 12.957 3.25961 15.5504 5.63354 17.0036L5.79036 16.6236ZM14.585 3.12484L14.4374 3.51095C16.5407 4.91859 17.9214 7.29911 17.9214 9.99885C17.9214 14.3251 14.3759 17.8305 10.0001 17.8305C9.52653 17.8305 9.06527 17.7819 8.61324 17.7029L8.29651 18.0616C8.84695 18.1741 9.41583 18.2349 10.0001 18.2349C14.5942 18.2349 18.3334 14.5379 18.3334 9.99581C18.3334 7.12581 16.839 4.59936 14.585 3.1218V3.12484Z" fill="#C8102E"/>
<path d="M14.4369 3.51176L12.6811 8.11774H14.3354C14.8182 8.11774 15.258 8.39745 15.4609 8.8322C15.6639 9.26696 15.587 9.77772 15.2703 10.1395L8.61589 17.7037C9.06791 17.7827 9.52917 17.8314 10.0027 17.8314C14.3785 17.8314 17.924 14.3259 17.924 9.99966C17.924 7.29992 16.5433 4.9194 14.44 3.51176H14.4369ZM7.52732 12.3863H5.66386C5.18108 12.3863 4.74442 12.1096 4.54147 11.6779C4.33852 11.2462 4.40924 10.7384 4.71982 10.3736L11.6263 2.33518C11.1005 2.22573 10.5593 2.16797 9.99965 2.16797C5.62388 2.16797 2.07837 5.67642 2.07837 9.99966C2.07837 12.7937 3.56361 15.238 5.78993 16.6244L7.52732 12.3863Z" fill="url(#paint0_linear_5846_42411)"/>
<path d="M13.8193 1.66602L5.66431 11.1668H9.36049L6.42076 18.3327L14.3359 9.33657H10.8949L13.8193 1.66602Z" fill="white"/>
<defs>
<linearGradient id="paint0_linear_5846_42411" x1="2.07837" y1="9.99966" x2="17.9209" y2="9.99966" gradientUnits="userSpaceOnUse">
<stop/>
<stop offset="0.46" stop-color="#C8102E"/>
</linearGradient>
</defs>
</svg>
