<svg width="25" height="24" viewBox="0 0 25 24" fill="none" xmlns="http://www.w3.org/2000/svg">
<path fill-rule="evenodd" clip-rule="evenodd" d="M21.0275 10.5905L19.4247 8.79298C19.1986 8.53945 18.8473 8.43651 18.5245 8.53755C17.6698 8.80822 16.6975 8.57376 16.0594 7.85895C15.4232 7.14414 15.2979 6.14914 15.6588 5.32568C15.7954 5.01498 15.7309 4.6528 15.5049 4.3993L14.2989 3.04592C13.9761 2.68374 13.4235 2.65324 13.0626 2.9773L3.04486 12.1764C2.68399 12.5004 2.65361 13.0551 2.97647 13.4173L4.08558 14.6601C4.33817 14.9441 4.74644 15.049 5.09206 14.8946C5.99986 14.4924 7.09948 14.6982 7.79646 15.4798C8.49335 16.2613 8.57698 17.3802 8.07745 18.2418C7.88761 18.5715 7.94641 18.989 8.19899 19.273L9.70312 20.9599C10.026 21.3221 10.5787 21.3526 10.9394 21.0286L20.9572 11.8314C21.3181 11.5073 21.3503 10.9526 21.0275 10.5905ZM10.3329 12.7011L9.90152 15.328L12.249 14.0725L14.6141 15.2945L14.1454 12.674L16.0385 10.8023L13.4014 10.4382L12.2063 8.05942L11.0452 10.4549L8.41348 10.8565L10.3329 12.7011Z" fill="url(#paint0_linear_9306_108549)"/>
<path d="M12.2454 8.04492L13.4276 10.4404L16.0712 10.8245L14.1583 12.6892L14.6098 15.3221L12.2454 14.079L9.88087 15.3221L10.3324 12.6892L8.41954 10.8245L11.0631 10.4404L12.2454 8.04492Z" fill="white"/>
<defs>
<linearGradient id="paint0_linear_9306_108549" x1="12.0016" y1="2.75293" x2="12.0016" y2="21.2529" gradientUnits="userSpaceOnUse">
<stop stop-color="#00A44A"/>
<stop offset="1" stop-color="#003E1C"/>
</linearGradient>
</defs>
</svg>
