<svg width="24" height="24" viewBox="0 0 24 24" fill="none" xmlns="http://www.w3.org/2000/svg">
<path d="M13.0595 2.97449C13.4203 2.65043 13.9729 2.68067 14.2958 3.04284L15.5018 4.39636C15.7277 4.64973 15.7925 5.01161 15.6561 5.32214C15.2953 6.14554 15.4204 7.14055 16.0565 7.85534C16.6946 8.57015 17.6667 8.80473 18.5214 8.53406C18.8442 8.43303 19.1957 8.5364 19.4218 8.78992L21.0243 10.5878C21.347 10.9499 21.3148 11.504 20.954 11.828L10.9364 21.0253C10.5757 21.3493 10.023 21.319 9.70009 20.9569L8.19618 19.2694C7.94369 18.9854 7.8843 18.5679 8.07411 18.2382C8.57348 17.3766 8.49057 16.2579 7.79384 15.4764C7.09685 14.6949 5.99656 14.4893 5.08876 14.8915C4.7433 15.0457 4.33544 14.9408 4.0829 14.6571L2.97352 13.4139C2.65072 13.0518 2.68104 12.4968 3.04188 12.1727L13.0595 2.97449Z" fill="url(#paint0_linear_3598_580)"/>
<path d="M9.12725 11.5401C9.29303 11.4524 9.44835 11.4851 9.57159 11.6319C9.59143 11.6545 9.61114 11.6808 9.6292 11.71C9.76453 11.9298 10.1483 12.5945 10.5462 13.2862C10.9445 13.9785 11.3572 14.6988 11.5501 15.0264C11.5723 15.0642 11.5878 15.0977 11.597 15.128C11.6253 15.2184 11.5962 15.2838 11.5013 15.3711C11.2963 15.5593 11.1053 15.7345 10.8997 15.9219C10.7842 16.0272 10.7094 16.0156 10.6292 15.8799C10.1221 15.0185 9.6271 14.1456 9.12041 13.2842C9.10835 13.2638 9.09562 13.2429 9.0833 13.2227C9.05265 13.1721 9.01644 13.1692 8.97393 13.208C8.91303 13.2638 8.85314 13.3214 8.78936 13.3741C8.69347 13.4529 8.62619 13.4468 8.56084 13.3399L8.1419 12.6055C8.08932 12.512 8.10994 12.4257 8.19268 12.3477C8.31774 12.23 8.44009 12.1199 8.5667 12.0039C8.57925 11.9995 8.8803 11.7184 9.04424 11.5938L9.12725 11.5401Z" fill="white" style="fill:white;fill-opacity:1;"/>
<path d="M12.9378 8.02737C13.1575 7.84193 13.3614 7.88119 13.5325 8.11526C13.6695 8.30293 13.7925 8.50408 13.9105 8.70511L15.4798 11.4141C15.5741 11.5756 15.5644 11.6494 15.428 11.7744C15.2245 11.9608 15.0204 12.1489 14.8167 12.335C14.6949 12.4461 14.6242 12.4339 14.5403 12.291C14.0515 11.4561 13.5803 10.6252 13.0989 9.78616C13.0542 9.70807 13.0081 9.68133 12.9593 9.71194C12.919 9.73724 12.9178 9.79063 12.9329 9.84964C13.1411 10.6587 13.3474 11.4689 13.5511 12.2793C13.5879 12.4268 13.6181 12.5786 13.638 12.7295C13.6858 13.0915 13.5956 13.4191 13.3343 13.6787C13.2346 13.7776 13.1264 13.8692 13.0198 13.961C13.018 13.9589 13.016 13.9564 13.014 13.9541C13.0095 13.9578 13.0048 13.9631 13.0003 13.9668C12.738 14.1677 12.4435 14.1446 12.1478 13.9121C11.9058 13.7215 11.6774 13.5126 11.4456 13.3086C11.2616 13.1466 11.0774 12.9847 10.8939 12.8223C10.5283 12.187 10.1913 11.6046 10.0657 11.4004C9.93678 11.1919 9.79061 11.0863 9.64971 11.0166C9.70575 10.9653 9.76063 10.912 9.81866 10.8633C10.1105 10.6193 10.3166 10.6207 10.6009 10.8682C10.8696 11.1022 11.1337 11.3429 11.3978 11.5821C11.7251 11.8775 12.0519 12.1743 12.3792 12.4698C12.3885 12.4822 12.3997 12.4943 12.4095 12.5069C12.1899 11.6858 11.9692 10.8642 11.7513 10.043C11.7183 9.9192 11.6905 9.79203 11.6702 9.66507C11.63 9.40972 11.6881 9.17465 11.8763 8.99515C12.2232 8.66448 12.5727 8.33522 12.9388 8.0264L12.9378 8.02737Z" fill="white" style="fill:white;fill-opacity:1;"/>
<defs>
<linearGradient id="paint0_linear_3598_580" x1="11.9986" y1="2.74988" x2="11.9986" y2="21.2499" gradientUnits="userSpaceOnUse">
<stop stop-color="#CBB142" style="stop-color:#CBB142;stop-color:color(display-p3 0.7961 0.6941 0.2588);stop-opacity:1;"/>
<stop offset="1" stop-color="#5C3E00" style="stop-color:#5C3E00;stop-color:color(display-p3 0.3608 0.2431 0.0000);stop-opacity:1;"/>
</linearGradient>
</defs>
</svg>
