<svg id="default" viewBox="0 0 16 16" fill="none" xmlns="http://www.w3.org/2000/svg">
<path d="M14.1668 8.00005C14.1668 4.59429 11.4059 1.83337 8.00016 1.83337C4.59441 1.83337 1.8335 4.59429 1.8335 8.00005C1.8335 11.4058 4.59441 14.1667 8.00016 14.1667C11.4059 14.1667 14.1668 11.4058 14.1668 8.00005Z" fill="url(#paint0_linear_21651_302)"/>
<path d="M9.62839 7.65725C9.57161 7.65725 9.52562 7.6112 9.52562 7.55447V5.2705C9.52562 5.21374 9.57161 5.16772 9.62839 5.16772H10.1157C10.1724 5.16772 10.2185 5.21374 10.2185 5.2705V7.55447C10.2185 7.6112 10.1724 7.65725 10.1157 7.65725H9.62839ZM8.72924 6.75977C8.67246 6.75977 8.62646 6.71376 8.62646 6.65699V6.16968C8.62646 6.11292 8.67246 6.0669 8.72919 6.0669H11.0132C11.07 6.0669 11.1159 6.11292 11.1159 6.16968V6.65699C11.1159 6.71376 11.07 6.75977 11.0132 6.75977H8.72924Z" fill="white"/>
<path fill-rule="evenodd" clip-rule="evenodd" d="M6.44162 5.20207C6.45386 5.15742 6.49444 5.12646 6.54073 5.12646H8.42038C8.49232 5.12646 8.54201 5.19849 8.51647 5.26574L7.646 7.55696C7.62046 7.62423 7.6701 7.69627 7.74204 7.69627H8.79228C8.87676 7.69627 8.92517 7.79258 8.8747 7.86041L6.31743 11.2972C6.24998 11.3879 6.10692 11.3191 6.13556 11.2098L6.77404 8.77298C6.79111 8.70781 6.74196 8.64414 6.67462 8.64414H5.63262C5.56479 8.64414 5.51557 8.5796 5.5335 8.51418L6.44162 5.20207Z" fill="white"/>
<defs>
<linearGradient id="paint0_linear_21651_302" x1="8.00016" y1="1.83337" x2="8.00016" y2="14.1667" gradientUnits="userSpaceOnUse">
<stop stop-color="#D90000"/>
<stop offset="1" stop-color="#730000"/>
</linearGradient>
</defs>
</svg>
