<svg id="default" viewBox="0 0 24 24" fill="none" xmlns="http://www.w3.org/2000/svg">
<g clip-path="url(#clip0_22067_3939)">
<path d="M21.0664 12C21.0664 6.89137 16.925 2.75 11.8164 2.75C6.70777 2.75 2.56641 6.89137 2.56641 12C2.56641 17.1086 6.70777 21.25 11.8164 21.25C16.925 21.25 21.0664 17.1086 21.0664 12Z" fill="url(#paint0_linear_22067_3939)"/>
<path d="M11.8115 6.75647C13.595 7.5336 14.2655 7.95567 16.1846 8.65588C16.2131 8.66629 16.2343 8.692 16.2363 8.72229C16.4088 11.3048 15.486 15.4683 11.8477 17.1793C11.8265 17.1893 11.8012 17.1888 11.7803 17.1783C8.0601 15.3197 7.29976 11.4772 7.63477 8.67834C7.63809 8.65059 7.6567 8.6273 7.68262 8.61682C9.1773 8.01203 10.232 7.61627 11.7422 6.7594C11.7632 6.7475 11.7894 6.7469 11.8115 6.75647ZM11.458 12.8004L10.1289 11.5944L9.45508 12.3365L11.0566 13.7887C11.3355 14.0414 11.7693 14.0082 12.0059 13.7164L14.6367 10.4694L13.8584 9.8385L11.458 12.8004Z" fill="white"/>
</g>
<defs>
<linearGradient id="paint0_linear_22067_3939" x1="11.8164" y1="2.75" x2="11.8164" y2="21.25" gradientUnits="userSpaceOnUse">
<stop stop-color="#5CABFB"/>
<stop offset="1" stop-color="#034486"/>
</linearGradient>
<clipPath id="clip0_22067_3939">
<rect width="18.5" height="18.5" fill="white" transform="translate(2.56641 2.75)"/>
</clipPath>
</defs>
</svg>
