<svg id="default" viewBox="0 0 28 28" fill="none" xmlns="http://www.w3.org/2000/svg">
<mask id="mask0_2547_36250" style="mask-type:alpha" maskUnits="userSpaceOnUse" x="0" y="0">
<path d="M10.2224 25.6115C10.6649 25.553 11.1119 25.673 11.4644 25.9445L13.0889 27.191C13.6259 27.6035 14.3729 27.6035 14.9084 27.191L16.5944 25.8965C16.9094 25.655 17.3069 25.5485 17.6999 25.601L19.8089 25.8785C20.4794 25.967 21.1259 25.5935 21.3854 24.968L22.1969 23.006C22.3484 22.6385 22.6394 22.3475 23.0069 22.196L24.9689 21.3845C25.5944 21.1265 25.9679 20.4785 25.8794 19.808L25.6124 17.7755C25.5539 17.333 25.6739 16.886 25.9454 16.5335L27.1919 14.909C27.6044 14.372 27.6044 13.625 27.1919 13.0895L25.8974 11.4035C25.6559 11.0885 25.5494 10.691 25.6019 10.298L25.8794 8.18901C25.9679 7.51851 25.5944 6.87201 24.9689 6.61251L23.0069 5.80101C22.6394 5.64951 22.3484 5.35851 22.1969 4.99101L21.3854 3.02901C21.1274 2.40351 20.4794 2.03001 19.8089 2.11851L17.6999 2.39601C17.3069 2.45001 16.9094 2.34351 16.5959 2.10351L14.9099 0.809009C14.3729 0.396509 13.6259 0.396509 13.0904 0.809009L11.4044 2.10351C11.0894 2.34351 10.6919 2.45001 10.2989 2.39901L8.1899 2.12151C7.5194 2.03301 6.8729 2.40651 6.6134 3.03201L5.8034 4.99401C5.6504 5.36001 5.3594 5.65101 4.9934 5.80401L3.0314 6.61401C2.4059 6.87351 2.0324 7.52001 2.1209 8.19051L2.3984 10.2995C2.4494 10.6925 2.3429 11.09 2.1029 11.4035L0.808398 13.0895C0.395898 13.6265 0.395898 14.3735 0.808398 14.909L2.1029 16.595C2.3444 16.91 2.4509 17.3075 2.3984 17.7005L2.1209 19.8095C2.0324 20.48 2.4059 21.1265 3.0314 21.386L4.9934 22.1975C5.3609 22.349 5.6519 22.64 5.8034 23.0075L6.6149 24.9695C6.8729 25.595 7.5209 25.9685 8.1914 25.88L10.2224 25.6115Z" fill="#C8102E"/>
</mask>
<g mask="url(#mask0_2547_36250)">
<path d="M10.2224 25.6115C10.6649 25.553 11.1119 25.673 11.4644 25.9445L13.0889 27.191C13.6259 27.6035 14.3729 27.6035 14.9084 27.191L16.5944 25.8965C16.9094 25.655 17.3069 25.5485 17.6999 25.601L19.8089 25.8785C20.4794 25.967 21.1259 25.5935 21.3854 24.968L22.1969 23.006C22.3484 22.6385 22.6394 22.3475 23.0069 22.196L24.9689 21.3845C25.5944 21.1265 25.9679 20.4785 25.8794 19.808L25.6124 17.7755C25.5539 17.333 25.6739 16.886 25.9454 16.5335L27.1919 14.909C27.6044 14.372 27.6044 13.625 27.1919 13.0895L25.8974 11.4035C25.6559 11.0885 25.5494 10.691 25.6019 10.298L25.8794 8.18901C25.9679 7.51851 25.5944 6.87201 24.9689 6.61251L23.0069 5.80101C22.6394 5.64951 22.3484 5.35851 22.1969 4.99101L21.3854 3.02901C21.1274 2.40351 20.4794 2.03001 19.8089 2.11851L17.6999 2.39601C17.3069 2.45001 16.9094 2.34351 16.5959 2.10351L14.9099 0.809009C14.3729 0.396509 13.6259 0.396509 13.0904 0.809009L11.4044 2.10351C11.0894 2.34351 10.6919 2.45001 10.2989 2.39901L8.1899 2.12151C7.5194 2.03301 6.8729 2.40651 6.6134 3.03201L5.8034 4.99401C5.6504 5.36001 5.3594 5.65101 4.9934 5.80401L3.0314 6.61401C2.4059 6.87351 2.0324 7.52001 2.1209 8.19051L2.3984 10.2995C2.4494 10.6925 2.3429 11.09 2.1029 11.4035L0.808398 13.0895C0.395898 13.6265 0.395898 14.3735 0.808398 14.909L2.1029 16.595C2.3444 16.91 2.4509 17.3075 2.3984 17.7005L2.1209 19.8095C2.0324 20.48 2.4059 21.1265 3.0314 21.386L4.9934 22.1975C5.3609 22.349 5.6519 22.64 5.8034 23.0075L6.6149 24.9695C6.8729 25.595 7.5209 25.9685 8.1914 25.88L10.2224 25.6115Z" fill="#C8102E"/>
<path opacity="0.12" d="M25.0795 6C25.3923 7.21053 25.5487 8.26974 25.3923 9.48026C24.9231 17.8026 16.6345 25.6711 8.18945 26.125C7.40751 26.125 6.78195 26.125 6 25.9737C8.50223 27.9408 11.4736 29 14.9142 29C22.7337 29 28.9893 22.9474 28.9893 15.3816C29.1457 11.9013 27.5818 8.42105 25.0795 6Z" fill="#212121"/>
</g>
<path d="M14.2325 20.228C13.0799 20.228 12.0855 19.8417 11.2495 19.069C10.4135 18.2963 9.86888 17.1817 9.61555 15.725H8.41855V14.661L9.50155 14.585C9.48888 14.4837 9.48255 14.3887 9.48255 14.3C9.48255 14.1987 9.48255 14.0973 9.48255 13.996C9.48255 13.8947 9.48255 13.7997 9.48255 13.711C9.48255 13.6223 9.48888 13.5337 9.50155 13.445H8.41855V12.381L9.61555 12.305C9.86888 10.8357 10.4262 9.702 11.2875 8.904C12.1489 8.09333 13.2065 7.688 14.4605 7.688C15.0305 7.688 15.5752 7.821 16.0945 8.087C16.6265 8.353 17.0699 8.714 17.4245 9.17L16.1895 10.367C15.9489 10.0757 15.6829 9.84133 15.3915 9.664C15.1002 9.48667 14.7709 9.398 14.4035 9.398C13.7195 9.398 13.1559 9.65133 12.7125 10.158C12.2692 10.6647 11.9715 11.374 11.8195 12.286H16.2655V13.445H11.7055C11.6929 13.521 11.6865 13.597 11.6865 13.673C11.6865 13.749 11.6865 13.8313 11.6865 13.92C11.6865 14.034 11.6865 14.148 11.6865 14.262C11.6865 14.3633 11.6929 14.4647 11.7055 14.566H15.5055V15.725H11.8385C12.0159 16.6117 12.3199 17.302 12.7505 17.796C13.1812 18.2773 13.7195 18.518 14.3655 18.518C14.7709 18.518 15.1319 18.4167 15.4485 18.214C15.7779 18.0113 16.0819 17.7137 16.3605 17.321L17.5955 18.461C17.1649 19.0183 16.6709 19.4553 16.1135 19.772C15.5562 20.076 14.9292 20.228 14.2325 20.228Z" fill="white"/>
<rect x="18.6089" y="7.58318" width="2" height="15.5724" transform="rotate(45 18.6089 7.58318)" fill="white" stroke="#C8102E"/>
</svg>
