<svg id="default" viewBox="0 0 25 24" fill="currentColor" xmlns="http://www.w3.org/2000/svg">
<path d="M11.8607 4.02533C12.719 3.95332 13.6697 4.03612 14.5199 4.25775C16.4178 4.75256 18.0671 5.92658 19.1556 7.55755C19.923 8.70741 20.4048 10.1076 20.4818 11.412C20.4879 11.515 20.4987 11.5954 20.5062 11.5908C20.5137 11.5866 20.5199 11.7626 20.5199 11.9824C20.5199 12.2019 20.5137 12.3853 20.5062 12.3906C20.4987 12.3952 20.4879 12.4841 20.4818 12.5878C20.4573 13.003 20.3756 13.5017 20.2572 13.9687C19.7661 15.904 18.5787 17.5723 16.9036 18.6796C14.5625 20.2272 11.5625 20.4289 9.03646 19.2079C8.20373 18.8054 7.4944 18.3026 6.84798 17.6562C4.14849 14.9567 3.7319 10.7343 5.85189 7.55755C6.94877 5.91393 8.60704 4.74007 10.5267 4.24798C10.9739 4.13335 11.3833 4.06539 11.8607 4.02533ZM10.5638 15.8593C9.26634 17.639 9.17632 17.7675 9.20443 17.789C9.26095 17.8321 9.8777 18.127 10.056 18.1962C10.7767 18.4758 11.479 18.6251 12.2122 18.6533C13.1849 18.6905 14.051 18.5456 14.9515 18.1962C15.1294 18.1272 15.7474 17.8322 15.804 17.789C15.8286 17.7693 15.7629 17.673 15.099 16.7597L14.3665 15.7519L10.6488 15.7441L10.5638 15.8593ZM5.97591 10.6454C5.97559 10.6501 5.96172 10.7302 5.94466 10.8251C5.84163 11.3986 5.81597 12.1677 5.88021 12.7314C6.0318 14.0614 6.58142 15.3282 7.44466 16.3359C7.58423 16.4988 8.05461 16.9711 8.08138 16.9755C8.09586 16.9755 9.46333 15.1131 9.54329 14.9843C9.56046 14.9566 9.48527 14.7128 8.99154 13.1923C8.67992 12.2327 8.42171 11.4431 8.41732 11.4296C8.38868 11.4167 5.99784 10.6406 5.98665 10.6406C5.98089 10.6406 5.97591 10.6426 5.97591 10.6454ZM17.8079 11.0302C17.1568 11.2432 16.6156 11.4207 16.6058 11.4247C16.5937 11.4361 16.3298 12.2289 16.0169 13.1923C15.523 14.7133 15.448 14.9566 15.4652 14.9843C15.5461 15.1143 16.8962 16.9541 16.9261 16.9755C16.9488 16.9755 17.4236 16.4995 17.5638 16.3359C18.4287 15.3261 18.9726 14.0714 19.1283 12.7285C19.1894 12.2007 19.1695 11.4762 19.0785 10.9199C19.0348 10.653 19.0312 10.6399 19.0101 10.6415C18.99 10.6456 18.453 10.8193 17.8079 11.0302ZM12.5013 9.15326C12.4888 9.15429 11.8712 9.59683 11.1283 10.1376C10.3869 10.6772 9.7705 11.1252 9.75521 11.1347C9.7387 11.1444 9.85159 11.5088 10.2611 12.7695L10.7874 14.3925H14.2201L14.7464 12.7704C15.0343 11.8843 15.2685 11.1567 15.2689 11.1454C15.2662 11.1436 14.6468 10.6946 13.8929 10.1474C13.1391 9.60022 12.513 9.15284 12.5013 9.15326ZM4.51595 11.7958C4.5132 11.6841 4.51107 11.7758 4.51107 11.9999C4.51107 12.2243 4.5132 12.3162 4.51595 12.204C4.5187 12.0918 4.5187 11.908 4.51595 11.7958ZM11.7718 5.37884C11.739 5.38016 11.6908 5.38421 11.6644 5.38763C10.36 5.55767 9.11275 6.11823 8.12826 6.97747C7.94419 7.13814 7.59501 7.48865 7.44466 7.664C7.17356 7.98021 6.88788 8.38868 6.69954 8.72845C6.55413 8.9908 6.3871 9.3457 6.40267 9.35931C6.42959 9.37346 8.75456 10.1329 8.82454 10.1503C8.82941 10.1515 9.50814 9.6627 10.3324 9.06439L11.8314 7.9765L11.8324 5.37591L11.7718 5.37884ZM13.1771 7.9765L14.6751 9.06439C15.4977 9.66153 16.1753 10.1495 16.1829 10.1503C16.2538 10.1326 18.596 9.36792 18.6058 9.35931C18.6206 9.34432 18.4541 8.99033 18.3089 8.72845C17.8197 7.84594 17.0468 7.01684 16.179 6.44329C15.5485 6.02657 14.8234 5.70971 14.0853 5.52826C13.8374 5.46734 13.4779 5.40186 13.2923 5.38372L13.1761 5.37201L13.1771 7.9765Z"/>
</svg>
