<svg id="default" xmlns="http://www.w3.org/2000/svg" viewBox="0 0 24 24" fill="none">
    <defs>
        <style>
            .rotating-ball {
                animation: ballRotation 2s linear infinite;
            }
            
            @keyframes ballRotation {
                from { transform: rotate(0deg); }
                to { transform: rotate(360deg); }
            }
        </style>
    </defs>
    <g class="rotating-ball" transform-origin="14 14">
        <path d="M7.46725 13.8825C7.46725 15.6282 8.16083 17.3025 9.39541 18.5369C10.63 19.7714 12.3044 20.4649 14.0504 20.4649C15.7964 20.4649 17.4708 19.7714 18.7054 18.5369C19.94 17.3025 20.6335 15.6282 20.6335 13.8825C20.6335 12.1367 19.94 10.4624 18.7054 9.22799C17.4708 7.99355 15.7964 7.30005 14.0504 7.30005C12.3044 7.30005 10.63 7.99355 9.39541 9.22799C8.16083 10.4624 7.46725 12.1367 7.46725 13.8825Z" stroke="currentColor" stroke-width="1.4" />
        <path d="M16.3575 13.1323L15.4766 15.8452H12.6241L11.7422 13.1323L14.0498 11.4565L16.3575 13.1323Z" fill="currentColor" stroke="currentColor" stroke-width="1.4" />
        <path d="M14.0504 9.75088L11.6993 7.8702L14.0504 7.40002L16.4015 7.8702L14.0504 9.75088Z" fill="currentColor" />
        <path d="M10.1141 12.419L7.53606 13.9742L7.90817 11.6058L9.16267 9.5627L10.1141 12.419Z" fill="currentColor" />
        <path d="M16.384 17.2536L19.3833 17.517L17.6864 19.2107L15.4685 20.1216L16.384 17.2536Z" fill="currentColor" />
        <path d="M11.6321 17.2502L12.4767 20.1399L10.2819 19.1747L8.62716 17.4397L11.6321 17.2502Z" fill="currentColor" />
        <path d="M18.0595 12.588L19.2496 9.82257L20.3265 11.9646L20.4966 14.3559L18.0595 12.588Z" fill="currentColor" />
        <path d="M15.7312 13.5123L20.6336 11.6883" stroke="currentColor" stroke-width="1.4" />
        <path d="M11.6993 12.9421L7.46725 11.6884" stroke="currentColor" stroke-width="1.4" />
        <path d="M13.1099 14.8228L10.2886 19.5245" stroke="currentColor" stroke-width="1.4" />
        <path d="M14.9908 14.8228L17.8122 19.5245" stroke="currentColor" stroke-width="1.4" />
        <path d="M14.0504 11.6883V7.30005" stroke="currentColor" stroke-width="1.4" />
    </g>
    <path d="M3 20.4648C3 20.4648 12.3044 20.4648 14.0504 20.4648C15.7964 20.4648 17.4708 19.7713 18.7054 18.5369C19.94 17.3024 20.6335 15.6282 20.6335 13.8824C20.6335 12.1366 19.94 10.4624 18.7054 9.22793C17.9799 8.50248 17.1024 7.96385 16.1478 7.64301L3 2.79999" stroke="currentColor" stroke-width="1.4" />
    <path d="M6.5 9.80005L3 8.80005" stroke="currentColor" stroke-width="1.5" />
    <path d="M6 16.3H3" stroke="currentColor" stroke-width="1.5" />
</svg>