<svg id="default" xmlns="http://www.w3.org/2000/svg" viewBox="0 0 24 24" fill="currentColor">
    <defs>
    <style>
    .rain {
    animation: rain 1.2s linear infinite;
    }

    @keyframes rain {
    to { transform: translate(0, 4.6px); }
    }
    </style>
    </defs>
  <mask id="mask0_2380_236" style="mask-type:alpha" maskUnits="userSpaceOnUse" x="5" y="15" width="14" height="6">
    <rect x="5" y="15.5" width="14" height="4.6" fill="white"/>
  </mask>
  <g mask="url(#mask0_2380_236)">
    <g class="rain">
        <rect width="1.4" height="2.3" x="5.8" y="10.9" />
        <rect width="1.4" height="2.3" x="11.3" y="10.9" />
        <rect width="1.4" height="2.3" x="16.8" y="10.9" />
        <rect width="1.4" height="2.3" x="8.6" y="13.2" />
        <rect width="1.4" height="2.3" x="14" y="13.2" />
        
        <rect width="1.4" height="2.3" x="5.8" y="15.5" />
        <rect width="1.4" height="2.3" x="11.3" y="15.5" />
        <rect width="1.4" height="2.3" x="16.8" y="15.5" />
        <rect width="1.4" height="2.3" x="8.6" y="17.8" />
        <rect width="1.4" height="2.3" x="14" y="17.8" />
    </g>
  </g>
  <path d="M2.75 9.64245C2.75 6.25023 5.50023 3.5 8.89245 3.5C11.396 3.50004 13.5468 4.99835 14.5037 7.14561C15.147 6.80231 15.8824 6.60755 16.6618 6.60755C19.1956 6.60775 21.2498 8.66199 21.25 11.1957V14.2306H2.75V9.64245ZM4.15797 12.8227H19.842V11.1957C19.8418 9.43937 18.4182 8.01572 16.6618 8.01552C15.876 8.01552 15.158 8.29963 14.6029 8.77155L13.7546 9.49222L13.4669 8.4171C12.9269 6.39587 11.0826 4.90801 8.89245 4.90797C6.27761 4.90797 4.15797 7.02761 4.15797 9.64245V12.8227Z"/>
</svg>