<svg xmlns="http://www.w3.org/2000/svg">
<symbol id="default" viewBox="0 0 24 24" fill="currentColor">
<path fill-rule="evenodd" clip-rule="evenodd"
d="M4 12.1747C4 17.2208 4.0046 21.3495 4.01021 21.3495C4.01583 21.3495 5.03701 20.8411 6.27952 20.2199C7.58168 19.5688 8.54893 19.0965 8.56299 19.105C8.5764 19.1132 9.29683 19.6517 10.164 20.3018C11.0311 20.9519 11.7524 21.491 11.7669 21.4998C11.7846 21.5105 12.3306 21.1129 13.4136 20.3006L15.0339 19.0853L17.2982 20.2174C18.5436 20.84 19.5671 21.3495 19.5726 21.3495C19.5782 21.3495 19.5828 17.2208 19.5828 12.1747V3H11.7914H4V12.1747ZM5.28161 11.778C5.28161 15.9011 5.28621 19.2745 5.29183 19.2745C5.29746 19.2745 6.06094 18.895 6.98846 18.4312L8.67484 17.588L10.2331 18.7568L11.7914 19.9256L13.3497 18.7568L14.908 17.588L16.5943 18.4312C17.5219 18.895 18.2853 19.2745 18.291 19.2745C18.2966 19.2745 18.3012 15.9011 18.3012 11.778V4.28161H11.7914H5.28161V11.778ZM8.21102 11.1271V11.7679H11.7914H15.3718V11.1271V10.4863H11.7914H8.21102V11.1271Z" />
<path d="M8.21103 15.1584V14.5176V13.8767H11.7914H13.6765V14.5176V15.1584H11.7914H8.21103Z" />
<path d="M8.21103 8.37733V7.73652V7.09571H11.7914H15.3718V7.73652V8.37733H11.7914H8.21103Z" />
</symbol>
<symbol id="active" viewBox="0 0 24 24" fill="currentColor">
<path d="M19.583 12.1748C19.583 17.2209 19.5779 21.3496 19.5723 21.3496C19.5518 21.3421 18.534 20.8358 17.2979 20.2178L15.0342 19.085L13.4141 20.3008C12.331 21.1131 11.7842 21.5107 11.7666 21.5C11.7479 21.488 11.0286 20.9499 10.1641 20.3018C9.30476 19.6575 8.58936 19.123 8.56348 19.1055C8.54942 19.097 7.58146 19.5686 6.2793 20.2197C5.03684 20.841 4.01538 21.3496 4.00977 21.3496C4.00416 21.3368 4 17.213 4 12.1748V3H19.583V12.1748ZM8.21094 15.1582H13.6768V13.877H8.21094V15.1582ZM8.21094 11.7676H15.3721V10.4863H8.21094V11.7676ZM8.21094 8.37695H15.3721V7.0957H8.21094V8.37695Z" fill="currentColor"/>
</symbol>
</svg>
