<svg xmlns="http://www.w3.org/2000/svg">
<symbol id="default" viewBox="0 0 24 24" fill="currentColor">
<path d="M9.62793 11.1191L7.15527 14.416L6.09961 13.625L7.97949 11.1191H6.33105V9.7998H9.62793V11.1191Z"/>
<path d="M13.8574 11.1191L11.3848 14.416L10.3291 13.625L12.209 11.1191H10.5605V9.7998H13.8574V11.1191Z"/>
<path d="M18.0996 11.1191L15.627 14.416L14.5713 13.625L16.4512 11.1191H14.8027V9.7998H18.0996V11.1191Z"/>
<path fill-rule="evenodd" clip-rule="evenodd" d="M21.2549 4.5L21.25 19.5H2.75L2.75488 4.5H21.2549ZM4.01367 18.2363H19.9863L19.9912 5.76367H4.01953L4.01367 18.2363Z"/>
</symbol>
<symbol id="active" viewBox="0 0 24 24" fill="currentColor">
<path fill-rule="evenodd" clip-rule="evenodd" d="M21.25 19.5H2.75L2.75488 4.5H21.2549L21.25 19.5ZM6.33105 9.7998V11.1191H7.97949L6.09961 13.625L7.15527 14.416L9.62793 11.1191V9.7998H6.33105ZM10.5605 9.7998V11.1191H12.209L10.3291 13.625L11.3848 14.416L13.8574 11.1191V9.7998H10.5605ZM14.8027 9.7998V11.1191H16.4512L14.5713 13.625L15.627 14.416L18.0996 11.1191V9.7998H14.8027Z" />
</symbol>
</svg>