<svg xmlns="http://www.w3.org/2000/svg" width="151" height="52" viewBox="0 0 151 52" fill="none">
  <path d="M138.132 0.333663H12.2631C11.8043 0.333663 11.351 0.333663 10.8934 0.33623C10.5104 0.338796 10.1304 0.346252 9.74365 0.352528C8.9035 0.362668 8.06532 0.43848 7.2364 0.579305C6.40865 0.723195 5.60683 0.994469 4.85805 1.38395C4.11019 1.77673 3.42685 2.28711 2.83282 2.89656C2.23567 3.5043 1.7379 4.20677 1.35865 4.97695C0.978356 5.7456 0.714657 6.56928 0.576664 7.41954C0.437358 8.26873 0.362396 9.1277 0.352452 9.98876C0.340841 10.3822 0.339614 10.777 0.333496 11.1705V40.8337C0.339614 41.2322 0.340841 41.6182 0.352452 42.0168C0.362399 42.8779 0.437361 43.7368 0.576664 44.5859C0.714276 45.4367 0.977991 46.2608 1.35865 47.0298C1.73773 47.7975 2.23557 48.4971 2.83282 49.1015C3.4246 49.7136 4.10838 50.2243 4.85805 50.6141C5.60682 51.0046 6.40856 51.2775 7.2364 51.4236C8.06546 51.5633 8.90355 51.6392 9.74365 51.6505C10.1304 51.6593 10.5104 51.6643 10.8934 51.6643C11.351 51.6668 11.8043 51.6668 12.2631 51.6668H138.132C138.582 51.6668 139.039 51.6668 139.489 51.6643C139.87 51.6643 140.261 51.6593 140.642 51.6505C141.481 51.6398 142.317 51.5639 143.144 51.4236C143.975 51.2765 144.78 51.0037 145.532 50.6141C146.281 50.2241 146.964 49.7134 147.555 49.1015C148.151 48.4947 148.65 47.7956 149.034 47.0298C149.412 46.2603 149.673 45.4362 149.808 44.5859C149.948 43.7367 150.026 42.8779 150.041 42.0168C150.045 41.6182 150.045 41.2322 150.045 40.8337C150.055 40.3675 150.055 39.9038 150.055 39.43V12.5717C150.055 12.1017 150.055 11.6355 150.045 11.1705C150.045 10.777 150.045 10.3822 150.041 9.98871C150.026 9.12758 149.948 8.26879 149.808 7.41949C149.672 6.56972 149.411 5.74611 149.034 4.9769C148.261 3.43315 147.037 2.17656 145.532 1.38384C144.78 0.995306 143.975 0.724104 143.144 0.579189C142.317 0.437745 141.481 0.361906 140.642 0.352348C140.261 0.346086 139.87 0.338565 139.489 0.336063C139.039 0.333496 138.582 0.333663 138.132 0.333663Z" fill="#A6A6A6" style="fill:#A6A6A6;fill:color(display-p3 0.6500 0.6500 0.6500);fill-opacity:1;"/>
  <path d="M10.8995 50.5434C10.5183 50.5434 10.1463 50.5384 9.76809 50.5297C8.98457 50.5192 8.20289 50.4492 7.42945 50.3204C6.70825 50.193 6.00961 49.956 5.35656 49.6172C4.7095 49.2813 4.11933 48.8408 3.60866 48.3126C3.09059 47.7906 2.65928 47.1852 2.33181 46.5204C2.00074 45.8513 1.77161 45.134 1.65242 44.3937C1.5237 43.5982 1.45406 42.7938 1.4441 41.9874C1.43617 41.7168 1.42578 40.8156 1.42578 40.8156V11.17C1.42578 11.17 1.43684 10.2827 1.44416 10.022C1.4537 9.21697 1.52294 8.41382 1.65127 7.61954C1.77068 6.87716 1.99998 6.15785 2.33124 5.48652C2.6575 4.82215 3.08642 4.21632 3.60136 3.69249C4.11573 3.16368 4.70779 2.72091 5.35595 2.38032C6.0075 2.04266 6.70482 1.80734 7.42456 1.68227C8.20054 1.55209 8.98493 1.48172 9.77116 1.47172L10.9001 1.45605H139.482L140.625 1.47235C141.404 1.48185 142.181 1.5516 142.95 1.68101C143.677 1.80765 144.382 2.04461 145.041 2.38408C146.339 3.07046 147.396 4.15639 148.062 5.48965C148.388 6.15635 148.614 6.86979 148.732 7.60576C148.862 8.40655 148.935 9.21601 148.949 10.0277C148.953 10.3911 148.953 10.7815 148.953 11.17C148.963 11.6513 148.963 12.1093 148.963 12.5711V39.4295C148.963 39.8957 148.963 40.3507 148.953 40.8093C148.953 41.2267 148.953 41.609 148.948 42.0025C148.934 42.7996 148.862 43.5946 148.734 44.3811C148.618 45.1268 148.39 45.8496 148.059 46.5243C147.729 47.1819 147.3 47.782 146.788 48.3026C146.277 48.8336 145.686 49.2767 145.037 49.6148C144.38 49.9561 143.676 50.194 142.95 50.3204C142.177 50.4499 141.395 50.5199 140.611 50.5297C140.245 50.5384 139.861 50.5434 139.489 50.5434L138.132 50.546L10.8995 50.5434Z" fill="black" style="fill:black;fill-opacity:1;"/>
  <path d="M31.3237 26.3861C31.3372 25.315 31.6146 24.2647 32.1301 23.3331C32.6456 22.4014 33.3825 21.6187 34.2722 21.0577C33.707 20.2297 32.9614 19.5483 32.0945 19.0677C31.2277 18.587 30.2635 18.3202 29.2785 18.2886C27.1775 18.0624 25.1406 19.5782 24.07 19.5782C22.9786 19.5782 21.3302 18.3111 19.5551 18.3486C18.4069 18.3866 17.2879 18.7291 16.3071 19.3426C15.3264 19.9561 14.5173 20.8197 13.9586 21.8493C11.5389 26.1464 13.3438 32.4618 15.6618 35.9352C16.8215 37.6361 18.1769 39.536 19.9504 39.4686C21.6858 39.3948 22.334 38.3335 24.4288 38.3335C26.5043 38.3335 27.1124 39.4686 28.9218 39.4258C30.7841 39.3948 31.9574 37.7174 33.0764 36.0004C33.9097 34.7885 34.5509 33.449 34.9762 32.0317C33.8943 31.5623 32.9711 30.7767 32.3215 29.7728C31.672 28.7688 31.325 27.591 31.3237 26.3861Z" fill="white" style="fill:white;fill-opacity:1;"/>
  <path d="M27.9058 16.004C28.9212 14.7538 29.4214 13.1468 29.3003 11.5244C27.749 11.6915 26.3161 12.452 25.287 13.6542C24.7838 14.2416 24.3985 14.9249 24.1529 15.6651C23.9074 16.4052 23.8065 17.1878 23.856 17.968C24.6319 17.9762 25.3995 17.8037 26.101 17.4635C26.8025 17.1233 27.4196 16.6243 27.9058 16.004Z" fill="white" style="fill:white;fill-opacity:1;"/>
  <path d="M53.2613 35.1626H47.3389L45.9167 39.4701H43.4082L49.0178 23.5337H51.624L57.2335 39.4701H54.6823L53.2613 35.1626ZM47.9523 33.175H52.6467L50.3325 26.1843H50.2678L47.9523 33.175Z" fill="white" style="fill:white;fill-opacity:1;"/>
  <path d="M69.3483 33.6613C69.3483 37.272 67.4642 39.5917 64.6209 39.5917C63.9006 39.6304 63.1843 39.4602 62.554 39.1007C61.9237 38.7412 61.4048 38.2069 61.0567 37.5589H61.0029V43.3139H58.6777V27.8513H60.9284V29.7838H60.9712C61.3352 29.1389 61.8629 28.6074 62.498 28.2457C63.1332 27.884 63.852 27.7057 64.5781 27.7297C67.4531 27.7297 69.3483 30.0607 69.3483 33.6613ZM66.9583 33.6613C66.9583 31.309 65.7731 29.7625 63.9647 29.7625C62.1882 29.7625 60.9932 31.3416 60.9932 33.6613C60.9932 36.0024 62.1882 37.5702 63.9647 37.5702C65.7731 37.5702 66.9583 36.035 66.9583 33.6613Z" fill="white" style="fill:white;fill-opacity:1;"/>
  <path d="M81.816 33.6613C81.816 37.2719 79.9319 39.5917 77.0887 39.5917C76.3684 39.6303 75.6521 39.4602 75.0218 39.1007C74.3914 38.7411 73.8725 38.2068 73.5245 37.5589H73.4707V43.3138H71.1455V27.8512H73.3962V29.7838H73.4389C73.803 29.1389 74.3306 28.6074 74.9658 28.2457C75.6009 27.884 76.3198 27.7057 77.0459 27.7297C79.9209 27.7297 81.816 30.0607 81.816 33.6613ZM79.4261 33.6613C79.4261 31.309 78.2409 29.7625 76.4325 29.7625C74.6559 29.7625 73.461 31.3415 73.461 33.6613C73.461 36.0024 74.6559 37.5702 76.4325 37.5702C78.2409 37.5702 79.4261 36.035 79.4261 33.6613Z" fill="white" style="fill:white;fill-opacity:1;"/>
  <path d="M90.0565 35.0299C90.2288 36.6103 91.7256 37.6479 93.7709 37.6479C95.7308 37.6479 97.1408 36.6102 97.1408 35.1852C97.1408 33.9483 96.2904 33.2076 94.2768 32.7L92.2632 32.2025C89.4101 31.4957 88.0856 30.1271 88.0856 27.9064C88.0856 25.1567 90.4218 23.2681 93.7392 23.2681C97.0223 23.2681 99.273 25.1567 99.3487 27.9064H97.0015C96.861 26.316 95.5793 25.356 93.7062 25.356C91.833 25.356 90.5513 26.3273 90.5513 27.7409C90.5513 28.8676 91.37 29.5306 93.3726 30.0381L95.0844 30.4692C98.2722 31.2425 99.5967 32.5559 99.5967 34.8869C99.5967 37.8684 97.2813 39.7357 93.5986 39.7357C90.153 39.7357 87.8266 37.9123 87.6763 35.0298L90.0565 35.0299Z" fill="white" style="fill:white;fill-opacity:1;"/>
  <path d="M104.615 25.1016V27.8512H106.769V29.7398H104.615V36.1452C104.615 37.1403 105.046 37.604 105.993 37.604C106.249 37.5994 106.504 37.581 106.758 37.5488V39.4262C106.332 39.5078 105.9 39.5447 105.467 39.5365C103.173 39.5365 102.279 38.6529 102.279 36.3996V29.7398H100.632V27.8512H102.279V25.1016H104.615Z" fill="white" style="fill:white;fill-opacity:1;"/>
  <path d="M108.017 33.6614C108.017 30.0057 110.116 27.7085 113.389 27.7085C116.673 27.7085 118.763 30.0057 118.763 33.6614C118.763 37.3272 116.684 39.6144 113.389 39.6144C110.095 39.6144 108.017 37.3272 108.017 33.6614ZM116.394 33.6614C116.394 31.1537 115.273 29.6736 113.389 29.6736C111.505 29.6736 110.386 31.165 110.386 33.6614C110.386 36.1792 111.505 37.648 113.389 37.648C115.273 37.648 116.394 36.1792 116.394 33.6614Z" fill="white" style="fill:white;fill-opacity:1;"/>
  <path d="M120.68 27.8511H122.897V29.8288H122.951C123.101 29.2111 123.454 28.6653 123.95 28.283C124.446 27.9007 125.056 27.7053 125.676 27.7296C125.944 27.7286 126.211 27.7584 126.473 27.8185V30.0493C126.134 29.9433 125.781 29.8946 125.428 29.9052C125.09 29.8912 124.753 29.9522 124.441 30.0843C124.128 30.2163 123.847 30.4162 123.617 30.6701C123.387 30.9241 123.213 31.2261 123.107 31.5555C123.002 31.8849 122.967 32.2339 123.005 32.5784V39.47H120.68L120.68 27.8511Z" fill="white" style="fill:white;fill-opacity:1;"/>
  <path d="M137.193 36.0577C136.88 38.1669 134.878 39.6144 132.315 39.6144C129.02 39.6144 126.975 37.3497 126.975 33.7166C126.975 30.0721 129.031 27.7085 132.218 27.7085C135.352 27.7085 137.323 29.9167 137.323 33.4396V34.2567H129.322V34.4009C129.285 34.8285 129.337 35.2592 129.475 35.6646C129.613 36.0699 129.833 36.4405 130.121 36.7518C130.41 37.063 130.759 37.3078 131.147 37.4699C131.534 37.632 131.951 37.7077 132.369 37.6919C132.919 37.7447 133.47 37.6142 133.941 37.3197C134.413 37.0253 134.779 36.5826 134.985 36.0576L137.193 36.0577ZM129.333 32.5899H134.996C135.017 32.2054 134.96 31.8207 134.829 31.4598C134.698 31.0989 134.496 30.7697 134.235 30.4928C133.974 30.2159 133.66 29.9973 133.313 29.8507C132.966 29.7041 132.593 29.6327 132.218 29.641C131.839 29.6387 131.464 29.7133 131.113 29.8606C130.763 30.0078 130.444 30.2248 130.176 30.4989C129.908 30.7731 129.695 31.099 129.551 31.4579C129.406 31.8168 129.332 32.2015 129.333 32.5899Z" fill="white" style="fill:white;fill-opacity:1;"/>
  <path d="M47.661 11.538C48.1485 11.5021 48.6376 11.5776 49.0932 11.7591C49.5488 11.9407 49.9594 12.2236 50.2955 12.5876C50.6315 12.9516 50.8846 13.3875 51.0365 13.864C51.1884 14.3404 51.2353 14.8455 51.1738 15.3429C51.1738 17.7892 49.8848 19.1954 47.661 19.1954H44.9644V11.538H47.661ZM46.1239 18.1125H47.5315C47.8798 18.1338 48.2284 18.0753 48.5519 17.941C48.8754 17.8067 49.1656 17.6002 49.4014 17.3364C49.6373 17.0726 49.8128 16.7582 49.9152 16.416C50.0176 16.0738 50.0444 15.7126 49.9935 15.3585C50.0407 15.0058 50.0112 14.6467 49.9072 14.3071C49.8032 13.9674 49.6273 13.6556 49.392 13.3939C49.1567 13.1321 48.8679 12.9271 48.5462 12.7933C48.2245 12.6595 47.878 12.6004 47.5315 12.6201H46.1239V18.1125Z" fill="white" style="fill:white;fill-opacity:1;"/>
  <path d="M52.4838 16.3035C52.4483 15.9238 52.4907 15.5406 52.6081 15.1786C52.7255 14.8166 52.9154 14.4838 53.1656 14.2015C53.4157 13.9192 53.7207 13.6936 54.0608 13.5393C54.4009 13.3849 54.7688 13.3052 55.1407 13.3052C55.5126 13.3052 55.8805 13.3849 56.2206 13.5393C56.5607 13.6936 56.8657 13.9192 57.1158 14.2015C57.366 14.4838 57.5559 14.8166 57.6733 15.1786C57.7907 15.5406 57.833 15.9238 57.7976 16.3035C57.8337 16.6837 57.7919 17.0674 57.6748 17.4299C57.5577 17.7925 57.3679 18.1259 57.1177 18.4088C56.8674 18.6917 56.5623 18.9177 56.2218 19.0724C55.8813 19.2271 55.5131 19.307 55.1407 19.307C54.7683 19.307 54.4 19.2271 54.0596 19.0724C53.7191 18.9177 53.4139 18.6917 53.1637 18.4088C52.9135 18.1259 52.7237 17.7925 52.6066 17.4299C52.4895 17.0674 52.4477 16.6837 52.4838 16.3035ZM56.654 16.3035C56.654 15.0509 56.1053 14.3184 55.1425 14.3184C54.176 14.3184 53.6323 15.0509 53.6323 16.3035C53.6323 17.5662 54.1761 18.2931 55.1425 18.2931C56.1054 18.2931 56.654 17.5612 56.654 16.3035Z" fill="white" style="fill:white;fill-opacity:1;"/>
  <path d="M64.8609 19.1952H63.7075L62.543 14.9392H62.4551L61.2955 19.1952H60.1531L58.6001 13.4165H59.7279L60.7371 17.826H60.8202L61.9785 13.4165H63.0452L64.2035 17.826H64.2915L65.2959 13.4165H66.4078L64.8609 19.1952Z" fill="white" style="fill:white;fill-opacity:1;"/>
  <path d="M67.7139 13.4166H68.7842V14.3346H68.8673C69.0083 14.0048 69.246 13.7284 69.5474 13.5439C69.8487 13.3593 70.1987 13.2758 70.5486 13.305C70.8227 13.2839 71.098 13.3263 71.354 13.429C71.61 13.5318 71.8401 13.6924 72.0274 13.8988C72.2147 14.1052 72.3543 14.3522 72.4359 14.6215C72.5174 14.8907 72.5389 15.1754 72.4987 15.4543V19.1952H71.3868V15.7407C71.3868 14.8121 70.9933 14.3502 70.171 14.3502C69.9849 14.3413 69.7991 14.3738 69.6264 14.4455C69.4536 14.5171 69.2981 14.6262 69.1703 14.7653C69.0425 14.9044 68.9456 15.0702 68.8861 15.2513C68.8266 15.4324 68.806 15.6246 68.8258 15.8146V19.1953H67.7139L67.7139 13.4166Z" fill="white" style="fill:white;fill-opacity:1;"/>
  <path d="M74.2705 11.1606H75.3824V19.1952H74.2705V11.1606Z" fill="white" style="fill:white;fill-opacity:1;"/>
  <path d="M76.9281 16.3031C76.8927 15.9234 76.9351 15.5402 77.0525 15.1782C77.1699 14.8162 77.3598 14.4833 77.61 14.201C77.8602 13.9187 78.1652 13.6931 78.5053 13.5388C78.8455 13.3844 79.2133 13.3047 79.5853 13.3047C79.9573 13.3047 80.3251 13.3844 80.6653 13.5388C81.0054 13.6931 81.3104 13.9187 81.5606 14.201C81.8108 14.4833 82.0007 14.8162 82.1181 15.1782C82.2356 15.5402 82.2779 15.9234 82.2425 16.3031C82.2786 16.6833 82.2367 17.067 82.1196 17.4296C82.0024 17.7921 81.8126 18.1256 81.5624 18.4084C81.3121 18.6913 81.0069 18.9173 80.6665 19.072C80.326 19.2267 79.9577 19.3066 79.5853 19.3066C79.2129 19.3066 78.8446 19.2267 78.5041 19.072C78.1637 18.9173 77.8585 18.6913 77.6082 18.4084C77.358 18.1256 77.1682 17.7921 77.051 17.4296C76.9339 17.067 76.892 16.6833 76.9281 16.3031ZM81.0983 16.3031C81.0983 15.0505 80.5496 14.318 79.5868 14.318C78.6203 14.318 78.0767 15.0505 78.0767 16.3032C78.0767 17.5658 78.6204 18.2927 79.5868 18.2927C80.5497 18.2927 81.0983 17.5608 81.0983 16.3031Z" fill="white" style="fill:white;fill-opacity:1;"/>
  <path d="M83.4131 17.5612C83.4131 16.521 84.1682 15.9213 85.5086 15.8361L87.0347 15.7459V15.2471C87.0347 14.6367 86.6412 14.2921 85.8812 14.2921C85.2605 14.2921 84.8305 14.5258 84.707 14.9344H83.6306C83.7442 13.9418 84.6545 13.3052 85.9326 13.3052C87.345 13.3052 88.1417 14.0264 88.1417 15.2471V19.1955H87.0713V18.3833H86.9834C86.8048 18.6747 86.5541 18.9121 86.2567 19.0715C85.9594 19.2309 85.6262 19.3066 85.2911 19.2907C85.0546 19.3159 84.8155 19.29 84.5894 19.2147C84.3632 19.1394 84.1549 19.0162 83.978 18.8533C83.801 18.6904 83.6594 18.4912 83.5621 18.2686C83.4648 18.0461 83.414 17.8051 83.4131 17.5612ZM87.0347 17.0674V16.5843L85.6589 16.6745C84.883 16.7278 84.5311 16.9985 84.5311 17.5079C84.5311 18.028 84.9709 18.3307 85.5758 18.3307C85.753 18.3491 85.9321 18.3307 86.1022 18.2767C86.2724 18.2227 86.4302 18.1341 86.5663 18.0163C86.7025 17.8984 86.8141 17.7537 86.8945 17.5907C86.975 17.4277 87.0226 17.2497 87.0347 17.0674Z" fill="white" style="fill:white;fill-opacity:1;"/>
  <path d="M89.603 16.3034C89.603 14.4774 90.5182 13.3206 91.9417 13.3206C92.2938 13.304 92.6432 13.3905 92.9492 13.57C93.2551 13.7496 93.5049 14.0147 93.6694 14.3345H93.7525V11.1606H94.8644V19.1952H93.7989V18.2822H93.7109C93.5338 18.5998 93.2752 18.8617 92.9634 19.0394C92.6515 19.2171 92.2982 19.3039 91.9417 19.2905C90.5084 19.2905 89.603 18.1338 89.603 16.3034ZM90.7516 16.3034C90.7516 17.5291 91.3149 18.2666 92.257 18.2666C93.1941 18.2666 93.7733 17.5184 93.7733 16.3084C93.7733 15.104 93.188 14.3452 92.257 14.3452C91.321 14.3452 90.7516 15.0877 90.7516 16.3034Z" fill="white" style="fill:white;fill-opacity:1;"/>
  <path d="M99.4647 16.3035C99.4293 15.9238 99.4716 15.5406 99.5891 15.1786C99.7065 14.8166 99.8964 14.4838 100.147 14.2015C100.397 13.9192 100.702 13.6936 101.042 13.5393C101.382 13.3849 101.75 13.3052 102.122 13.3052C102.494 13.3052 102.861 13.3849 103.202 13.5393C103.542 13.6936 103.847 13.9192 104.097 14.2015C104.347 14.4838 104.537 14.8166 104.654 15.1786C104.772 15.5406 104.814 15.9238 104.779 16.3035C104.815 16.6837 104.773 17.0674 104.656 17.4299C104.539 17.7925 104.349 18.1259 104.099 18.4088C103.848 18.6917 103.543 18.9177 103.203 19.0724C102.862 19.2271 102.494 19.307 102.122 19.307C101.749 19.307 101.381 19.2271 101.041 19.0724C100.7 18.9177 100.395 18.6917 100.145 18.4088C99.8944 18.1259 99.7047 17.7925 99.5876 17.4299C99.4705 17.0674 99.4286 16.6837 99.4647 16.3035ZM103.635 16.3035C103.635 15.0509 103.086 14.3184 102.123 14.3184C101.157 14.3184 100.613 15.0509 100.613 16.3035C100.613 17.5662 101.157 18.2931 102.123 18.2931C103.086 18.2931 103.635 17.5612 103.635 16.3035Z" fill="white" style="fill:white;fill-opacity:1;"/>
  <path d="M106.271 13.4166H107.341V14.3346H107.424C107.565 14.0048 107.803 13.7284 108.104 13.5439C108.405 13.3593 108.755 13.2758 109.105 13.305C109.379 13.2839 109.655 13.3263 109.911 13.429C110.167 13.5318 110.397 13.6924 110.584 13.8988C110.771 14.1052 110.911 14.3522 110.993 14.6215C111.074 14.8907 111.096 15.1754 111.055 15.4543V19.1952H109.943V15.7407C109.943 14.8121 109.55 14.3502 108.728 14.3502C108.542 14.3413 108.356 14.3738 108.183 14.4455C108.01 14.5171 107.855 14.6262 107.727 14.7653C107.599 14.9044 107.502 15.0702 107.443 15.2513C107.383 15.4324 107.363 15.6246 107.382 15.8146V19.1953H106.271V13.4166Z" fill="white" style="fill:white;fill-opacity:1;"/>
  <path d="M117.338 11.978V13.4431H118.559V14.4037H117.338V17.3752C117.338 17.9805 117.581 18.2455 118.135 18.2455C118.276 18.2451 118.418 18.2363 118.559 18.2192V19.1692C118.359 19.2058 118.157 19.2253 117.954 19.2274C116.717 19.2274 116.225 18.7813 116.225 17.6672V14.4036H115.331V13.443H116.225V11.978H117.338Z" fill="white" style="fill:white;fill-opacity:1;"/>
  <path d="M120.078 11.1606H121.18V14.3452H121.268C121.416 14.0124 121.66 13.7344 121.967 13.5492C122.275 13.3639 122.63 13.2804 122.986 13.31C123.258 13.2948 123.531 13.3415 123.784 13.4467C124.037 13.552 124.264 13.7133 124.45 13.9191C124.635 14.1248 124.774 14.37 124.856 14.6371C124.938 14.9042 124.962 15.1867 124.926 15.4643V19.1952H123.813V15.7457C123.813 14.8226 123.394 14.3552 122.608 14.3552C122.417 14.3391 122.225 14.366 122.045 14.4341C121.865 14.5022 121.702 14.6098 121.567 14.7493C121.432 14.8889 121.328 15.057 121.263 15.242C121.198 15.427 121.173 15.6243 121.19 15.8202V19.1952H120.078L120.078 11.1606Z" fill="white" style="fill:white;fill-opacity:1;"/>
  <path d="M131.409 17.6348C131.258 18.1629 130.93 18.6197 130.484 18.9254C130.038 19.231 129.501 19.3659 128.967 19.3066C128.596 19.3166 128.227 19.2437 127.886 19.0929C127.545 18.9421 127.241 18.7169 126.993 18.4332C126.745 18.1494 126.561 17.8137 126.452 17.4495C126.344 17.0852 126.314 16.7011 126.365 16.3239C126.315 15.9454 126.346 15.5605 126.454 15.1952C126.562 14.8299 126.746 14.4926 126.992 14.2064C127.238 13.9201 127.542 13.6914 127.882 13.5359C128.222 13.3803 128.59 13.3015 128.963 13.3048C130.53 13.3048 131.476 14.4033 131.476 16.2179V16.6159H127.498V16.6798C127.48 16.8919 127.506 17.1053 127.574 17.3065C127.642 17.5076 127.749 17.6921 127.891 17.8479C128.032 18.0038 128.203 18.1277 128.394 18.2116C128.585 18.2955 128.79 18.3377 128.998 18.3353C129.264 18.368 129.533 18.3189 129.772 18.1942C130.011 18.0694 130.208 17.8747 130.338 17.6347L131.409 17.6348ZM127.497 15.7724H130.343C130.357 15.5785 130.331 15.3837 130.268 15.2005C130.204 15.0174 130.104 14.8499 129.973 14.7089C129.842 14.568 129.684 14.4566 129.509 14.3819C129.334 14.3072 129.146 14.271 128.956 14.2754C128.764 14.273 128.573 14.31 128.395 14.3843C128.217 14.4587 128.055 14.5689 127.919 14.7084C127.783 14.8479 127.676 15.0139 127.603 15.1967C127.531 15.3794 127.495 15.5752 127.497 15.7724Z" fill="white" style="fill:white;fill-opacity:1;"/>
</svg>