<svg width="178" height="56" viewBox="0 0 178 56" fill="none" xmlns="http://www.w3.org/2000/svg">
<path d="M175.583 8.58215C175.583 8.52614 175.583 8.47813 175.576 8.42213C175.415 5.14979 172.903 2.58953 169.655 2.3495C169.607 2.3495 169.551 2.3415 169.495 2.3415C169.383 2.3335 169.271 2.3335 169.159 2.3335H8.75016C8.63815 2.3335 8.52614 2.3335 8.41413 2.3415C8.35812 2.3415 8.31012 2.3495 8.25411 2.3495C5.00577 2.58953 2.49351 5.14979 2.3415 8.42213C2.3415 8.47813 2.3335 8.52614 2.3335 8.58215C2.3335 8.63815 2.3335 8.69416 2.3335 8.75017V47.2502C2.3335 50.8425 5.15779 53.6668 8.75016 53.6668H169.167C172.759 53.6668 175.583 50.8425 175.583 47.2502V8.75017C175.583 8.69416 175.583 8.63815 175.583 8.58215Z" fill="#010101" style="fill:#010101;fill:color(display-p3 0.0039 0.0039 0.0039);fill-opacity:1;"/>
<path d="M175.583 8.58215C175.583 8.52614 175.584 8.47813 175.576 8.42213C175.415 5.2618 172.903 2.59753 169.655 2.3495C169.607 2.3495 169.551 2.3415 169.495 2.3415C169.383 2.3335 169.271 2.3335 169.159 2.3335H8.75016C8.63815 2.3335 8.52614 2.3335 8.41413 2.3415C8.35812 2.3415 8.31012 2.3495 8.25411 2.3495C5.00578 2.59753 2.50152 5.2618 2.3415 8.42213C2.3415 8.47813 2.3335 8.52614 2.3335 8.58215C2.3335 8.63815 2.3335 8.69416 2.3335 8.75017V47.2502C2.3335 50.8425 5.15779 53.6668 8.75016 53.6668H169.167C172.759 53.6668 175.583 50.8425 175.583 47.2502V8.75017C175.583 8.69416 175.583 8.63815 175.583 8.58215ZM174.559 47.2502C174.559 50.2025 172.119 52.6427 169.167 52.6427H8.75016C5.79786 52.6427 3.3576 50.2025 3.3576 47.2502V8.75017C3.3576 5.79786 5.79786 3.3576 8.75016 3.3576H169.167C172.119 3.3576 174.559 5.79786 174.559 8.75017V47.2502Z" fill="#A7A6A6" style="fill:#A7A6A6;fill:color(display-p3 0.6549 0.6510 0.6510);fill-opacity:1;"/>
<path d="M15.679 11.9585C15.295 12.3425 15.167 12.9826 15.167 13.7587V42.1216C15.167 42.8897 15.423 43.5298 15.8071 43.9218L15.9351 44.0498L31.8487 28.1362V27.8802L15.679 11.9585Z" fill="url(#paint0_linear_21368_41458)" style=""/>
<path d="M36.9853 33.5206L31.7207 28.256V27.872L36.9853 22.6074L37.1133 22.7354L43.4019 26.3278C45.2021 27.3519 45.2021 29.0241 43.4019 30.0482L36.9853 33.5206Z" fill="url(#paint1_linear_21368_41458)" style=""/>
<path d="M37.1134 33.3926L31.7209 28L15.6792 44.0417C16.3193 44.6817 17.2154 44.6817 18.3755 44.1697L37.1134 33.3926Z" fill="url(#paint2_linear_21368_41458)" style=""/>
<path d="M37.1134 22.6075L18.3755 11.9584C17.2234 11.3183 16.3193 11.4464 15.6792 12.0864L31.7209 28.0001L37.1134 22.6075Z" fill="url(#paint3_linear_21368_41458)" style=""/>
<path opacity="0.2" d="M36.9854 33.2646L18.3755 43.7857C17.3514 44.4258 16.4473 44.2978 15.8072 43.7857L15.6792 43.9138L15.8072 44.0418C16.4473 44.5538 17.3434 44.6818 18.3755 44.0418L36.9854 33.2646Z" fill="#010101" style="fill:#010101;fill:color(display-p3 0.0039 0.0039 0.0039);fill-opacity:1;"/>
<path opacity="0.12" d="M15.679 43.7856C15.295 43.4016 15.167 42.7615 15.167 41.9854V42.1135C15.167 42.8815 15.423 43.5216 15.8071 43.9137V43.7856H15.679ZM43.4019 29.6722L36.9853 33.2645L37.1133 33.3926L43.4019 29.8002C44.298 29.2881 44.6821 28.6481 44.6821 28C44.6821 28.6401 44.17 29.1521 43.4019 29.6722Z" fill="#010101" style="fill:#010101;fill:color(display-p3 0.0039 0.0039 0.0039);fill-opacity:1;"/>
<path opacity="0.25" d="M18.3753 12.0863L43.4019 26.3278C44.17 26.8398 44.6821 27.3519 44.6821 27.9999C44.6821 27.3599 44.298 26.7198 43.4019 26.1997L18.3753 11.9583C16.5751 10.9342 15.167 11.7022 15.167 13.7585V13.8865C15.167 11.9583 16.5751 11.0622 18.3753 12.0863Z" fill="white" style="fill:white;fill-opacity:1;"/>
<path d="M57.1099 16.0417C56.3338 16.0417 55.6937 15.6576 55.0536 15.1456C54.4136 14.6335 54.1576 13.8575 54.1496 12.9614C54.1496 12.0573 54.4056 11.2892 55.0456 10.7771C55.5657 10.1371 56.3338 9.88104 57.1018 9.88104C58.0059 9.88104 58.646 10.1371 59.1581 10.7771L59.7981 10.1371C59.5421 9.75303 59.1581 9.497 58.646 9.24098C58.134 8.98495 57.6219 8.85693 57.1099 8.85693C55.9497 8.85693 55.0536 9.24098 54.2856 10.0091C53.5175 10.7771 53.1334 11.6812 53.1334 12.8333C53.1334 13.9935 53.5175 14.8896 54.2856 15.6576C55.0536 16.4257 55.9577 16.8098 57.1099 16.8098C58.27 16.8098 59.1661 16.4257 59.9341 15.6576C60.5742 15.0176 60.8302 14.1135 60.8302 13.0894V12.5773H57.1099V13.6014H59.9341C59.9341 14.2495 59.6781 14.7615 59.2941 15.1456C58.646 15.7857 58.0059 16.0417 57.1099 16.0417Z" fill="white" style="fill:white;fill-opacity:1;"/>
<path d="M67.1189 24.2585C65.7027 22.9704 63.9106 21.9463 61.3423 21.9463C56.7258 21.9463 52.7414 25.7947 52.7334 30.4272C52.7334 35.0517 56.7178 38.9001 61.3343 38.9001C63.9026 38.9001 65.6947 38.132 67.2389 36.4598C68.7831 34.9156 69.2951 32.7314 69.2951 31.0672C69.2951 30.5472 69.2951 30.0351 69.1671 29.6511H61.2143V31.9633H66.7349C66.6068 33.2515 66.0948 34.2756 65.4547 34.9156C64.6866 35.6837 63.4065 36.5798 61.2223 36.5798C57.7579 36.5798 55.1896 33.8835 55.1896 30.4192C55.1896 26.9548 57.8859 24.2585 61.2223 24.2585C63.0145 24.2585 64.4306 25.0266 65.4547 25.9227L67.1189 24.2585Z" fill="white" style="fill:white;fill-opacity:1;"/>
<path d="M66.4788 13.2174V12.3213H63.2705V9.88104H66.7349V8.98495H62.2464V16.6818H66.7349V15.6576H63.2705V13.2174H66.4788Z" fill="white" style="fill:white;fill-opacity:1;"/>
<path d="M75.4558 39.0121C78.5361 39.0121 80.9763 36.6998 80.9763 33.4915C80.9763 30.1551 78.5361 27.9789 75.4558 27.9709C72.3754 27.9709 69.9352 30.2832 69.9352 33.4915C69.9352 36.5718 72.3754 39.0121 75.4558 39.0121Z" fill="white" style="fill:white;fill-opacity:1;"/>
<path d="M76.8719 8.98495V16.6818H77.896V8.98495H76.8719Z" fill="white" style="fill:white;fill-opacity:1;"/>
<path d="M102.155 29.131C101.514 28.491 100.482 27.8509 99.2022 27.8509C96.506 27.8509 93.9377 30.2832 93.9377 33.3715C93.9377 36.4518 96.3779 38.764 99.2022 38.764C100.49 38.764 101.514 38.124 102.027 37.4839H102.155V38.252C102.155 40.3082 101.002 41.4603 99.2022 41.4603C97.7861 41.4603 96.762 40.4282 96.506 39.5321L94.4497 40.4282C95.0978 41.8364 96.634 43.6366 99.3302 43.6366C102.155 43.6366 104.467 41.9644 104.467 37.988V28.235H102.155V29.131Z" fill="white" style="fill:white;fill-opacity:1;"/>
<path d="M97.018 8.98495V16.6818H97.9141V10.3931L101.891 16.6818H102.915V8.98495H101.891V15.0176L98.1701 8.98495H97.018Z" fill="white" style="fill:white;fill-opacity:1;"/>
<path d="M91.6254 16.8098C92.7776 16.8098 93.6817 16.4257 94.4497 15.6576C95.2258 14.8896 95.6099 13.9855 95.6019 12.8333C95.6019 11.6812 95.2178 10.7771 94.4497 10.0091C93.6817 9.24098 92.7776 8.85693 91.6254 8.85693C90.4653 8.85693 89.5692 9.24098 88.8011 10.0091C88.0331 10.7771 87.649 11.6812 87.649 12.8333C87.649 13.9935 88.0331 14.8896 88.8011 15.6576C89.5692 16.4257 90.4733 16.8098 91.6254 16.8098Z" fill="white" style="fill:white;fill-opacity:1;"/>
<path d="M87.393 39.0121C90.4733 39.0121 92.9136 36.6998 92.9136 33.4915C92.9136 30.1551 90.4733 27.9789 87.393 27.9709C84.3127 27.9709 81.8724 30.2832 81.8724 33.4915C81.8724 36.5718 84.3127 39.0121 87.393 39.0121Z" fill="white" style="fill:white;fill-opacity:1;"/>
<path d="M82.1285 9.88104H84.3127V8.98495H79.0481V9.88104H81.2324V16.6818H82.1285V9.88104Z" fill="white" style="fill:white;fill-opacity:1;"/>
<path d="M70.9673 9.88104H73.1515V8.98495H67.759V9.88104H69.9432V16.6818H70.9673V9.88104Z" fill="white" style="fill:white;fill-opacity:1;"/>
<path d="M106.003 22.4584V38.5H108.443V22.4584H106.003Z" fill="white" style="fill:white;fill-opacity:1;"/>
<path d="M117.812 35.2917C117.172 36.1878 116.396 36.8278 115.116 36.8278C113.836 36.8278 113.06 36.3158 112.428 35.1557L119.74 32.0753L119.484 31.4353C118.972 30.1552 117.692 27.9709 114.868 27.9709C112.044 27.9709 109.731 30.1551 109.731 33.4915C109.731 36.5718 112.044 39.0121 115.124 39.0121C117.556 39.0121 119.1 37.4679 119.612 36.5718L117.812 35.2917Z" fill="white" style="fill:white;fill-opacity:1;"/>
<path d="M124.869 22.4584V38.5V38.508H127.309V32.4754H130.646C133.342 32.4754 135.91 30.5472 135.91 27.4669C135.91 24.3865 133.342 22.4584 130.646 22.4584H124.869Z" fill="white" style="fill:white;fill-opacity:1;"/>
<path d="M137.19 22.4584V38.5H139.63V22.4584H137.19Z" fill="white" style="fill:white;fill-opacity:1;"/>
<path d="M143.471 31.1793C143.983 30.2832 144.759 30.0271 145.655 30.0271C146.943 30.0271 148.095 30.8032 148.215 32.0834V32.2114C147.831 31.9553 146.799 31.5713 145.775 31.5713C143.471 31.5713 141.159 32.8514 141.159 35.1637C141.159 37.3479 143.079 38.756 145.135 38.756C146.807 38.756 147.575 37.98 148.215 37.2119H148.343V38.492H150.656V32.3314C150.4 29.5071 148.215 27.8429 145.519 27.8429C143.727 27.8429 141.927 28.619 141.287 30.2832L143.471 31.1793Z" fill="white" style="fill:white;fill-opacity:1;"/>
<path d="M152.328 43.3805H154.768L161.321 28.235H158.752L156.056 35.1637H155.928L153.104 28.235H150.536L154.768 37.988L152.328 43.3805Z" fill="white" style="fill:white;fill-opacity:1;"/>
<path d="M112.036 33.2359C112.036 31.1796 113.708 30.0275 114.86 30.0275C115.756 30.0275 116.652 30.5476 116.916 31.1796L112.036 33.2359Z" fill="#010101" style="fill:#010101;fill:color(display-p3 0.0039 0.0039 0.0039);fill-opacity:1;"/>
<path d="M127.309 30.1555V24.643V24.635H130.774C132.574 24.635 133.598 26.1791 133.598 27.3312C133.598 27.3313 133.598 27.3314 133.598 27.3314C133.598 27.334 133.598 27.3366 133.598 27.3392C133.47 28.7554 132.446 30.1635 130.774 30.1635H127.309V30.1555Z" fill="#010101" style="fill:#010101;fill:color(display-p3 0.0039 0.0039 0.0039);fill-opacity:1;"/>
<path d="M143.351 35.2921C143.351 34.0039 144.767 33.6199 145.919 33.6199C146.951 33.6199 147.463 33.8759 148.104 34.132C147.847 35.6761 146.559 36.7002 145.279 36.7002C144.503 36.7002 143.351 36.3162 143.351 35.2921Z" fill="#010101" style="fill:#010101;fill:color(display-p3 0.0039 0.0039 0.0039);fill-opacity:1;"/>
<path d="M91.6256 9.75342C92.4017 9.75342 93.1698 10.1375 93.6819 10.6495C94.3219 11.1616 94.578 11.9376 94.578 12.8337C94.578 13.7378 94.1939 14.5059 93.6819 15.018C93.1618 15.658 92.3937 15.9141 91.6256 15.9141C90.8496 15.9141 90.0815 15.53 89.5694 15.018C88.9294 14.5059 88.6733 13.7298 88.6733 12.8337C88.6733 11.9296 89.0574 11.1616 89.5694 10.6495C90.0895 10.0094 90.8576 9.75342 91.6256 9.75342Z" fill="#010101" style="fill:#010101;fill:color(display-p3 0.0039 0.0039 0.0039);fill-opacity:1;"/>
<path d="M84.313 33.3637C84.313 31.4355 85.7211 30.0273 87.3933 30.0273C89.0655 30.0273 90.4736 31.3075 90.4736 33.3637C90.4736 35.2919 89.0575 36.7 87.3933 36.7C85.7211 36.7 84.313 35.2919 84.313 33.3637Z" fill="#010101" style="fill:#010101;fill:color(display-p3 0.0039 0.0039 0.0039);fill-opacity:1;"/>
<path d="M96.2502 33.3637C96.2502 31.4355 97.6584 30.0273 99.3306 30.0273C101.003 30.0273 102.283 31.4355 102.283 33.3637C102.283 35.2919 100.995 36.7 99.3306 36.7C97.6584 36.7 96.2502 35.2919 96.2502 33.3637Z" fill="#010101" style="fill:#010101;fill:color(display-p3 0.0039 0.0039 0.0039);fill-opacity:1;"/>
<path d="M72.3755 33.3637C72.3755 31.4355 73.7916 30.0273 75.4558 30.0273C77.128 30.0273 78.5361 31.3075 78.5361 33.3637C78.5361 35.2919 77.128 36.7 75.4558 36.7C73.7836 36.7 72.3755 35.2919 72.3755 33.3637Z" fill="#010101" style="fill:#010101;fill:color(display-p3 0.0039 0.0039 0.0039);fill-opacity:1;"/>
<defs>
<linearGradient id="paint0_linear_21368_41458" x1="30.3036" y1="13.5016" x2="8.7651" y2="35.0386" gradientUnits="userSpaceOnUse">
<stop stop-color="#4998D3" style="stop-color:#4998D3;stop-color:color(display-p3 0.2863 0.5961 0.8275);stop-opacity:1;"/>
<stop offset="0.007" stop-color="#4A99D3" style="stop-color:#4A99D3;stop-color:color(display-p3 0.2902 0.6000 0.8275);stop-opacity:1;"/>
<stop offset="0.26" stop-color="#42BAEB" style="stop-color:#42BAEB;stop-color:color(display-p3 0.2588 0.7294 0.9216);stop-opacity:1;"/>
<stop offset="0.512" stop-color="#41C7F2" style="stop-color:#41C7F2;stop-color:color(display-p3 0.2549 0.7804 0.9490);stop-opacity:1;"/>
<stop offset="0.76" stop-color="#56C9E9" style="stop-color:#56C9E9;stop-color:color(display-p3 0.3373 0.7882 0.9137);stop-opacity:1;"/>
<stop offset="1" stop-color="#5BCAE8" style="stop-color:#5BCAE8;stop-color:color(display-p3 0.3569 0.7922 0.9098);stop-opacity:1;"/>
</linearGradient>
<linearGradient id="paint1_linear_21368_41458" x1="45.7526" y1="28.06" x2="14.699" y2="28.06" gradientUnits="userSpaceOnUse">
<stop stop-color="#FEE000" style="stop-color:#FEE000;stop-color:color(display-p3 0.9961 0.8784 0.0000);stop-opacity:1;"/>
<stop offset="0.409" stop-color="#FEBD11" style="stop-color:#FEBD11;stop-color:color(display-p3 0.9961 0.7412 0.0667);stop-opacity:1;"/>
<stop offset="0.775" stop-color="#FAA51A" style="stop-color:#FAA51A;stop-color:color(display-p3 0.9804 0.6471 0.1020);stop-opacity:1;"/>
<stop offset="1" stop-color="#F99C1C" style="stop-color:#F99C1C;stop-color:color(display-p3 0.9765 0.6118 0.1098);stop-opacity:1;"/>
</linearGradient>
<linearGradient id="paint2_linear_21368_41458" x1="34.1797" y1="30.9284" x2="4.97226" y2="60.1344" gradientUnits="userSpaceOnUse">
<stop stop-color="#EF4049" style="stop-color:#EF4049;stop-color:color(display-p3 0.9373 0.2510 0.2863);stop-opacity:1;"/>
<stop offset="1" stop-color="#C31E63" style="stop-color:#C31E63;stop-color:color(display-p3 0.7647 0.1176 0.3882);stop-opacity:1;"/>
</linearGradient>
<linearGradient id="paint3_linear_21368_41458" x1="11.6515" y1="2.60114" x2="24.6943" y2="15.644" gradientUnits="userSpaceOnUse">
<stop stop-color="#32A072" style="stop-color:#32A072;stop-color:color(display-p3 0.1961 0.6275 0.4471);stop-opacity:1;"/>
<stop offset="0.069" stop-color="#2DA771" style="stop-color:#2DA771;stop-color:color(display-p3 0.1765 0.6549 0.4431);stop-opacity:1;"/>
<stop offset="0.476" stop-color="#4BBA71" style="stop-color:#4BBA71;stop-color:color(display-p3 0.2941 0.7294 0.4431);stop-opacity:1;"/>
<stop offset="0.801" stop-color="#5EBD6B" style="stop-color:#5EBD6B;stop-color:color(display-p3 0.3686 0.7412 0.4196);stop-opacity:1;"/>
<stop offset="1" stop-color="#66BE69" style="stop-color:#66BE69;stop-color:color(display-p3 0.4000 0.7451 0.4118);stop-opacity:1;"/>
</linearGradient>
</defs>
</svg>
