<svg id="default" viewBox="0 0 24 24" fill="none" xmlns="http://www.w3.org/2000/svg">
<path d="M12 22C17.5228 22 22 17.5228 22 12C22 6.47715 17.5228 2 12 2C6.47715 2 2 6.47715 2 12C2 17.5228 6.47715 22 12 22Z" fill="#F0F0F0"/>
<path d="M7.65234 15.4785L8.52191 21.3783C9.60519 21.7803 10.7769 22.0003 12.0001 22.0003C16.2997 22.0003 19.9652 19.2865 21.3781 15.4785H7.65234Z" fill="black"/>
<path d="M7.65234 8.52176L8.52191 2.62191C9.60519 2.21992 10.7769 2 12.0001 2C16.2997 2 19.9652 4.71375 21.3781 8.52176H7.65234Z" fill="#6DA544"/>
<path d="M2 11.9991C2 16.2987 4.71379 19.9641 8.52176 21.3771V2.62109C4.71379 4.03402 2 7.69944 2 11.9991Z" fill="#A2001D"/>
</svg>
