<svg id="default" viewBox="0 0 24 24" fill="none" xmlns="http://www.w3.org/2000/svg">
<path d="M2 12.0013C2 12.6862 2.06906 13.3551 2.20027 14.0013L12 14.61L21.7998 14.0013C21.931 13.3551 22 12.6862 22 12.0013C22 11.3163 21.9309 10.6475 21.7998 10.0013L12 9.39258L2.20027 10.0013C2.06906 10.6475 2 11.3163 2 12.0013H2Z" fill="#0052B4"/>
<path d="M21.8026 14H2.20312C3.12965 18.5644 7.165 22 12.0029 22C16.8407 22 20.8761 18.5644 21.8026 14Z" fill="#F0F0F0"/>
<path d="M2.20312 10H21.8026C20.876 5.43555 16.8408 2 12.0028 2C7.16491 2 3.12965 5.43555 2.20312 10Z" fill="black"/>
<path d="M16.3479 10.0013H7.65234L9.4289 9.16559L8.48285 7.44508L10.4119 7.81402L10.6565 5.86523L12.0001 7.29859L13.3439 5.86523L13.5883 7.81402L15.5174 7.44508L14.5715 9.16566L16.3479 10.0013Z" fill="#FFDA44"/>
<path d="M2 11.9984C2 17.5212 6.47719 21.9984 12 21.9984L3.99984 5.99805C2.74422 7.66949 2 9.74695 2 11.9984Z" fill="#A2001D"/>
<path d="M12 21.9984C17.5228 21.9984 22 17.5212 22 11.9984C22 9.74695 21.2558 7.66949 20.0002 5.99805L12 21.9984Z" fill="#A2001D"/>
</svg>
