<svg id="default" viewBox="0 0 24 24" fill="none" xmlns="http://www.w3.org/2000/svg">
<path d="M22 12C22 17.5228 17.5228 22 12 22C6.47719 22 2 17.5228 2 12C2 12.0024 12 2.00109 12 2C17.5228 2 22 6.47719 22 12Z" fill="#0052B4"/>
<path d="M11.9727 11.9994H11.9994C11.9994 11.9904 11.9994 11.9817 11.9994 11.9727C11.9905 11.9816 11.9816 11.9905 11.9727 11.9994Z" fill="#F0F0F0"/>
<path d="M12 7.21738C12 5.45781 12 4.30488 12 2H11.9983C6.4762 2.00094 2 6.47769 2 12H7.21737V9.06207L10.1553 12H11.9733C11.9822 11.9911 11.9911 11.9822 12 11.9732C12 11.2995 12 10.6984 12 10.1554L9.06201 7.21738H12Z" fill="#F0F0F0"/>
<path d="M7.05952 3.30469C5.4955 4.19527 4.19523 5.4955 3.30469 7.05952V12.0003H5.91339V5.91347V5.91339H12.0003C12.0003 5.09062 12.0003 4.3068 12.0003 3.30469H7.05952Z" fill="#D80027"/>
<path d="M12.0014 10.7697L8.44844 7.2168H7.21875V7.21687L12.0013 11.9994H12.0014C12.0014 11.9994 12.0014 11.1515 12.0014 10.7697Z" fill="#D80027"/>
<path d="M18.912 13.4632C19.1996 13.0675 19.3917 12.5844 19.3917 11.9993V7.65152C19.0283 7.92449 18.5767 8.08629 18.0873 8.08629C17.3761 8.08629 16.7448 7.74477 16.3482 7.2168C15.9515 7.74477 15.3202 8.08629 14.609 8.08629C14.1196 8.08629 13.668 7.92445 13.3047 7.6516V11.9993C13.3047 12.5844 13.4968 13.0675 13.7843 13.4632H18.912Z" fill="#F3F3F3"/>
<path d="M18.006 11.196C18.1445 10.8583 18.2521 10.3646 18.2521 10.119C18.2521 9.72426 17.7375 9.4043 17.7375 9.4043C17.7375 9.4043 17.2229 9.72426 17.2229 10.119C17.2229 10.3647 17.3306 10.8583 17.4689 11.196L17.1719 11.8667C17.3465 11.9378 17.5373 11.9772 17.7375 11.9772C17.9377 11.9772 18.1286 11.9377 18.3032 11.8667L18.006 11.196Z" fill="#FF9811"/>
<path d="M15.9994 9.02426C15.6378 9.07324 15.1564 9.22695 14.9437 9.34977C14.6019 9.54715 14.582 10.1527 14.582 10.1527C14.582 10.1527 15.1165 10.4384 15.4583 10.2411C15.6711 10.1182 16.0447 9.7782 16.2679 9.48945L16.9974 9.41133C16.9716 9.22469 16.9102 9.03965 16.8102 8.86633C16.71 8.69301 16.5806 8.54738 16.4317 8.43164L15.9994 9.02426Z" fill="#FF9811"/>
<path d="M15.1201 11.8489C15.3433 12.1375 15.717 12.4774 15.9298 12.6003C16.2716 12.7976 16.806 12.5121 16.806 12.5121C16.806 12.5121 16.7861 11.9064 16.4444 11.709C16.2315 11.5862 15.7502 11.4326 15.3886 11.3837L14.9563 10.791C14.8075 10.9067 14.678 11.0524 14.5778 11.2256C14.4778 11.399 14.4166 11.5839 14.3906 11.7707L15.1201 11.8489Z" fill="#FF9811"/>
<path d="M13.6758 13.3027C14.4878 14.6057 16.3472 15.0418 16.3472 15.0418C16.3472 15.0418 18.2066 14.6057 19.0187 13.3027H13.6758Z" fill="#338AF3"/>
</svg>
