<svg id="default" viewBox="0 0 24 24" fill="none" xmlns="http://www.w3.org/2000/svg">
<g clip-path="url(#clip0_603_2)">
<path d="M21.9987 12.0006C21.9987 7.64665 19.2157 3.94331 15.332 2.57031V21.431C19.2157 20.058 21.9987 16.3546 21.9987 12.0006Z" fill="#F0F0F0"/>
<path d="M2 12.0006C2 16.3546 4.783 20.058 8.66667 21.431V2.57031C4.783 3.94331 2 7.64665 2 12.0006Z" fill="#F0F0F0"/>
<path d="M12.0013 2C10.8659 1.99905 9.73862 2.1917 8.66797 2.56967V21.4303C10.8253 22.1899 13.1773 22.1899 15.3346 21.4303V2.56967C14.264 2.1917 13.1367 1.99905 12.0013 2Z" fill="#DC171D"/>
<path d="M21.4303 8.66602H2.56967C1.81011 10.8233 1.81011 13.1754 2.56967 15.3327H21.4303C22.1899 13.1754 22.1899 10.8233 21.4303 8.66602Z" fill="#012A87"/>
<path d="M12.3024 9.87503L12.7924 9.51936H12.1867L11.9997 8.94336L11.8127 9.51936H11.207L11.697 9.87503L11.51 10.451L11.9997 10.095L12.4894 10.451L12.3024 9.87503Z" fill="white"/>
<path d="M16.7477 11.7168L17.2373 11.3612H16.632L16.4447 10.7852L16.2577 11.3612H15.6523L16.142 11.7168L15.955 12.2928L16.4447 11.9368L16.9347 12.2928L16.7477 11.7168Z" fill="white"/>
<path d="M14.1422 14.3203L14.6319 13.9643H14.0265L13.8395 13.3887L13.6525 13.9643H13.0469L13.5369 14.3203L13.3495 14.896L13.8395 14.5403L14.3292 14.896L14.1422 14.3203Z" fill="white"/>
<path d="M7.85705 11.7168L8.34672 11.3612H7.74139L7.55439 10.7852L7.36705 11.3612H6.76172L7.25172 11.7168L7.06439 12.2928L7.55439 11.9368L8.04405 12.2928L7.85705 11.7168Z" fill="white"/>
<path d="M10.4622 14.3203L10.9522 13.9643H10.3465L10.1595 13.3887L9.97252 13.9643H9.36719L9.85685 14.3203L9.66985 14.896L10.1595 14.5403L10.6495 14.896L10.4622 14.3203Z" fill="white"/>
</g>
<defs>
<clipPath id="clip0_603_2">
<rect width="20" height="20" fill="white" transform="translate(2 2)"/>
</clipPath>
</defs>
</svg>
