<svg id="default" viewBox="0 0 24 24" fill="none" xmlns="http://www.w3.org/2000/svg">
<path d="M2 12C2 6.47719 6.47719 2 12 2C17.5228 2 22 6.47719 22 12C21.5652 12 12 13.3043 12 13.3043L2 12Z" fill="#D80027"/>
<path d="M22 12C22 17.5228 17.5228 22 12 22C6.47719 22 2 17.5228 2 12" fill="black"/>
<path d="M10.6328 9.95215L11.4805 10.5674L11.1575 11.5638L12.0046 10.9475L12.8524 11.5628L12.5281 10.5667L13.3752 9.9505L12.3277 9.95113L12.0034 8.95508L11.6803 9.95148L10.6328 9.95215Z" fill="#FFDA44"/>
<path d="M14.5 7.66821C13.712 7.21325 12.8504 6.99852 12 7.00001V8.30407C12.6285 8.30294 13.2653 8.46153 13.8478 8.79786C15.6126 9.81677 16.2194 12.0815 15.2005 13.8462C14.1816 15.611 11.9169 16.2178 10.1521 15.1989C9.63801 14.9021 9.22297 14.499 8.91703 14.0339L7.82812 14.7528C8.24207 15.3821 8.80441 15.9269 9.5 16.3284C11.8877 17.707 14.9516 16.886 16.3301 14.4983C17.7086 12.1107 16.8876 9.04673 14.5 7.66821Z" fill="#FFDA44"/>
<path d="M9.11728 11.1309C8.77158 11.7629 9.00369 12.5555 9.63565 12.9012L13.8719 15.216C13.5839 15.7426 13.7369 16.3836 14.2635 16.6717L15.4078 17.2976C15.9344 17.5858 16.595 17.3923 16.8831 16.8657L17.5091 15.7214L9.11728 11.1309Z" fill="#FFDA44"/>
</svg>
