<svg id="default" viewBox="0 0 24 24" fill="currentColor" xmlns="http://www.w3.org/2000/svg">
<path d="M1 5C1 2.79086 2.79086 1 5 1H19C21.2091 1 23 2.79086 23 5V19C23 21.2091 21.2091 23 19 23H5C2.79086 23 1 21.2091 1 19V5Z" />
<path fill-rule="evenodd" clip-rule="evenodd" d="M7.00683 10.7282C6.97117 10.9156 7.07816 11.0655 7.25649 11.0655H9.44992L8.77227 14.3266C8.43345 15.8634 8.82577 17.9813 11.4115 17.9813L14.6749 18C14.8354 18 15.0137 17.8501 15.0494 17.6814L15.4417 15.8634C15.4774 15.6948 15.3704 15.5261 15.1921 15.5261H12.1962C11.4828 15.5261 11.4472 14.9638 11.5898 14.3266L12.2853 11.0655H16.1372C16.3155 11.0655 16.4938 10.9156 16.5295 10.7282L16.9932 8.55414C17.0288 8.36673 16.9218 8.21679 16.7435 8.21679H7.8628C7.68448 8.21679 7.50615 8.36673 7.47048 8.55414L7.00683 10.7282ZM13.4801 5.68676C13.4801 4.74967 12.7668 4 11.8752 4C10.9836 4 10.2703 4.74967 10.2703 5.68676C10.2703 6.62385 10.9836 7.37352 11.8752 7.37352C12.749 7.37352 13.4801 6.62385 13.4801 5.68676Z" fill="white" style="fill:white;fill-opacity:1;"/>
</svg>
