<svg id="default" xmlns="http://www.w3.org/2000/svg" viewBox="0 0 24 24" fill="currentColor">
  <path d="M12.7002 2.5V4.875H11.2998V2.5H12.7002Z"/>
  <path d="M12.7002 19.1249V21.4999H11.2998V19.1249H12.7002Z"/>
  <path d="M19.2132 5.77751L17.5335 7.45719L16.5432 6.46696L18.2229 4.78727L19.2132 5.77751Z"/>
  <path d="M7.45669 17.5331L5.77798 19.2128L4.78774 18.2225L6.46743 16.5429L7.45669 17.5331Z"/>
  <path d="M21.5 11.2998V12.7002H19.125V11.2998H21.5Z"/>
  <path d="M4.875 11.2998V12.7002H2.5V11.2998H4.875Z"/>
  <path d="M19.2132 18.2225L18.2229 19.2128L16.5432 17.5331L17.5335 16.5429L19.2132 18.2225Z"/>
  <path d="M7.45669 6.46696L6.46743 7.45719L4.78774 5.77751L5.77798 4.78727L7.45669 6.46696Z"/>
  <path d="M12.7002 6.5498V17.4502H12C8.99008 17.4502 6.5498 15.0099 6.5498 12C6.5498 8.99008 8.99008 6.5498 12 6.5498H12.7002ZM7.9502 12C7.9502 13.9979 9.3969 15.6565 11.2998 15.9883V8.01172C9.3969 8.3435 7.9502 10.0022 7.9502 12Z"/>
</svg>