<svg id="default" viewBox="0 0 24 24" fill="none" xmlns="http://www.w3.org/2000/svg">
<path d="M2 12C2 17.5227 6.47734 22 12 22C17.5227 22 22 17.5227 22 12C22 6.47734 17.5227 2 12 2C6.73633 2 2 6.47578 2 12Z" fill="#3A7DCE"/>
<path d="M4.8447 8.09268C5.16306 7.78018 7.9697 11.0259 9.12009 9.28057C9.12009 9.28057 9.60291 5.90205 12.8701 6.31182C15.0689 6.58525 17.024 6.86377 17.9873 8.51182C18.1826 8.84424 17.8756 10.5985 17.9709 10.9587C18.1052 11.4665 18.874 11.2907 18.7717 11.8306C18.3908 13.8368 17.567 18.8942 12.2092 17.4669C12.2092 17.4669 14.6494 15.631 12.4963 15.7056C10.3431 15.7802 8.33767 16.5224 7.44666 15.1485C6.08416 13.0485 7.52088 12.1407 6.59275 11.0646C5.66463 9.98838 4.46775 8.46338 4.8447 8.09268Z" fill="white"/>
</svg>
