<svg id="default" viewBox="0 0 24 24" fill="none" xmlns="http://www.w3.org/2000/svg">
<path d="M12 22C17.5228 22 22 17.5228 22 12C22 6.47715 17.5228 2 12 2C6.47715 2 2 6.47715 2 12C2 17.5228 6.47715 22 12 22Z" fill="#F0F0F0"/>
<path d="M12.0038 2C8.03921 2 4.61359 4.30723 2.99609 7.6522H21.0115C19.394 4.30723 15.9684 2 12.0038 2Z" fill="#338AF3"/>
<path d="M12.0038 21.9978C15.9684 21.9978 19.3941 19.6906 21.0116 16.3457H2.99609C4.6136 19.6906 8.03923 21.9978 12.0038 21.9978Z" fill="#338AF3"/>
<path d="M14.9895 12.0014L13.7682 12.5759L14.4185 13.7587L13.0924 13.505L12.9243 14.8447L12.0006 13.8594L11.0768 14.8447L10.9088 13.505L9.58266 13.7587L10.233 12.5759L9.01172 12.0014L10.233 11.427L9.58266 10.2442L10.9088 10.4979L11.0769 9.1582L12.0006 10.1435L12.9243 9.1582L13.0924 10.4979L14.4186 10.2442L13.7682 11.427L14.9895 12.0014Z" fill="#FFDA44"/>
</svg>
