<svg id="default" width="20" height="20" viewBox="0 0 20 20" fill="none" xmlns="http://www.w3.org/2000/svg">
    <path fill-rule="evenodd" clip-rule="evenodd" d="M2.29102 17.7087H17.7077V2.29199H2.29102V17.7087ZM3.44179 11.4707L6.43746 8.47517L10.7117 12.7493L12.8489 10.6123L16.5569 14.3202V3.44276H3.44179V11.4707ZM12.6208 5.16174C12.3022 5.19526 11.9361 5.34053 11.6691 5.53932C11.2342 5.8632 10.9639 6.31437 10.8755 6.86369C10.8453 7.05182 10.8625 7.42421 10.9104 7.61659C11.0907 8.34124 11.6584 8.90901 12.3831 9.08932C12.5755 9.13718 12.9479 9.1544 13.136 9.12415C13.5619 9.05565 13.921 8.88256 14.2172 8.60296C15.0412 7.82515 15.0626 6.53278 14.2648 5.73491C13.9402 5.41038 13.526 5.21243 13.0642 5.16119C12.868 5.13944 12.8323 5.13947 12.6208 5.16174ZM12.6662 6.31235C12.4342 6.35766 12.1961 6.55101 12.0835 6.78548C12.0188 6.92024 12.0178 6.9262 12.0178 7.1508C12.0178 7.37354 12.0193 7.38225 12.0801 7.50699C12.1203 7.58921 12.1822 7.67453 12.2537 7.746C12.3251 7.81746 12.4105 7.8794 12.4927 7.91953C12.6175 7.98043 12.626 7.98191 12.8498 7.98191C13.0773 7.98191 13.0802 7.98138 13.2151 7.91456C13.4792 7.78387 13.6548 7.54802 13.6948 7.27028C13.7797 6.68107 13.2594 6.1965 12.6662 6.31235ZM4.93501 11.6032L3.44179 13.0965V16.5579H16.5569V15.9459L12.8489 12.238L10.7117 14.375L8.57912 12.2425C7.40619 11.0696 6.44239 10.1099 6.43737 10.1099C6.43234 10.1099 5.75628 10.7819 4.93501 11.6032Z" fill="currentColor"/>
</svg>
