<svg id="default" viewBox="0 0 24 24" fill="none" xmlns="http://www.w3.org/2000/svg">
<path d="M22 12C22 17.5228 17.5228 22 12 22C6.47719 22 2 17.5228 2 12C2 12.0023 12 2.00113 12 2C17.5228 2 22 6.47719 22 12Z" fill="#0052B4"/>
<path d="M11.9727 11.9994H11.9994C11.9994 11.9904 11.9994 11.9817 11.9994 11.9727C11.9905 11.9816 11.9816 11.9905 11.9727 11.9994Z" fill="#F0F0F0"/>
<path d="M12 7.21739C12 5.45782 12 4.30481 12 2H11.9983C6.47624 2.0009 2 6.47766 2 12H7.21737V9.062L10.1553 12H11.9733C11.9822 11.9911 11.9911 11.9822 12 11.9732C12 11.2995 12 10.6984 12 10.1554L9.06201 7.21739H12Z" fill="#F0F0F0"/>
<path d="M7.05952 3.30469C5.4955 4.19527 4.19527 5.4955 3.30469 7.05952V12.0003H5.91339V5.91343V5.91339H12.0003C12.0003 5.09062 12.0003 4.3068 12.0003 3.30469H7.05952Z" fill="#D80027"/>
<path d="M12.0013 10.7696L8.44848 7.21681H7.21875C7.21875 7.21678 7.21875 7.21681 7.21875 7.21681L12.0013 11.9994H12.0013C12.0013 11.9994 12.0013 11.1515 12.0013 10.7696Z" fill="#D80027"/>
<path d="M8.03449 13.7402L8.58332 14.8878L9.82265 14.6014L9.26765 15.746L10.2643 16.5363L9.02339 16.816L9.02687 18.088L8.03449 17.2922L7.04215 18.088L7.04562 16.816L5.80469 16.5363L6.80137 15.746L6.24629 14.6014L7.4857 14.8878L8.03449 13.7402Z" fill="#F0F0F0"/>
<path d="M16.9743 15.9121L17.2487 16.4859L17.8684 16.3427L17.5908 16.915L18.0892 17.3102L17.4687 17.45L17.4705 18.086L16.9743 17.6881L16.4781 18.086L16.4798 17.45L15.8594 17.3102L16.3577 16.915L16.0802 16.3427L16.6999 16.4859L16.9743 15.9121Z" fill="#F0F0F0"/>
<path d="M14.4235 9.82617L14.6979 10.4L15.3176 10.2567L15.0401 10.829L15.5384 11.2242L14.918 11.364L14.9197 12.0001L14.4235 11.6021L13.9273 12.0001L13.929 11.364L13.3086 11.2242L13.8069 10.829L13.5294 10.2567L14.1491 10.4L14.4235 9.82617Z" fill="#F0F0F0"/>
<path d="M16.9743 6.34766L17.2487 6.92149L17.8684 6.77824L17.5909 7.35055L18.0892 7.74571L17.4687 7.88559L17.4704 8.52161L16.9743 8.12368L16.4781 8.52161L16.4798 7.88559L15.8594 7.74571L16.3577 7.35055L16.0802 6.77824L16.6999 6.92149L16.9743 6.34766Z" fill="#F0F0F0"/>
<path d="M19.2048 8.95703L19.4791 9.53086L20.0988 9.38758L19.8213 9.95988L20.3197 10.3551L19.6992 10.495L19.7009 11.1309L19.2048 10.733L18.7086 11.1309L18.7103 10.495L18.0898 10.3551L18.5882 9.95988L18.3107 9.38758L18.9303 9.53086L19.2048 8.95703Z" fill="#F0F0F0"/>
<path d="M17.6096 12.002L17.8255 12.6663H18.524L17.9589 13.0768L18.1748 13.7411L17.6096 13.3306L17.0446 13.7411L17.2604 13.0768L16.6953 12.6663H17.3938L17.6096 12.002Z" fill="#F0F0F0"/>
</svg>
