<svg id="default" viewBox="0 0 24 24" xmlns="http://www.w3.org/2000/svg" fill="currentColor">

<path fill-rule="evenodd" clip-rule="evenodd" d="M11.4161 3.0132C9.20302 3.16912 7.18978 4.08247 5.63834 5.63444C3.40759 7.86594 2.50736 11.095 3.26216 14.1577C4.05944 17.3928 6.6086 19.9428 9.8426 20.7404C11.2463 21.0865 12.755 21.0865 14.1587 20.7404C16.754 20.1003 18.9484 18.3177 20.1082 15.9071C20.9636 14.1292 21.2112 12.1372 20.8182 10.1959C20.7814 10.0136 20.7399 9.82844 20.7261 9.78434L20.7011 9.70421L19.9217 9.90863C19.493 10.0211 19.1399 10.115 19.1371 10.1173C19.1343 10.1197 19.1576 10.2348 19.1889 10.3731C19.3262 10.9813 19.3758 11.5056 19.36 12.1812C19.3458 12.7912 19.2986 13.1733 19.1717 13.7045C18.918 14.7664 18.4432 15.7403 17.7603 16.5991C17.5115 16.9121 16.9122 17.5116 16.5993 17.7605C15.6162 18.5427 14.441 19.0696 13.238 19.2674C12.7361 19.35 12.6418 19.3568 12.0007 19.3568C11.3595 19.3568 11.2652 19.35 10.7633 19.2674C9.65887 19.0858 8.53717 18.6089 7.62254 17.9323C7.19639 17.6171 6.62485 17.0709 6.28862 16.6576C5.40424 15.5705 4.87477 14.3316 4.68092 12.8956C4.62997 12.5181 4.62997 11.4797 4.68092 11.1023C4.87403 9.67179 5.38945 8.46124 6.27857 7.34998C6.47949 7.09886 7.10227 6.47586 7.35331 6.27488C8.4481 5.39835 9.6461 4.88184 11.0361 4.68707C11.3995 4.63615 12.2061 4.61635 12.5884 4.64896C13.9575 4.76572 15.2036 5.22252 16.3017 6.01019C16.6614 6.26817 17.1433 6.68597 17.1003 6.70244C17.0873 6.70741 16.8531 6.77096 16.5798 6.84367C16.3066 6.91637 16.0761 6.98181 16.0677 6.98906C16.0594 6.99633 16.1449 7.34674 16.2577 7.76776C16.3706 8.18878 16.4629 8.53673 16.4629 8.541C16.4629 8.54527 16.4739 8.54892 16.4873 8.54913C16.5495 8.55005 20.1258 7.58145 20.126 7.56362C20.1264 7.53518 19.1754 3.98482 19.1572 3.94626C19.1441 3.91858 19.0467 3.94045 18.3628 4.12466C17.9341 4.24015 17.5847 4.34205 17.5863 4.35114C17.5879 4.36022 17.6296 4.51832 17.6788 4.70251C17.7281 4.88667 17.7685 5.04746 17.7685 5.05982C17.7685 5.07218 17.7181 5.0416 17.6564 4.99189C16.438 4.00899 14.9242 3.3388 13.3842 3.10047C12.8512 3.018 11.9288 2.97708 11.4161 3.0132Z"/>
<path d="M10.0742 15.5H8.26172L11.0234 7.5H13.2031L15.9609 15.5H14.1484L12.1445 9.32813H12.082L10.0742 15.5ZM9.96094 12.3555H14.2422V13.6758H9.96094V12.3555Z"/>

</svg>
