<svg id="default" viewBox="0 0 24 24" fill="none" xmlns="http://www.w3.org/2000/svg">
<path d="M12 22C17.5228 22 22 17.5228 22 12C22 6.47715 17.5228 2 12 2C6.47715 2 2 6.47715 2 12C2 17.5228 6.47715 22 12 22Z" fill="#FFDA44"/>
<path d="M12.0024 21.9997C15.0333 21.9997 17.749 20.6511 19.5829 18.5215H4.42188C6.25574 20.6511 8.97148 21.9997 12.0024 21.9997Z" fill="#338AF3"/>
<path d="M22 12C22 6.47719 17.5228 2 12 2C6.47719 2 2 6.47719 2 12C2 12.9026 2.12031 13.7769 2.34449 14.6087H21.6555C21.8797 13.7769 22 12.9026 22 12Z" fill="#338AF3"/>
<path d="M2.79688 15.9121C2.98965 16.3651 3.215 16.8007 3.46973 17.2164H20.5342C20.789 16.8007 21.0143 16.365 21.2072 15.9121H2.79688Z" fill="#338AF3"/>
<path d="M6.58266 8.3052L4.62891 7.44294L6.58266 6.58067L7.44489 4.62695L8.30712 6.58067L10.2608 7.44294L8.30712 8.3052L7.44489 10.2589L6.58266 8.3052Z" fill="#F0F0F0"/>
<path d="M7.44226 5.70508L7.97472 6.91168L9.18136 7.44422L7.97472 7.97672L7.44226 9.18332L6.90972 7.97672L5.70312 7.44422L6.90972 6.91168L7.44226 5.70508Z" fill="#D80027"/>
</svg>
