<svg id="default" viewBox="0 0 24 24" fill="none" xmlns="http://www.w3.org/2000/svg">
<path d="M12 22C17.5228 22 22 17.5228 22 12C22 6.47715 17.5228 2 12 2C6.47715 2 2 6.47715 2 12C2 17.5228 6.47715 22 12 22Z" fill="#F0F0F0"/>
<path d="M11.9983 2C8.45258 2 5.33813 3.84543 3.5625 6.62809L17.1234 20.5879C20.0431 18.8417 21.9983 15.6494 21.9983 12C21.9983 6.47719 17.5211 2 11.9983 2Z" fill="#FFDA44"/>
<path d="M21.9993 12.0011C21.9993 9.40649 21.0111 7.04289 19.3906 5.26562V18.7366C21.0111 16.9593 21.9993 14.5957 21.9993 12.0011Z" fill="#0052B4"/>
<path d="M14.4918 20.8262L15.5392 20.8256L15.8624 19.8291L16.1867 20.8252L16.7121 20.8249C17.0342 20.6524 17.3458 20.4629 17.6456 20.2573L3.74567 6.35742C3.5166 6.69164 3.3077 7.04062 3.11985 7.40234L3.24336 7.78172L4.29082 7.78105L3.44379 8.39726L3.76809 9.39332L2.92027 8.77816L2.41461 9.14597C2.14504 10.0513 2 11.0102 2 12.0031C2 17.5259 6.47719 22.0031 12 22.0031C13.1677 22.0031 14.2884 21.8026 15.3301 21.4346L14.4918 20.8262ZM4.23043 11.5683L4.55348 10.5719L3.70574 9.95667L4.75321 9.95601L5.07629 8.95957L5.40059 9.95562L6.44805 9.95496L5.60098 10.5712L5.92528 11.5672L5.07747 10.9521L4.23043 11.5683ZM6.38766 13.7422L6.71071 12.7458L5.86297 12.1306L6.91044 12.1299L7.23352 11.1335L7.55782 12.1295L8.60528 12.1289L7.75825 12.7451L8.08255 13.7411L7.23473 13.126L6.38766 13.7422ZM8.54485 15.9161L8.8679 14.9197L8.02016 14.3045L9.06763 14.3038L9.39071 13.3074L9.71501 14.3034L10.7625 14.3028L9.91544 14.919L10.2397 15.915L9.39192 15.2998L8.54485 15.9161ZM11.5491 17.4738L10.702 18.09L11.0251 17.0936L10.1774 16.4784L11.2248 16.4777L11.5479 15.4813L11.8722 16.4773L12.9197 16.4767L12.0727 17.0929L12.397 18.0889L11.5491 17.4738ZM12.8593 20.2639L13.1823 19.2675L12.3346 18.6523L13.382 18.6516L13.7051 17.6552L14.0294 18.6512L15.0769 18.6506L14.2299 19.2668L14.5542 20.2628L13.7063 19.6476L12.8593 20.2639Z" fill="#0052B4"/>
</svg>
