<svg id="default" xmlns="http://www.w3.org/2000/svg" viewBox="0 0 24 24">
  <path fill-rule="evenodd" clip-rule="evenodd" d="M5.30208 8.94347C3.83574 10.6116 2.636 11.9869 2.636 11.9996C2.636 12.0123 3.83574 13.3877 5.30208 15.0561L7.96816 18.0895L21.136 18.0908V5.90921L7.96816 5.91049L5.30208 8.94347ZM6.51669 9.62178C5.38456 10.9109 4.45828 11.981 4.45828 11.9998C4.45828 12.0187 5.38456 13.0888 6.51669 14.378L8.57508 16.722L19.7704 16.7253V7.27476L8.57508 7.27795L6.51669 9.62178ZM10.2332 9.51804L12.7149 12L10.2332 14.482L11.1977 15.4464L13.6796 12.9647L16.1616 15.4464L17.126 14.482L14.6444 12L17.126 9.51804L16.1616 8.55362L13.6796 11.0353L11.1977 8.55362L10.2332 9.51804Z" fill="currentColor"/>
</svg>