<svg id="default" viewBox="0 0 24 24" fill="none" xmlns="http://www.w3.org/2000/svg">
<path d="M16.3469 2.99231C15.0322 2.35658 13.5572 2 11.9989 2C10.4406 2 8.96561 2.35658 7.65086 2.99231L6.78125 12.0005L7.65086 21.0087C8.96561 21.6444 10.4406 22.001 11.9989 22.001C13.5572 22.001 15.0322 21.6444 16.3469 21.0087L17.2165 12.0005L16.3469 2.99231Z" fill="#FFDA44"/>
<path d="M7.65246 2.99414C4.30738 4.61164 2 8.03716 2 12.002C2 15.9668 4.30738 19.3923 7.65246 21.0098V2.99414Z" fill="#0052B4"/>
<path d="M16.3477 2.99414V21.0098C19.6927 19.3923 22.0001 15.9667 22.0001 12.002C22.0001 8.0372 19.6927 4.61164 16.3477 2.99414Z" fill="#0052B4"/>
<path d="M15.0417 8.08641L15.625 8.37806L15.0417 8.08641L14.4583 7.79475C14.4231 7.86511 13.6614 9.41491 13.537 11.7823H12.6503V8.08641L11.9981 7.2168L11.3458 8.08641V11.7823H10.4591C10.3347 9.41491 9.57299 7.86511 9.53779 7.79475L8.37109 8.3781C8.37914 8.39412 9.17187 10.0077 9.17187 12.4345V13.0867H11.3459V16.7825H12.6503V13.0867H14.8243V12.4344C14.8243 11.1798 15.0414 10.1452 15.2235 9.4982C15.4221 8.79269 15.6238 8.38068 15.6258 8.37658L15.0417 8.08641Z" fill="black"/>
</svg>
