<svg xmlns="http://www.w3.org/2000/svg">
<symbol id="default" viewBox="0 0 24 24" fill="currentColor">
<path fill-rule="evenodd" clip-rule="evenodd" d="M12.8906 7.50037C13.1916 7.48875 13.675 7.51971 13.9658 7.5697C15.4882 7.83159 16.826 8.74572 17.6221 10.0677C18.5561 11.6191 18.624 13.5725 17.7998 15.1908C17.6723 15.441 17.4913 15.7351 17.3564 15.9125L17.2666 16.0316L20.5 19.265L19.5586 20.2074L17.9375 18.5863C16.537 17.1859 16.3126 16.9701 16.2891 16.9984C16.2731 17.017 16.1534 17.1036 16.0225 17.1908C14.7495 18.0383 13.1837 18.2942 11.6943 17.8978C10.6795 17.6277 9.71144 17.0076 9.02246 16.1859C8.64591 15.7368 8.28787 15.1115 8.10059 14.5765C7.87665 13.9368 7.79756 13.4695 7.79785 12.7875C7.79816 12.1819 7.86686 11.7251 8.03711 11.1918C8.30383 10.3563 8.71971 9.67421 9.34375 9.05017C9.62999 8.76394 9.79244 8.62921 10.1074 8.41345C10.9197 7.85706 11.8891 7.53904 12.8906 7.50037ZM15.7861 9.89685C14.9571 9.11755 13.8175 8.72982 12.6895 8.84314C11.9737 8.91506 11.2703 9.19182 10.6914 9.62927C10.4715 9.79551 10.0881 10.1779 9.92188 10.3978C8.85058 11.8155 8.85119 13.7665 9.92285 15.1781C10.58 16.0434 11.5482 16.5972 12.626 16.725C12.9602 16.7646 13.2019 16.7646 13.5361 16.725C14.0357 16.6657 14.4344 16.5439 14.8906 16.3099C15.4648 16.0154 15.9403 15.6042 16.3203 15.0736C16.4841 14.8447 16.7241 14.3839 16.8164 14.1215C17.3439 12.6212 16.945 10.9862 15.7861 9.89685Z"/>
<path d="M6.19788 12.4232V13.6996H3.5V12.4232H6.19788Z"/>
<path d="M7.31152 8.47205V9.72791H3.5V8.47205H7.31152Z"/>
<path d="M5.00195 4.50525L10.457 4.51013L10.4678 5.77673H3.5V4.50037L5.00195 4.50525Z"/>
</symbol>
<symbol id="active" viewBox="0 0 24 24" fill="currentColor">
<path d="M13.0479 10.2679C14.4727 10.2679 15.6279 11.4231 15.6279 12.848C15.6277 14.2727 14.4726 15.4271 13.0479 15.4271C11.6232 15.427 10.468 14.2726 10.4678 12.848C10.4678 11.4232 11.6231 10.2681 13.0479 10.2679Z"/>
<path fill-rule="evenodd" clip-rule="evenodd" d="M12.8906 7.50037C13.1916 7.48875 13.675 7.51971 13.9658 7.5697C15.4882 7.83159 16.826 8.74572 17.6221 10.0677C18.5561 11.6191 18.624 13.5725 17.7998 15.1908C17.6723 15.441 17.4913 15.7351 17.3564 15.9125L17.2666 16.0316L20.5 19.265L19.5586 20.2074L17.9375 18.5863C16.537 17.1859 16.3126 16.9701 16.2891 16.9984C16.2731 17.017 16.1534 17.1036 16.0225 17.1908C14.7495 18.0383 13.1837 18.2942 11.6943 17.8978C10.6795 17.6277 9.71144 17.0076 9.02246 16.1859C8.64591 15.7368 8.28787 15.1115 8.10059 14.5765C7.87665 13.9368 7.79756 13.4695 7.79785 12.7875C7.79816 12.1819 7.86686 11.7251 8.03711 11.1918C8.30383 10.3563 8.71971 9.67421 9.34375 9.05017C9.62999 8.76394 9.79244 8.62921 10.1074 8.41345C10.9197 7.85706 11.8891 7.53904 12.8906 7.50037ZM15.7861 9.89685C14.9571 9.11755 13.8175 8.72982 12.6895 8.84314C11.9737 8.91506 11.2703 9.19182 10.6914 9.62927C10.4715 9.79551 10.0881 10.1779 9.92188 10.3978C8.85058 11.8155 8.85119 13.7665 9.92285 15.1781C10.58 16.0434 11.5482 16.5972 12.626 16.725C12.9602 16.7646 13.2019 16.7646 13.5361 16.725C14.0357 16.6657 14.4344 16.5439 14.8906 16.3099C15.4648 16.0154 15.9403 15.6042 16.3203 15.0736C16.4841 14.8447 16.7241 14.3839 16.8164 14.1215C17.3439 12.6212 16.945 10.9862 15.7861 9.89685Z"/>
<path d="M6.19788 12.4232V13.6996H3.5V12.4232H6.19788Z"/>
<path d="M7.31152 8.47205V9.72791H3.5V8.47205H7.31152Z"/>
<path d="M5.00195 4.50525L10.457 4.51013L10.4678 5.77673H3.5V4.50037L5.00195 4.50525Z"/>
</symbol>
</svg>
