<svg id="default" viewBox="0 0 24 24" fill="none" xmlns="http://www.w3.org/2000/svg">
<path d="M22 11.999C22 10.7758 21.78 9.60402 21.378 8.52074L12 8.08594L2.62199 8.5207C2.22004 9.60402 2 10.7758 2 11.999C2 13.2222 2.22004 14.3939 2.62199 15.4772L12 15.912L21.378 15.4773C21.78 14.3939 22 13.2222 22 11.999Z" fill="#496E2D"/>
<path d="M11.9991 22.0003C16.2987 22.0003 19.9641 19.2865 21.3771 15.4785H2.62109C4.03402 19.2865 7.69944 22.0003 11.9991 22.0003Z" fill="#D80027"/>
<path d="M2.62109 8.52176H21.3771C19.9642 4.71375 16.2987 2 11.9991 2C7.69945 2 4.03402 4.71375 2.62109 8.52176Z" fill="#F0F0F0"/>
</svg>
