<svg id="default" viewBox="0 0 24 24" fill="none" xmlns="http://www.w3.org/2000/svg">
<path d="M11.9997 21.9993C17.5223 21.9993 21.9993 17.5223 21.9993 11.9997C21.9993 6.477 17.5223 2 11.9997 2C6.477 2 2 6.477 2 11.9997C2 17.5223 6.477 21.9993 11.9997 21.9993Z" fill="#F0F0F0"/>
<path d="M12.0047 2C9.99791 2 8.12953 2.59158 6.56349 3.60924L9.13524 5.33297L5.91797 6.99956L9.13524 8.66614L5.91797 10.3327L9.13524 11.9991L5.91797 13.6657L9.13524 15.3322L5.91797 16.9989L9.13524 18.6655L6.56318 20.3898C8.1293 21.4077 9.99779 21.9993 12.0047 21.9993C17.5273 21.9993 22.0044 17.5223 22.0044 11.9997C22.0044 6.47704 17.5273 2 12.0047 2V2Z" fill="#D80027"/>
</svg>
