<svg id="default" viewBox="0 0 24 24" fill="none" xmlns="http://www.w3.org/2000/svg">
<path d="M11.9995 22.001C17.5221 22.001 21.999 17.524 21.999 12.0015C21.999 6.47888 17.5221 2.00195 11.9995 2.00195C6.47693 2.00195 2 6.47888 2 12.0015C2 17.524 6.47693 22.001 11.9995 22.001Z" fill="#F0F0F0"/>
<path d="M18.0874 4.06609C14.5074 1.31131 9.49013 1.31131 5.91016 4.06605L11.9988 10.1547L18.0874 4.06609Z" fill="#D80027"/>
<path d="M11.9987 13.8438L5.91016 19.9324C9.49013 22.6871 14.5074 22.6871 18.0874 19.9324L11.9988 13.8438L11.9987 13.8438Z" fill="#D80027"/>
<path d="M10.1546 12.0007L4.06609 5.91211C1.3113 9.49209 1.3113 14.5093 4.06609 18.0893L10.1546 12.0007Z" fill="#6DA544"/>
<path d="M13.8438 12.0007L19.9323 18.0893C22.687 14.5093 22.687 9.49209 19.9323 5.91211L13.8438 12.0007Z" fill="#6DA544"/>
<path d="M12.0038 16.3495C14.4049 16.3495 16.3514 14.403 16.3514 12.0019C16.3514 9.60078 14.4049 7.6543 12.0038 7.6543C9.60273 7.6543 7.65625 9.60078 7.65625 12.0019C7.65625 14.403 9.60273 16.3495 12.0038 16.3495Z" fill="#F0F0F0"/>
<path d="M12.0006 8.95703L12.3771 9.60918H13.1302L12.7536 10.2613L13.1302 10.9135H12.3771L12.0006 11.5656L11.6241 10.9135H10.8711L11.2476 10.2613L10.8711 9.60918H11.6241L12.0006 8.95703Z" fill="#D80027"/>
<path d="M10.0866 12.002L10.4631 12.6541H11.2161L10.8396 13.3062L11.2161 13.9584H10.4631L10.0866 14.6105L9.71004 13.9584H8.95703L9.33354 13.3062L8.95703 12.6541H9.71004L10.0866 12.002Z" fill="#D80027"/>
<path d="M13.9147 12.002L14.2912 12.6541H15.0442L14.6677 13.3062L15.0442 13.9584H14.2912L13.9147 14.6105L13.5382 13.9584H12.7852L13.1617 13.3062L12.7852 12.6541H13.5382L13.9147 12.002Z" fill="#D80027"/>
</svg>
