<svg id="default" viewBox="0 0 24 24" xmlns="http://www.w3.org/2000/svg">
<path d="M5.24978 7.05822C6.89668 5.18744 9.30795 4 12.0003 4C14.6927 4 17.1039 5.18744 18.7508 7.05822C19.0011 7.34247 18.9735 7.77576 18.6892 8.026C18.405 8.27624 17.9717 8.24866 17.7215 7.96441C16.3223 6.37505 14.2799 5.37142 12.0003 5.37142C9.72068 5.37142 7.67831 6.37505 6.27916 7.96441C6.02892 8.24866 5.59563 8.27624 5.31137 8.026C5.02712 7.77576 4.99954 7.34247 5.24978 7.05822Z" fill="currentColor"/>
<path d="M4.61475 13.6228C4.61475 9.54214 7.92138 6.23427 12.0003 6.23427C16.0792 6.23427 19.3858 9.54214 19.3858 13.6228C19.3858 15.2351 18.0798 16.5428 16.4673 16.5428C14.8552 16.5428 13.5481 15.2354 13.5481 13.6228C13.5481 12.7673 12.8547 12.0742 12.0003 12.0742C11.1458 12.0742 10.4525 12.7673 10.4525 13.6228C10.4525 15.7778 11.5863 17.6687 13.2919 18.7324C13.6132 18.9328 13.7112 19.3557 13.5108 19.677C13.3104 19.9984 12.8875 20.0964 12.5662 19.896C10.4764 18.5928 9.08104 16.2714 9.08104 13.6228C9.08104 12.0102 10.3881 10.7028 12.0003 10.7028C13.6124 10.7028 14.9195 12.0102 14.9195 13.6228C14.9195 14.4783 15.6129 15.1713 16.4673 15.1713C17.3215 15.1713 18.0144 14.4786 18.0144 13.6228C18.0144 10.2991 15.3213 7.60569 12.0003 7.60569C8.67929 7.60569 5.98617 10.2991 5.98617 13.6228C5.98617 14.3966 6.07275 15.151 6.23241 15.8793C6.31351 16.2492 6.07937 16.6148 5.70945 16.6959C5.33953 16.777 4.9739 16.5429 4.89281 16.1729C4.71286 15.3521 4.61475 14.4993 4.61475 13.6228Z" fill="currentColor"/>
<path d="M12.0003 9.83995C9.91264 9.83995 8.21967 11.5331 8.21967 13.6228C8.21967 15.383 8.77083 17.0115 9.70944 18.351C9.92677 18.6611 9.85152 19.0887 9.54138 19.306C9.23123 19.5233 8.80364 19.4481 8.58631 19.138C7.49174 17.5759 6.84825 15.6742 6.84825 13.6228C6.84825 10.7762 9.15463 8.46853 12.0003 8.46853C14.8459 8.46853 17.1523 10.7762 17.1523 13.6228C17.1523 14.0015 16.8453 14.3085 16.4666 14.3085C16.0879 14.3085 15.7808 14.0015 15.7808 13.6228C15.7808 11.5331 14.0879 9.83995 12.0003 9.83995Z" fill="currentColor"/>
<path d="M12.001 12.9371C12.3797 12.9371 12.6867 13.2441 12.6867 13.6228C12.6867 15.7125 14.3797 17.4056 16.4673 17.4056C16.5022 17.4056 16.5273 17.4039 16.5688 17.4011C16.5943 17.3993 16.626 17.3972 16.6698 17.3947C17.048 17.3737 17.3715 17.6632 17.3925 18.0414C17.4135 18.4195 17.124 18.743 16.7459 18.764C16.7362 18.7646 16.7228 18.7655 16.7067 18.7666C16.6472 18.7706 16.5508 18.777 16.4673 18.777C13.6217 18.777 11.3153 16.4693 11.3153 13.6228C11.3153 13.2441 11.6223 12.9371 12.001 12.9371Z" fill="currentColor"/>
</svg>
