<svg id="default" viewBox="0 0 24 24" fill="none" xmlns="http://www.w3.org/2000/svg">
<path d="M11.9995 22.001C17.5221 22.001 21.999 17.524 21.999 12.0015C21.999 6.47888 17.5221 2.00195 11.9995 2.00195C6.47693 2.00195 2 6.47888 2 12.0015C2 17.524 6.47693 22.001 11.9995 22.001Z" fill="#F0F0F0"/>
<path d="M4.92849 4.92846C2.78543 7.07151 1.8188 9.94536 2.02789 12.7478L12.7478 2.0279C9.94535 1.81877 7.07154 2.7854 4.92849 4.92846Z" fill="#FFDA44"/>
<path d="M5.56641 19.6599C9.49516 22.9653 15.3683 22.7698 19.0661 19.072C22.764 15.3741 22.9595 9.50098 19.6541 5.57227L5.56641 19.6599Z" fill="#0052B4"/>
<path d="M11.9631 11.5999L12.8248 11.1331L11.9631 10.6663C11.7619 9.35931 10.7292 8.32659 9.42217 8.12542L8.95535 7.26367L8.48858 8.12539C7.18161 8.32655 6.14893 9.35927 5.94769 10.6663L5.08594 11.1331L5.94765 11.5999C6.14885 12.9069 7.18154 13.9396 8.48854 14.1407L8.95535 15.0025L9.42213 14.1408C10.7292 13.9396 11.7619 12.9069 11.9631 11.5999ZM8.95539 12.8721C7.99493 12.8721 7.21634 12.0936 7.21634 11.1331C7.21634 10.1726 7.99489 9.39403 8.95539 9.39403C9.91589 9.39403 10.6944 10.1726 10.6944 11.1331C10.6944 12.0936 9.91585 12.8721 8.95539 12.8721Z" fill="black"/>
<path d="M8.95373 9.82812L9.33023 10.4802H10.0833L9.70673 11.1324L10.0833 11.7845H9.33023L8.95373 12.4366L8.57722 11.7845H7.82422L8.20072 11.1324L7.82422 10.4802H8.57722L8.95373 9.82812Z" fill="#D80027"/>
</svg>
