<svg id="default" viewBox="0 0 24 24" fill="none" xmlns="http://www.w3.org/2000/svg">
<path d="M12 22C17.5228 22 22 17.5228 22 12C22 6.47715 17.5228 2 12 2C6.47715 2 2 6.47715 2 12C2 17.5228 6.47715 22 12 22Z" fill="#6DA544"/>
<path d="M11.9991 5.91406L20.26 12.001L11.9991 18.0879L3.73828 12.001L11.9991 5.91406Z" fill="#FFDA44"/>
<path d="M11.9978 15.4799C13.9188 15.4799 15.476 13.9227 15.476 12.0017C15.476 10.0807 13.9188 8.52344 11.9978 8.52344C10.0768 8.52344 8.51953 10.0807 8.51953 12.0017C8.51953 13.9227 10.0768 15.4799 11.9978 15.4799Z" fill="#F0F0F0"/>
<path d="M10.2614 11.7832C9.6566 11.7832 9.07289 11.8752 8.52344 12.0459C8.54777 13.9459 10.0948 15.4788 12.0006 15.4788C13.179 15.4788 14.2198 14.8922 14.849 13.9957C13.7726 12.6482 12.1163 11.7832 10.2614 11.7832Z" fill="#0052B4"/>
<path d="M15.4148 12.6681C15.4566 12.4523 15.4792 12.2297 15.4792 12.0017C15.4792 10.0807 13.922 8.52344 12.001 8.52344C10.5677 8.52344 9.33719 9.39066 8.80469 10.6289C9.27539 10.5313 9.76273 10.48 10.2619 10.48C12.2821 10.4799 14.1097 11.3197 15.4148 12.6681Z" fill="#0052B4"/>
</svg>
