<svg id="default" viewBox="0 0 24 24" fill="none" xmlns="http://www.w3.org/2000/svg">
<path d="M2.47219 8.9582C2.16586 9.91793 1.99996 10.9403 2 12.0017C1.99996 13.063 2.16586 14.0854 2.47223 15.0452L12 15.48L21.5277 15.0452C21.834 14.0854 21.9999 13.0629 21.9999 12.0017C21.9999 10.9404 21.834 9.91793 21.5277 8.9582L11.9999 8.52344L2.47219 8.9582Z" fill="#F0F0F0"/>
<path d="M22 11.9989C22 11.4057 21.948 10.8246 21.8489 10.2598H2.15109C2.05195 10.8246 2 11.4056 2 11.9989C2 12.5922 2.05199 13.1732 2.15109 13.738H21.8489C21.948 13.1731 22 12.5921 22 11.9989Z" fill="black"/>
<path d="M12.0004 21.9995C16.462 21.9995 20.2405 19.0775 21.5282 15.043H2.47266C3.76035 19.0775 7.53891 21.9995 12.0004 21.9995Z" fill="#338AF3"/>
<path d="M12.0005 2C7.53895 2 3.76043 4.92199 2.47266 8.95644L21.5282 8.95648C20.2405 4.92199 16.462 1.99992 12.0005 2Z" fill="#338AF3"/>
</svg>
