<svg id="default" viewBox="0 0 24 24" fill="none" xmlns="http://www.w3.org/2000/svg">
<path d="M12 22C17.5228 22 22 17.5228 22 12C22 6.47715 17.5228 2 12 2C6.47715 2 2 6.47715 2 12C2 17.5228 6.47715 22 12 22Z" fill="#FCFCFC"/>
<path d="M6.13383 11.2744L5.04688 9.30238L6.13383 7.36133L7.22078 9.30238L6.13383 11.2744Z" fill="#A2001D"/>
<path d="M3.95805 11.2744L2.87109 9.30238L3.95805 7.36133L5.045 9.30238L3.95805 11.2744Z" fill="#A2001D"/>
<path d="M6.13383 16.6396L5.04688 14.6676L6.13383 12.7266L7.22078 14.6676L6.13383 16.6396Z" fill="#A2001D"/>
<path d="M3.95805 16.6396L2.87109 14.6676L3.95805 12.7266L5.045 14.6676L3.95805 16.6396Z" fill="#A2001D"/>
<path d="M7.21765 3.94016L6.90992 3.39062C6.35797 3.71766 5.84027 4.09629 5.36328 4.51988L6.1307 5.91211L7.21765 3.94016Z" fill="#A2001D"/>
<path d="M6.13492 18.0879L5.35938 19.4729C5.83594 19.897 6.35328 20.2762 6.905 20.6039L7.22192 20.029L6.13492 18.0879Z" fill="#A2001D"/>
<path d="M8.08594 14.6094V21.2056C9.28785 21.7172 10.6102 22.0007 11.999 22.0007C16.2986 22.0007 19.964 19.2869 21.377 15.4789L8.08594 14.6094Z" fill="#6DA544"/>
<path d="M21.377 15.4782C21.779 14.3949 21.999 13.2232 21.999 12C21.999 6.47718 17.5218 2 11.999 2C10.6104 2 9.28785 2.28332 8.08594 2.79484V15.4783H21.377V15.4782Z" fill="#A2001D"/>
</svg>
