<svg id="default" viewBox="0 0 24 24" fill="none" xmlns="http://www.w3.org/2000/svg">
<path d="M12 22C17.5228 22 22 17.5228 22 12C22 6.47715 17.5228 2 12 2C6.47715 2 2 6.47715 2 12C2 17.5228 6.47715 22 12 22Z" fill="#F0F0F0"/>
<path d="M21.9998 11.9999C21.9998 8.0353 19.6926 4.60968 16.3477 2.99219V21.0076C19.6926 19.3901 21.9998 15.9645 21.9998 11.9999Z" fill="#D80027"/>
<path d="M2 11.9999C2 15.9646 4.30723 19.3902 7.6522 21.0077V2.99219C4.30723 4.60969 2 8.03532 2 11.9999Z" fill="#D80027"/>
<path d="M13.7369 13.3048L15.476 12.4353L14.6065 12.0005V11.1309L12.8673 12.0005L13.7369 10.2614H12.8673L11.9978 8.95703L11.1282 10.2614H10.2586L11.1282 12.0005L9.38906 11.1309V12.0005L8.51953 12.4353L10.2586 13.3048L9.82387 14.1744H11.563V15.4787H12.4325V14.1744H14.1717L13.7369 13.3048Z" fill="#D80027"/>
</svg>
