<svg id="default" viewBox="0 0 24 24" fill="none" xmlns="http://www.w3.org/2000/svg">
<path d="M12 22C17.5228 22 22 17.5228 22 12C22 6.47715 17.5228 2 12 2C6.47715 2 2 6.47715 2 12C2 17.5228 6.47715 22 12 22Z" fill="#6DA544"/>
<path d="M17.3493 16.3477L17.6237 16.9214L18.2434 16.7782L17.9659 17.3505L18.4642 17.7457L17.8437 17.8855L17.8455 18.5216L17.3493 18.1237L16.8531 18.5216L16.8548 17.8855L16.2344 17.7457L16.7327 17.3505L16.4552 16.7782L17.0748 16.9214L17.3493 16.3477Z" fill="#FFDA44"/>
<path d="M14.7985 10.2598L15.0729 10.8336L15.6926 10.6903L15.4151 11.2627L15.9134 11.6578L15.2929 11.7977L15.2947 12.4337L14.7985 12.0358L14.3023 12.4337L14.304 11.7977L13.6836 11.6578L14.1819 11.2627L13.9044 10.6903L14.5241 10.8336L14.7985 10.2598Z" fill="#FFDA44"/>
<path d="M17.3531 6.7832L17.6276 7.35699L18.2472 7.21371L17.9698 7.78606L18.4681 8.18125L17.8476 8.32106L17.8493 8.95711L17.3531 8.55918L16.857 8.95711L16.8587 8.32106L16.2383 8.18125L16.7366 7.78606L16.4591 7.21371L17.0787 7.35699L17.3531 6.7832Z" fill="#FFDA44"/>
<path d="M19.5875 9.39062L19.862 9.96441L20.4817 9.82117L20.2041 10.3935L20.7025 10.7887L20.082 10.9285L20.0838 11.5646L19.5875 11.1666L19.0914 11.5646L19.093 10.9285L18.4727 10.7887L18.971 10.3935L18.6934 9.82117L19.3131 9.96441L19.5875 9.39062Z" fill="#FFDA44"/>
<path d="M17.9885 12.4355L18.2044 13.0999H18.9029L18.3378 13.5104L18.5537 14.1747L17.9885 13.7642L17.4235 14.1747L17.6393 13.5104L17.0742 13.0999H17.7727L17.9885 12.4355Z" fill="#FFDA44"/>
<path d="M13.0926 14.8259C11.5318 14.8259 10.2664 13.5605 10.2664 11.9998C10.2664 10.439 11.5317 9.17367 13.0926 9.17367C13.5792 9.17367 14.0371 9.29676 14.4369 9.51336C13.8098 8.9 12.9521 8.52148 12.0055 8.52148C10.0846 8.52148 8.52734 10.0787 8.52734 11.9997C8.52734 13.9207 10.0846 15.478 12.0055 15.478C12.9521 15.478 13.8098 15.0995 14.4369 14.4861C14.0371 14.7028 13.5792 14.8259 13.0926 14.8259Z" fill="#FFDA44"/>
<path d="M8.29305 5.91254C7.99226 5.39285 7.43074 5.04297 6.78715 5.04297C6.14355 5.04297 5.58203 5.39285 5.28125 5.91254H8.29305Z" fill="#FFDA44"/>
<path d="M8.29766 5.92188L6.78598 7.43356L5.2743 5.92188C5.1298 6.17543 5.04688 6.46867 5.04688 6.78141C5.04688 7.74192 5.82551 8.52055 6.78602 8.52055C7.74653 8.52055 8.52516 7.74196 8.52516 6.78141C8.52512 6.46867 8.44216 6.17543 8.29766 5.92188Z" fill="#FFDA44"/>
<path d="M6.34375 7V8.4679C6.48278 8.50367 6.62858 8.5227 6.7788 8.5227C6.92901 8.5227 7.07481 8.50363 7.21384 8.4679V7H6.34375Z" fill="#A2001D"/>
</svg>
