<svg id="default" viewBox="0 0 24 24" fill="none" xmlns="http://www.w3.org/2000/svg">
<path d="M20.8873 7.41528C20.4252 6.52007 19.8196 5.67982 19.0692 4.9294C18.3187 4.17895 17.4784 3.57333 16.5833 3.11133L9.53888 9.54079L3.10938 16.5852C3.57141 17.4804 4.17703 18.3207 4.92745 19.0711C5.67787 19.8215 6.51816 20.4271 7.41333 20.8891L14.4577 14.4597L20.8873 7.41528Z" fill="#FFDA44"/>
<path d="M4.92758 19.0673C5.34704 19.4868 5.79463 19.8609 6.26409 20.1903L20.1922 6.26213C19.8629 5.79267 19.4888 5.34509 19.0693 4.92562C18.6498 4.50616 18.2023 4.13209 17.7328 3.80273L3.80469 17.7308C4.134 18.2002 4.50808 18.6479 4.92758 19.0673Z" fill="#D80027"/>
<path d="M4.92846 4.92839C1.77373 8.08312 1.16811 12.821 3.11039 16.5842L16.5843 3.11035C12.821 1.1681 8.08316 1.7738 4.92846 4.92839Z" fill="#338AF3"/>
<path d="M19.0698 19.0718C22.2245 15.9171 22.8301 11.1792 20.888 7.41602L7.41406 20.8899C11.1773 22.8321 15.9152 22.2265 19.0698 19.0718Z" fill="#338AF3"/>
<path d="M7.32484 5.04297L7.86441 6.70367H9.61054L8.1979 7.73001L8.73747 9.39068L7.32484 8.3643L5.91213 9.39068L6.45178 7.73001L5.03906 6.70367H6.78519L7.32484 5.04297Z" fill="#FFDA44"/>
</svg>
