<svg id="default" viewBox="0 0 20 20" xmlns="http://www.w3.org/2000/svg">
<g opacity="0.5">
<path fill-rule="evenodd" clip-rule="evenodd" d="M9.37307 2.3171C7.85771 2.44599 6.4247 3.00629 5.25124 3.92873C4.77188 4.30553 4.30564 4.77179 3.92859 5.2514C2.87442 6.59229 2.29199 8.28231 2.29199 10.0003C2.29199 11.1123 2.52969 12.1958 2.99954 13.2256C3.4987 14.3196 4.28271 15.3107 5.25124 16.0718C6.59226 17.1257 8.28302 17.7084 10.0001 17.7084C10.618 17.7084 11.2158 17.6367 11.8168 17.4904C13.5101 17.0783 14.9754 16.1334 16.0784 14.742C16.2507 14.5246 16.5525 14.0733 16.7004 13.8119C17.6734 12.0919 17.9543 10.0901 17.4903 8.18365C17.2006 6.9935 16.6438 5.90845 15.8396 4.96713C15.5675 4.64857 15.1068 4.20992 14.749 3.92875C13.6885 3.09528 12.3866 2.54598 11.0285 2.35897C10.5526 2.29344 9.85785 2.27586 9.37307 2.3171ZM9.54029 3.35503C8.91066 3.4154 8.53667 3.48564 8.03755 3.63731C7.38765 3.8348 6.60476 4.22839 6.0583 4.63237C5.54114 5.01469 5.01453 5.5413 4.63221 6.05846C4.25644 6.56674 3.89839 7.26024 3.67618 7.91011C3.59892 8.13605 3.48447 8.59941 3.43862 8.87184C3.36312 9.32046 3.35335 9.4497 3.35335 10.0003C3.35335 10.5491 3.3633 10.6817 3.43736 11.1206C3.54839 11.7786 3.74545 12.3709 4.06582 13.0095C4.70073 14.2751 5.72529 15.2997 6.99092 15.9346C7.74598 16.3134 8.43442 16.5196 9.29783 16.6255C9.53318 16.6544 10.4673 16.6544 10.7024 16.6255C11.663 16.5075 12.4879 16.2395 13.3088 15.7788C14.2897 15.2282 15.2281 14.2899 15.7786 13.3089C16.2393 12.4881 16.5073 11.6632 16.6253 10.7026C16.6542 10.4674 16.6542 9.53334 16.6254 9.29799C16.5194 8.43457 16.3132 7.74614 15.9344 6.99108C15.6105 6.34535 15.2268 5.81556 14.7058 5.29457C14.1849 4.77358 13.6551 4.38991 13.0093 4.06598C12.2729 3.69653 11.6091 3.49355 10.786 3.38608C10.5885 3.3603 9.71302 3.33846 9.54029 3.35503ZM9.13897 11.5043L7.26597 9.63233L6.53061 10.3683L7.87657 11.7143C8.61685 12.4546 9.22753 13.0584 9.23363 13.0561C9.24139 13.0532 13.3203 7.96067 13.4977 7.73237C13.5076 7.71965 13.3791 7.60681 13.1034 7.38607L12.6945 7.05867L9.13897 11.5043Z" fill="currentColor"/>
</g>
</svg>
