<svg id="default" viewBox="0 0 24 24" xmlns="http://www.w3.org/2000/svg" fill="currentColor">
    <path d="M15.6872 9.7498L11.2219 15.3314L8.36193 12.4714L9.30474 11.5286L11.1114 13.3352L14.6461 8.91687L15.6872 9.7498Z" />
    <path fill-rule="evenodd" clip-rule="evenodd" d="M6.34315 6.34315C7.84344 4.84286 9.87827 4 12 4C14.1217 4 16.1566 4.84286 17.6569 6.34315C19.1572 7.84344 20 9.87827 20 12C20 14.1217 19.1572 16.1566 17.6569 17.6569C16.1566 19.1572 14.1217 20 12 20C9.87827 20 7.84344 19.1572 6.34315 17.6569C4.84286 16.1566 4 14.1217 4 12C4 9.87827 4.84286 7.84344 6.34315 6.34315ZM12 5.33333C10.2319 5.33333 8.5362 6.03571 7.28596 7.28596C6.03571 8.5362 5.33333 10.2319 5.33333 12C5.33333 13.7681 6.03572 15.4638 7.28596 16.7141C8.5362 17.9643 10.2319 18.6667 12 18.6667C13.7681 18.6667 15.4638 17.9643 16.7141 16.7141C17.9643 15.4638 18.6667 13.7681 18.6667 12C18.6667 10.2319 17.9643 8.5362 16.7141 7.28596C15.4638 6.03572 13.7681 5.33333 12 5.33333Z" />
</svg>
