<svg id="default" viewBox="0 0 24 24" fill="none" xmlns="http://www.w3.org/2000/svg">
<path d="M16.3469 2.99231C15.0322 2.35658 13.5572 2 11.9989 2C10.4406 2 8.96561 2.35658 7.65086 2.99231L6.78125 12.0005L7.65086 21.0087C8.96561 21.6444 10.4406 22.001 11.9989 22.001C13.5572 22.001 15.0322 21.6444 16.3469 21.0087L17.2165 12.0005L16.3469 2.99231Z" fill="#D80027"/>
<path d="M12.0011 8.52344L12.8644 11.1806H15.6586L13.3982 12.823L14.2616 15.4802L12.0011 13.8379L9.74065 15.4802L10.6042 12.823L8.34375 11.1806H11.1377L12.0011 8.52344Z" fill="#FFDA44"/>
<path d="M7.65246 2.99414C4.30738 4.61164 2 8.03716 2 12.002C2 15.9668 4.30738 19.3923 7.65246 21.0098V2.99414Z" fill="#496E2D"/>
<path d="M16.3477 2.99414V21.0098C19.6927 19.3923 22.0001 15.9667 22.0001 12.002C22.0001 8.0372 19.6927 4.61164 16.3477 2.99414Z" fill="#FFDA44"/>
</svg>
