<svg id="default" viewBox="0 0 24 24" fill="none" xmlns="http://www.w3.org/2000/svg">
<path d="M12 22C17.5228 22 22 17.5228 22 12C22 6.47715 17.5228 2 12 2C6.47715 2 2 6.47715 2 12C2 17.5228 6.47715 22 12 22Z" fill="#F0F0F0"/>
<path fill-rule="evenodd" clip-rule="evenodd" d="M12.0578 8.40234C11.6731 8.4025 11.297 8.51674 10.9772 8.73062C10.6574 8.9445 10.4082 9.24842 10.2611 9.60393C10.114 9.95945 10.0756 10.3506 10.1508 10.7279C10.226 11.1052 10.4114 11.4518 10.6836 11.7237C10.9558 11.9957 11.3025 12.1808 11.6798 12.2557C12.0572 12.3306 12.4484 12.292 12.8038 12.1446C13.1592 11.9972 13.4629 11.7477 13.6765 11.4278C13.8901 11.1078 14.0041 10.7316 14.0039 10.3469C14.0038 10.0914 13.9534 9.83847 13.8555 9.60249C13.7577 9.36651 13.6143 9.15212 13.4336 8.97156C13.2529 8.79099 13.0384 8.64779 12.8023 8.55012C12.5663 8.45246 12.3133 8.40224 12.0578 8.40234ZM12.0578 11.2855C11.8724 11.2855 11.6911 11.2306 11.537 11.1275C11.3828 11.0245 11.2626 10.8781 11.1917 10.7068C11.1207 10.5355 11.1022 10.347 11.1383 10.1651C11.1745 9.98329 11.2638 9.81624 11.3949 9.68513C11.526 9.55402 11.6931 9.46473 11.8749 9.42856C12.0568 9.39238 12.2453 9.41095 12.4166 9.48191C12.5879 9.55286 12.7343 9.67302 12.8373 9.82719C12.9403 9.98136 12.9953 10.1626 12.9953 10.348C12.9953 10.5967 12.8965 10.8351 12.7207 11.011C12.5449 11.1868 12.3065 11.2855 12.0578 11.2855Z" fill="#003283"/>
<path fill-rule="evenodd" clip-rule="evenodd" d="M19.8104 11.2575C19.8107 10.2028 19.4144 9.1865 18.7002 8.41035C17.986 7.6342 17.0061 7.15494 15.955 7.0677C15.6628 6.25201 15.1257 5.54651 14.4172 5.04773C13.7087 4.54895 12.8634 4.28125 11.997 4.28125C11.1305 4.28125 10.2852 4.54895 9.57674 5.04773C8.86825 5.54651 8.33117 6.25201 8.03897 7.0677C7.20816 7.13653 6.41659 7.45092 5.76495 7.97086C5.11331 8.49081 4.63104 9.19283 4.37948 9.98763C4.12792 10.7824 4.11844 11.6341 4.35225 12.4343C4.58605 13.2345 5.05258 13.9471 5.69248 14.4814C5.48673 15.295 5.52909 16.1515 5.81411 16.9408C6.09914 17.7301 6.61379 18.4161 7.29187 18.9105C7.96996 19.405 8.78046 19.6852 9.61912 19.7152C10.4578 19.7453 11.2862 19.5237 11.9979 19.079C12.7097 19.5231 13.538 19.7441 14.3764 19.7138C15.2148 19.6835 16.025 19.4032 16.7029 18.909C17.3807 18.4147 17.8953 17.729 18.1805 16.94C18.4658 16.1511 18.5085 15.2948 18.3034 14.4814C18.7756 14.0874 19.1554 13.5944 19.4158 13.0372C19.6763 12.4801 19.811 11.8725 19.8104 11.2575ZM17.5671 14.0923C17.8815 14.8193 17.9403 15.6314 17.7339 16.3962C17.5274 17.1609 17.068 17.8331 16.4304 18.3031C15.7928 18.7731 15.0148 19.0132 14.2232 18.9843C13.4316 18.9553 12.6733 18.6589 12.0718 18.1435C11.4742 18.6557 10.7216 18.9517 9.93529 18.984C9.14894 19.0163 8.37461 18.783 7.73707 18.3215C7.09953 17.8601 6.63591 17.1974 6.4209 16.4403C6.20589 15.6833 6.25202 14.8758 6.55186 14.1482C5.90715 13.7449 5.41119 13.1428 5.13887 12.4327C4.86654 11.7227 4.83265 10.9434 5.04232 10.2124C5.25198 9.48143 5.69381 8.83853 6.30107 8.3808C6.90833 7.92307 7.64805 7.67538 8.4085 7.67512C8.48115 7.67512 8.55225 7.67512 8.62334 7.68255C8.81496 6.92745 9.25284 6.25778 9.86773 5.77944C10.4826 5.3011 11.2394 5.0414 12.0185 5.0414C12.7975 5.0414 13.5543 5.3011 14.1692 5.77944C14.7841 6.25778 15.222 6.92745 15.4136 7.68255C15.4847 7.67669 15.5569 7.67512 15.6284 7.67512C16.3805 7.67508 17.1126 7.91711 17.7165 8.36542C18.3204 8.81372 18.7639 9.44449 18.9815 10.1644C19.1991 10.8843 19.1792 11.6552 18.9248 12.3629C18.6703 13.0707 18.1948 13.6777 17.5687 14.0943L17.5671 14.0923Z" fill="#003283"/>
<path fill-rule="evenodd" clip-rule="evenodd" d="M18.6598 11.2674C18.66 10.846 18.5771 10.4287 18.4159 10.0393C18.2547 9.64999 18.0184 9.29622 17.7204 8.99824C17.4224 8.70027 17.0686 8.46393 16.6793 8.30274C16.2899 8.14154 15.8726 8.05866 15.4512 8.05881C15.3501 8.05881 15.2481 8.06467 15.1485 8.07287C14.9887 7.36203 14.5917 6.72675 14.0228 6.27155C13.4539 5.81636 12.747 5.56836 12.0184 5.56836C11.2898 5.56836 10.5829 5.81636 10.0141 6.27155C9.44516 6.72675 9.04815 7.36203 8.88834 8.07287C8.78912 8.06467 8.68795 8.05881 8.58717 8.05881C7.88118 8.0588 7.19489 8.29166 6.63468 8.72131C6.07448 9.15096 5.67164 9.7534 5.4886 10.4353C5.30557 11.1171 5.35256 11.8403 5.62229 12.4927C5.89202 13.1452 6.36944 13.6904 6.98053 14.044C6.68991 14.7157 6.63771 15.4667 6.83257 16.1722C7.02744 16.8777 7.45766 17.4954 8.05187 17.9228C8.64607 18.3501 9.36854 18.5615 10.0994 18.5218C10.8303 18.4821 11.5256 18.1937 12.07 17.7045C12.6178 18.1961 13.3181 18.4844 14.0533 18.521C14.7885 18.5577 15.5139 18.3404 16.1079 17.9056C16.7019 17.4709 17.1284 16.8451 17.3158 16.1333C17.5032 15.4214 17.4401 14.6668 17.1372 13.9959C17.6031 13.7093 17.9878 13.308 18.2545 12.8304C18.5212 12.3528 18.661 11.8148 18.6606 11.2678L18.6598 11.2674ZM16.5926 13.7936C16.9874 14.3968 17.1358 15.1283 17.0074 15.8376C16.8791 16.547 16.4836 17.1801 15.9025 17.6067C15.3214 18.0332 14.5989 18.2208 13.8837 18.1307C13.1685 18.0407 12.5151 17.6798 12.0579 17.1225C11.6031 17.6766 10.9542 18.0364 10.2433 18.1288C9.53245 18.2213 8.8131 18.0393 8.23173 17.6199C7.65036 17.2005 7.25069 16.5754 7.1141 15.8717C6.97751 15.168 7.11428 14.4386 7.49655 13.8322C6.84631 13.5567 6.32329 13.047 6.03107 12.4041C5.73886 11.7611 5.69877 11.0319 5.91874 10.3608C6.13871 9.68977 6.60271 9.12579 7.21881 8.78061C7.83492 8.43544 8.5582 8.33425 9.24537 8.49709C9.31746 7.8061 9.64239 7.16614 10.1577 6.70021C10.6731 6.23427 11.3424 5.97525 12.0372 5.97292C12.7319 5.9706 13.403 6.22513 13.9214 6.68761C14.4398 7.15008 14.7691 7.78785 14.8458 8.47834C15.522 8.34104 16.2251 8.45673 16.8217 8.80346C17.4182 9.15018 17.8668 9.70382 18.0822 10.3593C18.2977 11.0149 18.265 11.7267 17.9904 12.3597C17.7158 12.9927 17.2185 13.503 16.5926 13.7936Z" fill="#E41F20"/>
<path fill-rule="evenodd" clip-rule="evenodd" d="M11.8203 9.27665H12.3097L12.0767 8.53125L11.8203 9.27665Z" fill="white"/>
<path fill-rule="evenodd" clip-rule="evenodd" d="M11.3157 9.53684L11.7394 9.29254L11.1641 8.76172L11.3157 9.53684Z" fill="white"/>
<path fill-rule="evenodd" clip-rule="evenodd" d="M11.014 10.0121L11.2587 9.58683L10.4961 9.41602L11.014 10.0121Z" fill="white"/>
<path fill-rule="evenodd" clip-rule="evenodd" d="M10.988 10.5792V10.0898L10.2422 10.3228L10.988 10.5792Z" fill="white"/>
<path fill-rule="evenodd" clip-rule="evenodd" d="M11.2427 11.0839L10.9976 10.6602L10.4688 11.2351L11.2427 11.0839Z" fill="white"/>
<path fill-rule="evenodd" clip-rule="evenodd" d="M11.7246 11.3908L11.3009 11.1465L11.1289 11.9087L11.7246 11.3908Z" fill="white"/>
<path fill-rule="evenodd" clip-rule="evenodd" d="M12.2859 11.4199H11.7969L12.0302 12.1653L12.2859 11.4199Z" fill="white"/>
<path fill-rule="evenodd" clip-rule="evenodd" d="M12.7956 11.1582L12.3711 11.4025L12.9469 11.9321L12.7956 11.1582Z" fill="white"/>
<path fill-rule="evenodd" clip-rule="evenodd" d="M13.0994 10.6797L12.8555 11.1034L13.6189 11.2742L13.0994 10.6797Z" fill="white"/>
<path fill-rule="evenodd" clip-rule="evenodd" d="M13.1289 10.1152V10.6046L13.8755 10.3716L13.1289 10.1152Z" fill="white"/>
<path fill-rule="evenodd" clip-rule="evenodd" d="M12.8711 9.60831L13.1154 10.032L13.6451 9.45703L12.8711 9.60831Z" fill="white"/>
<path fill-rule="evenodd" clip-rule="evenodd" d="M12.3906 9.30151L12.8147 9.54581L12.9851 8.7832L12.3906 9.30151Z" fill="white"/>
<path d="M10.6672 14.2067C10.6672 13.9614 10.5945 13.7217 10.4582 13.5178C10.322 13.3139 10.1283 13.155 9.90173 13.0611C9.67515 12.9673 9.42584 12.9428 9.18532 12.9906C8.9448 13.0385 8.72389 13.1566 8.55051 13.3301C8.37712 13.5035 8.25907 13.7245 8.21128 13.965C8.16348 14.2055 8.18809 14.4548 8.28199 14.6814C8.37589 14.9079 8.53487 15.1015 8.73881 15.2377C8.94275 15.3739 9.1825 15.4466 9.42774 15.4465C9.46485 15.4465 9.5004 15.4465 9.53594 15.4422C9.53321 15.4094 9.53204 15.3766 9.53204 15.3442C9.53204 15.3117 9.53204 15.2699 9.53594 15.2344C9.50004 15.2387 9.4639 15.2407 9.42774 15.2403C9.16744 15.2405 8.91659 15.1427 8.72522 14.9662C8.53385 14.7898 8.41601 14.5477 8.3952 14.2882C8.37438 14.0287 8.45213 13.771 8.61292 13.5663C8.77372 13.3616 9.00576 13.225 9.26278 13.1838C9.5198 13.1425 9.78291 13.1997 9.99966 13.3438C10.2164 13.488 10.3709 13.7085 10.4322 13.9615C10.4936 14.2145 10.4574 14.4813 10.3308 14.7087C10.2042 14.9362 9.99656 15.1075 9.74922 15.1887C9.74184 15.2404 9.73805 15.2927 9.7379 15.3449C9.7379 15.366 9.7379 15.3875 9.73985 15.407C10.0055 15.3381 10.2407 15.1829 10.4086 14.9658C10.5765 14.7486 10.6674 14.4819 10.6672 14.2074V14.2067Z" fill="#0083CE"/>
<path d="M16.0379 14.2068C16.0372 14.5257 15.9137 14.8321 15.693 15.0622C15.4723 15.2924 15.1714 15.4287 14.8528 15.4428C14.5342 15.4569 14.2225 15.3477 13.9823 15.1379C13.7422 14.9281 13.5921 14.6338 13.5633 14.3162C13.6357 14.3232 13.7071 14.3384 13.7762 14.3615C13.8141 14.6252 13.9518 14.8643 14.1608 15.0295C14.3698 15.1947 14.6342 15.2734 14.8995 15.2494C15.1648 15.2254 15.4108 15.1005 15.5868 14.9005C15.7628 14.7005 15.8553 14.4406 15.8453 14.1744C15.8353 13.9082 15.7236 13.656 15.5331 13.4697C15.3427 13.2834 15.088 13.1773 14.8216 13.1733C14.5553 13.1692 14.2975 13.2675 14.1015 13.4479C13.9054 13.6283 13.7861 13.877 13.768 14.1428C13.7005 14.1259 13.6318 14.1145 13.5625 14.1088C13.5866 13.7887 13.734 13.4905 13.9736 13.277C14.2132 13.0634 14.5264 12.9512 14.8471 12.9639C15.1678 12.9766 15.4711 13.1132 15.6931 13.3451C15.915 13.5769 16.0384 13.8859 16.0371 14.2068H16.0379Z" fill="#E61446"/>
<path d="M14.4906 15.4074C14.479 15.5948 14.4167 15.7754 14.3102 15.93C14.2038 16.0845 14.0572 16.2072 13.8863 16.2848C13.7154 16.3623 13.5266 16.3919 13.3402 16.3702C13.1538 16.3486 12.9768 16.2766 12.8282 16.1619C12.6796 16.0473 12.565 15.8943 12.4968 15.7195C12.4286 15.5447 12.4093 15.3545 12.441 15.1695C12.4726 14.9846 12.5541 14.8117 12.6766 14.6695C12.7991 14.5273 12.958 14.4212 13.1363 14.3625C13.1437 14.3107 13.1475 14.2585 13.1476 14.2063C13.1476 14.1848 13.1476 14.1637 13.1476 14.1422C12.9272 14.1994 12.7267 14.3162 12.5682 14.4799C12.4098 14.6435 12.2994 14.8475 12.2492 15.0697C12.1991 15.2919 12.211 15.5236 12.2838 15.7394C12.3566 15.9552 12.4873 16.1469 12.6618 16.2933C12.8363 16.4397 13.0477 16.5353 13.2728 16.5695C13.498 16.6038 13.7283 16.5754 13.9384 16.4874C14.1485 16.3995 14.3303 16.2554 14.464 16.071C14.5976 15.8865 14.6779 15.6689 14.6961 15.4418C14.6267 15.4366 14.558 15.4245 14.491 15.4059L14.4906 15.4074ZM13.4586 14.3117C13.7059 14.3114 13.9451 14.3998 14.1327 14.561C14.3203 14.7221 14.4439 14.9453 14.4808 15.1899C14.5499 15.2133 14.6215 15.2287 14.6941 15.2356C14.6667 14.9268 14.5246 14.6396 14.2959 14.4304C14.0672 14.2213 13.7685 14.1053 13.4586 14.1055C13.423 14.1055 13.3875 14.1055 13.3519 14.1098C13.3547 14.1422 13.3547 14.175 13.3547 14.2078C13.3547 14.2406 13.3547 14.2816 13.3507 14.3172C13.3865 14.3132 13.4225 14.3114 13.4586 14.3117Z" fill="#009C45"/>
<path d="M12.0069 15.4434C11.9886 15.6702 11.9082 15.8876 11.7746 16.0718C11.641 16.256 11.4592 16.3998 11.2493 16.4876C11.0393 16.5753 10.8093 16.6036 10.5843 16.5693C10.3594 16.5351 10.1482 16.4395 9.97391 16.2932C9.79963 16.1469 9.66897 15.9555 9.59626 15.7398C9.52354 15.5242 9.51157 15.2927 9.56165 15.0708C9.61173 14.8488 9.72194 14.6449 9.88019 14.4814C10.0384 14.3179 10.2387 14.2011 10.4589 14.1437C10.4589 14.1652 10.4608 14.1863 10.4608 14.2078C10.4609 14.2601 10.4571 14.3123 10.4495 14.3641C10.271 14.4224 10.1117 14.5283 9.98886 14.6704C9.86599 14.8124 9.78416 14.9853 9.75215 15.1704C9.72014 15.3554 9.73917 15.5457 9.80718 15.7208C9.8752 15.8959 9.98963 16.0491 10.1382 16.164C10.2867 16.279 10.4638 16.3512 10.6503 16.3731C10.8369 16.3949 11.0259 16.3656 11.197 16.2881C11.3681 16.2106 11.5148 16.088 11.6215 15.9334C11.7281 15.7788 11.7906 15.598 11.8022 15.4106C11.8693 15.4278 11.9378 15.4393 12.0069 15.4449V15.4434ZM10.6628 14.3172C10.6655 14.2816 10.6671 14.2449 10.6671 14.2078C10.6677 14.1751 10.6665 14.1424 10.6636 14.1098C10.6991 14.1066 10.7347 14.1055 10.771 14.1055C11.0809 14.1053 11.3796 14.2213 11.6082 14.4305C11.8368 14.6396 11.9788 14.9269 12.0061 15.2356C11.9335 15.2286 11.8619 15.2132 11.7929 15.1898C11.7557 14.9454 11.6322 14.7224 11.4447 14.5613C11.2572 14.4002 11.0182 14.3116 10.771 14.3117C10.7348 14.3114 10.6987 14.3132 10.6628 14.3172Z" fill="#F7B000"/>
<path d="M12.1144 15.2418C11.867 15.242 11.6278 15.1534 11.4402 14.9921C11.2526 14.8308 11.1291 14.6075 11.0922 14.3629C11.023 14.3397 10.9515 14.3245 10.8789 14.3176C10.9063 14.6264 11.0483 14.9137 11.277 15.123C11.5057 15.3322 11.8045 15.4482 12.1144 15.4481C12.15 15.4481 12.1859 15.4481 12.2219 15.4438C12.2187 15.411 12.2172 15.3782 12.2172 15.3457C12.2172 15.3133 12.2195 15.2715 12.2223 15.236C12.1865 15.2403 12.1505 15.2422 12.1144 15.2418ZM12.1144 12.9688C11.8029 12.9686 11.5027 13.0859 11.2737 13.2972C11.0447 13.5086 10.9038 13.7984 10.8789 14.109C10.9478 14.1147 11.0161 14.1261 11.0832 14.143C11.095 13.9557 11.1575 13.7751 11.2641 13.6207C11.3708 13.4662 11.5175 13.3437 11.6884 13.2664C11.8594 13.189 12.0483 13.1597 12.2347 13.1815C12.4211 13.2034 12.598 13.2756 12.7464 13.3904C12.8949 13.5052 13.0093 13.6583 13.0773 13.8332C13.1453 14.0081 13.1644 14.1983 13.1325 14.3832C13.1007 14.5682 13.019 14.741 12.8963 14.883C12.7737 15.025 12.6146 15.131 12.4363 15.1895C12.4282 15.2412 12.4242 15.2934 12.4242 15.3457V15.4078C12.7161 15.332 12.9703 15.1523 13.1392 14.9025C13.3081 14.6527 13.3802 14.3498 13.3419 14.0507C13.3035 13.7516 13.1575 13.4767 12.931 13.2775C12.7046 13.0783 12.4133 12.9686 12.1117 12.9688H12.1144Z" fill="#000006"/>
</svg>
