<svg id="default" viewBox="0 0 25 24" fill="none" xmlns="http://www.w3.org/2000/svg">
<g clip-path="url(#clip0_18769_395797)">
<path d="M16.2575 5.52393H11.4788C10.7425 5.52393 10.1455 6.12088 10.1455 6.85726V10.2853C10.1455 11.0216 10.7425 11.6186 11.4788 11.6186H16.2575C16.9939 11.6186 17.5908 11.0216 17.5908 10.2853V6.85726C17.5908 6.12088 16.9939 5.52393 16.2575 5.52393Z" fill="#E8BA17" />
<path d="M10.8908 4H10.8895C10.4786 4 10.1455 4.3331 10.1455 4.744V18.4947C10.1455 18.9056 10.4786 19.2387 10.8895 19.2387H10.8908C11.3017 19.2387 11.6348 18.9056 11.6348 18.4947V4.744C11.6348 4.3331 11.3017 4 10.8908 4Z" fill="#9F9F9F" />
<path d="M7.16637 18.4762C7.16637 18.0548 7.50771 17.7148 7.92771 17.7148H13.8504C14.2704 17.7148 14.6117 18.0548 14.6117 18.4762C14.6117 18.8975 14.2704 19.2388 13.8504 19.2388H7.92637C7.50637 19.2388 7.16504 18.8975 7.16504 18.4762H7.16637Z" fill="#27AE60" />
<path d="M11.6357 5.52393H16.2584C16.9944 5.52393 17.5917 6.12126 17.5917 6.85726V10.2853C17.5917 11.0226 16.9944 11.6186 16.2584 11.6186H14.6131L11.6357 5.52393Z" fill="#F9D34D"/>
</g>
<defs>
<clipPath id="clip0_18769_395797">
<rect width="10.6667" height="16" fill="white" transform="translate(7.16699 4)"/>
</clipPath>
</defs>
</svg>
