<svg id="default" viewBox="0 0 24 24" fill="none" xmlns="http://www.w3.org/2000/svg">
<path d="M11.9999 21.9999C17.5228 21.9999 21.9999 17.5228 21.9999 11.9999C21.9999 6.47713 17.5228 2 11.9999 2C6.47713 2 2 6.47713 2 11.9999C2 17.5228 6.47713 21.9999 11.9999 21.9999Z" fill="#F0F0F0"/>
<path d="M12.0043 2C8.73277 2 5.82832 3.57121 4.00391 6H20.0047C18.1804 3.57117 15.2759 2 12.0043 2Z" fill="#0052B4"/>
<path d="M12.0043 22C15.2759 22 18.1804 20.4288 20.0048 18H4.00391C5.82828 20.4288 8.73277 22 12.0043 22Z" fill="#0052B4"/>
<path d="M2 12C2 12.6849 2.06906 13.3538 2.20027 14H21.7998C21.931 13.3538 22 12.6849 22 12C22 11.315 21.9309 10.6462 21.7998 10H2.20027C2.06906 10.6462 2 11.315 2 12Z" fill="#0052B4"/>
<path d="M4.9289 4.92969C1.0237 8.83488 1.0237 15.1666 4.9289 19.0718C6.54269 17.458 8.09472 15.906 12 12.0008L4.9289 4.92969Z" fill="#D80027"/>
<path d="M6.04762 9.39258L6.69504 11.3853H8.79059L7.09539 12.6171L7.74281 14.6099L6.04762 13.3782L4.35234 14.6099L4.99992 12.6171L3.30469 11.3853H5.40008L6.04762 9.39258Z" fill="#F0F0F0"/>
</svg>
