<svg id="default" viewBox="0 0 24 24" fill="none" xmlns="http://www.w3.org/2000/svg">
<path d="M12 22C17.5228 22 22 17.5228 22 12C22 6.47715 17.5228 2 12 2C6.47715 2 2 6.47715 2 12C2 17.5228 6.47715 22 12 22Z" fill="#F0F0F0"/>
<path d="M12.0024 21.9997C15.0333 21.9997 17.749 20.6511 19.5829 18.5215H4.42188C6.25574 20.6511 8.97148 21.9997 12.0024 21.9997Z" fill="#0052B4"/>
<path d="M22 12C22 6.47719 17.5228 2 12 2C6.47719 2 2 6.47719 2 12C2 12.9026 2.12031 13.7769 2.34449 14.6087H21.6555C21.8797 13.7769 22 12.9026 22 12Z" fill="#0052B4"/>
<path d="M2.79297 15.9121C2.98574 16.3651 3.21109 16.8007 3.4659 17.2164H20.5304C20.7852 16.8007 21.0105 16.365 21.2034 15.9121H2.79297Z" fill="#D80027"/>
<path d="M9.15099 12.6504L9.31297 13.1489H9.83718L9.41312 13.4571L9.5751 13.9556L9.15099 13.6475L8.72689 13.9556L8.88891 13.4571L8.46484 13.1489H8.98905L9.15099 12.6504Z" fill="#FFDA44"/>
<path d="M9.14709 19.1738L9.30907 19.6724H9.83327L9.40921 19.9805L9.57119 20.479L9.14709 20.1709L8.72298 20.479L8.885 19.9805L8.46094 19.6724H8.98515L9.14709 19.1738Z" fill="#FFDA44"/>
<path d="M6.11584 16.9668L6.27782 17.4653H6.80203L6.37797 17.7734L6.53995 18.272L6.11584 17.9639L5.69173 18.272L5.85379 17.7734L5.42969 17.4653H5.95386L6.11584 16.9668Z" fill="#FFDA44"/>
<path d="M7.27213 13.3008L7.4341 13.7993H7.95827L7.53425 14.1074L7.69623 14.606L7.27213 14.2979L6.84802 14.606L7.01008 14.1074L6.58594 13.7993H7.11014L7.27213 13.3008Z" fill="#FFDA44"/>
<path d="M5.42969 15.358L5.95378 15.358L6.1158 14.8594L6.27782 15.358L6.80203 15.3579L6.37793 15.666L6.53995 16.1646L6.1158 15.8565L5.69173 16.1645L5.85372 15.666L5.42969 15.358Z" fill="#FFDA44"/>
<path d="M6.8481 19.7309L7.01008 19.2324L6.58594 18.9243H7.11015L7.27217 18.4258L7.43419 18.9243H7.95836L7.53426 19.2324L7.69624 19.731L7.27213 19.4228L6.8481 19.7309Z" fill="#FFDA44"/>
<path d="M12.1822 16.9668L12.0203 17.4653H11.4961L11.9201 17.7734L11.7581 18.272L12.1822 17.9639L12.6063 18.272L12.4443 17.7734L12.8684 17.4653H12.3442L12.1822 16.9668Z" fill="#FFDA44"/>
<path d="M11.0221 13.3008L10.8601 13.7993H10.3359L10.76 14.1074L10.598 14.606L11.0221 14.2979L11.4462 14.606L11.2842 14.1074L11.7083 13.7993H11.1841L11.0221 13.3008Z" fill="#FFDA44"/>
<path d="M12.8684 15.358L12.3443 15.358L12.1823 14.8594L12.0203 15.358L11.4961 15.3579L11.9202 15.666L11.7581 16.1646L12.1823 15.8565L12.6063 16.1645L12.4444 15.666L12.8684 15.358Z" fill="#FFDA44"/>
<path d="M11.4462 19.7309L11.2843 19.2324L11.7084 18.9243H11.1842L11.0221 18.4258L10.8602 18.9243H10.3359L10.76 19.2324L10.5981 19.731L11.0222 19.4228L11.4462 19.7309Z" fill="#FFDA44"/>
</svg>
