<svg id="default" viewBox="0 0 24 24" fill="none" xmlns="http://www.w3.org/2000/svg">
<path d="M11.9982 21.9964C17.52 21.9964 21.9964 17.52 21.9964 11.9982C21.9964 6.47634 17.52 2 11.9982 2C6.47634 2 2 6.47634 2 11.9982C2 17.52 6.47634 21.9964 11.9982 21.9964Z" fill="#F0F0F0"/>
<path d="M11.1301 11.998C11.1301 11.998 4.93555 19.0692 4.92969 19.0678C6.73896 20.8771 9.23854 21.9962 11.9995 21.9962C17.5213 21.9962 21.9976 17.5199 21.9976 11.998H11.1301Z" fill="#D80027"/>
<path d="M4.92839 4.92969C1.02387 8.83421 1.02387 15.1647 4.92839 19.0693C6.54188 17.4558 8.09367 15.904 11.9982 11.9995L4.92839 4.92969Z" fill="#0052B4"/>
</svg>
