<svg id="default" xmlns="http://www.w3.org/2000/svg" viewBox="0 0 24 24">
<path fill="currentColor" fill-rule="evenodd" clip-rule="evenodd" d="M6.22418 4.52136H2.83685V21.154H21.1631V4.52136H17.7758V2.65399H16.4079V4.52136H7.59213V2.65399H6.22418V4.52136ZM4.20481 7.90869H19.7952V5.88932H4.20481V7.90869ZM4.20481 19.786H19.7952V9.27664H4.20481V19.786ZM6.05047 13.5108H8.61267V12.1646H6.05047V13.5108ZM10.7189 13.5108H13.2811V12.1646H10.7189V13.5108ZM15.3873 13.5108H17.9495V12.1646H15.3873V13.5108ZM6.06132 16.909L8.61267 16.9202V15.5519H6.04986L6.06132 16.909ZM10.7298 16.909H13.2702L13.2817 15.5519H10.7183L10.7298 16.909Z"/>
</svg>