<svg id="default" viewBox="0 0 24 24" fill="none" xmlns="http://www.w3.org/2000/svg">
<path fill="currentColor" fill-rule="evenodd" clip-rule="evenodd" d="M6.61914 13.4726H3.17969L3.17969 3.12664H17.4518L19.561 9.10398C20.721 12.3915 21.6744 15.0931 21.6796 15.1076C21.6873 15.1286 20.8639 15.1339 17.6074 15.1339L13.5257 15.1339V16.3537C13.5257 17.6199 13.5165 17.7873 13.4287 18.1304C13.3107 18.5911 13.089 19.0542 12.8088 19.425C12.3132 20.0809 11.6201 20.5487 10.8445 20.751C10.4728 20.8479 10.3709 20.8569 9.50805 20.8681L8.67625 20.8789L6.61914 13.4726ZM9.66954 19.513C9.66363 19.4928 9.23716 17.957 8.72186 16.1001L7.78491 12.724L7.78491 4.45133L16.519 4.46195L18.1558 9.09872C19.0559 11.6489 19.7977 13.7521 19.8042 13.7723C19.8154 13.8072 19.6257 13.8091 16.019 13.8091L12.2219 13.8091L12.2219 15.5176C12.2219 16.5262 12.213 17.3196 12.2003 17.4543C12.1447 18.0398 11.9128 18.5197 11.4914 18.9212C11.0641 19.3285 10.5079 19.5498 9.91215 19.5498C9.70946 19.5498 9.67894 19.5452 9.66954 19.513ZM4.50448 4.45144H6.46012L6.46012 12.1689H4.50448L4.50448 4.45144Z" />
</svg>
