<svg id="default" viewBox="0 0 24 24" fill="none" xmlns="http://www.w3.org/2000/svg">
<path d="M12 22C17.5228 22 22 17.5228 22 12C22 6.47715 17.5228 2 12 2C6.47715 2 2 6.47715 2 12C2 17.5228 6.47715 22 12 22Z" fill="#F0F0F0"/>
<path d="M9.83207 10.6956H21.9213C21.2821 5.78913 17.0867 2 12.0059 2C11.2593 2 10.532 2.08254 9.83203 2.23769V10.6956H9.83207Z" fill="#D80027"/>
<path d="M7.21867 10.6946V3.21484C4.47285 4.71304 2.50715 7.46112 2.08594 10.6946H7.21867V10.6946Z" fill="#D80027"/>
<path d="M7.21863 13.3047H2.08594C2.50715 16.5382 4.47285 19.2862 7.21867 20.7844L7.21863 13.3047Z" fill="#D80027"/>
<path d="M9.83203 13.3047V21.7627C10.532 21.9178 11.2593 22.0004 12.0059 22.0004C17.0867 22.0004 21.2821 18.2112 21.9213 13.3047H9.83203V13.3047Z" fill="#D80027"/>
</svg>
