<svg id="default" viewBox="0 0 24 24" fill="none" xmlns="http://www.w3.org/2000/svg">
<path d="M12 22C17.5228 22 22 17.5228 22 12C22 6.47715 17.5228 2 12 2C6.47715 2 2 6.47715 2 12C2 17.5228 6.47715 22 12 22Z" fill="#F0F0F0"/>
<path d="M2.34766 14.6094C3.27101 18.0353 5.96855 20.7329 9.39448 21.6562V14.6094H2.34766Z" fill="#D80027"/>
<path d="M9.39444 2.3457C5.96855 3.26902 3.27097 5.9666 2.34766 9.3925H9.39448V2.3457H9.39444Z" fill="#0052B4"/>
<path d="M21.6562 9.3925C20.7328 5.9666 18.0353 3.26902 14.6094 2.3457V9.39254H21.6562V9.3925Z" fill="#D80027"/>
<path d="M14.6094 21.6562C18.0353 20.7329 20.7328 18.0353 21.6562 14.6094H14.6094V21.6562Z" fill="#0052B4"/>
<path d="M14.608 12.0013C14.608 13.4421 13.4401 14.61 11.9993 14.61C10.5586 14.61 9.39062 13.4421 9.39062 12.0013C9.39062 10.5605 11.9993 9.39258 11.9993 9.39258C11.9993 9.39258 14.608 10.5605 14.608 12.0013Z" fill="#496E2D"/>
<path d="M9.39062 12.0013C9.39062 10.5605 10.5586 9.39258 11.9993 9.39258C13.4401 9.39258 14.608 10.5605 14.608 12.0013" fill="#0052B4"/>
<path d="M10.5352 10.6953V12.3257C10.5352 13.1362 11.1921 13.7931 12.0025 13.7931C12.813 13.7931 13.4699 13.1362 13.4699 12.3257V10.6953H10.5352Z" fill="#D80027"/>
</svg>
