<svg id="default" viewBox="0 0 24 24" fill="none" xmlns="http://www.w3.org/2000/svg">
<path d="M11.9997 2C17.5226 2 21.9998 6.47726 21.9998 12.0002C21.9998 17.5231 17.5226 22.0003 11.9997 22.0003C11.9997 21.5655 10.6953 12.0002 10.6953 12.0002L11.9997 2Z" fill="#F0F0F0"/>
<path d="M12.0002 22.0003C6.47726 22.0003 2 17.5231 2 12.0002C2 6.47726 6.47726 2 12.0002 2" fill="#496E2D"/>
<path d="M14.1532 10.0859L13.3327 11.2166L12.0039 10.7857L12.8257 11.9154L12.0053 13.0461L13.3336 12.6136L14.1554 13.7432L14.1546 12.3463L15.4829 11.9138L14.1541 11.4829L14.1532 10.0859Z" fill="#D80027"/>
<path d="M12.8309 14.8279C11.2701 14.8279 10.0048 13.5626 10.0048 12.0018C10.0048 10.441 11.2701 9.17563 12.8309 9.17563C13.3176 9.17563 13.7755 9.29868 14.1753 9.51532C13.5481 8.902 12.6904 8.52344 11.7439 8.52344C9.82288 8.52344 8.26562 10.0807 8.26562 12.0017C8.26562 13.9227 9.82292 15.48 11.7439 15.48C12.6904 15.48 13.5481 15.1014 14.1753 14.4881C13.7755 14.7048 13.3176 14.8279 12.8309 14.8279Z" fill="#D80027"/>
</svg>
