<svg id="default" viewBox="0 0 24 24" fill="none" xmlns="http://www.w3.org/2000/svg">
<path d="M2.99227 7.65082C2.35656 8.96551 2 10.4404 2 11.9986C2 13.5569 2.35656 15.0318 2.99227 16.3464L12 17.216L21.0077 16.3464C21.6434 15.0318 22 13.5569 22 11.9986C22 10.4404 21.6434 8.96551 21.0077 7.65082L12 6.78125L2.99227 7.65082Z" fill="#F0F0F0"/>
<path d="M2.99219 16.3477C4.60961 19.6926 8.035 21.9998 11.9996 21.9998C15.9641 21.9998 19.3895 19.6926 21.007 16.3477H2.99219Z" fill="#496E2D"/>
<path d="M2.99219 7.6522H21.007C19.3895 4.30723 15.9642 2 11.9996 2C8.03496 2 4.60961 4.30723 2.99219 7.6522Z" fill="black"/>
<path d="M4.92893 4.92969C1.02369 8.83492 1.02369 15.1666 4.92893 19.0719C6.54271 17.4581 8.09478 15.906 12 12.0008L4.92893 4.92969Z" fill="#D80027"/>
<path d="M14.6091 12.0025C14.6091 10.5455 15.633 9.32836 17.0003 9.02977C16.7902 8.98387 16.5721 8.95898 16.3481 8.95898C14.6673 8.95898 13.3047 10.3216 13.3047 12.0025C13.3047 13.6834 14.6673 15.0459 16.3481 15.0459C16.5721 15.0459 16.7901 15.0211 17.0003 14.9752C15.633 14.6766 14.6091 13.4594 14.6091 12.0025Z" fill="#D80027"/>
<path d="M17.1294 10.043L17.5611 11.3716H18.9581L17.8279 12.1927L18.2596 13.5212L17.1294 12.7002L15.9993 13.5212L16.431 12.1927L15.3008 11.3716H16.6977L17.1294 10.043Z" fill="#D80027"/>
</svg>
