<svg id="default" viewBox="0 0 24 24" fill="none" xmlns="http://www.w3.org/2000/svg">
<path d="M11.1301 11.1289C11.1301 11.1289 4.93555 19.0695 4.92969 19.0681C6.73896 20.8774 9.23854 21.9965 11.9995 21.9965C17.5213 21.9965 21.9976 17.5201 21.9976 11.9983L11.1301 11.1289Z" fill="#338AF3"/>
<path d="M11.1301 11.9982C11.1301 11.9982 4.93555 4.927 4.92969 4.92841C6.73896 3.11909 9.23854 2 11.9995 2C17.5213 2 21.9976 6.47636 21.9976 11.9982H11.1301Z" fill="#6DA544"/>
<path d="M4.92839 4.92969C1.02387 8.83421 1.02387 15.1647 4.92839 19.0693C4.92812 19.0709 21.9964 11.9995 21.9964 11.9995L4.92839 4.92969Z" fill="#D80027"/>
<path d="M7.21588 7.86719C5.29831 7.86719 3.73828 9.42726 3.73828 11.3448V12.6489C3.73828 14.5665 5.29834 16.1265 7.21588 16.1265C9.13342 16.1265 10.6935 14.5664 10.6935 12.6489V11.3448C10.6935 9.42726 9.13346 7.86719 7.21588 7.86719ZM9.38938 12.6489C9.38938 13.6203 8.7488 14.4447 7.86791 14.7224V13.301L8.79055 12.3784L7.86842 11.4562L7.86791 11.128V10.6928H6.56385V11.9969L5.64184 12.9189L6.56385 13.8408V14.7224C5.68296 14.4448 5.04238 13.6204 5.04238 12.649V11.3449C5.04238 10.1464 6.01743 9.17137 7.21588 9.17137C8.41433 9.17137 9.38938 10.1464 9.38938 11.3449V12.6489Z" fill="#FFDA44"/>
</svg>
