<svg id="default" viewBox="0 0 24 24" fill="none" xmlns="http://www.w3.org/2000/svg">
<path d="M2 12.0021C2 13.2254 2.22004 14.3971 2.62203 15.4804L12 16.3499L21.378 15.4804C21.78 14.3971 22 13.2253 22 12.0021C22 10.7957 21.7863 9.63913 21.3948 8.56832L12 7.6543L2.60523 8.56836C2.21371 9.63913 2 10.7957 2 12.0021H2Z" fill="#FFDA44"/>
<path d="M11.9991 22.0003C16.2987 22.0003 19.9641 19.2865 21.3771 15.4785H2.62109C4.03402 19.2865 7.69944 22.0003 11.9991 22.0003Z" fill="#D80027"/>
<path d="M11.9991 2C7.69945 2 4.03402 4.71375 2.62109 8.52176H21.3771C19.9642 4.71375 16.2987 2 11.9991 2Z" fill="#6DA544"/>
<path d="M12.0014 16.782C14.6427 16.782 16.784 14.6408 16.784 11.9994C16.784 9.35805 14.6427 7.2168 12.0014 7.2168C9.36 7.2168 7.21875 9.35805 7.21875 11.9994C7.21875 14.6408 9.36 16.782 12.0014 16.782Z" fill="#0052B4"/>
<path d="M11.9995 8.29883L12.8629 10.9559H15.6612L13.3964 12.5982L14.2666 15.2632L11.9995 13.6131L9.7359 15.2601L10.6025 12.5982L8.33984 10.9559H11.1361L11.9995 8.29883Z" fill="#FFDA44"/>
<path d="M15.4433 12.6645L12.7044 11.7745L14.3971 9.44477L13.6936 8.93359L12.0009 11.2634L10.3082 8.93363L9.60472 9.44473L11.2974 11.7746L8.55859 12.6644L8.82726 13.4915L11.5662 12.6016V15.4814H12.4357V12.6016L15.1745 13.4915L15.4433 12.6645Z" fill="#FFDA44"/>
</svg>
