<svg id="default" xmlns="http://www.w3.org/2000/svg" viewBox="0 0 24 24">
<path fill="currentColor" fill-rule="evenodd" clip-rule="evenodd" d="M11.405 4.29537C9.25204 4.45798 7.69326 5.31627 6.11076 7.21041C5.64871 7.76346 5.23019 8.33832 4.43411 9.51339C4.18746 9.87747 3.80423 10.4431 3.58252 10.7704C3.36082 11.0976 3.08526 11.4993 2.97019 11.6629C2.85512 11.8266 2.75643 11.9723 2.75089 11.9867C2.74532 12.0012 2.76658 12.0488 2.79812 12.0926C2.96926 12.3301 3.47199 13.0643 4.01283 13.8664C5.03836 15.3875 5.49004 16.0243 5.93696 16.5793C7.03286 17.94 8.05641 18.7564 9.27215 19.2395C10.6531 19.7883 12.4685 19.8783 14.0069 19.4743C15.4786 19.0878 16.6991 18.2368 17.9389 16.7325C18.4831 16.0722 18.7556 15.6876 20.3841 13.2815C20.6394 12.9043 20.9362 12.4709 21.0436 12.3184C21.1511 12.1658 21.2436 12.0292 21.2491 12.0147C21.2547 12.0002 21.2334 11.9526 21.2019 11.9088C21.0273 11.6665 20.5222 10.9284 19.9476 10.0757C18.8993 8.52017 18.4147 7.84317 17.933 7.26093C16.4103 5.42058 14.9517 4.56684 12.9177 4.32543C12.6103 4.28894 11.7235 4.27131 11.405 4.29537ZM11.4756 5.55873C10.5992 5.63569 9.94497 5.81224 9.28717 6.14924C8.72208 6.43875 8.26436 6.78011 7.74328 7.30061C7.04877 7.99436 6.56664 8.61961 5.41872 10.3151C5.16282 10.6931 4.80062 11.2278 4.61382 11.5033L4.27419 12.0043L4.34234 12.0983C4.37981 12.15 4.68559 12.6008 5.02182 13.1C6.52497 15.3316 6.99444 15.9528 7.74328 16.7008C8.63264 17.5892 9.52538 18.0917 10.6222 18.3214C11.107 18.4229 11.3395 18.4435 12 18.4435C12.6605 18.4435 12.893 18.4229 13.3778 18.3214C14.843 18.0146 15.9663 17.2187 17.2311 15.5909C17.6412 15.0631 18.0005 14.5516 18.938 13.1605C19.2745 12.6613 19.59 12.1961 19.6392 12.1268L19.7286 12.0007L19.6392 11.8747C19.59 11.8053 19.2745 11.3402 18.938 10.841C18.0045 9.45582 17.6246 8.91467 17.2317 8.41051C15.8305 6.61221 14.6348 5.83757 12.8875 5.59616C12.6654 5.56548 11.6924 5.53969 11.4756 5.55873ZM11.7781 9.01798C10.5399 9.10318 9.4733 9.96652 9.12612 11.1646C8.97315 11.6925 8.97315 12.309 9.12612 12.8369C9.43409 13.8996 10.318 14.7137 11.405 14.9356C11.6238 14.9803 11.9548 14.9994 12.2168 14.9825C13.5431 14.8971 14.6664 13.9106 14.9349 12.5957C14.9796 12.377 14.9987 12.0459 14.9818 11.7839C14.9052 10.595 14.1036 9.55463 12.9682 9.17044C12.7122 9.08383 12.4918 9.03734 12.2738 9.02397C12.1842 9.01848 12.0837 9.0116 12.0504 9.0087C12.0171 9.0058 11.8946 9.00997 11.7781 9.01798ZM11.7479 10.2871C11.0656 10.3933 10.5004 10.9011 10.323 11.5671C10.2893 11.6938 10.2801 11.7868 10.2801 12.0007C10.2801 12.2146 10.2893 12.3076 10.323 12.4344C10.4821 13.0317 10.969 13.5186 11.5664 13.6777C11.6931 13.7114 11.7861 13.7206 12 13.7206C12.2139 13.7206 12.3069 13.7114 12.4337 13.6777C13.031 13.5186 13.5179 13.0317 13.677 12.4344C13.7378 12.2058 13.7378 11.7956 13.677 11.5671C13.5177 10.9688 13.0225 10.4746 12.4337 10.326C12.2456 10.2786 11.921 10.2602 11.7479 10.2871Z"/>
</svg>