<svg id="default" viewBox="0 0 24 24" fill="none" xmlns="http://www.w3.org/2000/svg">
<path d="M12 22C17.5228 22 22 17.5228 22 12C22 6.47715 17.5228 2 12 2C6.47715 2 2 6.47715 2 12C2 17.5228 6.47715 22 12 22Z" fill="#F0F0F0"/>
<path d="M21.9154 10.6943H9.82613H9.82609V2.23633C8.90195 2.44125 8.02582 2.7734 7.21738 3.21453V10.6942V10.6943H2.08465C2.02898 11.1213 2 11.5566 2 11.9986C2 12.4407 2.02898 12.876 2.08465 13.303H7.21734H7.21738V20.7827C8.02582 21.2238 8.90195 21.556 9.82609 21.7609V13.3031V13.303H21.9154C21.9709 12.876 22 12.4407 22 11.9986C22 11.5566 21.9709 11.1213 21.9154 10.6943Z" fill="#0052B4"/>
</svg>
