<svg id="default" viewBox="0 0 24 24" fill="none" xmlns="http://www.w3.org/2000/svg">
<path d="M22 12C22 17.5228 17.5228 22 12 22C6.47719 22 2 17.5228 2 12C2 12.0024 12 2.00109 12 2C17.5228 2 22 6.47719 22 12Z" fill="#338AF3"/>
<path d="M12.0017 6.78125V10.154L8.52344 6.78125H12.0017Z" fill="#0052B4"/>
<path d="M7.21602 11.999H10.154L7.21602 8.08594L6.78125 11.1294L7.21602 11.999Z" fill="#0052B4"/>
<path d="M11.9727 11.9994H11.9994C11.9994 11.9904 11.9994 11.9817 11.9994 11.9727C11.9905 11.9816 11.9816 11.9905 11.9727 11.9994Z" fill="#F0F0F0"/>
<path d="M12 7.21738C12 5.45781 12 4.30488 12 2H11.9983C6.47625 2.00094 2 6.47769 2 12H7.21738V9.06207L10.1554 12H11.9733C11.9822 11.9911 11.9911 11.9822 12.0001 11.9732C12.0001 11.2995 12.0001 10.6984 12.0001 10.1554L9.06203 7.21738H12Z" fill="#F0F0F0"/>
<path d="M7.05952 3.30469C5.4955 4.19527 4.19527 5.4955 3.30469 7.05952V12.0003H5.91339V5.91347V5.91339H12.0003C12.0003 5.09062 12.0003 4.3068 12.0003 3.30469H7.05952Z" fill="#D80027"/>
<path d="M12.0013 10.7697L8.44848 7.2168H7.21875V7.21687L12.0013 11.9994H12.0013C12.0013 11.9994 12.0013 11.1515 12.0013 10.7697Z" fill="#D80027"/>
<path d="M13.3047 8.52387V12.0021C13.3047 14.3318 16.3482 15.0456 16.3482 15.0456C16.3482 15.0456 19.3917 14.3318 19.3917 12.0021V8.52387L16.3482 7.6543L13.3047 8.52387Z" fill="#F3F3F3"/>
<path d="M19.3917 8.52113V7.2168H13.3047V8.52113H15.9133V11.1299H13.3047V11.9994V11.9994L15.9133 11.9995V14.9095C16.1757 15.0023 16.3482 15.0429 16.3482 15.0429C16.3482 15.0429 16.5205 15.0024 16.7829 14.9095V11.9994H19.3917V11.9994V11.1298H16.7829V8.52109H19.3917V8.52113Z" fill="#D80027"/>
</svg>
