<svg id="default" viewBox="0 0 24 24" fill="none" xmlns="http://www.w3.org/2000/svg">
<path d="M12 22C17.5228 22 22 17.5228 22 12C22 6.47715 17.5228 2 12 2C6.47715 2 2 6.47715 2 12C2 17.5228 6.47715 22 12 22Z" fill="#338AF3"/>
<path d="M11.9966 6.3457L12.4282 7.6743H13.8253L12.6951 8.49543L13.1268 9.82399L11.9966 9.0029L10.8664 9.82399L11.2982 8.49543L10.168 7.6743H11.565L11.9966 6.3457Z" fill="#F0F0F0"/>
<path d="M6.34766 11.9987L7.67625 11.567V10.1699L8.49739 11.3002L9.82595 10.8685L9.00485 11.9987L9.82595 13.1287L8.49739 12.697L7.67625 13.8272V12.4303L6.34766 11.9987Z" fill="#F0F0F0"/>
<path d="M11.9967 17.6502L11.565 16.3216H10.168L11.2982 15.5004L10.8665 14.1719L11.9967 14.993L13.1268 14.1719L12.6951 15.5004L13.8253 16.3216H12.4283L11.9967 17.6502Z" fill="#F0F0F0"/>
<path d="M17.6502 11.9986L16.3216 12.4302V13.8272L15.5004 12.697L14.1719 13.1287L14.993 11.9986L14.1719 10.8684L15.5004 11.3002L16.3216 10.1699V11.5669L17.6502 11.9986Z" fill="#F0F0F0"/>
</svg>
