<svg id="default" viewBox="0 0 24 24" fill="none" xmlns="http://www.w3.org/2000/svg">
<path d="M12 22C17.5228 22 22 17.5228 22 12C22 6.47715 17.5228 2 12 2C6.47715 2 2 6.47715 2 12C2 17.5228 6.47715 22 12 22Z" fill="#F0F0F0"/>
<path d="M22 12C22 17.5228 17.5228 22 12 22C6.47719 22 2 17.5228 2 12" fill="#496E2D"/>
<path d="M19.3036 8.95809C18.9459 7.94391 17.9796 7.2168 16.8431 7.2168H14.607C13.1663 7.2168 11.9983 8.38477 11.9983 9.82551C11.9983 10.2962 12.1236 10.7486 12.3417 11.1298C11.5114 11.123 10.7429 11.1356 10.2592 11.1298C10.2592 10.1238 10.2592 8.84211 10.2592 8.57395L10.3619 8.47121C10.8231 8.01004 10.6693 7.24145 10.6693 7.24145C10.6693 7.24145 9.90078 7.08773 9.43961 7.54891L8.90215 8.08637H8.30266C6.98195 8.08637 5.91137 9.15699 5.91137 10.4777H7.65051V12.4342C7.65051 12.7204 7.7082 12.993 7.81246 13.2412L7.2157 13.7385H6.34613V12.8689H5.47656V14.6081H9.38961V16.3472H8.52004V17.2168H10.2592V15.4777L11.0562 14.5211H12.9404L13.7374 15.4777V16.3472H12.8679V17.2168H16.3461V12.4341C16.3461 11.7138 16.9301 11.1298 17.6504 11.1298C17.6689 11.1298 17.6873 11.1305 17.7057 11.1312C17.6696 10.9918 17.6504 10.8457 17.6504 10.695C17.6505 9.76344 18.383 9.00297 19.3036 8.95809ZM14.607 16.3472V14.5211H14.6795L15.4766 15.4776V16.3472H14.607Z" fill="#D80027"/>
</svg>
