<svg id="default" viewBox="0 0 24 24" fill="none" xmlns="http://www.w3.org/2000/svg">
<path d="M12 22C17.5228 22 22 17.5228 22 12C22 6.47715 17.5228 2 12 2C6.47715 2 2 6.47715 2 12C2 17.5228 6.47715 22 12 22Z" fill="#F0F0F0"/>
<path d="M21.9154 10.6957H13.3044H13.3044V2.08465C12.8774 2.02906 12.4421 2 12 2C11.5579 2 11.1226 2.02906 10.6957 2.08465V10.6956V10.6956H2.08465C2.02906 11.1226 2 11.5579 2 12C2 12.4421 2.02906 12.8774 2.08465 13.3043H10.6956H10.6956V21.9154C11.1226 21.9709 11.5579 22 12 22C12.4421 22 12.8774 21.971 13.3043 21.9154V13.3044V13.3044H21.9154C21.9709 12.8774 22 12.4421 22 12C22 11.5579 21.9709 11.1226 21.9154 10.6957Z" fill="#D80027"/>
<path d="M8.08528 6.78289V5.47852H6.78094V6.78289H5.47656V8.08723H6.78094V9.39157H8.08528V8.08723H9.38962V6.78289H8.08528Z" fill="#D80027"/>
<path d="M17.218 6.78289V5.47852H15.9137V6.78289H14.6094V8.08723H15.9137V9.39157H17.218V8.08723H18.5224V6.78289H17.218Z" fill="#D80027"/>
<path d="M8.08528 15.9137V14.6094H6.78094V15.9137H5.47656V17.218H6.78094V18.5224H8.08528V17.218H9.38962V15.9137H8.08528Z" fill="#D80027"/>
<path d="M17.218 15.9137V14.6094H15.9137V15.9137H14.6094V17.218H15.9137V18.5224H17.218V17.218H18.5224V15.9137H17.218Z" fill="#D80027"/>
</svg>
