<svg id="default" viewBox="0 0 24 24" fill="none" xmlns="http://www.w3.org/2000/svg">
<path d="M12 22C17.5228 22 22 17.5228 22 12C22 6.47715 17.5228 2 12 2C6.47715 2 2 6.47715 2 12C2 17.5228 6.47715 22 12 22Z" fill="#F0F0F0"/>
<path d="M8.08739 8.52176H21.3784C19.9655 4.71375 16.3001 2 12.0004 2C9.23895 2 6.73922 3.11949 4.92969 4.92926L8.08739 8.52176Z" fill="#6DA544"/>
<path d="M8.08739 15.4785H21.3784C19.9655 19.2865 16.3001 22.0003 12.0004 22.0003C9.23895 22.0003 6.73922 20.8808 4.92969 19.071L8.08739 15.4785Z" fill="#D80027"/>
<path d="M4.92893 4.92969C1.02369 8.83492 1.02369 15.1666 4.92893 19.0719C6.54271 17.4581 8.09478 15.906 12 12.0008L4.92893 4.92969Z" fill="#0052B4"/>
<path d="M13.7383 10.2598V12.4337C13.7383 13.7649 15.4774 14.1729 15.4774 14.1729C15.4774 14.1729 17.2166 13.7649 17.2166 12.4337V10.2598H13.7383Z" fill="#DEDDE0"/>
<path d="M15.043 12.0449H15.9131V13.3066H15.043V12.0449Z" fill="#786145"/>
<path d="M16.3497 11.5649C16.3497 11.0846 15.9604 10.6953 15.4801 10.6953C14.9998 10.6953 14.6105 11.0846 14.6105 11.5649C14.3704 11.5649 14.1758 11.7595 14.1758 11.9996C14.1758 12.2398 14.3704 12.4344 14.6105 12.4344H16.3497C16.5898 12.4344 16.7845 12.2398 16.7845 11.9996C16.7845 11.7595 16.5899 11.5649 16.3497 11.5649Z" fill="#6DA544"/>
</svg>
