<svg id="default" viewBox="0 0 24 24" fill="none" xmlns="http://www.w3.org/2000/svg">
<path d="M12 22C17.5228 22 22 17.5228 22 12C22 6.47715 17.5228 2 12 2C6.47715 2 2 6.47715 2 12C2 17.5228 6.47715 22 12 22Z" fill="#F0F0F0"/>
<path d="M21.9998 11.9999C21.9998 8.0353 19.6926 4.60968 16.3477 2.99219V21.0076C19.6926 19.3901 21.9998 15.9645 21.9998 11.9999Z" fill="#338AF3"/>
<path d="M2 11.9999C2 15.9645 4.30723 19.3902 7.6522 21.0077V2.99219C4.30723 4.60969 2 8.03532 2 11.9999Z" fill="#338AF3"/>
<path d="M14.6132 13.6915L12.9223 12.0006L14.5318 10.391L14.4589 9.54094L13.9981 9.08008L12 11.0782L10.0018 9.08008L9.54106 9.54094L9.46813 10.391L11.0776 12.0006L9.38672 13.6915L10.3091 14.6137L12 12.9229L13.6909 14.6137L14.6132 13.6915Z" fill="#ACABB1"/>
<path d="M14.4573 9.54102L13.535 10.4633C13.9284 10.8567 14.1717 11.4002 14.1717 12.0005C14.1717 13.2012 13.1984 14.1744 11.9978 14.1744C10.7972 14.1744 9.82387 13.2012 9.82387 12.0005C9.82387 11.4002 10.0672 10.8567 10.4606 10.4633L9.53832 9.54102C8.90883 10.1704 8.51953 11.04 8.51953 12.0005C8.51953 13.9215 10.0768 15.4788 11.9978 15.4788C13.9187 15.4788 15.476 13.9215 15.476 12.0005C15.476 11.04 15.0867 10.1704 14.4573 9.54102Z" fill="#6DA544"/>
</svg>
