<svg id="default" viewBox="0 0 24 24" fill="none" xmlns="http://www.w3.org/2000/svg">
<path d="M12 22C17.5228 22 22 17.5228 22 12C22 6.47715 17.5228 2 12 2C6.47715 2 2 6.47715 2 12C2 17.5228 6.47715 22 12 22Z" fill="#F0F0F0"/>
<path d="M11.9999 21.9978C15.9645 21.9978 19.3902 19.6906 21.0077 16.3457H2.99219C4.60969 19.6906 8.03532 21.9978 11.9999 21.9978Z" fill="#338AF3"/>
<path d="M11.9999 2C8.0353 2 4.60968 4.30723 2.99219 7.6522H21.0076C19.3901 4.30723 15.9645 2 11.9999 2Z" fill="#338AF3"/>
<path d="M8.15273 8.52344L8.47648 9.51989H9.52417L8.6766 10.1357L9.00038 11.1321L8.15273 10.5163L7.30508 11.1321L7.62887 10.1357L6.78125 9.51989H7.82894L8.15273 8.52344Z" fill="#338AF3"/>
<path d="M8.15273 12.8672L8.47648 13.8637H9.52417L8.6766 14.4794L9.00038 15.4758L8.15273 14.86L7.30508 15.4758L7.62887 14.4794L6.78125 13.8637H7.82894L8.15273 12.8672Z" fill="#338AF3"/>
<path d="M15.8442 8.52344L16.1679 9.51989H17.2156L16.368 10.1357L16.6918 11.1321L15.8442 10.5163L14.9965 11.1321L15.3203 10.1357L14.4727 9.51989H15.5204L15.8442 8.52344Z" fill="#338AF3"/>
<path d="M15.8442 12.8672L16.1679 13.8637H17.2156L16.368 14.4794L16.6918 15.4758L15.8442 14.86L14.9965 15.4758L15.3203 14.4794L14.4727 13.8637H15.5204L15.8442 12.8672Z" fill="#338AF3"/>
<path d="M11.9965 10.6953L12.3203 11.6918H13.368L12.5204 12.3076L12.8441 13.304L11.9965 12.6882L11.1488 13.304L11.4726 12.3076L10.625 11.6918H11.6727L11.9965 10.6953Z" fill="#338AF3"/>
</svg>
