<svg xmlns="http://www.w3.org/2000/svg">
<symbol id="default" viewBox="0 0 24 24" fill="currentColor">
<path fill-rule="evenodd" clip-rule="evenodd" d="M11.8336 2.65723C13.3303 2.65745 14.567 3.82142 14.567 5.31641C14.5669 6.81546 13.3021 7.97536 11.8336 7.97559C10.337 7.97541 9.0994 6.8113 9.09926 5.31641C9.09926 3.82138 10.3369 2.6574 11.8336 2.65723ZM11.8336 3.84375C10.9522 3.84392 10.2858 4.51594 10.2858 5.31641C10.2859 6.11675 10.9523 6.78889 11.8336 6.78906C12.6955 6.78884 13.3804 6.11252 13.3805 5.31641C13.3805 4.51597 12.715 3.84397 11.8336 3.84375Z"/>
<path fill-rule="evenodd" clip-rule="evenodd" d="M18.3268 8.17285C18.6037 8.17293 18.8789 8.28528 19.0641 8.51758C19.2475 8.74789 19.2953 9.03641 19.2409 9.2998L19.237 9.31348L18.6188 11.9766L18.6178 11.9756C18.5041 12.4914 18.0143 12.8494 17.5182 12.8496H12.8512L12.0309 16.3848L12.0289 16.3906C11.9867 16.5637 11.9629 16.7129 11.9577 16.835C11.9524 16.9585 11.9677 17.0271 11.9801 17.0586C11.9876 17.0775 11.991 17.0791 11.9996 17.084C12.0193 17.0951 12.0912 17.1259 12.2614 17.126H16.2575C16.8987 17.1261 17.2963 17.7096 17.1686 18.2656L17.1676 18.2686L16.6442 20.4922C16.5823 20.7607 16.4141 20.968 16.2438 21.1006C16.0729 21.2335 15.8348 21.3428 15.567 21.3428H15.5641L11.2116 21.3203C9.3224 21.3194 8.1089 20.5938 7.47718 19.4893C6.87322 18.433 6.87024 17.1484 7.11586 16.1191L7.85609 12.8496H5.6725C5.3956 12.8494 5.12034 12.7372 4.93519 12.5049C4.7519 12.2746 4.70401 11.986 4.75843 11.7227L4.76039 11.7158L4.76234 11.708L5.38051 9.0459C5.49446 8.53047 5.98532 8.17321 6.48109 8.17285H18.3268ZM5.99086 11.6631H9.34047L8.27308 16.3818L8.27113 16.3887C8.06663 17.2406 8.10118 18.1915 8.50648 18.9004C8.88523 19.5627 9.65734 20.1336 11.2145 20.1338H11.2174L15.5045 20.1562L15.9381 18.3125H12.2614C11.9564 18.3125 11.6646 18.2586 11.4137 18.1162C11.1522 17.9677 10.977 17.7466 10.8776 17.4961C10.6982 17.0435 10.7769 16.5191 10.8746 16.1162L11.9088 11.6631H17.4743L18.0084 9.35938H6.52504L5.99086 11.6631Z"/>
</symbol>
<symbol id="active" viewBox="0 0 24 24" fill="currentColor">
<path d="M18.3272 8.2666C18.5792 8.26672 18.8258 8.36777 18.9912 8.5752C19.1553 8.78113 19.1992 9.04109 19.1494 9.28125L19.1475 9.29297L18.5303 11.9434C18.4315 12.42 17.9775 12.7556 17.5186 12.7559H12.7774L11.9405 16.3633L11.9385 16.3691C11.8462 16.7478 11.8485 16.9802 11.8936 17.0938C11.9083 17.1308 11.9255 17.1488 11.9541 17.165C11.992 17.1865 12.081 17.2197 12.2617 17.2197H16.2578C16.8356 17.22 17.1935 17.744 17.0782 18.2451L17.0772 18.2471L16.5537 20.4707L16.5547 20.4717C16.4989 20.7142 16.3455 20.9043 16.1875 21.0273C16.029 21.1507 15.81 21.25 15.5674 21.25H15.5655L11.2129 21.2266C9.34949 21.226 8.17065 20.5131 7.55862 19.4434C6.97003 18.4141 6.96449 17.1551 7.20706 16.1396L7.97268 12.7559H5.67288C5.42086 12.7558 5.17426 12.6546 5.00881 12.4473C4.84467 12.2413 4.80084 11.9814 4.85061 11.7412L4.85256 11.7295L5.47171 9.06641C5.57552 8.59606 6.02636 8.2668 6.48147 8.2666H18.3272Z"/>
<path d="M11.834 2.75C13.2823 2.75031 14.4746 3.87606 14.4746 5.31641C14.4745 6.76016 13.2548 7.88153 11.834 7.88184C10.3856 7.88184 9.19353 6.75682 9.19339 5.31641C9.19339 3.87586 10.3855 2.75 11.834 2.75Z"/>
</symbol>
</svg>
