<svg id="default" viewBox="0 0 24 24" fill="none" xmlns="http://www.w3.org/2000/svg">
<path d="M22 11.999C22 10.7758 21.78 9.60402 21.378 8.52074L12 8.08594L2.62199 8.5207C2.22004 9.60402 2 10.7758 2 11.999C2 13.2222 2.22004 14.3939 2.62199 15.4772L12 15.912L21.378 15.4773C21.78 14.3939 22 13.2222 22 11.999Z" fill="#F0F0F0"/>
<path d="M11.9991 22.0003C16.2987 22.0003 19.9641 19.2865 21.3771 15.4785H2.62109C4.03402 19.2865 7.69944 22.0003 11.9991 22.0003Z" fill="#0052B4"/>
<path d="M2.62109 8.52176H21.3771C19.9642 4.71375 16.2987 2 11.9991 2C7.69945 2 4.03402 4.71375 2.62109 8.52176Z" fill="#D80027"/>
<path d="M14.6063 8.95757H12.8672L13.1571 6.78363L14.3164 5.91406L15.4758 6.78363V8.52277L14.6063 8.95757Z" fill="#338AF3"/>
<path d="M9.39297 8.95757H11.1321L10.8422 6.78363L9.68282 5.91406L8.52344 6.78363V8.52277L9.39297 8.95757Z" fill="#338AF3"/>
<path d="M13.1587 8.95757H10.8398V6.78363L11.9993 5.91406L13.1587 6.78363V8.95757Z" fill="#0052B4"/>
<path d="M8.52344 8.52344V13.306C8.52344 14.4448 9.07352 15.4575 9.92196 16.0924L10.5307 15.9401L11.2988 16.7128C11.5259 16.7596 11.761 16.7843 12.0017 16.7843C12.2412 16.7843 12.475 16.7599 12.701 16.7136L13.5778 15.9835L14.0814 16.091C14.9295 15.4562 15.48 14.4445 15.48 13.306V8.52344H8.52344Z" fill="#F0F0F0"/>
<path d="M8.52344 8.52344H9.91564V9.91564H8.52344V8.52344Z" fill="#D80027"/>
<path d="M11.3086 8.52344H12.7008V9.91564H11.3086V8.52344Z" fill="#D80027"/>
<path d="M14.0898 8.52344H15.4821V9.91564H14.0898V8.52344Z" fill="#D80027"/>
<path d="M9.91406 9.91406H11.3063V11.3063H9.91406V9.91406Z" fill="#D80027"/>
<path d="M12.6953 9.91406H14.0875V11.3063H12.6953V9.91406Z" fill="#D80027"/>
<path d="M8.52344 11.3047H9.91564V12.6969H8.52344V11.3047Z" fill="#D80027"/>
<path d="M9.91406 12.6992H11.3063V14.0914H9.91406V12.6992Z" fill="#D80027"/>
<path d="M11.3086 11.3047H12.7008V12.6969H11.3086V11.3047Z" fill="#D80027"/>
<path d="M14.0898 11.3047H15.4821V12.6969H14.0898V11.3047Z" fill="#D80027"/>
<path d="M12.6953 12.6992H14.0875V14.0914H12.6953V12.6992Z" fill="#D80027"/>
<path d="M11.3086 14.0879H12.7008V15.4801H11.3086V14.0879Z" fill="#D80027"/>
<path d="M9.91567 14.0859H8.61328C8.73274 14.6035 8.96758 15.077 9.28959 15.4781H9.91567V14.0859Z" fill="#D80027"/>
<path d="M14.0898 15.4781H14.7159C15.038 15.077 15.2727 14.6034 15.3922 14.0859H14.0898V15.4781Z" fill="#D80027"/>
<path d="M9.91406 15.4805V16.0879C10.319 16.3926 10.7922 16.6111 11.3063 16.7159V15.4805H9.91406Z" fill="#D80027"/>
<path d="M12.6953 15.4805V16.7159C13.2094 16.6112 13.6826 16.3926 14.0875 16.0879V15.4805H12.6953Z" fill="#D80027"/>
</svg>
