<svg id="default" xmlns="http://www.w3.org/2000/svg" viewBox="0 0 24 24">
<path fill-rule="evenodd" clip-rule="evenodd" d="M11.2862 4.44201L11.2224 4.45188C11.1874 4.45731 11.0898 4.46965 11.0057 4.4793C10.083 4.58515 9.00406 4.94466 8.15817 5.42816C6.45372 6.40238 5.19001 7.95118 4.59103 9.79999C4.41881 10.3316 4.33158 10.7292 4.25351 11.3385C4.20986 11.6792 4.20993 12.7247 4.25362 13.081C4.449 14.6741 5.0731 16.1013 6.09733 17.297C6.26075 17.4878 6.64611 17.8755 6.85767 18.0621C8.01304 19.0808 9.4883 19.7456 11.0227 19.939C12.8887 20.174 14.7821 19.7252 16.3419 18.678C17.1943 18.1057 17.9171 17.3792 18.4857 16.5235C19.172 15.4907 19.5697 14.4148 19.7388 13.1341C19.7898 12.748 19.7947 11.7322 19.7474 11.347C19.5978 10.1283 19.2186 9.05177 18.5797 8.03199C17.7838 6.76177 16.5232 5.67648 15.1537 5.08253C14.4396 4.77284 13.6636 4.55604 12.9947 4.4793C12.9105 4.46965 12.813 4.45731 12.7779 4.45188L12.7142 4.44201V3H11.2862V4.44201ZM6.50035 3.11636C5.51819 3.71713 4.67056 4.43289 3.96052 5.26108C3.85225 5.38736 3.73802 5.52334 3.70666 5.56326L3.64966 5.63583L3.68966 5.66757C4.19764 6.07047 4.75172 6.502 4.76105 6.502C4.76773 6.502 4.84578 6.4154 4.93448 6.30956C5.58771 5.53014 6.42951 4.8078 7.24442 4.32738C7.32624 4.27915 7.39317 4.23585 7.39317 4.23116C7.39317 4.22493 6.70467 3.02574 6.68939 3.00534C6.68808 3.0036 6.60301 3.05357 6.50035 3.11636ZM16.6105 4.22313C16.6134 4.21514 16.7724 3.93714 16.9639 3.60535L17.3121 3.00211L17.3719 3.03832C18.5498 3.75157 19.4681 4.54032 20.2517 5.51193L20.3513 5.63535L20.311 5.66733C19.8009 6.07188 19.2486 6.502 19.2393 6.502C19.2326 6.502 19.1546 6.4154 19.0659 6.30956C18.4111 5.52829 17.5998 4.83234 16.755 4.32714C16.6728 4.27794 16.6077 4.23114 16.6105 4.22313ZM11.2862 7.96399V12.911H14.8392V11.5H12.7142V7.96399H11.2862Z" fill="currentColor" />
</svg>