<svg id="default" xmlns="http://www.w3.org/2000/svg" viewBox="0 0 24 24">
<path fill-rule="evenodd" clip-rule="evenodd" d="M3 5H11.1053V8.9556C9.73129 9.28696 8.71053 10.5243 8.71053 12C8.71053 13.4757 9.73129 14.7131 11.1053 15.0444V19H3L3 14.9474H6.68421V9.05263H3L3 5ZM12.5789 19H20.6842V14.9474H17V9.05263H20.6842V5H12.5789V8.9556C13.9529 9.28696 14.9737 10.5243 14.9737 12C14.9737 13.4757 13.9529 14.7131 12.5789 15.0444V19ZM20.6842 13.4737V10.5263H18.4737V13.4737H20.6842ZM5.21053 13.4737H3L3 10.5263H5.21053V13.4737ZM10.1842 12C10.1842 11.0844 10.9265 10.3421 11.8421 10.3421C12.7577 10.3421 13.5 11.0844 13.5 12C13.5 12.9156 12.7577 13.6579 11.8421 13.6579C10.9265 13.6579 10.1842 12.9156 10.1842 12Z" fill="currentColor" />
</svg>