<svg id="default" xmlns="http://www.w3.org/2000/svg" viewBox="0 0 24 24">
<path fill-rule="evenodd" clip-rule="evenodd" d="M3.01202 19L21.003 18.9911L21.012 5L3.01202 5.0089V19ZM3.02092 12.0044C3.02092 15.8568 3.02299 17.4328 3.02551 15.5066C3.02803 13.5804 3.02803 10.4284 3.02551 8.5022C3.02299 6.576 3.02092 8.15198 3.02092 12.0044ZM4.50453 9.05425H7.50751V14.9545H4.50453V17.5161H11.2478L11.2477 14.8574L11.0899 14.8084C10.1269 14.5094 9.3609 13.7161 9.10751 12.7552C9.03302 12.4727 9.01273 12.312 9.01273 12.0044C9.01273 11.6968 9.03302 11.5361 9.10751 11.2536C9.3609 10.2927 10.1269 9.49937 11.0899 9.2004L11.2477 9.15141L11.2478 6.49274H4.50453V9.05425ZM12.7583 9.15141L12.9161 9.2004C13.8791 9.49937 14.6451 10.2927 14.8985 11.2536C14.973 11.5361 14.9933 11.6968 14.9933 12.0044C14.9933 12.312 14.973 12.4727 14.8985 12.7552C14.6451 13.7161 13.8791 14.5094 12.9161 14.8084L12.7583 14.8574L12.7582 17.5161H19.5015V14.9545H16.4985V9.05425H19.5015V6.49274H12.7582L12.7583 9.15141ZM4.50453 13.4706H6.01501V10.5382H4.50453V13.4706ZM11.7692 10.5493C11.1718 10.6624 10.7233 11.0561 10.5603 11.6105C10.5017 11.8095 10.5017 12.1993 10.5603 12.3983C10.706 12.8939 11.0976 13.2786 11.602 13.4217C11.8046 13.4792 12.2014 13.4792 12.404 13.4217C12.9084 13.2786 13.3 12.8939 13.4457 12.3983C13.5043 12.1993 13.5043 11.8095 13.4457 11.6105C13.3011 11.1188 12.9087 10.7307 12.4135 10.5899C12.2841 10.5531 11.8828 10.5278 11.7692 10.5493ZM17.991 13.4706H19.5015V10.5382H17.991V13.4706Z" fill="currentColor" />
</svg>