<svg id="default" xmlns="http://www.w3.org/2000/svg" viewBox="0 0 24 24">
<path fill-rule="evenodd" clip-rule="evenodd" d="M12 6.46246C9.41116 6.46246 7.3125 8.56113 7.3125 11.15C7.3125 12.9656 8.34456 14.5415 9.85764 15.3205L10.2812 15.5387V15.9937H13.7188V15.5387L14.1424 15.3205C15.6554 14.5415 16.6875 12.9656 16.6875 11.15C16.6875 8.56113 14.5888 6.46246 12 6.46246ZM5.75 11.15C5.75 7.69818 8.54822 4.89996 12 4.89996C15.4517 4.89996 18.25 7.69818 18.25 11.15C18.25 13.3993 17.0616 15.37 15.2812 16.4702V17.5562H8.71875V16.4702C6.93843 15.37 5.75 13.3993 5.75 11.15ZM12 8.96246C10.7919 8.96246 9.8125 9.94184 9.8125 11.15H8.25C8.25 9.07889 9.92893 7.39996 12 7.39996V8.96246ZM9.8125 18.3375V19.9H14.1875V18.3375H9.8125Z" fill="currentColor" />
</svg>