<svg id="default" xmlns="http://www.w3.org/2000/svg" viewBox="0 0 24 24" fill="currentColor">
<path d="M11.3403 10.6186H13.0825V14.5876H14.1649V16.0309H10.2616V14.5876H11.6392V12.3608L10.9175 13.0824L9.89698 12.0619L11.3403 10.6186Z"/>
<path fill-rule="evenodd" clip-rule="evenodd" d="M13.4433 4.24957L20.0434 6.13531L19.097 11.3402H17.0515V19.9999L6.94852 20V11.3403H4.90298L3.95663 6.13536L10.5567 4.24962V5.56714C10.5567 6.36423 11.2029 7.01041 12 7.0104C12.7971 7.01039 13.4433 6.36421 13.4433 5.56709V4.24957ZM14.8284 6.14636C14.5602 7.46295 13.3958 8.45366 12 8.45368C10.6042 8.45369 9.4398 7.463 9.17159 6.14641L5.61057 7.16384L6.10751 9.89701H8.39181V18.5567L15.6082 18.5566V9.89694H17.8925L18.3894 7.16379L14.8284 6.14636Z"/>
</svg>