<svg id="default" viewBox="0 0 24 24" fill="none" xmlns="http://www.w3.org/2000/svg">
<path d="M12 22C17.5228 22 22 17.5228 22 12C22 6.47715 17.5228 2 12 2C6.47715 2 2 6.47715 2 12C2 17.5228 6.47715 22 12 22Z" fill="#D80027"/>
<path d="M15.7024 8.7027L14.9956 11.225L12.8749 10.8334L11.5098 8.01953L7.82207 9.32817L7.53125 8.50863L6.56641 8.38977L7.2934 10.4386L9.83125 9.78954L10.5525 11.8219L8.79809 14.4111L11.7753 16.9504L11.211 17.612L11.5905 18.5071L13.0013 16.853L11.1703 14.9797L12.5698 13.3389L15.6893 13.5637L16.3998 9.71563L17.2549 9.87356L17.8404 9.09739L15.7024 8.7027Z" fill="#F0F0F0"/>
</svg>
