<svg id="default" viewBox="0 0 24 24" fill="none" xmlns="http://www.w3.org/2000/svg">
<path d="M12 22C17.5228 22 22 17.5228 22 12C22 6.47715 17.5228 2 12 2C6.47715 2 2 6.47715 2 12C2 17.5228 6.47715 22 12 22Z" fill="#F0F0F0"/>
<path d="M11.9999 2C8.0353 2 4.60968 4.30723 2.99219 7.6522H21.0076C19.3901 4.30723 15.9645 2 11.9999 2Z" fill="#FF9811"/>
<path d="M11.9999 21.9978C15.9645 21.9978 19.3902 19.6906 21.0077 16.3457H2.99219C4.60969 19.6906 8.03532 21.9978 11.9999 21.9978Z" fill="#6DA544"/>
<path d="M12.0017 15.4799C13.9227 15.4799 15.4799 13.9227 15.4799 12.0017C15.4799 10.0807 13.9227 8.52344 12.0017 8.52344C10.0807 8.52344 8.52344 10.0807 8.52344 12.0017C8.52344 13.9227 10.0807 15.4799 12.0017 15.4799Z" fill="#0052B4"/>
<path d="M12.002 14.174C13.2027 14.174 14.176 13.2007 14.176 12.0001C14.176 10.7995 13.2027 9.82617 12.002 9.82617C10.8014 9.82617 9.82812 10.7995 9.82812 12.0001C9.82812 13.2007 10.8014 14.174 12.002 14.174Z" fill="#F0F0F0"/>
<path d="M12.0028 9.32031L12.6735 10.8413L14.326 10.6616L13.3441 12.0029L14.326 13.3442L12.6735 13.1645L12.0028 14.6855L11.3322 13.1645L9.67969 13.3442L10.6616 12.0029L9.67969 10.6616L11.3322 10.8413L12.0028 9.32031Z" fill="#0052B4"/>
</svg>
