<svg id="default" viewBox="0 0 24 24" fill="none" xmlns="http://www.w3.org/2000/svg">
    <path fill-rule="evenodd" clip-rule="evenodd" d="M11.667 2.75C14.1196 2.7501 16.4721 3.7244 18.2067 5.4588C19.9414 7.1934 20.917 9.547 20.917 12C20.917 14.453 19.9414 16.8066 18.2067 18.5412C16.4721 20.2756 14.1196 21.2499 11.667 21.25C9.2135 21.25 6.8597 20.276 5.1255 18.5412C3.3908 16.8066 2.417 14.453 2.417 12C2.417 9.547 3.3908 7.1934 5.1255 5.4588C6.8597 3.7242 9.2135 2.75 11.667 2.75Z" fill="currentColor"/>
    <path d="M12.667 9.333V7.333H10.667V9.333H12.667Z" fill="white"/>
    <path d="M10.667 12.333H9V10.333H12.667V14H14.333V16H9V14H10.667V12.333Z" fill="white"/>
</svg>
