<svg id="default" viewBox="0 0 24 24" fill="none" xmlns="http://www.w3.org/2000/svg">
<path d="M12 22C17.5228 22 22 17.5228 22 12C22 6.47715 17.5228 2 12 2C6.47715 2 2 6.47715 2 12C2 17.5228 6.47715 22 12 22Z" fill="#F0F0F0"/>
<path d="M11.9991 2C7.69945 2 4.03402 4.71375 2.62109 8.52176H21.3771C19.9642 4.71375 16.2987 2 11.9991 2Z" fill="#A2001D"/>
<path d="M11.9991 22.0003C16.2987 22.0003 19.9641 19.2865 21.3771 15.4785H2.62109C4.03402 19.2865 7.69944 22.0003 11.9991 22.0003Z" fill="black"/>
<path d="M9.61094 11.3452C9.60547 11.3452 9.60012 11.3455 9.59465 11.3456V11.3452H7.68305C7.77996 10.9707 8.11973 10.693 8.52398 10.693V9.38867C7.32527 9.38867 6.35008 10.3639 6.35008 11.5626V12.6278V12.6496H9.59465H9.61094C9.73082 12.6496 9.82832 12.7471 9.82832 12.867V13.3017H5.48047V14.6061H11.1327V12.8669C11.1327 12.0279 10.45 11.3452 9.61094 11.3452Z" fill="#496E2D"/>
<path d="M12.8708 13.3017V9.38867H11.5664V14.6061H13.7403V13.3017H12.8708Z" fill="#496E2D"/>
<path d="M17.2192 13.3018V9.38867H15.9149V13.3018H15.4801V11.9974H14.1758V14.6061H18.0888V13.3018H17.2192Z" fill="#496E2D"/>
</svg>
