<svg id="default" viewBox="0 0 24 24" fill="none" xmlns="http://www.w3.org/2000/svg">
<path d="M12 22C17.5228 22 22 17.5228 22 12C22 6.47715 17.5228 2 12 2C6.47715 2 2 6.47715 2 12C2 17.5228 6.47715 22 12 22Z" fill="#F0F0F0"/>
<path d="M15.2511 9.39262H13.9427C13.9535 9.53641 13.9596 9.68149 13.9596 9.82738C13.9596 10.7947 13.7179 11.7324 13.2963 12.3998C13.1663 12.6056 12.9478 12.8963 12.6553 13.0924V9.39258H11.3509V13.0924C11.0585 12.8963 10.8399 12.6057 10.7099 12.3998C10.2883 11.7324 10.0466 10.7947 10.0466 9.82738C10.0466 9.68149 10.0527 9.53637 10.0635 9.39262H8.75516C8.74676 9.5357 8.74219 9.68063 8.74219 9.82738C8.74219 12.5093 10.1745 14.61 12.003 14.61C13.8316 14.61 15.2639 12.5093 15.2639 9.82738C15.264 9.68063 15.2594 9.5357 15.2511 9.39262Z" fill="#D80027"/>
<path d="M6.13035 6.78263H7.43469V7.6522H8.73902V6.78263H10.0434V7.6522H11.3477V6.78263H12.652V7.6522H13.9564V6.78263H15.2607V7.6522H16.565V6.78263H17.8694V7.6522H21.0075C19.3902 4.30723 15.9645 2 11.9999 2C8.03535 2 4.60969 4.30723 2.99219 7.6522H6.13035V6.78263Z" fill="#6DA544"/>
<path d="M17.8695 16.3457V17.2153H16.5652V16.3457H15.2608V17.2153H13.9565V16.3457H12.6522V17.2153H11.3478V16.3457H10.0435V17.2153H8.73915V16.3457H7.43469V17.2153H6.13036V16.3457H2.99219C4.60969 19.6906 8.03532 21.9978 11.9999 21.9978C15.9646 21.9978 19.3902 19.6906 21.0077 16.3457H17.8695Z" fill="#D80027"/>
</svg>
