<svg id="default" viewBox="0 0 24 24" fill="none" xmlns="http://www.w3.org/2000/svg">
<path d="M12 22C17.5228 22 22 17.5228 22 12C22 6.47715 17.5228 2 12 2C6.47715 2 2 6.47715 2 12C2 17.5228 6.47715 22 12 22Z" fill="#FFDA44"/>
<path d="M18.0903 4.06719C16.4041 2.77106 14.2934 2 12.0022 2C9.71105 2 7.60027 2.7711 5.91406 4.06719L12.0022 10.1553L18.0903 4.06719Z" fill="#6DA544"/>
<path d="M4.06715 5.91016C2.77109 7.59637 2 9.70711 2 11.9983C2 14.2895 2.77109 16.4002 4.06719 18.0865L10.1554 11.9983L4.06715 5.91016Z" fill="black"/>
<path d="M5.91406 19.9338C7.60032 21.23 9.71106 22.001 12.0022 22.001C14.2934 22.001 16.4042 21.2299 18.0904 19.9338L12.0022 13.8457L5.91406 19.9338Z" fill="#6DA544"/>
<path d="M19.9319 18.0864C21.228 16.4002 21.9991 14.2895 21.9991 11.9983C21.9991 9.70712 21.228 7.59637 19.9319 5.91016L13.8438 11.9983L19.9319 18.0864Z" fill="black"/>
</svg>
