<svg id="default" viewBox="0 0 24 24" fill="none" xmlns="http://www.w3.org/2000/svg">
<path d="M12 22C17.5228 22 22 17.5228 22 12C22 6.47715 17.5228 2 12 2C6.47715 2 2 6.47715 2 12C2 17.5228 6.47715 22 12 22Z" fill="#D80027"/>
<path d="M16.8904 11.9999L14.8921 12.9398L15.9562 14.8752L13.7862 14.46L13.5113 16.652L11.9998 15.0399L10.4884 16.652L10.2135 14.46L8.04363 14.8751L9.10769 12.9397L7.10938 11.9999L9.10769 11.06L8.04363 9.12449L10.2134 9.53973L10.4885 7.34766L11.9998 8.95981L13.5114 7.34766L13.7862 9.53973L15.9563 9.12449L14.8922 11.0601L16.8904 11.9999Z" fill="#FFDA44"/>
<path d="M12.0005 15.042C13.6814 15.042 15.044 13.6794 15.044 11.9986C15.044 10.3177 13.6814 8.95508 12.0005 8.95508C10.3196 8.95508 8.95703 10.3177 8.95703 11.9986C8.95703 13.6794 10.3196 15.042 12.0005 15.042Z" fill="#D80027"/>
<path d="M10.479 12.0039C10.4056 12.0039 10.3332 12.0077 10.2617 12.0148C10.2643 12.4366 10.4169 12.8226 10.669 13.1225C10.8034 12.7607 11.0042 12.4308 11.2574 12.1484C11.0156 12.0554 10.7533 12.0039 10.479 12.0039Z" fill="#FFDA44"/>
<path d="M11.418 13.6403C11.6009 13.7056 11.7979 13.7415 12.0033 13.7415C12.2087 13.7415 12.4057 13.7056 12.5886 13.6403C12.4889 13.2489 12.2831 12.8996 12.0033 12.625C11.7236 12.8995 11.5177 13.2489 11.418 13.6403Z" fill="#FFDA44"/>
<path d="M13.5082 11.1316C13.2075 10.6118 12.6459 10.2617 12.0021 10.2617C11.3584 10.2617 10.7968 10.6118 10.4961 11.1316C11.0443 11.1343 11.5583 11.2834 12.0021 11.5408C12.4459 11.2834 12.9599 11.1343 13.5082 11.1316Z" fill="#FFDA44"/>
<path d="M12.7461 12.1484C12.9993 12.4307 13.2 12.7607 13.3345 13.1226C13.5865 12.8226 13.7391 12.4366 13.7418 12.0148C13.6702 12.0076 13.5978 12.0039 13.5245 12.0039C13.2503 12.0039 12.988 12.0554 12.7461 12.1484Z" fill="#FFDA44"/>
</svg>
