<svg id="default" viewBox="0 0 24 24" fill="none" xmlns="http://www.w3.org/2000/svg">
<path d="M2 11.9998C2 13.7323 2.44074 15.3617 3.2159 16.7825L12 17.652L20.7841 16.7825C21.5593 15.3617 22 13.7323 22 11.9998C22 10.2674 21.5593 8.63797 20.7841 7.21723L12 6.34766L3.2159 7.21723C2.44074 8.63797 2 10.2674 2 11.9998H2Z" fill="#D80027"/>
<path d="M3.21484 7.21738H20.783C19.087 4.10895 15.7894 2 11.9989 2C8.20851 2 4.9109 4.10895 3.21484 7.21738Z" fill="#0052B4"/>
<path d="M11.9989 21.9986C15.7894 21.9986 19.087 19.8897 20.783 16.7812H3.21484C4.9109 19.8897 8.20852 21.9986 11.9989 21.9986Z" fill="#0052B4"/>
<path d="M15.4784 13.9569V12.6525H14.6088V10.9134L13.7393 10.0438L12.8697 10.9134V9.17426L12.0001 8.30469L11.1306 9.17426V10.9134L10.261 10.0438L9.39144 10.9134V12.6525H8.52191V13.9569H7.65234V15.2612H16.3479V13.9569H15.4784Z" fill="#F0F0F0"/>
</svg>
