<svg id="default" viewBox="0 0 24 24" fill="none" xmlns="http://www.w3.org/2000/svg">
<path d="M2 12C2 6.47719 6.47719 2 12 2C17.5228 2 22 6.47719 22 12" fill="#D80027"/>
<path d="M15.4799 11.301L14.0586 11.9694L14.8155 13.346L13.2722 13.0507L13.0766 14.6097L12.0017 13.4631L10.9267 14.6097L10.7312 13.0507L9.18785 13.3459L9.94469 11.9694L8.52344 11.301L9.94469 10.6324L9.18785 9.25601L10.7311 9.55117L10.9267 7.99219L12.0017 9.13879L13.0767 7.99219L13.2722 9.55117L14.8155 9.25601L14.0587 10.6325L15.4799 11.301Z" fill="#FFDA44"/>
<path d="M14.608 5.26156H12.6515C12.6515 4.90145 12.3595 4.60938 11.9993 4.60938C11.6392 4.60938 11.3471 4.90141 11.3471 5.26156H9.39062C9.39062 5.62172 9.70437 5.91375 10.0645 5.91375H10.0428C10.0428 6.27391 10.3347 6.56594 10.695 6.56594C10.695 6.92609 10.9869 7.21812 11.3471 7.21812H12.6515C13.0116 7.21812 13.3037 6.92613 13.3037 6.56594C13.6638 6.56594 13.9558 6.27395 13.9558 5.91375H13.9341C14.2943 5.91375 14.608 5.62176 14.608 5.26156Z" fill="#FFDA44"/>
<path d="M22 12C22 17.5228 17.5228 22 12 22C6.47719 22 2 17.5228 2 12H22Z" fill="#F0F0F0"/>
<path d="M12.0002 22.0016C15.1261 22.0016 17.9164 20.5671 19.7503 18.3208C19.4204 18.0959 19.2423 17.7324 18.6667 17.7324C17.8334 17.7324 17.8334 18.4944 17.0001 18.4944C16.1668 18.4944 16.1668 17.7324 15.3335 17.7324C14.5002 17.7324 14.5002 18.4944 13.6668 18.4944C12.8335 18.4944 12.8334 17.7324 12 17.7324C11.1667 17.7324 11.1667 18.4944 10.3334 18.4944C9.50023 18.4944 9.50023 17.7324 8.66691 17.7324C7.83351 17.7324 7.83351 18.4944 7.00012 18.4944C6.16672 18.4944 6.16672 17.7324 5.33332 17.7324C4.75777 17.7324 4.57969 18.0959 4.25 18.3207C6.08375 20.5671 8.8743 22.0016 12.0002 22.0016Z" fill="#0052B4"/>
<path d="M20.3319 13.2756C19.4986 13.2756 19.4986 12.5137 18.6652 12.5137C17.8319 12.5137 17.8319 13.2756 16.9986 13.2756C16.1653 13.2756 16.1653 12.5137 15.332 12.5137C14.4987 12.5137 14.4987 13.2756 13.6653 13.2756C12.832 13.2756 12.8319 12.5137 11.9985 12.5137C11.1652 12.5137 11.1652 13.2756 10.3319 13.2756C9.49874 13.2756 9.49874 12.5137 8.66542 12.5137C7.83202 12.5137 7.83202 13.2756 6.99863 13.2756C6.16523 13.2756 6.16523 12.5137 5.33183 12.5137C4.49863 12.5137 4.49863 13.2756 3.66531 13.2756C2.83648 13.2756 2.83168 12.5221 2.01172 12.514C2.0348 12.9714 2.08941 13.4205 2.17199 13.8596C2.83621 13.9572 2.89437 14.6089 3.66535 14.6089C4.49867 14.6089 4.49867 13.847 5.33187 13.847C6.16527 13.847 6.16527 14.6089 6.99866 14.6089C7.83206 14.6089 7.83206 13.847 8.66546 13.847C9.49878 13.847 9.49878 14.6089 10.332 14.6089C11.1653 14.6089 11.1653 13.847 11.9986 13.847C12.832 13.847 12.832 14.6089 13.6654 14.6089C14.4988 14.6089 14.4988 13.847 15.3321 13.847C16.1654 13.847 16.1654 14.6089 16.9986 14.6089C17.8319 14.6089 17.832 13.847 18.6652 13.847C19.4986 13.847 19.4986 14.6089 20.3319 14.6089C21.103 14.6089 21.1611 13.9573 21.8254 13.8597C21.908 13.4205 21.9625 12.9715 21.9858 12.5141C21.1656 12.5221 21.1608 13.2756 20.3319 13.2756Z" fill="#0052B4"/>
<path d="M18.6648 15.125C17.8315 15.125 17.8315 15.887 16.9982 15.887C16.165 15.887 16.1649 15.125 15.3316 15.125C14.4983 15.125 14.4983 15.887 13.665 15.887C12.8316 15.887 12.8316 15.125 11.9982 15.125C11.1648 15.125 11.1648 15.887 10.3316 15.887C9.49836 15.887 9.49836 15.125 8.66504 15.125C7.83164 15.125 7.83164 15.887 6.99824 15.887C6.16484 15.887 6.16484 15.125 5.33145 15.125C4.49824 15.125 4.49824 15.887 3.66492 15.887C3.06949 15.887 2.89941 15.498 2.54688 15.2759C2.78156 15.954 3.08687 16.599 3.45457 17.202C3.51852 17.2138 3.58813 17.2203 3.66492 17.2203C4.49824 17.2203 4.49824 16.4584 5.33145 16.4584C6.16484 16.4584 6.16484 17.2203 6.99824 17.2203C7.83164 17.2203 7.83164 16.4584 8.66504 16.4584C9.49836 16.4584 9.49836 17.2203 10.3316 17.2203C11.1649 17.2203 11.1649 16.4584 11.9982 16.4584C12.8316 16.4584 12.8316 17.2203 13.665 17.2203C14.4984 17.2203 14.4984 16.4584 15.3316 16.4584C16.165 16.4584 16.165 17.2203 16.9982 17.2203C17.8315 17.2203 17.8316 16.4584 18.6648 16.4584C19.4982 16.4584 19.4982 17.2203 20.3315 17.2203C20.4084 17.2203 20.478 17.2138 20.542 17.2019C20.9096 16.599 21.2149 15.954 21.4497 15.2759C21.0971 15.498 20.927 15.887 20.3315 15.887C19.4982 15.887 19.4982 15.125 18.6648 15.125Z" fill="#0052B4"/>
<path d="M21.969 11.2079C21.167 11.2268 21.156 11.969 20.3332 11.969C19.4999 11.969 19.4999 11.207 18.6665 11.207C17.8332 11.207 17.8332 11.969 16.9999 11.969C16.1666 11.969 16.1666 11.207 15.3333 11.207C14.5 11.207 14.5 11.969 13.6666 11.969C12.8333 11.969 12.8332 11.207 11.9998 11.207C11.1665 11.207 11.1665 11.969 10.3332 11.969C9.50004 11.969 9.50004 11.207 8.66672 11.207C7.83332 11.207 7.83332 11.969 6.99992 11.969C6.16652 11.969 6.16652 11.207 5.33313 11.207C4.49992 11.207 4.49992 11.969 3.6666 11.969C2.84398 11.969 2.83285 11.2269 2.03098 11.2079C2.01062 11.4686 2 11.732 2 11.9979C2 12.1801 2.00516 12.3611 2.01488 12.5408C2.83297 12.55 2.8384 13.3023 3.66664 13.3023C4.49996 13.3023 4.49996 12.5404 5.33316 12.5404C6.16656 12.5404 6.16656 13.3023 6.99996 13.3023C7.83336 13.3023 7.83336 12.5404 8.66676 12.5404C9.50008 12.5404 9.50008 13.3023 10.3333 13.3023C11.1666 13.3023 11.1666 12.5404 11.9999 12.5404C12.8333 12.5404 12.8333 13.3023 13.6667 13.3023C14.5001 13.3023 14.5001 12.5404 15.3334 12.5404C16.1667 12.5404 16.1667 13.3023 17 13.3023C17.8332 13.3023 17.8333 12.5404 18.6666 12.5404C19.5 12.5404 19.5 13.3023 20.3332 13.3023C21.1616 13.3023 21.167 12.55 21.9852 12.5408C21.9948 12.361 22 12.1801 22 11.9979C22 11.732 21.9894 11.4686 21.969 11.2079Z" fill="#F0F0F0"/>
</svg>
