<svg id="default" viewBox="0 0 24 24" fill="none" xmlns="http://www.w3.org/2000/svg">
<path d="M12 22C17.5228 22 22 17.5228 22 12C22 6.47715 17.5228 2 12 2C6.47715 2 2 6.47715 2 12C2 17.5228 6.47715 22 12 22Z" fill="#FFDA44"/>
<path d="M4.93145 19.0697C5.35094 19.4892 5.79856 19.8633 6.26806 20.1927L20.1965 6.26422C19.8672 5.79469 19.4931 5.34711 19.0736 4.92762C18.6541 4.50813 18.2065 4.1341 17.737 3.80469L3.80859 17.7332C4.13789 18.2027 4.51196 18.6502 4.93145 19.0697Z" fill="black"/>
<path d="M4.92856 4.93042C1.77374 8.08524 1.16808 12.8233 3.11043 16.5866L16.5847 3.11236C12.8214 1.17004 8.08326 1.77571 4.92856 4.93042Z" fill="#6DA544"/>
<path d="M19.0703 19.0722C22.225 15.9175 22.8307 11.1794 20.8884 7.41602L7.41406 20.8904C11.1774 22.8327 15.9155 22.227 19.0703 19.0722Z" fill="#D80027"/>
<path d="M8.35889 13.7925L9.29234 14.2681L10.0331 13.5273L9.86925 14.562L10.8027 15.0377L9.76793 15.2015L9.60403 16.2362L9.12844 15.3028L8.09375 15.4667L8.83452 14.7259L8.35889 13.7925Z" fill="#F0F0F0"/>
<path d="M13.7964 8.35498L14.7298 8.83061L15.4706 8.08984L15.3067 9.1245L16.2401 9.60017L15.2054 9.76407L15.0416 10.7988L14.5659 9.86535L13.5312 10.0292L14.272 9.28843L13.7964 8.35498Z" fill="#F0F0F0"/>
</svg>
