<svg id="default" viewBox="0 0 24 24" fill="none" xmlns="http://www.w3.org/2000/svg">
<path d="M12 22C17.5228 22 22 17.5228 22 12C22 6.47715 17.5228 2 12 2C6.47715 2 2 6.47715 2 12C2 17.5228 6.47715 22 12 22Z" fill="#F0F0F0"/>
<path d="M12.0024 2C8.97148 2 6.25574 3.34859 4.42188 5.47824H19.5829C17.749 3.34859 15.0333 2 12.0024 2Z" fill="#0052B4"/>
<path d="M19.5829 18.5215H4.42188C6.25574 20.6511 8.97148 21.9997 12.0024 21.9997C15.0333 21.9997 17.749 20.6511 19.5829 18.5215Z" fill="#0052B4"/>
<path d="M20.5323 6.78125H3.46773C2.53691 8.30019 2 10.0866 2 11.9986C2 13.9106 2.53691 15.6971 3.46773 17.216H20.5323C21.4631 15.6971 22 13.9106 22 11.9986C22 10.0866 21.4631 8.30019 20.5323 6.78125Z" fill="#D80027"/>
<path d="M8.15641 15.848C10.2815 15.848 12.0042 14.1253 12.0042 12.0002C12.0042 9.87507 10.2815 8.15234 8.15641 8.15234C6.03132 8.15234 4.30859 9.87507 4.30859 12.0002C4.30859 14.1253 6.03132 15.848 8.15641 15.848Z" fill="#F0F0F0"/>
<path d="M8.15575 8.15234L9.01908 10.8094H11.8174L9.55271 12.4517L10.4228 15.1167L8.15575 13.4666L5.89215 15.1136L6.7588 12.4517L4.49609 10.8094H7.29239L8.15575 8.15234Z" fill="#D80027"/>
</svg>
