<svg id="default" viewBox="0 0 24 24" fill="none" xmlns="http://www.w3.org/2000/svg">
<path d="M12 22C17.5228 22 22 17.5228 22 12C22 6.47715 17.5228 2 12 2C6.47715 2 2 6.47715 2 12C2 17.5228 6.47715 22 12 22Z" fill="#F0F0F0"/>
<path d="M15.4799 12.0017C15.4799 12.8712 13.9227 15.0452 12.0017 15.0452C10.0807 15.0452 8.52344 12.8712 8.52344 12.0017C8.52344 10.0807 10.0807 8.52344 12.0017 8.52344C13.9227 8.52344 15.4799 10.0807 15.4799 12.0017Z" fill="#D80027"/>
<path d="M15.4799 12C15.4799 13.921 13.9227 15.4782 12.0017 15.4782C10.0807 15.4782 8.52344 13.921 8.52344 12" fill="#0052B4"/>
<path d="M15.6914 15.0762L16.6143 14.1533L17.2296 14.7685L16.3067 15.6914L15.6914 15.0762Z" fill="black"/>
<path d="M14.1523 16.6113L15.0752 15.6884L15.6905 16.3037L14.7676 17.2266L14.1523 16.6113Z" fill="black"/>
<path d="M17.5312 16.9199L18.4541 15.997L19.0694 16.6123L18.1465 17.5352L17.5312 16.9199Z" fill="black"/>
<path d="M16 18.457L16.9229 17.5341L17.5382 18.1494L16.6153 19.0723L16 18.457Z" fill="black"/>
<path d="M16.6133 15.9961L17.5362 15.0732L18.1514 15.6885L17.2285 16.6114L16.6133 15.9961Z" fill="black"/>
<path d="M15.0742 17.5332L15.9971 16.6103L16.6124 17.2256L15.6895 18.1485L15.0742 17.5332Z" fill="black"/>
<path d="M17.5352 8.92773L15.0757 6.46827L15.6906 5.8534L18.15 8.31286L17.5352 8.92773Z" fill="black"/>
<path d="M15.0742 8.30859L14.1513 7.3857L14.7666 6.77046L15.6895 7.69335L15.0742 8.30859Z" fill="black"/>
<path d="M16.6133 9.8457L15.6904 8.92282L16.3056 8.30758L17.2285 9.23046L16.6133 9.8457Z" fill="black"/>
<path d="M16.9219 6.4668L15.999 5.5439L16.6142 4.92863L17.5372 5.85152L16.9219 6.4668Z" fill="black"/>
<path d="M18.4531 8.00391L17.5302 7.08101L18.1455 6.46574L19.0684 7.38864L18.4531 8.00391Z" fill="black"/>
<path d="M5.54297 15.9961L8.00243 18.4555L7.38756 19.0704L4.9281 16.611L5.54297 15.9961Z" fill="black"/>
<path d="M8.00391 16.6133L8.92681 17.5362L8.31156 18.1514L7.38865 17.2285L8.00391 16.6133Z" fill="black"/>
<path d="M6.46484 15.0762L7.38773 15.9991L6.77246 16.6143L5.84958 15.6914L6.46484 15.0762Z" fill="black"/>
<path d="M7.38672 14.1543L9.84618 16.6137L9.23131 17.2286L6.77185 14.7692L7.38672 14.1543Z" fill="black"/>
<path d="M8.00391 5.54492L5.54444 8.00438L4.92957 7.38951L7.38903 4.93005L8.00391 5.54492Z" fill="black"/>
<path d="M8.92578 6.46875L6.4663 8.92823L5.85143 8.31335L8.31091 5.85387L8.92578 6.46875Z" fill="black"/>
<path d="M9.85156 7.38672L7.39209 9.8462L6.77725 9.23135L9.23672 6.77187L9.85156 7.38672Z" fill="black"/>
</svg>
