<svg id="default" viewBox="0 0 24 24" fill="none" xmlns="http://www.w3.org/2000/svg">
<path d="M12 22C17.5228 22 22 17.5228 22 12C22 6.47715 17.5228 2 12 2C6.47715 2 2 6.47715 2 12C2 17.5228 6.47715 22 12 22Z" fill="#338AF3"/>
<path d="M17.6481 12.1094H6.34375C6.34375 12.8898 7.02348 13.5224 7.80383 13.5224H7.7568C7.7568 14.3029 8.38941 14.9355 9.16984 14.9355C9.16984 15.7159 9.80246 16.3485 10.5829 16.3485H13.409C14.1894 16.3485 14.822 15.7159 14.822 14.9355C15.6025 14.9355 16.2351 14.3029 16.2351 13.5224H16.188C16.9683 13.5224 17.6481 12.8898 17.6481 12.1094Z" fill="#FFDA44"/>
<path d="M15.912 10.2598C15.912 12.4209 14.1601 14.1728 11.999 14.1728C9.83785 14.1728 8.08594 12.4209 8.08594 10.2598" fill="#338AF3"/>
<path d="M14.9895 10.2593L13.7682 10.8338L14.4185 12.0166L13.0923 11.7629L12.9243 13.1026L12.0006 12.1172L11.0768 13.1026L10.9088 11.7629L9.58266 12.0165L10.233 10.8337L9.01172 10.2593L10.233 9.68481L9.58266 8.50203L10.9088 8.75571L11.0769 7.41602L12.0006 8.40137L12.9243 7.41602L13.0923 8.75571L14.4186 8.50203L13.7682 9.68485L14.9895 10.2593Z" fill="#FFDA44"/>
</svg>
