<svg id="default" viewBox="0 0 24 24" fill="none" xmlns="http://www.w3.org/2000/svg">
<path d="M21.0116 7.65219C19.3941 4.30723 15.9685 2 12.0038 2C8.03923 2 4.6136 4.30723 2.99609 7.65219L12.0038 8.52176L21.0116 7.65219Z" fill="#D80027"/>
<path d="M2.99609 16.3481C4.6136 19.693 8.03923 22.0003 12.0038 22.0003C15.9685 22.0003 19.3941 19.693 21.0116 16.3481L12.0038 15.4785L2.99609 16.3481Z" fill="#D80027"/>
<path d="M21.0077 7.6543H2.99227C2.35656 8.96894 2 10.4439 2 12.0021C2 13.5603 2.35656 15.0352 2.99227 16.3499H21.0077C21.6435 15.0352 22 13.5603 22 12.0021C22 10.4439 21.6435 8.96894 21.0077 7.6543Z" fill="#0052B4"/>
<path d="M11.9978 15.4799C13.9188 15.4799 15.476 13.9227 15.476 12.0017C15.476 10.0807 13.9188 8.52344 11.9978 8.52344C10.0768 8.52344 8.51953 10.0807 8.51953 12.0017C8.51953 13.9227 10.0768 15.4799 11.9978 15.4799Z" fill="#F0F0F0"/>
</svg>
