<svg id="default" viewBox="0 0 24 24" fill="none" xmlns="http://www.w3.org/2000/svg">
<path d="M12 22C17.5228 22 22 17.5228 22 12C22 6.47715 17.5228 2 12 2C6.47715 2 2 6.47715 2 12C2 17.5228 6.47715 22 12 22Z" fill="#F0F0F0"/>
<path d="M12.0038 2C8.03921 2 4.61359 4.30723 2.99609 7.6522H21.0115C19.394 4.30723 15.9684 2 12.0038 2Z" fill="#D80027"/>
<path d="M12.0038 21.9978C15.9684 21.9978 19.3941 19.6906 21.0116 16.3457H2.99609C4.6136 19.6906 8.03923 21.9978 12.0038 21.9978Z" fill="#D80027"/>
<path d="M14.608 13.7377L11.9993 8.95508L9.39062 13.7377H11.3471V15.042H12.6515V13.7377H14.608Z" fill="#6DA544"/>
</svg>
