<svg id="default" viewBox="0 0 24 24" fill="none" xmlns="http://www.w3.org/2000/svg">
<path fill="currentColor" fill-rule="evenodd" clip-rule="evenodd" d="M6.61914 10.5274H3.17969V20.8734H17.4518L19.561 14.896C20.721 11.6085 21.6744 8.90688 21.6796 8.89241C21.6873 8.87144 20.8639 8.86612 17.6074 8.86612H13.5257V7.64633C13.5257 6.38006 13.5165 6.21267 13.4287 5.86957C13.3107 5.40888 13.089 4.94575 12.8088 4.57502C12.3132 3.91912 11.6201 3.45126 10.8445 3.24901C10.4728 3.15207 10.3709 3.14313 9.50805 3.1319L8.67625 3.12109L6.61914 10.5274ZM9.66954 4.48695C9.66363 4.5072 9.23716 6.04302 8.72186 7.89987L7.78491 11.276V19.5487L16.519 19.5381L18.1558 14.9013C19.0559 12.3511 19.7977 10.2479 19.8042 10.2277C19.8154 10.1928 19.6257 10.1909 16.019 10.1909H12.2219L12.2219 8.48235C12.2219 7.47377 12.213 6.68037 12.2003 6.54572C12.1447 5.96025 11.9128 5.48025 11.4914 5.07876C11.0641 4.67154 10.5079 4.45015 9.91215 4.45015C9.70946 4.45015 9.67894 4.45478 9.66954 4.48695ZM4.50448 19.5486H6.46012V11.8311H4.50448V19.5486Z" />
</svg>
