<svg id="default" xmlns="http://www.w3.org/2000/svg" viewBox="0 0 24 24" fill="currentColor">
<path fill-rule="evenodd" clip-rule="evenodd" d="M15.1964 18.4831H14.0767V10.0493H9.92323V18.4831H8.8036V13.2098L4.65913 13.219L4.64997 18.4831H4.10834V20H19.8916V18.4831H19.3499V4.00001H15.1964V18.4831Z"/>
<path d="M4.87247 10.2051C4.53297 10.139 4.2239 10.0786 4.18561 10.071C4.14733 10.0633 4.11255 10.0536 4.10832 10.0493C4.08281 10.0238 4.24341 9.42168 4.37848 9.03645C4.76265 7.94065 5.36453 6.99381 6.22388 6.13333C6.95948 5.39675 7.72688 4.86927 8.65434 4.46273C9.03364 4.29646 9.84263 4.04209 10.1038 4.00695L10.1556 4L10.1736 4.08624C10.1835 4.13368 10.2447 4.44578 10.3097 4.77983L10.4279 5.38717L10.3155 5.41156C9.5643 5.57448 8.82031 5.90065 8.14676 6.36231C6.81089 7.27799 5.84392 8.69228 5.51409 10.2129L5.4897 10.3254L4.87247 10.2051Z"/>
<path d="M8.38788 10.924C8.38001 10.9278 8.06887 10.8749 7.69646 10.8064C7.32402 10.738 7.01557 10.6783 7.01101 10.6737C6.98782 10.6505 7.13659 10.1324 7.23589 9.89058C7.62769 8.9363 8.36138 8.07643 9.27275 7.50343C9.69884 7.23555 10.1203 7.05745 10.6087 6.93883C10.6963 6.91757 10.7715 6.9037 10.7758 6.90802C10.7885 6.9207 11.034 8.26971 11.0265 8.28539C11.0227 8.29323 10.9631 8.31243 10.8939 8.32804C10.5584 8.40382 10.1238 8.61882 9.74325 8.89726C9.58701 9.01159 9.11413 9.48448 8.99979 9.64071C8.72136 10.0212 8.50635 10.4558 8.43058 10.7914C8.41497 10.8605 8.39575 10.9202 8.38788 10.924Z"/>
</svg>
