<svg id="default" viewBox="0 0 24 24" fill="none" xmlns="http://www.w3.org/2000/svg">
<path d="M12 22C17.5228 22 22 17.5228 22 12C22 6.47715 17.5228 2 12 2C6.47715 2 2 6.47715 2 12C2 17.5228 6.47715 22 12 22Z" fill="#FFDA44"/>
<path d="M9.8256 3.74023H6.36328C6.20985 3.84512 6.05969 3.9543 5.91254 4.06731L5.04297 12.0011L5.91254 19.9348C6.05969 20.0479 6.20985 20.1571 6.36328 20.2619H9.8256V3.74023Z" fill="#FF9811"/>
<path d="M2 12.0002C2 15.2325 3.53392 18.106 5.91307 19.934V4.06641C3.53392 5.89446 2 8.76799 2 12.0002Z" fill="#6DA544"/>
<path d="M18.0859 8.0957V8.34607L18.0952 8.34748L18.0859 8.0957Z" fill="#FFDA44"/>
<path d="M21.2014 14.6098H19.3173L18.5202 15.4794V17.2185H16.7811V16.349H17.6506V14.6098H13.7376V15.6968H12.868V13.6252C12.6012 13.3864 12.4332 13.0395 12.4332 12.6533V7.00111C12.4332 6.28075 13.0172 5.69677 13.7376 5.69677V13.7403H15.4767L16.0735 13.243C15.9692 12.9947 15.9115 12.7221 15.9115 12.4359V11.1316H14.6072V8.52291H17.2158C17.2158 8.08814 17.868 7.65334 17.868 7.65334C17.868 7.65334 18.5202 8.0881 18.5202 8.52291V9.1751V11.1316C19.0039 11.1374 19.7725 11.1248 20.6027 11.1316C20.3846 10.7504 20.2593 10.298 20.2593 9.82729C20.2593 9.06006 20.5906 8.37029 21.1178 7.89295C20.3578 6.20876 19.1451 4.77274 17.6347 3.74023H11.1289V20.262H17.6347C19.4714 19.0065 20.8678 17.1545 21.5454 14.985L21.2014 14.6098Z" fill="#A2001D"/>
</svg>
