<svg id="default" xmlns="http://www.w3.org/2000/svg" viewBox="0 0 24 24">
<path fill="currentColor" fill-rule="evenodd" clip-rule="evenodd" d="M11.6085 2.7589C11.3681 2.78407 11.0763 2.83711 10.8385 2.89888C9.5898 3.22319 8.53019 4.08149 7.94111 5.24585C7.77781 5.5686 7.68155 5.82442 7.59471 6.16639C7.45491 6.71688 7.45742 6.6726 7.44847 8.73373L7.44038 10.5956H4.31158V21.255H19.6884V10.5956H16.5596L16.5516 8.73373C16.5428 6.68859 16.5453 6.73563 16.4137 6.19937C16.0237 4.611 14.7747 3.33248 13.1967 2.90642C12.8131 2.80288 12.5335 2.76522 12.0903 2.75749C11.8695 2.75364 11.6527 2.75428 11.6085 2.7589ZM11.5209 4.0421C10.8055 4.15379 10.1862 4.46562 9.68355 4.9673C9.30067 5.34943 9.05657 5.74399 8.87956 6.2669C8.71643 6.74878 8.70786 6.88054 8.70784 8.90436L8.70782 10.5956H15.2921L15.2921 8.90436C15.2921 6.88239 15.2839 6.75612 15.1209 6.26963C14.7181 5.06781 13.7202 4.23042 12.4661 4.04206C12.2203 4.00514 11.7575 4.00516 11.5209 4.0421ZM5.57626 19.9903H18.4237V11.8402H5.57626V19.9903ZM11.3777 17.5011H12.6223V14.3495H11.3777V17.5011Z"/>
</svg>