<svg id="default" viewBox="0 0 24 24" fill="none" xmlns="http://www.w3.org/2000/svg">
<path d="M12 22C17.5228 22 22 17.5228 22 12C22 6.47715 17.5228 2 12 2C6.47715 2 2 6.47715 2 12C2 17.5228 6.47715 22 12 22Z" fill="#F0F0F0"/>
<path d="M4.28516 5.63653H19.7136C19.1438 4.94649 18.4828 4.33457 17.7497 3.81836H6.2491C5.51594 4.33449 4.85504 4.94645 4.28516 5.63653Z" fill="#F0F0F0"/>
<path d="M2 11.9989C2 12.3054 2.01457 12.6085 2.04156 12.908H21.9584C21.9854 12.6085 22 12.3054 22 11.9989C22 11.6924 21.9854 11.3893 21.9584 11.0898H2.04156C2.01457 11.3893 2 11.6924 2 11.9989H2Z" fill="#F0F0F0"/>
<path d="M3.09281 16.5466H20.9119C21.2063 15.9706 21.4465 15.3624 21.6258 14.7285H2.37891C2.55816 15.3624 2.7984 15.9707 3.09281 16.5466Z" fill="#F0F0F0"/>
<path d="M6.2491 20.1814H17.7496C18.4828 19.6652 19.1437 19.0533 19.7136 18.3633H4.28516C4.85504 19.0532 5.51594 19.6652 6.2491 20.1814Z" fill="#F0F0F0"/>
<path d="M2.37891 9.27325H21.6258C21.4465 8.63934 21.2063 8.03106 20.9119 7.45508H3.09285C2.79844 8.03106 2.5582 8.63934 2.37891 9.27325Z" fill="#F0F0F0"/>
<path d="M6.78125 3.81816H17.7489C16.1223 2.67293 14.1391 2 11.9986 2C10.6943 2 8.40781 2.67293 6.78125 3.81816Z" fill="#D80027"/>
<path d="M11.5625 7.45684H20.9068C20.5742 6.80633 20.1726 6.19699 19.7115 5.63867H11.5625V7.45684Z" fill="#D80027"/>
<path d="M11.5625 11.0897H21.9557C21.8994 10.4654 21.7864 9.85738 21.6207 9.27148H11.5625V11.0897Z" fill="#D80027"/>
<path d="M2.37406 14.7264H21.621C21.7867 14.1405 21.8997 13.5325 21.956 12.9082H2.03906C2.09531 13.5325 2.20836 14.1405 2.37406 14.7264Z" fill="#D80027"/>
<path d="M4.28906 18.3611H19.7175C20.1787 17.8027 20.5803 17.1934 20.9128 16.543H3.09375C3.42629 17.1935 3.82793 17.8028 4.28906 18.3611Z" fill="#D80027"/>
<path d="M11.9964 21.9998C14.1369 21.9998 16.1201 21.3269 17.7466 20.1816H6.24609C7.87265 21.3269 9.85585 21.9998 11.9964 21.9998Z" fill="#D80027"/>
<path d="M2.37402 9.27273C2.20832 9.85867 2.09531 10.4666 2.03906 11.0909H11.9975V2C7.42016 2 3.56121 5.07547 2.37402 9.27273Z" fill="#0052B4"/>
<path d="M7.95387 4.60938L8.60134 6.60215H10.6969L9.00165 7.83387L9.64907 9.82676L7.95387 8.59512L6.2586 9.82676L6.90618 7.83387L5.21094 6.60215H7.30637L7.95387 4.60938Z" fill="#F0F0F0"/>
</svg>
