<svg id="default" viewBox="0 0 24 24" fill="none" xmlns="http://www.w3.org/2000/svg">
<path d="M2 11.9994C2 13.5576 2.35652 15.0326 2.99227 16.3472L12 16.782L21.0077 16.3473C21.6435 15.0326 22 13.5576 22 11.9994C22 10.4412 21.6435 8.96629 21.0077 7.6516L12 7.2168L2.99227 7.65156C2.35652 8.96629 2 10.4412 2 11.9994H2Z" fill="#F0F0F0"/>
<path d="M11.9999 21.9978C15.9645 21.9978 19.3902 19.6906 21.0077 16.3457H2.99219C4.60969 19.6906 8.03532 21.9978 11.9999 21.9978Z" fill="#6DA544"/>
<path d="M11.9999 2C8.0353 2 4.60968 4.30723 2.99219 7.6522H21.0076C19.3901 4.30723 15.9645 2 11.9999 2Z" fill="#0052B4"/>
<path d="M12.6532 11.7839V9.39258H11.3488V11.7839L9.77344 13.3593C10.2316 14.1093 11.0578 14.61 12.001 14.61C12.9442 14.61 13.7704 14.1093 14.2286 13.3593L12.6532 11.7839Z" fill="black"/>
</svg>
