<svg id="default" viewBox="0 0 24 24" fill="none" xmlns="http://www.w3.org/2000/svg">
<path d="M21.378 15.4803C21.78 14.397 22 13.2253 22 12.0021C22 10.7789 21.78 9.60714 21.378 8.52386L12 7.6543L2.62199 8.52386C2.22 9.60714 2 10.7789 2 12.0021C2 13.2253 2.22 14.397 2.62199 15.4803L12 16.3499L21.378 15.4803Z" fill="#6DA544"/>
<path d="M21.3771 8.52176C19.9641 4.71375 16.2987 2 11.9991 2C7.69944 2 4.03402 4.71375 2.62109 8.52176H21.3771Z" fill="#FFDA44"/>
<path d="M11.9991 22.0003C16.2987 22.0003 19.9641 19.2865 21.3771 15.4785H2.62109C4.03402 19.2865 7.69944 22.0003 11.9991 22.0003Z" fill="#D80027"/>
</svg>
