<svg id="default" viewBox="0 0 24 24" fill="none" xmlns="http://www.w3.org/2000/svg">
<path d="M2.99227 7.65082C2.35656 8.96551 2 10.4404 2 11.9986C2 13.5569 2.35656 15.0318 2.99227 16.3464L12 17.216L21.0077 16.3464C21.6434 15.0318 22 13.5569 22 11.9986C22 10.4404 21.6434 8.96551 21.0077 7.65082L12 6.78125L2.99227 7.65082Z" fill="black"/>
<path d="M2.99219 16.3457C4.60961 19.6906 8.03496 21.9978 11.9996 21.9978C15.9641 21.9978 19.3895 19.6906 21.007 16.3457H2.99219Z" fill="#496E2D"/>
<path d="M2.99219 7.6522H21.007C19.3895 4.30723 15.9641 2 11.9996 2C8.03496 2 4.60961 4.30723 2.99219 7.6522Z" fill="#D80027"/>
<path d="M14.3297 10.1738L15.1502 11.3045L16.479 10.8736L15.6572 12.0033L16.4776 13.1339L15.1493 12.7014L14.3275 13.8311L14.3284 12.4342L13 12.0017L14.3288 11.5709L14.3297 10.1738Z" fill="#F0F0F0"/>
<path d="M12.0886 14.8278C10.5278 14.8278 9.26253 13.5625 9.26253 12.0017C9.26253 10.4409 10.5278 9.17562 12.0886 9.17562C12.5753 9.17562 13.0332 9.29867 13.433 9.51531C12.8058 8.90199 11.9481 8.52344 11.0017 8.52344C9.08066 8.52344 7.52344 10.0807 7.52344 12.0017C7.52344 13.9227 9.0807 15.4799 11.0017 15.4799C11.9482 15.4799 12.8058 15.1014 13.433 14.488C13.0331 14.7048 12.5753 14.8278 12.0886 14.8278Z" fill="#F0F0F0"/>
</svg>
