<svg id="default" viewBox="0 0 24 24" fill="none" xmlns="http://www.w3.org/2000/svg">
<path d="M12 22C17.5228 22 22 17.5228 22 12C22 6.47715 17.5228 2 12 2C6.47715 2 2 6.47715 2 12C2 17.5228 6.47715 22 12 22Z" fill="#FFDA44"/>
<path d="M22 12.0011C22 8.56903 20.2707 5.54114 17.6362 3.74023H6.36379C3.7293 5.54114 2 8.56903 2 12.0011C2 15.4333 3.7293 18.4611 6.36379 20.262H17.6362C20.2707 18.4611 22 15.4333 22 12.0011Z" fill="#A2001D"/>
<path d="M9.82812 9.38994H14.176V7.65083L13.3064 8.08559L12.002 6.78125L10.6977 8.08559L9.82812 7.65083V9.38994Z" fill="#FFDA44"/>
<path d="M15.9121 12H13.739C13.8243 11.8525 13.8738 11.682 13.8738 11.4995C13.8738 10.9453 13.4245 10.4961 12.8704 10.4961C12.4876 10.4961 12.1551 10.7106 11.9859 11.0259C11.8167 10.7106 11.4842 10.4961 11.1014 10.4961C10.5473 10.4961 10.098 10.9453 10.098 11.4995C10.098 11.682 10.1476 11.8526 10.2328 12H8.08594C8.08594 12.6649 8.66512 13.2039 9.33004 13.2039H9.28996C9.28996 13.7494 9.65273 14.2099 10.1501 14.3579L9.17289 15.3352L10.0952 16.2575L11.4035 14.9491C11.4548 14.9679 11.5078 14.9829 11.5626 14.9932L10.772 16.7782C11.1509 16.9323 11.5649 17.0178 11.9991 17.0178C12.4332 17.0178 12.8472 16.9323 13.2261 16.7782L12.4355 14.9932C12.4903 14.983 12.5433 14.9679 12.5945 14.9491L13.9029 16.2575L14.8251 15.3352L13.8479 14.3579C14.3452 14.2099 14.708 13.7494 14.708 13.204H14.6679C15.3329 13.2039 15.9121 12.6649 15.9121 12Z" fill="#FFDA44"/>
<path d="M12.0029 12.6523L10.5898 13.3045V14.6089L12.0029 15.4784L13.4159 14.6089V13.3045L12.0029 12.6523Z" fill="#6DA544"/>
<path d="M10.5898 12H13.4159V13.7391H10.5898V12Z" fill="#0052B4"/>
</svg>
