<svg id="default" viewBox="0 0 24 24" fill="none" xmlns="http://www.w3.org/2000/svg">
<path d="M12 22C17.5228 22 22 17.5228 22 12C22 6.47715 17.5228 2 12 2C6.47715 2 2 6.47715 2 12C2 17.5228 6.47715 22 12 22Z" fill="#F0F0F0"/>
<path d="M8.51953 11.9976V21.3756C9.60281 21.7776 10.7746 21.9976 11.9978 21.9976C17.5206 21.9976 21.9977 17.5204 21.9977 11.9976C21.9977 6.47473 8.51953 11.9976 8.51953 11.9976Z" fill="#6DA544"/>
<path d="M11.9978 2C10.7746 2 9.60281 2.22004 8.51953 2.62199V12H21.9977C21.9977 6.47719 17.5206 2 11.9978 2Z" fill="#D80027"/>
</svg>
