<svg id="default" viewBox="0 0 24 24" fill="none" xmlns="http://www.w3.org/2000/svg">
<path d="M12 22C17.5228 22 22 17.5228 22 12C22 10.3218 21.5859 8.74039 20.8554 7.35156L11.9882 12.0117L16.6484 3.14461C15.2596 2.41406 13.6782 2 12 2C6.47719 2 2 6.47719 2 12C2 14.7614 3.1193 17.2614 4.92891 19.0711C6.73855 20.8807 9.23855 22 12 22Z" fill="#0052B4"/>
<path d="M20.8495 7.36152C20.3918 6.49027 19.7966 5.67227 19.0641 4.93969C18.3314 4.20711 17.5136 3.61199 16.6422 3.1543L4.92188 19.0818L20.8495 7.36152Z" fill="#F0F0F0"/>
<path d="M4.92188 19.0816L20.8495 7.36129C20.3918 6.49004 19.7966 5.67203 19.0641 4.93945L4.92188 19.0816Z" fill="#FF9811"/>
<path d="M10.6848 7.86476L9.46353 8.43922L10.1139 9.62203L8.7877 9.36832L8.61966 10.708L7.69591 9.72266L6.77215 10.708L6.60418 9.36832L5.27801 9.62195L5.92828 8.43918L4.70703 7.86476L5.92832 7.29027L5.27801 6.10754L6.60411 6.36117L6.77219 5.02148L7.69591 6.00684L8.61966 5.02148L8.7877 6.36117L10.1139 6.10754L9.46357 7.29031L10.6848 7.86476Z" fill="#F0F0F0"/>
</svg>
