<svg id="default" viewBox="0 0 24 24" fill="none" xmlns="http://www.w3.org/2000/svg">
<path d="M12 22C17.5228 22 22 17.5228 22 12C22 6.47715 17.5228 2 12 2C6.47715 2 2 6.47715 2 12C2 17.5228 6.47715 22 12 22Z" fill="#FFDA44"/>
<path d="M13.5169 21.885C15.1433 21.6369 16.6404 20.9964 17.9097 20.064L11.9961 12L13.5169 21.885Z" fill="#D80027"/>
<path d="M10.4788 2.11523C8.85242 2.36336 7.35531 3.00383 6.08594 3.93621L11.9996 12.0003L10.4788 2.11523Z" fill="#D80027"/>
<path d="M6.08594 20.064C7.35523 20.9964 8.85234 21.6368 10.4787 21.885L11.9996 12L6.08594 20.064Z" fill="#D80027"/>
<path d="M3.93426 6.08789C3.00184 7.35727 2.36145 8.85434 2.11328 10.4808L11.9983 12.0016L3.93426 6.08789Z" fill="#D80027"/>
<path d="M2.11328 13.5208C2.36141 15.1472 3.00188 16.6443 3.9343 17.9136L11.9983 12L2.11328 13.5208Z" fill="#D80027"/>
<path d="M21.8811 10.4807C21.633 8.85433 20.9925 7.35722 20.0601 6.08789L11.9961 12.0015L21.8811 10.4807Z" fill="#D80027"/>
<path d="M17.9097 3.93617C16.6404 3.00379 15.1433 2.36336 13.5169 2.11523L11.9961 12.0003L17.9097 3.93617Z" fill="#D80027"/>
<path d="M20.0602 17.9136C20.9926 16.6443 21.633 15.1471 21.8812 13.5208L11.9961 12L20.0602 17.9136Z" fill="#D80027"/>
<path d="M11.9978 15.4799C13.9188 15.4799 15.476 13.9227 15.476 12.0017C15.476 10.0807 13.9188 8.52344 11.9978 8.52344C10.0768 8.52344 8.51953 10.0807 8.51953 12.0017C8.51953 13.9227 10.0768 15.4799 11.9978 15.4799Z" fill="#D80027"/>
<path d="M11.9993 14.61C13.4401 14.61 14.608 13.442 14.608 12.0013C14.608 10.5605 13.4401 9.39258 11.9993 9.39258C10.5586 9.39258 9.39062 10.5605 9.39062 12.0013C9.39062 13.442 10.5586 14.61 11.9993 14.61Z" fill="#FFDA44"/>
</svg>
