<svg id="default" viewBox="0 0 24 24" fill="none" xmlns="http://www.w3.org/2000/svg">
<path d="M21.3786 15.4708C21.7806 14.3875 22.0006 13.2157 22.0006 11.9925C22.0006 10.7692 21.7806 9.59744 21.3786 8.51413L12.0003 7.64453L2.62201 8.51413C2.22005 9.59744 2 10.7692 2 11.9925C2 13.2157 2.22005 14.3875 2.62201 15.4708L12.0003 16.3404L21.3786 15.4708Z" fill="#6DA544"/>
<path d="M21.3816 8.52196C19.9686 4.71384 16.3031 2 12.0033 2C7.70351 2 4.03797 4.71384 2.625 8.52196H21.3816Z" fill="#FFDA44"/>
<path d="M12.0033 21.9985C16.3031 21.9985 19.9686 19.2847 21.3816 15.4766H2.625C4.03797 19.2847 7.70351 21.9985 12.0033 21.9985Z" fill="#D80027"/>
<path d="M18.8402 10.4589H13.6015L11.9826 5.47656L10.3637 10.4589H5.125L9.36322 13.5381L7.74434 18.5205L11.9826 15.4769L16.2209 18.5204L14.602 13.538L18.8402 10.4589Z" fill="#F0F0F0"/>
</svg>
