<svg id="default" width="24" height="24" viewBox="0 0 24 24" fill="currentColor" xmlns="http://www.w3.org/2000/svg">
    <path fill-rule="evenodd" clip-rule="evenodd" d="M11.2475 2.77863C9.42865 2.93333 7.70868 3.60583 6.30024 4.71298C5.72489 5.16524 5.16529 5.72487 4.71273 6.30051C3.44747 7.90991 2.74841 9.93835 2.74841 12.0003C2.74841 13.335 3.03371 14.6355 3.59765 15.8715C4.19675 17.1846 5.13777 18.3741 6.30024 19.2877C7.9098 20.5527 9.93912 21.252 12.0001 21.252C12.7417 21.252 13.4592 21.1659 14.1805 20.9904C16.2129 20.4957 17.9716 19.3616 19.2955 17.6916C19.5023 17.4307 19.8646 16.889 20.0421 16.5752C21.2098 14.5108 21.547 12.1082 20.9901 9.81994C20.6425 8.39147 19.9741 7.08914 19.0089 5.95932C18.6823 5.57697 18.1293 5.05048 17.6999 4.713C16.427 3.71264 14.8644 3.05335 13.2344 2.82889C12.6631 2.75023 11.8293 2.72914 11.2475 2.77863ZM11.4482 4.02441C10.6924 4.09686 10.2436 4.18117 9.6445 4.36321C8.86446 4.60025 7.92479 5.07266 7.26891 5.55752C6.64819 6.0164 6.01613 6.64846 5.55725 7.26918C5.10624 7.87925 4.67648 8.71162 4.40978 9.49162C4.31705 9.7628 4.17967 10.319 4.12464 10.6459C4.03403 11.1844 4.02231 11.3395 4.02231 12.0003C4.02231 12.6591 4.03425 12.8182 4.12314 13.345C4.2564 14.1347 4.49293 14.8456 4.87744 15.6121C5.6395 17.1312 6.86922 18.3609 8.38828 19.123C9.29454 19.5776 10.1208 19.8251 11.1571 19.9522C11.4396 19.9869 12.5608 19.9869 12.843 19.9522C13.996 19.8106 14.986 19.4889 15.9713 18.936C17.1486 18.2752 18.2749 17.1489 18.9357 15.9715C19.4887 14.9863 19.8103 13.9962 19.952 12.8433C19.9866 12.561 19.9867 11.4399 19.952 11.1574C19.8248 10.1211 19.5773 9.29481 19.1227 8.38856C18.7339 7.61352 18.2734 6.97765 17.6481 6.35233C17.0228 5.72701 16.3869 5.26651 15.6119 4.87772C14.7279 4.43429 13.9313 4.19067 12.9434 4.06168C12.7063 4.03073 11.6555 4.00452 11.4482 4.02441ZM7.06289 13.0239H9.11002V10.9768H7.06289V13.0239ZM10.9765 13.0239H13.0236V10.9768H10.9765V13.0239ZM14.8901 13.0239H16.9373V10.9768H14.8901V13.0239Z" fill="#646F75" style="fill:#646F75;fill:currentColor;fill-opacity:1;"/>
</svg>
