<svg id="default" viewBox="0 0 24 24" fill="none" xmlns="http://www.w3.org/2000/svg">
<path d="M12 22C17.5228 22 22 17.5228 22 12C22 6.47715 17.5228 2 12 2C6.47715 2 2 6.47715 2 12C2 17.5228 6.47715 22 12 22Z" fill="#338AF3"/>
<path d="M11.6881 18.2964C11.4185 18.2833 11.1954 18.1081 11.1081 17.8703C10.9537 18.0716 10.6885 18.1729 10.4272 18.1055C10.1654 18.0381 9.98243 17.8216 9.94458 17.5703C9.75239 17.7363 9.47239 17.7815 9.23024 17.6629C8.98763 17.5438 8.852 17.2946 8.86591 17.0411C8.64462 17.1654 8.36114 17.1533 8.14767 16.9881C7.93462 16.8228 7.85157 16.552 7.91591 16.3063C7.67415 16.3837 7.39938 16.315 7.22329 16.1102C7.0472 15.9059 7.0202 15.6237 7.13243 15.3963C6.88024 15.4232 6.62462 15.3006 6.49329 15.065C6.36153 14.8294 6.392 14.5472 6.54806 14.3467C6.29544 14.3224 6.06935 14.1506 5.98849 13.8932C5.9072 13.6358 5.99415 13.3654 6.18763 13.2006C5.94501 13.1258 5.75892 12.9119 5.73153 12.6437C5.70415 12.3754 5.84329 12.1289 6.06544 12.0063C5.84325 11.8845 5.70325 11.638 5.72977 11.3702H5.7302C5.75673 11.1015 5.94282 10.8872 6.18497 10.8115C5.99149 10.6471 5.90368 10.3771 5.98411 10.1197C6.06454 9.8619 6.29017 9.68971 6.54282 9.66447C6.38673 9.46447 6.35544 9.18225 6.4863 8.94623C6.61716 8.71057 6.87282 8.58752 7.12544 8.61404C7.01239 8.38666 7.03892 8.10447 7.21458 7.89928C7.38981 7.69451 7.66458 7.62537 7.90677 7.7019C7.84153 7.45666 7.92415 7.18537 8.1372 7.01975C8.34981 6.85404 8.63329 6.84143 8.85458 6.9649C8.84024 6.71147 8.97544 6.46229 9.21763 6.34272C9.45938 6.22358 9.73981 6.26795 9.93239 6.43401C9.96935 6.18276 10.1524 5.96537 10.4137 5.89748C10.6745 5.82967 10.9398 5.9301 11.0945 6.13096C11.1819 5.89315 11.4045 5.71748 11.6741 5.70401C11.9433 5.69014 12.1824 5.84139 12.2937 6.06885C12.4267 5.85319 12.6798 5.72537 12.9463 5.7658C13.2133 5.8058 13.4181 6.00229 13.4815 6.24799C13.6554 6.06272 13.9293 5.98928 14.1824 6.08229C14.4359 6.17576 14.5967 6.40967 14.6089 6.66358C14.8163 6.51752 15.0998 6.50053 15.3289 6.64315C15.5581 6.78533 15.6681 7.04662 15.6289 7.29748C15.8615 7.19619 16.1424 7.23662 16.3381 7.42182C16.5337 7.60748 16.5893 7.88529 16.5007 8.12311C16.7489 8.07049 17.0159 8.16615 17.1707 8.38744C17.3254 8.6083 17.3241 8.89178 17.1898 9.10701C17.4433 9.10525 17.6855 9.25311 17.7929 9.50049C17.8998 9.7483 17.8411 10.0262 17.6659 10.2101C17.915 10.2596 18.1224 10.4531 18.1772 10.7174C18.2315 10.9818 18.1181 11.2413 17.9098 11.3862C18.1429 11.4849 18.3072 11.7157 18.3076 11.9853V11.994V11.9997C18.3076 12.2692 18.1441 12.5005 17.9111 12.6001C18.1198 12.744 18.2341 13.0036 18.1798 13.2679C18.1259 13.5322 17.919 13.7262 17.6698 13.7766C17.8455 13.9601 17.905 14.2375 17.7985 14.4858C17.692 14.7336 17.4498 14.8819 17.1959 14.8805C17.3307 15.0958 17.3329 15.3792 17.1785 15.6005C17.0242 15.8219 16.7577 15.9184 16.5094 15.8662C16.5985 16.1036 16.5433 16.3819 16.3481 16.5679C16.1524 16.7537 15.872 16.7945 15.6394 16.694C15.679 16.9445 15.5694 17.2062 15.3407 17.3493C15.112 17.4923 14.8285 17.4758 14.6207 17.3301C14.6089 17.584 14.4489 17.8184 14.1959 17.9123C13.9429 18.0062 14.1959 17.9123 14.1955 17.9123C13.9424 18.0058 13.6685 17.9328 13.4942 17.748C13.4316 17.9941 13.2272 18.191 12.9603 18.2319C12.6938 18.2724 12.4403 18.1454 12.3068 17.9297C12.2007 18.1485 11.9764 18.2971 11.7207 18.2971C11.7098 18.2973 11.699 18.2969 11.6881 18.2964Z" fill="#F3F3F3"/>
<path d="M12.0001 16.3479C14.4014 16.3479 16.3479 14.4014 16.3479 12.0001C16.3479 9.59892 14.4014 7.65234 12.0001 7.65234C9.59892 7.65234 7.65234 9.59892 7.65234 12.0001C7.65234 14.4014 9.59892 16.3479 12.0001 16.3479Z" fill="#338AF3"/>
<path d="M12.9564 10.5259C13.17 10.3674 13.3091 10.1142 13.3091 9.82777V9.39301C13.3091 8.91273 12.9198 8.52344 12.4395 8.52344H11.57C11.0897 8.52344 10.7004 8.91273 10.7004 9.39301V9.82777C10.7004 10.1142 10.8395 10.3674 11.053 10.5259L10.2656 18.5234C10.2656 18.5234 10.7004 18.9582 12.0048 18.9582C13.3091 18.9582 13.7439 18.5234 13.7439 18.5234L12.9564 10.5259Z" fill="#BDBCC1"/>
<path d="M12.0009 8.52344L12.7563 10.8484H15.201L13.2232 12.2854L13.9786 14.6104L12.0009 13.1735L10.023 14.6104L10.7786 12.2854L8.80078 10.8484H11.2454L12.0009 8.52344Z" fill="#F0F0F0"/>
</svg>
