<svg id="default" viewBox="0 0 24 24" fill="none" xmlns="http://www.w3.org/2000/svg">
<path d="M12 22C17.5228 22 22 17.5228 22 12C22 6.47715 17.5228 2 12 2C6.47715 2 2 6.47715 2 12C2 17.5228 6.47715 22 12 22Z" fill="#496E2D"/>
<path d="M12.0017 13.5494C10.3366 13.5494 8.94559 12.3791 8.6043 10.8164C8.55187 11.0567 8.52344 11.3058 8.52344 11.5618C8.52344 13.4829 10.0807 15.04 12.0017 15.04C13.9227 15.04 15.4799 13.4828 15.4799 11.5618C15.4799 11.3058 15.4515 11.0567 15.3991 10.8164C15.0578 12.3792 13.6668 13.5494 12.0017 13.5494Z" fill="#FFDA44"/>
<path d="M12.0043 8.95508L12.328 9.95152H13.3758L12.5282 10.5673L12.8519 11.5638L12.0043 10.9479L11.1566 11.5638L11.4804 10.5673L10.6328 9.95152H11.6805L12.0043 8.95508Z" fill="#FFDA44"/>
</svg>
