<svg id="default" viewBox="0 0 24 24" fill="none" xmlns="http://www.w3.org/2000/svg">
<path d="M3.21484 7.21738L11.9989 8.08695L20.783 7.21738C19.087 4.10895 15.7894 2 11.9989 2C8.20852 2 4.9109 4.10895 3.21484 7.21738Z" fill="#D80027"/>
<path d="M3.2159 16.7831L12 17.6526L20.7841 16.7831C21.5593 15.3623 22 13.7329 22 12.0004L12 11.1309L2 12.0004C2 13.7329 2.44074 15.3623 3.2159 16.7831Z" fill="#FFDA44"/>
<path d="M3.2159 7.2168C2.44074 8.63754 2 10.267 2 11.9994H22C22 10.267 21.5593 8.63754 20.7841 7.2168H12H3.2159Z" fill="#0052B4"/>
<path d="M11.9989 21.9986C15.7894 21.9986 19.087 19.8897 20.783 16.7812H3.21484C4.9109 19.8897 8.20852 21.9986 11.9989 21.9986Z" fill="#6DA544"/>
</svg>
