<svg id="default" viewBox="0 0 24 24" fill="none" xmlns="http://www.w3.org/2000/svg">
<path d="M12 22C17.5228 22 22 17.5228 22 12C22 6.47715 17.5228 2 12 2C6.47715 2 2 6.47715 2 12C2 17.5228 6.47715 22 12 22Z" fill="#D80027"/>
<path d="M5.47656 7.2168H18.52V16.782H5.47656V7.2168Z" fill="#6DA544"/>
<path d="M13.6082 14.8278C12.0474 14.8278 10.7821 13.5625 10.7821 12.0017C10.7821 10.4409 12.0474 9.17562 13.6082 9.17562C14.0948 9.17562 14.5527 9.29867 14.9525 9.51531C14.3254 8.90199 13.4677 8.52344 12.5212 8.52344C10.6003 8.52344 9.04297 10.0807 9.04297 12.0017C9.04297 13.9227 10.6003 15.4799 12.5212 15.4799C13.4677 15.4799 14.3254 15.1014 14.9525 14.488C14.5527 14.7048 14.0948 14.8278 13.6082 14.8278Z" fill="#F0F0F0"/>
</svg>
