<svg id="default" viewBox="0 0 24 24" fill="none" xmlns="http://www.w3.org/2000/svg">
<path d="M2 11.999C2 13.2222 2.22004 14.3939 2.62199 15.4772L12 15.912L21.378 15.4773C21.78 14.3939 22 13.2222 22 11.999C22 10.7758 21.78 9.60406 21.378 8.52074L12 8.08594L2.62199 8.5207C2.22004 9.60406 2 10.7758 2 11.999V11.999Z" fill="#D80027"/>
<path d="M11.9991 2C7.69945 2 4.03402 4.71375 2.62109 8.52176H21.3771C19.9642 4.71375 16.2987 2 11.9991 2Z" fill="black"/>
<path d="M21.3771 15.4785H2.62109C4.03402 19.2865 7.69944 22.0003 11.9991 22.0003C16.2987 22.0003 19.9641 19.2865 21.3771 15.4785Z" fill="#496E2D"/>
<path d="M14.9895 6.78078L13.7682 6.20633L14.4186 5.02355L13.0924 5.27727L12.9243 3.9375L12.0006 4.92285L11.0769 3.9375L10.9088 5.27727L9.58266 5.02355L10.233 6.20633L9.01172 6.78078H14.9895Z" fill="#D80027"/>
</svg>
