<svg id="default" viewBox="0 0 24 24" fill="none" xmlns="http://www.w3.org/2000/svg">
<path d="M12 22C17.5228 22 22 17.5228 22 12C22 6.47715 17.5228 2 12 2C6.47715 2 2 6.47715 2 12C2 17.5228 6.47715 22 12 22Z" fill="#F0F0F0"/>
<path d="M21.9998 11.9999C21.9998 8.0353 19.6926 4.60968 16.3477 2.99219V21.0076C19.6926 19.3901 21.9998 15.9645 21.9998 11.9999Z" fill="#D80027"/>
<path d="M2 11.9999C2 15.9646 4.30723 19.3902 7.6522 21.0077V2.99219C4.30723 4.60969 2 8.03532 2 11.9999Z" fill="#6DA544"/>
<path d="M9.39062 11.9985C9.39062 13.4392 10.5586 14.6072 11.9993 14.6072C13.4401 14.6072 14.608 13.4392 14.608 11.9985V11.1289H9.39062V11.9985Z" fill="#6DA544"/>
<path d="M15.48 10.2621H12.8713C12.8713 9.78191 12.482 9.39258 12.0017 9.39258C11.5215 9.39258 11.1321 9.78191 11.1321 10.2621H8.52344C8.52344 10.7424 8.94176 11.1317 9.42195 11.1317H9.39301C9.39301 11.612 9.7823 12.0013 10.2626 12.0013C10.2626 12.4815 10.6519 12.8708 11.1321 12.8708H12.8713C13.3516 12.8708 13.7409 12.4815 13.7409 12.0013C14.2211 12.0013 14.6104 11.612 14.6104 11.1317H14.5814C15.0617 11.1317 15.48 10.7424 15.48 10.2621Z" fill="#FF9811"/>
</svg>
