<svg xmlns="http://www.w3.org/2000/svg">
<symbol id="default" viewBox="0 0 24 24" fill="currentColor">
<path fill-rule="evenodd" clip-rule="evenodd" d="M7.77394 4.22232V4.79462L12.0296 4.79004L16.2852 4.78546L16.29 4.21774L16.2948 3.65002H12.0344H7.77394V4.22232ZM5.63023 7.05634V7.6286H12.025H18.4198V7.05634V6.48408H12.025H5.63023V7.05634ZM3.65002 14.8591V20.4H12.025H20.4V14.8591V9.31814H12.025H3.65002V14.8591ZM4.79455 14.8591V19.2555H12.025H19.2555V14.8591V10.4627H12.025H4.79455V14.8591Z"/>
<path d="M7.77394 15.3921V14.8198V14.2475H12.0344H16.2948L16.29 14.8152L16.2852 15.3829L12.0296 15.3875L7.77394 15.3921Z"/>
</symbol>
<symbol id="active" viewBox="0 0 24 24" fill="currentColor">
<path fill-rule="evenodd" clip-rule="evenodd" d="M20.4004 9.31836V20.4004H3.65039V9.31836H20.4004ZM7.77441 15.3916L16.2852 15.3828L16.2949 14.2471H7.77441V15.3916Z"/>
<path d="M18.4199 6.48438V7.62891H5.62988V6.48438H18.4199Z"/>
<path d="M16.2949 3.65039L16.2852 4.78516L7.77441 4.79492V3.65039H16.2949Z"/>
</symbol>
</svg>
