<svg id="default" viewBox="0 0 24 24" fill="none" xmlns="http://www.w3.org/2000/svg">
<path d="M12 22C17.5228 22 22 17.5228 22 12C22 6.47715 17.5228 2 12 2C6.47715 2 2 6.47715 2 12C2 17.5228 6.47715 22 12 22Z" fill="#F0F0F0"/>
<path d="M7.40945 15.9121L4.93359 19.0698C6.74312 20.8795 9.24285 21.999 12.0043 21.999C16.1383 21.999 19.6857 19.4901 21.2087 15.9121H7.40945Z" fill="#FFDA44"/>
<path d="M21.2242 8.12316C19.7098 4.52586 16.1523 2 12.0043 2C9.24285 2 6.74312 3.11949 4.93359 4.92926L7.43789 8.12316H21.2242Z" fill="#496E2D"/>
<path d="M4.17578 9.35742V14.611H21.6574C21.8817 13.7793 22.0019 12.905 22.0019 12.0023C22.0019 11.0866 21.8785 10.1999 21.6479 9.35742H4.17578Z" fill="black"/>
<path d="M4.92893 4.92969C1.02369 8.83492 1.02369 15.1666 4.92893 19.0719C6.54271 17.4581 8.09478 15.906 12 12.0008L4.92893 4.92969Z" fill="#A2001D"/>
<path d="M6.04762 9.39258L6.69508 11.3854H8.79062L7.09539 12.6171L7.74281 14.61L6.04762 13.3783L4.35234 14.61L4.99992 12.6171L3.30469 11.3854H5.40008L6.04762 9.39258Z" fill="#FFDA44"/>
<path d="M4.15234 12H7.94234V13.7391H4.15234V12Z" fill="#F0F0F0"/>
<path d="M8.6632 10.0075L8.04831 9.39258L6.05035 11.3906L4.05238 9.39258L3.4375 10.0075L5.43722 12.0037L3.4375 14.0035L4.05238 14.61L6.05035 12.6156L8.04831 14.61L8.6632 14.0035L6.66347 12.0037L8.6632 10.0075Z" fill="black"/>
</svg>
