<svg id="default" viewBox="0 0 24 24" fill="none" xmlns="http://www.w3.org/2000/svg">
<path d="M12 22C17.5228 22 22 17.5228 22 12C22 6.47715 17.5228 2 12 2C6.47715 2 2 6.47715 2 12C2 17.5228 6.47715 22 12 22Z" fill="#F0F0F0"/>
<path d="M4.93152 19.0697C5.35101 19.4892 5.79859 19.8633 6.26808 20.1927L20.1965 6.26418C19.8672 5.79469 19.4931 5.34711 19.0736 4.92762C18.6541 4.50813 18.2065 4.13406 17.737 3.80469L3.80859 17.7332C4.13793 18.2026 4.51203 18.6502 4.93152 19.0697Z" fill="#A2001D"/>
<path d="M4.93247 4.92848C1.77763 8.08333 1.172 12.8213 3.11431 16.5847L16.5886 3.11039C12.8252 1.16808 8.08724 1.77378 4.93247 4.92848Z" fill="#0052B4"/>
<path d="M19.0663 19.0703C22.221 15.9155 22.8266 11.1775 20.8844 7.41406L7.41016 20.8884C11.1735 22.8307 15.9115 22.2251 19.0663 19.0703Z" fill="#496E2D"/>
<path d="M10.2659 7.65168L9.14533 8.17875L9.74205 9.26398L8.52529 9.03125L8.37107 10.2604L7.52357 9.35633L6.67602 10.2604L6.52188 9.03125L5.30508 9.26395L5.90176 8.17871L4.78125 7.65168L5.9018 7.12457L5.30508 6.03941L6.52184 6.27215L6.67606 5.04297L7.52357 5.94703L8.37111 5.04297L8.52529 6.27215L9.74205 6.03941L9.14541 7.12461L10.2659 7.65168Z" fill="#FFDA44"/>
</svg>
