<svg id="default" viewBox="0 0 24 24" fill="none" xmlns="http://www.w3.org/2000/svg">
<path d="M2.99227 7.65082C2.35656 8.96551 2 10.4404 2 11.9986C2 13.5569 2.35656 15.0318 2.99227 16.3464L12 17.216L21.0077 16.3464C21.6434 15.0318 22 13.5569 22 11.9986C22 10.4404 21.6434 8.96551 21.0077 7.65082L12 6.78125L2.99227 7.65082Z" fill="#F0F0F0"/>
<path d="M2.99219 16.3477C4.60961 19.6926 8.03496 21.9998 11.9996 21.9998C15.9642 21.9998 19.3895 19.6926 21.007 16.3477H2.99219Z" fill="#6DA544"/>
<path d="M2.99219 7.6522H21.007C19.3895 4.30723 15.9641 2 11.9996 2C8.035 2 4.60961 4.30723 2.99219 7.6522Z" fill="#FF9811"/>
<path d="M12.0017 15.4799C13.9227 15.4799 15.4799 13.9227 15.4799 12.0017C15.4799 10.0807 13.9227 8.52344 12.0017 8.52344C10.0807 8.52344 8.52344 10.0807 8.52344 12.0017C8.52344 13.9227 10.0807 15.4799 12.0017 15.4799Z" fill="#FF9811"/>
</svg>
