<svg id="default" viewBox="0 0 24 24" fill="none" xmlns="http://www.w3.org/2000/svg">
<path d="M16.3473 2.99235C15.0325 2.35659 13.5575 2 11.9991 2C10.4407 2 8.9657 2.35659 7.6509 2.99235L6.78125 12.0009L7.6509 21.0094C8.9657 21.6452 10.4407 22.0018 11.9991 22.0018C13.5575 22.0018 15.0325 21.6452 16.3473 21.0094L17.2169 12.0009L16.3473 2.99235Z" fill="#F0F0F0"/>
<path d="M7.65271 2.99219C4.30744 4.60975 2 8.03541 2 12.0004C2 15.9653 4.30744 19.391 7.65271 21.0086V2.99219Z" fill="#6DA544"/>
<path d="M16.3477 2.99219V21.0086C19.6929 19.391 22.0003 15.9653 22.0003 12.0004C22.0003 8.03545 19.6929 4.60975 16.3477 2.99219Z" fill="#6DA544"/>
<path d="M14.6085 15.0428L11.9996 6.78125L9.39062 15.0428H11.3473V17.2169H12.6518V15.0428H14.6085Z" fill="#6DA544"/>
</svg>
