<svg id="default" viewBox="0 0 24 24" fill="none" xmlns="http://www.w3.org/2000/svg">
<path d="M12 22C17.5228 22 22 17.5228 22 12C22 6.47715 17.5228 2 12 2C6.47715 2 2 6.47715 2 12C2 17.5228 6.47715 22 12 22Z" fill="#F0F0F0"/>
<path d="M11.9999 2C8.0353 2 4.60968 4.30723 2.99219 7.6522H21.0076C19.3901 4.30723 15.9645 2 11.9999 2Z" fill="#338AF3"/>
<path d="M11.9999 21.9998C15.9645 21.9998 19.3902 19.6926 21.0077 16.3477H2.99219C4.60969 19.6926 8.03532 21.9998 11.9999 21.9998Z" fill="#338AF3"/>
<path d="M12.0005 8.95703C10.3197 8.95703 8.95703 10.3196 8.95703 12.0005C8.95703 13.6814 10.3197 15.044 12.0005 15.044C13.6814 15.044 15.044 13.6814 15.044 12.0005C15.044 10.3196 13.6814 8.95703 12.0005 8.95703ZM12.0005 13.7396C11.04 13.7396 10.2614 12.9611 10.2614 12.0005C10.2614 11.04 11.04 10.2614 12.0005 10.2614C12.961 10.2614 13.7397 11.04 13.7397 12.0005C13.7397 12.9611 12.961 13.7396 12.0005 13.7396Z" fill="#FFDA44"/>
<path d="M13.5066 12.4348L12.0004 12L10.4942 12.4348L9.99219 13.3044H14.0086L13.5066 12.4348Z" fill="#0052B4"/>
<path d="M11.9963 9.82617L10.9922 11.5653L11.9963 12.0001L13.0004 11.5653L11.9963 9.82617Z" fill="#338AF3"/>
<path d="M10.4961 12.4359H13.5084L13.0064 11.5664H10.9982L10.4961 12.4359Z" fill="#6DA544"/>
</svg>
