<svg id="default" viewBox="0 0 24 24" fill="none" xmlns="http://www.w3.org/2000/svg">
<path d="M12 22C17.5228 22 22 17.5228 22 12C22 6.47715 17.5228 2 12 2C6.47715 2 2 6.47715 2 12C2 17.5228 6.47715 22 12 22Z" fill="#F0F0F0"/>
<path d="M2.34375 14.6094C2.92234 16.7562 4.19754 18.6169 5.9123 19.9345V14.6094H2.34375Z" fill="#D80027"/>
<path d="M11.1328 21.9626C11.4195 21.9873 11.7093 22.0006 12.0024 22.0006C16.6227 22.0006 20.5104 18.867 21.6579 14.6094H11.1328V21.9626Z" fill="#D80027"/>
<path d="M21.6579 9.3913C20.5104 5.13364 16.6227 2 12.0024 2C11.7093 2 11.4195 2.01336 11.1328 2.03805V9.3913H21.6579Z" fill="#D80027"/>
<path d="M5.9123 4.06445C4.19754 5.38203 2.92234 7.24269 2.34375 9.38953H5.9123V4.06445Z" fill="#D80027"/>
<path d="M21.9154 10.6962H9.82613H9.82609V2.23828C8.90195 2.4432 8.02582 2.77535 7.21738 3.21648V10.6962V10.6962H2.08465C2.02898 11.1232 2 11.5585 2 12.0006C2 12.4427 2.02898 12.878 2.08465 13.3049H7.21734H7.21738V20.7847C8.02582 21.2257 8.90195 21.558 9.82609 21.7629V13.305V13.305H21.9154C21.9709 12.878 22 12.4427 22 12.0006C22 11.5585 21.9709 11.1232 21.9154 10.6962Z" fill="#0052B4"/>
</svg>
