<svg id="default" viewBox="0 0 24 24" xmlns="http://www.w3.org/2000/svg" stroke="currentColor" stroke-width="1.5" fill="none">
<path d="M17.6886 11.2713V13.72L19.5499 16.9851H4.40002L6.26104 13.72V9.63879C6.26104 6.48316 8.81921 3.92499 11.9748 3.92499" />
<path d="M10.3425 20.2499H13.6076" />
<path d="M18.9427 8.42077L18.5384 9.28475H17.0287L16.6246 8.42001L16.1742 8.16002L15.2233 8.24194L14.4684 6.93447L15.0155 6.15165V5.63248L14.4688 4.84959L15.2236 3.54212L16.1747 3.62448L16.6248 3.36467L17.0287 2.5H18.5384L18.9429 3.36411L19.394 3.62461L20.3442 3.54212L21.0991 4.84959L20.5532 5.63134L20.5531 6.15316L21.0993 6.93447L20.3445 8.24194L19.3942 8.16014L18.9427 8.42077Z" />
<path d="M17.8607 6.49113V5.29382" />
</svg>