<svg id="default" viewBox="0 0 16 16" fill="none" xmlns="http://www.w3.org/2000/svg">
    <path fill-rule="evenodd" clip-rule="evenodd" d="M3.57458 2.64951C2.92586 3.33557 2.49503 4.02788 2.18835 4.87713C1.97538 5.46688 1.83301 6.2492 1.83301 6.82974V6.94745H2.67158L2.6799 6.71671C2.70687 5.96881 2.88654 5.27074 3.23173 4.57274C3.47699 4.0768 3.75544 3.68091 4.15626 3.25826C4.33717 3.06751 4.33753 3.06702 4.31261 3.03826C4.22022 2.93162 3.77866 2.47219 3.76544 2.46893C3.75647 2.46672 3.67058 2.54799 3.57458 2.64951ZM11.9859 2.71542C11.8572 2.85201 11.7318 2.98724 11.7073 3.01594L11.6628 3.06811L11.8436 3.25878C12.2444 3.68142 12.5181 4.07075 12.7675 4.57309C13.1096 5.26192 13.2926 5.97284 13.3194 6.71671L13.3278 6.94745H14.1663V6.8396C14.1663 6.59557 14.1244 6.16426 14.0714 5.86394C13.8919 4.84568 13.4415 3.8605 12.7901 3.06152C12.6016 2.83027 12.2614 2.46592 12.2347 2.46667C12.2266 2.4669 12.1147 2.57883 11.9859 2.71542ZM7.72545 2.87525C7.11151 2.93447 6.69882 3.04559 6.21388 3.28223C5.55635 3.60311 5.00789 4.08232 4.60634 4.68679C4.30917 5.13413 4.10943 5.61277 4.00624 6.12479C3.92753 6.51536 3.9293 6.47473 3.92355 8.02301L3.91822 9.45305L3.17659 10.7539C2.7687 11.4694 2.43496 12.0584 2.43496 12.0628C2.43496 12.0672 4.93972 12.0707 8.00111 12.0707C12.4805 12.0707 13.566 12.0674 13.5608 12.0538C13.5572 12.0445 13.224 11.4591 12.8203 10.7529L12.0863 9.46897L12.0788 8.04434C12.0707 6.50138 12.0713 6.51421 11.9926 6.12414C11.7454 4.89862 10.9274 3.84119 9.79884 3.2884C9.38572 3.08602 8.98567 2.96422 8.52495 2.90049C8.38812 2.88156 7.83952 2.86424 7.72545 2.87525ZM7.65857 3.72484C7.20914 3.77099 6.7221 3.93482 6.32758 4.17252C6.03094 4.35126 5.67665 4.6609 5.47131 4.92088C5.08332 5.41213 4.83074 6.0388 4.77583 6.64648C4.76801 6.73297 4.76252 7.38604 4.76252 8.2308L4.76251 9.668L4.32108 10.4416C4.07829 10.8671 3.87965 11.2181 3.87965 11.2216C3.87965 11.2251 5.73366 11.228 7.99967 11.228C10.2657 11.228 12.1197 11.2253 12.1197 11.222C12.1197 11.2186 11.9226 10.871 11.6816 10.4495L11.2435 9.68299L11.2362 8.15136C11.2281 6.48343 11.231 6.5471 11.1492 6.19836C11.0376 5.72304 10.7917 5.23606 10.4701 4.85368C9.93591 4.2186 9.15133 3.80587 8.32264 3.72397C8.16358 3.70826 7.8156 3.70871 7.65857 3.72484ZM6.95629 14.1575H9.04306V13.3148H6.95629V14.1575Z" fill="currentColor"/>
</svg>
