<svg id="default" viewBox="0 0 24 24" xmlns="http://www.w3.org/2000/svg" fill="currentColor">
<path fill-rule="evenodd" clip-rule="evenodd" d="M11.5195 4.00615C11.4907 4.0101 11.3924 4.02164 11.3011 4.03181C9.21691 4.26379 7.37123 5.68536 6.58404 7.66494C6.45709 7.98417 6.34111 8.38197 6.27839 8.71325C6.19124 9.17356 6.19381 9.10544 6.18317 11.2467L6.17316 13.2646L5.09319 15.1574C4.49921 16.1984 4.00893 17.0612 4.00371 17.0749C3.9955 17.0963 5.09215 17.0997 12 17.0997C18.788 17.0997 20.0044 17.096 19.9966 17.0756C19.9915 17.0624 19.5012 16.1995 18.9071 15.1581L17.8268 13.2646L17.8167 11.2467C17.806 9.10627 17.8085 9.17242 17.7216 8.71325C17.3553 6.77849 15.99 5.12909 14.15 4.39832C13.7182 4.22685 13.2764 4.11143 12.7687 4.03756C12.5945 4.01219 11.6489 3.98841 11.5195 4.00615ZM11.6942 5.45651C11.4024 5.48634 11.1495 5.52885 10.9255 5.58575C9.31743 5.99412 8.07543 7.28411 7.72933 8.90544C7.64126 9.31794 7.64325 9.26175 7.63673 11.5293L7.63062 13.6553L7.07884 14.6218C6.77537 15.1534 6.52326 15.5982 6.51859 15.6102C6.51183 15.6277 7.61522 15.6321 12 15.6321C16.3849 15.6321 17.4881 15.6277 17.4811 15.6102C17.4762 15.5982 17.2238 15.1527 16.9201 14.6203L16.3679 13.6522L16.3678 11.6588C16.3677 10.4727 16.3605 9.58409 16.3501 9.46453C16.2386 8.18543 15.6159 7.06673 14.5899 6.30239C14.0282 5.88389 13.3503 5.60347 12.6431 5.49712C12.4208 5.46368 11.8592 5.43963 11.6942 5.45651Z" />
<path d="M10.5498 20H13.4501V18.5498H10.5498V20Z" />
</svg>