<svg id="default" viewBox="0 0 24 24" fill="none" xmlns="http://www.w3.org/2000/svg">
<path d="M12 22C17.5228 22 22 17.5228 22 12C22 6.47715 17.5228 2 12 2C6.47715 2 2 6.47715 2 12C2 17.5228 6.47715 22 12 22Z" fill="#F0F0F0"/>
<path d="M21.941 13.0877C21.941 13.0876 21.9411 13.0875 21.9411 13.0874L10.9745 2.05273C10.4797 2.10316 9.99564 2.18965 9.52489 2.30953C5.19915 3.4109 2 12.0007 2 12.0007C2 12.0007 15.9999 21.3693 17.5971 20.2884C17.9167 20.0721 18.2231 19.8379 18.5148 19.5871L12.0154 13.0877H21.941Z" fill="#0052B4"/>
<path d="M19.3913 12.0008L9.66582 2.27539C5.26906 3.32684 2 7.28176 2 12.0008C2 17.5237 6.47719 22.0008 12 22.0008C14.0949 22.0008 16.0389 21.3562 17.6457 20.2552L9.39129 12.0008H19.3913Z" fill="#D80027"/>
<path d="M11.5129 16.7652L10.2917 16.1907L10.942 15.0079L9.61583 15.2616L9.44778 13.9219L8.52407 14.9072L7.60036 13.9219L7.43227 15.2616L6.10613 15.0079L6.75649 16.1907L5.53516 16.7652L6.75649 17.3396L6.10613 18.5224L7.43235 18.2687L7.60032 19.6084L8.52407 18.6231L9.44778 19.6084L9.61583 18.2687L10.942 18.5224L10.2916 17.3397L11.5129 16.7652Z" fill="#F0F0F0"/>
<path d="M10.6994 7.54647L9.81112 7.1287L10.2841 6.26843L9.31956 6.45296L9.19733 5.47852L8.5255 6.19519L7.85367 5.47852L7.7314 6.45296L6.76683 6.26843L7.23988 7.1287L6.35156 7.54647L8.5255 7.98131L10.6994 7.54647Z" fill="#F0F0F0"/>
<path d="M11.1315 7.54688C11.1315 8.98763 9.96353 10.1556 8.52278 10.1556C7.08203 10.1556 5.91406 8.98763 5.91406 7.54688" fill="#F0F0F0"/>
</svg>
