<svg id="default" viewBox="0 0 16 16" fill="none" xmlns="http://www.w3.org/2000/svg">
<g clip-path="url(#clip0_21651_125)">
<path d="M14.1663 8.00005C14.1663 4.59429 11.4054 1.83337 7.99967 1.83337C4.59392 1.83337 1.83301 4.59429 1.83301 8.00005C1.83301 11.4058 4.59392 14.1667 7.99967 14.1667C11.4054 14.1667 14.1663 11.4058 14.1663 8.00005Z" fill="url(#paint0_linear_21651_125)"/>
<path fill-rule="evenodd" clip-rule="evenodd" d="M7.20482 5.17021C7.21705 5.12556 7.25765 5.0946 7.3039 5.0946H9.18355C9.25549 5.0946 9.30519 5.16663 9.27965 5.23388L8.40917 7.5251C8.38363 7.59237 8.43332 7.66442 8.50527 7.66442H9.55545C9.63998 7.66442 9.68834 7.76072 9.63793 7.8285L7.08061 11.2653C7.01314 11.356 6.8701 11.2872 6.89874 11.1779L7.5372 8.74107C7.55432 8.67596 7.50514 8.61229 7.43782 8.61229H6.3958C6.32798 8.61229 6.27875 8.54774 6.29669 8.48233L7.20482 5.17021Z" fill="white"/>
</g>
<defs>
<linearGradient id="paint0_linear_21651_125" x1="7.99967" y1="1.83337" x2="7.99967" y2="14.1667" gradientUnits="userSpaceOnUse">
<stop stop-color="#D90000"/>
<stop offset="1" stop-color="#730000"/>
</linearGradient>
<clipPath id="clip0_21651_125">
<rect width="12.3333" height="12.3334" fill="white" transform="translate(1.83301 1.83337)"/>
</clipPath>
</defs>
</svg>
