<svg id="default" viewBox="0 0 24 24" fill="none" xmlns="http://www.w3.org/2000/svg">
<path d="M12 22C17.5228 22 22 17.5228 22 12C22 6.47715 17.5228 2 12 2C6.47715 2 2 6.47715 2 12C2 17.5228 6.47715 22 12 22Z" fill="#F0F0F0"/>
<path d="M2 12.0009C2 15.7913 4.10898 19.089 7.21738 20.785V3.2168C4.10898 4.91281 2 8.21047 2 12.0009Z" fill="#D80027"/>
<path d="M21.378 15.4799C21.78 14.3966 22 13.2249 22 12.0017C22 10.7785 21.78 9.60672 21.378 8.52344H2.62203C2.22004 9.60672 2 10.7785 2 12.0017C2 13.2249 2.22004 14.3966 2.62203 15.4799L12 16.3495L21.378 15.4799Z" fill="#D80027"/>
<path d="M11.9991 22.0003C16.2988 22.0003 19.9642 19.2865 21.3771 15.4785H2.62109C4.03399 19.2865 7.69946 22.0003 11.9991 22.0003Z" fill="#6DA544"/>
<path d="M2 12.0012C2 16.6215 5.13364 20.5092 9.3913 21.6567V2.3457C5.13364 3.4932 2 7.38094 2 12.0012Z" fill="#D80027"/>
<path d="M8.11734 6.40082L7.19504 5.47852L6.5802 6.09344L5.96535 5.47852L5.04305 6.40082L5.65793 7.01571L5.04297 7.63063L5.96527 8.55294L6.58016 7.93801L7.19504 8.55294L8.11734 7.63063L7.50246 7.01571L8.11734 6.40082Z" fill="#F0F0F0"/>
</svg>
