<svg id="default" viewBox="0 0 24 24" xmlns="http://www.w3.org/2000/svg">
<path fill-rule="evenodd" clip-rule="evenodd" d="M11.7328 3.50756C10.1955 3.58898 8.77501 4.53892 8.09385 5.94113C7.88201 6.37726 7.75811 6.77605 7.68701 7.2507C7.64245 7.54813 7.6428 8.15785 7.68767 8.46393C7.83162 9.44553 8.27605 10.3152 8.98227 10.9973C9.33541 11.3384 9.6399 11.5526 10.0872 11.7745C10.5057 11.9823 10.908 12.1079 11.3958 12.1833C11.7004 12.2304 12.3219 12.2306 12.6283 12.1837C13.5612 12.0408 14.3747 11.6417 15.0373 11.0017C15.7484 10.315 16.1922 9.44813 16.3365 8.46393C16.3816 8.15608 16.3818 7.54728 16.3367 7.2507C16.0833 5.58161 14.9641 4.24518 13.3744 3.71371C12.8644 3.54316 12.3293 3.47597 11.7328 3.50756ZM11.8388 4.71083C11.0237 4.77448 10.3554 5.07144 9.80669 5.61379C9.42874 5.98735 9.1947 6.35901 9.03006 6.84707C8.98733 6.97373 8.93915 7.14279 8.92297 7.22275C8.68645 8.39295 9.12814 9.60289 10.0582 10.3325C10.525 10.6988 11.0251 10.9088 11.6135 10.9858C12.8207 11.1439 14.0167 10.5813 14.6792 9.54402C15.0354 8.9862 15.2142 8.25106 15.1524 7.59828C15.1236 7.29453 15.0879 7.12515 14.9941 6.84707C14.8295 6.35901 14.5954 5.98735 14.2175 5.61379C13.6492 5.05214 12.9372 4.74637 12.118 4.71212C12.0121 4.7077 11.8864 4.70712 11.8388 4.71083ZM11.0299 13.6751C9.492 13.7553 7.99606 14.0397 6.68732 14.5008C5.51782 14.9129 4.34898 15.5284 3.68786 16.0803L3.5 16.2371L3.50491 18.3686L3.5098 20.5H12.0121H20.5144L20.5193 18.3686L20.5242 16.2371L20.3363 16.0803C19.7325 15.5763 18.6232 14.9758 17.585 14.591C16.1456 14.0575 14.6461 13.7615 12.9365 13.6735C12.506 13.6513 11.4698 13.6522 11.0299 13.6751ZM10.9625 14.8888C9.21565 14.9932 7.55201 15.3873 6.09923 16.041C5.6938 16.2235 5.08701 16.5569 4.79533 16.7576L4.71341 16.814V18.0552V19.2964H12.0121H19.3108V18.0552V16.814L19.2288 16.7576C18.9152 16.5418 18.2882 16.2013 17.8472 16.0072C16.3735 15.3585 14.7858 14.9912 13.0065 14.8872C12.6107 14.8641 11.3602 14.8651 10.9625 14.8888Z" fill="currentColor"/>
</svg>
