<svg id="default" xmlns="http://www.w3.org/2000/svg" viewBox="0 0 24 24" fill="currentColor">
<defs>
<style>
.animated-ball {
  animation: ballAnimation 3.5s ease-in-out infinite;
}

@keyframes ballAnimation {
  0% { opacity: 1; transform: scale(1) translate(0, 0); }
  71.4% { opacity: 1; transform: scale(1) translate(0, 0); }
  100% { opacity: 0; transform: scale(0.5) translate(7px, -17px); }
}
</style>
</defs>
<path d="M21.2002 4.2998V16.3926L16.9688 11.4551L18.0312 10.5449L19.7998 12.6074V5.7002H4.2002V12.6074L5.96875 10.5449L7.03125 11.4551L2.7998 16.3926V4.2998H21.2002Z"/>
<path d="M21.126 5.31348L17.9326 11.7002H6.06738L2.87402 5.31348L4.12598 4.68652L6.93262 10.2998H17.0674L19.874 4.68652L21.126 5.31348Z"/>
<g class="animated-ball" transform-origin="12 16.5">
<path d="M14.2998 16.5C14.2998 15.89 14.0573 15.3054 13.626 14.874C13.1946 14.4427 12.61 14.2002 12 14.2002C11.39 14.2002 10.8054 14.4427 10.374 14.874C9.94269 15.3054 9.7002 15.89 9.7002 16.5C9.7002 17.11 9.94269 17.6946 10.374 18.126C10.8054 18.5573 11.39 18.7998 12 18.7998C12.61 18.7998 13.1946 18.5573 13.626 18.126C14.0573 17.6946 14.2998 17.11 14.2998 16.5ZM15.7002 16.5C15.7002 17.4813 15.3101 18.4223 14.6162 19.1162C13.9223 19.8101 12.9813 20.2002 12 20.2002C11.0187 20.2002 10.0777 19.8101 9.38379 19.1162C8.6899 18.4223 8.2998 17.4813 8.2998 16.5C8.2998 15.5187 8.6899 14.5777 9.38379 13.8838C10.0777 13.1899 11.0187 12.7998 12 12.7998C12.9813 12.7998 13.9223 13.1899 14.6162 13.8838C15.3101 14.5777 15.7002 15.5187 15.7002 16.5Z"/>
<path d="M13.583 15.959L12.9782 17.916H11.0218L10.417 15.959L12 14.75L13.583 15.959ZM11.9814 16.4932L11.9889 16.5156H12.0111L12.0177 16.4932L12 16.4805L11.9814 16.4932Z"/>
<path d="M14.8418 15.0256L15.0003 15.4998L15.158 15.9746L12.1585 16.9743L11.8414 16.0257L14.8418 15.0256Z"/>
<path d="M12.1582 16.0254L11.8418 16.9746L8.8418 15.9746L9.1582 15.0254L12.1582 16.0254Z"/>
<path d="M11.9998 16.5L12.4061 16.792L10.6062 19.292L9.79375 18.708L11.5945 16.208L11.9998 16.5Z"/>
<path d="M14.2061 18.708L13.7998 19L13.3945 19.292L11.5938 16.792L12.4062 16.208L14.2061 18.708Z"/>
<path d="M12.5 13.5V15.5H11.5V13.5H12.5Z"/>
</g>
<path d="M15 19.5996V21H9V19.5996H15Z"/>
</svg>