<svg id="default" viewBox="0 0 24 24" fill="none" xmlns="http://www.w3.org/2000/svg">
<path d="M12 22C17.5228 22 22 17.5228 22 12C22 6.47715 17.5228 2 12 2C6.47715 2 2 6.47715 2 12C2 17.5228 6.47715 22 12 22Z" fill="#F0F0F0"/>
<path d="M3.21875 7.21738H20.7869C19.0909 4.10895 15.7933 2 12.0029 2C8.21243 2 4.91481 4.10895 3.21875 7.21738Z" fill="#D80027"/>
<path d="M12.0029 21.9986C15.7933 21.9986 19.0909 19.8897 20.787 16.7812H3.21875C4.9148 19.8897 8.21242 21.9986 12.0029 21.9986Z" fill="#D80027"/>
<path d="M15.476 12.0017C15.476 13.9227 13.9187 15.0452 11.9978 15.0452C10.0768 15.0452 8.51953 13.9227 8.51953 12.0017C8.51953 10.0807 10.0768 8.52344 11.9978 8.52344C13.9187 8.52344 15.476 10.0807 15.476 12.0017Z" fill="#FFDA44"/>
<path d="M15.476 12C15.476 13.921 13.9187 15.4782 11.9978 15.4782C10.0768 15.4782 8.51953 13.921 8.51953 12" fill="#0052B4"/>
<path d="M9.82031 11.1328H10.6899V12.8719H9.82031V11.1328Z" fill="#D80027"/>
<path d="M13.3008 11.1328H14.1704V12.8719H13.3008V11.1328Z" fill="#D80027"/>
<path d="M11.5586 9.82812H12.4282V12.8716H11.5586V9.82812Z" fill="#D80027"/>
</svg>
