<svg id="default" viewBox="0 0 24 24" fill="none" xmlns="http://www.w3.org/2000/svg">
<path d="M19.0679 19.0677C15.1634 22.9722 8.83297 22.9722 4.92838 19.0677C1.02387 15.1632 1.02387 8.83268 4.92842 4.92813C8.83293 1.02362 14.5486 1.63839 18.4531 5.54294C22.3576 9.44745 22.9724 15.1632 19.0679 19.0677Z" fill="black"/>
<path d="M4.92969 4.92834C8.83419 1.02384 15.1646 1.02392 19.0692 4.92838C22.9737 8.83289 22.9737 15.1633 19.0692 19.0679" fill="#A2001D"/>
<path d="M9.64654 15.4746L9.80839 15.9728H10.3322L9.90841 16.2806L10.0703 16.7787L9.64654 16.4709L9.2228 16.7787L9.38464 16.2806L8.96094 15.9728H9.48466L9.64654 15.4746Z" fill="#F0F0F0"/>
<path d="M8.31064 10.6934L8.58047 11.5236H9.45335L8.74712 12.0367L9.01687 12.8669L8.31064 12.3538L7.60445 12.8669L7.87424 12.0367L7.16797 11.5236H8.04093L8.31064 10.6934Z" fill="#F0F0F0"/>
<path d="M8.30674 16.7793L8.57649 17.6095H9.44945L8.74314 18.1226L9.01297 18.9528L8.30674 18.4396L7.60054 18.9528L7.87026 18.1226L7.16406 17.6095H8.0369L8.30674 16.7793Z" fill="#F0F0F0"/>
<path d="M10.8575 12.8672L11.1273 13.6974H12.0002L11.294 14.2104L11.5637 15.0407L10.8575 14.5275L10.1513 15.0407L10.4211 14.2104L9.71484 13.6974H10.5878L10.8575 12.8672Z" fill="#F0F0F0"/>
<path d="M5.75595 12.8672L6.02579 13.6974H6.89863L6.19243 14.2104L6.46215 15.0407L5.75595 14.5275L5.04972 15.0407L5.31955 14.2104L4.61328 13.6974H5.4862L5.75595 12.8672Z" fill="#F0F0F0"/>
<path d="M18.7401 9.40333C18.2933 8.95649 17.7127 8.69252 17.0888 8.64718L18.9564 7.1946C18.2126 6.45079 17.2156 6.11488 16.2429 6.18592C16.1264 5.7674 15.9044 5.37209 15.5752 5.04297L14.8375 6.5184C14.7891 6.43021 14.7279 6.34722 14.6531 6.2725C14.2287 5.84809 13.5406 5.84809 13.1162 6.2725C12.6918 6.69692 12.6918 7.38499 13.1162 7.8094C13.1909 7.88412 13.274 7.94539 13.3621 7.99382L11.8867 8.73154C12.2159 9.06077 12.6115 9.28296 13.0303 9.39934C12.959 10.3721 13.2945 11.3689 14.0384 12.1127L15.6701 10.0148C15.7929 9.8939 15.955 9.82715 16.1274 9.82715C16.3016 9.82715 16.4654 9.89495 16.5885 10.0182C16.7117 10.1413 16.7795 10.3051 16.7795 10.4792C16.7795 10.6534 16.7117 10.8171 16.5885 10.9403L17.2033 11.5551C17.4906 11.2677 17.6489 10.8857 17.6489 10.4793C17.6489 10.1467 17.5428 9.83063 17.347 9.56927C17.6324 9.64547 17.902 9.79474 18.1254 10.0182C18.8034 10.6961 18.8034 11.7993 18.1254 12.4772L18.7402 13.092C19.2328 12.5994 19.5042 11.9444 19.5042 11.2477C19.504 10.5509 19.2327 9.89597 18.7401 9.40333Z" fill="#FFDA44"/>
</svg>
