<svg id="default" viewBox="0 0 16 16" fill="none" xmlns="http://www.w3.org/2000/svg">
<path fill-rule="evenodd" clip-rule="evenodd" d="M9.91464 0.117275C9.86972 0.181777 9.222 1.13617 8.47528 2.23815L7.1176 4.24176L3.71817 5.31428C1.84849 5.90416 0.300259 6.39336 0.277674 6.4014C0.239298 6.41506 0.368436 6.54785 2.24091 8.42037L4.2452 10.4247L0 14.67L0.746655 15.4167L4.99195 11.1715L6.9963 13.1758C8.86881 15.0482 9.00161 15.1774 9.01527 15.139C9.02331 15.1164 9.51254 13.5681 10.1025 11.6983L11.175 8.29872L13.2855 6.86796C14.4462 6.08104 15.3991 5.43196 15.4031 5.42555C15.4071 5.41915 14.1922 4.19578 12.7033 2.70695L9.99632 0L9.91464 0.117275ZM7.78581 5.1352L5.00459 6.01388C3.47492 6.49714 2.22334 6.89632 2.22332 6.90095C2.22324 6.91573 8.51409 13.2007 8.52095 13.1927C8.52458 13.1885 8.92216 11.9353 9.40446 10.4079L10.2814 7.63086L11.9901 6.47382C12.9299 5.83744 13.7144 5.30508 13.7333 5.29079C13.7665 5.26572 13.7029 5.19994 11.9582 3.45527L10.1486 1.64574L7.78581 5.1352Z" fill="currentColor"/>
</svg>
