<svg id="default" viewBox="0 0 24 24" fill="none" xmlns="http://www.w3.org/2000/svg">
<path d="M11.9996 21.9991C17.5222 21.9991 21.9991 17.5222 21.9991 11.9996C21.9991 6.47695 17.5222 2 11.9996 2C6.47695 2 2 6.47695 2 11.9996C2 17.5222 6.47695 21.9991 11.9996 21.9991Z" fill="#F0F0F0"/>
<path d="M2 12.0005C2 15.7908 4.10885 19.0882 7.21715 20.7842V3.2168C4.10885 4.91278 2 8.21025 2 12.0005Z" fill="#F0F0F0"/>
<path d="M12.0011 2C10.2688 2 8.63943 2.44072 7.21875 3.21584V20.7832C8.63943 21.5584 10.2688 21.9991 12.0011 21.9991C17.5237 21.9991 22.0007 17.5221 22.0007 11.9996C22.0007 6.47699 17.5237 2 12.0011 2Z" fill="#496E2D"/>
<path d="M16.2722 13.6532C15.0072 14.5672 13.2406 14.2827 12.3266 13.0177C11.4125 11.7526 11.697 9.98606 12.9621 9.07204C13.3565 8.78705 13.7997 8.61858 14.2506 8.56003C13.3832 8.43031 12.4662 8.62577 11.6992 9.18001C10.1422 10.305 9.79196 12.4792 10.9169 14.0362C12.0419 15.5932 14.2161 15.9435 15.7732 14.8183C16.5403 14.2641 17.0137 13.455 17.1629 12.5907C16.9658 13.0003 16.6667 13.3681 16.2722 13.6532Z" fill="#F0F0F0"/>
<path d="M16.2162 8.52148L16.9288 9.28946L17.8794 8.84917L17.3691 9.76412L18.0817 10.5322L17.0538 10.3296L16.5436 11.2447L16.4185 10.2045L15.3906 10.002L16.3412 9.56167L16.2162 8.52148Z" fill="#F0F0F0"/>
</svg>
