<svg id="default" viewBox="0 0 24 24" fill="none" xmlns="http://www.w3.org/2000/svg">
<path d="M2 12.0004C2 16.2997 4.71356 19.9649 8.52123 21.3777L9.39078 12.0004L8.52123 2.62305C4.71356 4.03592 2 7.70106 2 12.0004Z" fill="#6DA544"/>
<path d="M22.0008 11.9993C22.0008 6.47688 17.5239 2 12.0015 2C10.7784 2 9.60672 2.22002 8.52344 2.62195V21.3767C9.60672 21.7786 10.7784 21.9986 12.0015 21.9986C17.5239 21.9986 22.0008 17.5217 22.0008 11.9993Z" fill="#D80027"/>
<path d="M8.52098 15.4794C10.4418 15.4794 11.999 13.9223 11.999 12.0014C11.999 10.0806 10.4418 8.52344 8.52098 8.52344C6.60013 8.52344 5.04297 10.0806 5.04297 12.0014C5.04297 13.9223 6.60013 15.4794 8.52098 15.4794Z" fill="#FFDA44"/>
<path d="M6.5625 10.2598V12.4335C6.5625 13.514 7.43838 14.3899 8.51889 14.3899C9.5994 14.3899 10.4753 13.514 10.4753 12.4335V10.2598H6.5625Z" fill="#D80027"/>
<path d="M8.51933 13.0841C8.15974 13.0841 7.86719 12.7916 7.86719 12.432V11.5625H9.17143V12.432C9.17143 12.7916 8.87887 13.0841 8.51933 13.0841Z" fill="#F0F0F0"/>
</svg>
