<svg id="default" viewBox="0 0 24 24" fill="none" xmlns="http://www.w3.org/2000/svg">
<path d="M12 22C17.5228 22 22 17.5228 22 12C22 6.47715 17.5228 2 12 2C6.47715 2 2 6.47715 2 12C2 17.5228 6.47715 22 12 22Z" fill="#F0F0F0"/>
<path d="M12.0038 2C8.03921 2 4.61359 4.30723 2.99609 7.6522H21.0115C19.394 4.30723 15.9684 2 12.0038 2Z" fill="#D80027"/>
<path d="M12.0038 21.9998C15.9684 21.9998 19.3941 19.6926 21.0116 16.3477H2.99609C4.6136 19.6926 8.03923 21.9998 12.0038 21.9998Z" fill="#0052B4"/>
<path d="M14.4572 9.10742L13.5349 10.0297C13.9283 10.4231 14.1717 10.9666 14.1717 11.5669C14.1717 12.7675 13.1983 13.7408 11.9978 13.7408C10.7972 13.7408 9.82386 12.7675 9.82386 11.5669C9.82386 10.9666 10.0672 10.4231 10.4606 10.0297L9.53832 9.10742C8.90883 9.7368 8.51953 10.6064 8.51953 11.5669C8.51953 13.4879 10.0768 15.0451 11.9978 15.0451C13.9187 15.0451 15.476 13.4879 15.476 11.5669C15.476 10.6064 15.0867 9.7368 14.4572 9.10742Z" fill="#6DA544"/>
<path d="M12.0004 10.2598L12.3242 11.2563H13.3719L12.5243 11.872L12.848 12.8685L12.0004 12.2527L11.1527 12.8685L11.4765 11.872L10.6289 11.2563H11.6766L12.0004 10.2598Z" fill="#FFDA44"/>
</svg>
