<svg id="default" viewBox="0 0 24 24" fill="none" xmlns="http://www.w3.org/2000/svg">
<path d="M11.9983 21.9966C17.5202 21.9966 21.9966 17.5202 21.9966 11.9983C21.9966 6.4764 17.5202 2 11.9983 2C6.4764 2 2 6.4764 2 11.9983C2 17.5202 6.4764 21.9966 11.9983 21.9966Z" fill="#F0F0F0"/>
<path d="M22.0022 11.9983C22.0022 6.47644 17.5258 2 12.0039 2C10.048 2 8.22352 2.56221 6.68245 3.53298L8.87399 4.46412L5.91797 5.72008L8.87399 6.976L5.91797 8.23188L8.87399 9.48773L5.91797 10.7434L8.87399 11.999L5.91797 13.2549L8.87399 14.5107L5.91797 15.7664L8.87399 17.0222L5.91797 18.2781L8.87399 19.5338L6.68343 20.4644C8.2243 21.4347 10.0484 21.9966 12.0039 21.9966C17.5258 21.9966 22.0022 17.5202 22.0022 11.9983Z" fill="#751A46"/>
</svg>
