<svg id="default" viewBox="0 0 24 24" fill="none" xmlns="http://www.w3.org/2000/svg">
<path fill-rule="evenodd" clip-rule="evenodd" d="M6.2998 8.82137V11.3429H8.82137H11.3429V8.82137V6.2998H8.82137H6.2998V8.82137ZM12.6071 8.82137V11.3429H15.1286H17.6502V8.82137V6.2998H15.1286H12.6071V8.82137ZM7.14705 8.82815V10.5092L8.82473 10.5058L10.5024 10.5024L10.5058 8.82473L10.5092 7.14705H8.82815H7.14705V8.82815ZM13.4543 8.82809V10.5091H15.1286H16.803V8.82809V7.14705H15.1286H13.4543V8.82809ZM6.2998 15.1286V17.6502H8.82137H11.3429V15.1286V12.6071H8.82137H6.2998V15.1286ZM7.14705 15.1286V16.803H8.82809H10.5091V15.1286V13.4543H8.82809H7.14705V15.1286Z" fill="currentColor" />
<rect x="12.6006" y="12.5996" width="2" height="2" fill="currentColor" />
<rect x="12.6006" y="15.5996" width="2" height="2" fill="currentColor" />
<rect x="15.6006" y="12.5996" width="2" height="2" fill="currentColor" />
<rect x="15.6006" y="15.5996" width="2" height="2" fill="currentColor" />
<path d="M8 4H4V8" stroke="currentColor" />
<path d="M4 16L4 20L8 20" stroke="currentColor" />
<path d="M16 20L20 20L20 16" stroke="currentColor" />
<path d="M20 8L20 4L16 4" stroke="currentColor" />
</svg>
