<svg id="default" viewBox="0 0 24 24" xmlns="http://www.w3.org/2000/svg">
<path fill-rule="evenodd" clip-rule="evenodd" d="M11.2471 2.77857C9.42828 2.93327 7.70831 3.60577 6.29987 4.71292C5.72453 5.16518 5.16492 5.72481 4.71236 6.30045C3.4471 7.90985 2.74805 9.93829 2.74805 12.0003C2.74805 13.3349 3.03334 14.6355 3.59728 15.8715C4.19639 17.1846 5.1374 18.374 6.29987 19.2876C7.90943 20.5526 9.93876 21.252 11.9997 21.252C12.7413 21.252 13.4588 21.1659 14.1801 20.9903C16.2126 20.4957 17.9712 19.3615 19.2951 17.6915C19.502 17.4306 19.8642 16.889 20.0417 16.5751C21.2095 14.5107 21.5466 12.1081 20.9897 9.81988C20.6421 8.39141 19.9738 7.08907 19.0086 5.95926C18.6819 5.57691 18.1289 5.05042 17.6995 4.71294C16.4266 3.71258 14.8641 3.05329 13.234 2.82883C12.6628 2.75017 11.8289 2.72908 11.2471 2.77857ZM11.4478 4.02435C10.6921 4.0968 10.2432 4.18111 9.64413 4.36315C8.86409 4.60019 7.92442 5.0726 7.26854 5.55746C6.64782 6.01634 6.01576 6.6484 5.55688 7.26912C5.10587 7.87918 4.67612 8.71156 4.40941 9.49156C4.31669 9.76274 4.17931 10.3189 4.12428 10.6459C4.03366 11.1843 4.02194 11.3394 4.02194 12.0003C4.02194 12.659 4.03388 12.8182 4.12277 13.345C4.25604 14.1347 4.49256 14.8456 4.87708 15.6121C5.63913 17.1311 6.86885 18.3609 8.38792 19.1229C9.29417 19.5775 10.1205 19.825 11.1568 19.9522C11.4393 19.9869 12.5604 19.9868 12.8426 19.9522C13.9956 19.8105 14.9857 19.4889 15.9709 18.9359C17.1483 18.2751 18.2745 17.1489 18.9353 15.9715C19.4883 14.9863 19.8099 13.9962 19.9516 12.8432C19.9863 12.561 19.9863 11.4398 19.9516 11.1574C19.8244 10.121 19.577 9.29475 19.1223 8.3885C18.7335 7.61346 18.273 6.97759 17.6477 6.35227C17.0224 5.72695 16.3865 5.26645 15.6115 4.87766C14.7276 4.43423 13.9309 4.19061 12.943 4.06162C12.7059 4.03067 11.6551 4.00446 11.4478 4.02435ZM11.799 6.67451C10.6215 6.74859 9.56028 7.43383 9.02152 8.46799C8.75048 8.98829 8.652 9.38703 8.63363 10.0385L8.62247 10.4348H9.89237V10.1364C9.89237 9.79204 9.92601 9.56549 10.0123 9.32919C10.279 8.59827 10.9038 8.08014 11.6686 7.95567C12.426 7.83238 13.2057 8.14294 13.6715 8.75343C13.948 9.11585 14.1045 9.55941 14.1063 9.98552L14.107 10.1483L11.3775 12.4875V14.7499H12.6219L12.6243 13.074L15.3742 10.7259L15.3651 10.184C15.3543 9.53204 15.3094 9.2517 15.1498 8.83929C14.708 7.69757 13.6692 6.86648 12.4814 6.70446C12.3027 6.68009 11.9538 6.66478 11.799 6.67451ZM11.3775 17.4994H12.6219V15.9139H11.3775V17.4994Z" fill="currentColor" />
</svg>
