<svg id="default" viewBox="0 0 24 24" fill="none" xmlns="http://www.w3.org/2000/svg">
<path d="M15.4764 2.62195C14.3933 2.22004 13.2219 2 11.999 2C10.7762 1.99996 9.60474 2.22004 8.52169 2.62195L7.65234 12L8.52169 21.378C9.6047 21.78 10.7761 22 11.999 22C13.2219 22 14.3934 21.78 15.4764 21.378L16.3457 12L15.4764 2.62195Z" fill="#FFDA44"/>
<path d="M22.0005 12.0011C22.0005 7.70145 19.2875 4.03594 15.4805 2.62305V21.3791C19.2875 19.9661 22.0005 16.3007 22.0005 12.0011Z" fill="#D80027"/>
<path d="M2 11.999C2 16.2987 4.71305 19.9641 8.52 21.3771L8.52004 2.62109C4.71305 4.03398 2 7.69937 2 11.999H2Z" fill="#0052B4"/>
</svg>
