<svg id="default" viewBox="0 0 24 24" fill="none" xmlns="http://www.w3.org/2000/svg">
<path d="M12 22C17.5228 22 22 17.5228 22 12C22 6.47715 17.5228 2 12 2C6.47715 2 2 6.47715 2 12C2 17.5228 6.47715 22 12 22Z" fill="#6DA544"/>
<path d="M7.65625 13.957C7.65625 14.6774 8.24023 15.2614 8.96058 15.2614H12.8736C12.8736 15.8617 13.3603 16.3483 13.9606 16.3483H15.2649C15.8652 16.3483 16.3518 15.8617 16.3518 15.2614V13.957H7.65625Z" fill="#F0F0F0"/>
<path d="M16.4555 7.65234V10.6958C16.4555 11.1753 16.0654 11.5654 15.5859 11.5654V12.8697C16.7847 12.8697 17.7599 11.8945 17.7599 10.6958V7.65234H16.4555Z" fill="#F0F0F0"/>
<path d="M7.11176 10.6958C7.11176 11.1753 6.72168 11.5654 6.24219 11.5654V12.8697C7.44089 12.8697 8.41609 11.8945 8.41609 10.6958V7.65234H7.11176V10.6958Z" fill="#F0F0F0"/>
<path d="M14.5078 7.65234H15.8121V10.6958H14.5078V7.65234Z" fill="#F0F0F0"/>
<path d="M12.5446 9.39147C12.5446 9.51136 12.4471 9.60886 12.3272 9.60886C12.2074 9.60886 12.1099 9.51132 12.1099 9.39147V7.65234H10.8055V9.39147C10.8055 9.51136 10.708 9.60886 10.5882 9.60886C10.4683 9.60886 10.3708 9.51132 10.3708 9.39147V7.65234H9.06641V9.39147C9.06641 10.2306 9.74906 10.9132 10.5882 10.9132C10.9113 10.9132 11.211 10.8117 11.4577 10.6392C11.7044 10.8116 12.0041 10.9132 12.3273 10.9132C12.3924 10.9132 12.4563 10.9087 12.5193 10.9006C12.4269 11.2815 12.0839 11.5654 11.6751 11.5654V12.8697C12.8738 12.8697 13.849 11.8945 13.849 10.6958V9.39147V7.65234H12.5447V9.39147H12.5446Z" fill="#F0F0F0"/>
<path d="M9.06641 11.5664H11.0229V12.8708H9.06641V11.5664Z" fill="#F0F0F0"/>
</svg>
