<svg id="default" viewBox="0 0 24 24" fill="none" xmlns="http://www.w3.org/2000/svg">
<path d="M19.0681 19.072C22.8184 15.3217 22.9665 9.33421 19.5139 5.40625L11.997 12.0008L5.40234 19.5178C9.3303 22.9704 15.3178 22.8223 19.0681 19.072Z" fill="#496E2D"/>
<path d="M4.92856 4.92858C8.67886 1.17827 14.6664 1.03019 18.5943 4.48277L11.9996 11.9998L4.48279 18.5943C1.03017 14.6664 1.17829 8.67888 4.92856 4.92858Z" fill="#0052B4"/>
<path d="M18.592 4.48438L4.48047 18.5959C4.62312 18.7582 4.77124 18.9174 4.92627 19.0724C5.08127 19.2274 5.24052 19.3755 5.40286 19.5182L19.5143 5.40669C19.3717 5.24435 19.2235 5.08513 19.0685 4.9301C18.9135 4.77518 18.7543 4.62703 18.592 4.48438Z" fill="#FFDA44"/>
<path d="M6.21509 5.47852L6.43098 6.14283H7.12944L6.56438 6.55333L6.78019 7.21764L6.21509 6.80707L5.64999 7.21764L5.86588 6.55333L5.30078 6.14283H5.99928L6.21509 5.47852Z" fill="#F0F0F0"/>
<path d="M9.7854 5.47852L10.0013 6.14283H10.6997L10.1347 6.55333L10.3505 7.21764L9.7854 6.80707L9.2203 7.21764L9.43619 6.55333L8.87109 6.14283H9.56955L9.7854 5.47852Z" fill="#F0F0F0"/>
<path d="M6.21509 8.95703L6.43098 9.62134H7.12944L6.56438 10.0319L6.78019 10.6962L6.21509 10.2856L5.64999 10.6962L5.86588 10.0319L5.30078 9.62134H5.99928L6.21509 8.95703Z" fill="#F0F0F0"/>
<path d="M9.7854 8.95703L10.0013 9.62134H10.6997L10.1347 10.0319L10.3505 10.6962L9.7854 10.2856L9.2203 10.6962L9.43619 10.0319L8.87109 9.62134H9.56955L9.7854 8.95703Z" fill="#F0F0F0"/>
<path d="M8.00419 7.21875L8.22008 7.88307H8.9185L8.35344 8.29361L8.56929 8.95793L8.00419 8.54735L7.43909 8.95793L7.65494 8.29361L7.08984 7.88307H7.78834L8.00419 7.21875Z" fill="#F0F0F0"/>
</svg>
