<svg id="default" viewBox="0 0 24 24" fill="none" xmlns="http://www.w3.org/2000/svg">
<path d="M12 22C17.5228 22 22 17.5228 22 12C22 6.47715 17.5228 2 12 2C6.47715 2 2 6.47715 2 12C2 17.5228 6.47715 22 12 22Z" fill="#F0F0F0"/>
<path d="M18.7503 4.62253C16.9714 2.99394 14.6018 2 11.9999 2C11.574 2 11.1543 2.02684 10.7423 2.07852L5.913 7.65218L2.31641 14.5051C2.54875 15.4059 2.90398 16.2572 3.3623 17.0409L11.9999 12L18.7503 4.62253Z" fill="#FFDA44"/>
<path d="M20.3229 17.541L6.33203 20.241C7.94253 21.3504 9.89401 22.0005 11.9975 22.0005C15.471 22.0005 18.5303 20.2293 20.3229 17.541Z" fill="#6DA544"/>
<path d="M18.7509 4.625L3.36719 17.0517C3.76957 17.738 4.25133 18.372 4.80004 18.9411L21.9991 12.0011C21.9991 9.08085 20.7471 6.4532 18.7509 4.625Z" fill="#D80027"/>
<path d="M2 11.9976C2 12.8628 2.10992 13.7022 2.31644 14.5028L10.7424 2.07617C5.81319 2.69469 2 6.90077 2 11.9976Z" fill="#0052B4"/>
</svg>
