<svg id="default" viewBox="0 0 24 24" fill="none" xmlns="http://www.w3.org/2000/svg">
<path d="M2.99227 7.65082C2.35656 8.96551 2 10.4404 2 11.9986C2 13.5569 2.35656 15.0318 2.99227 16.3464L12 17.216L21.0077 16.3464C21.6434 15.0318 22 13.5569 22 11.9986C22 10.4404 21.6434 8.96551 21.0077 7.65082L12 6.78125L2.99227 7.65082Z" fill="#F0F0F0"/>
<path d="M2.98828 16.3477C4.6057 19.6926 8.03105 21.9998 11.9957 21.9998C15.9603 21.9998 19.3856 19.6926 21.003 16.3477H2.98828Z" fill="black"/>
<path d="M2.98828 7.6522H21.003C19.3856 4.30723 15.9603 2 11.9957 2C8.03105 2 4.6057 4.30723 2.98828 7.6522Z" fill="#D80027"/>
<path d="M4.92893 4.92969C1.02369 8.83492 1.02369 15.1666 4.92893 19.0719C6.54271 17.4581 8.09478 15.906 12 12.0008L4.92893 4.92969Z" fill="#496E2D"/>
</svg>
