<svg id="default" viewBox="0 0 24 24" xmlns="http://www.w3.org/2000/svg">
<path fill="currentColor" fill-rule="evenodd" clip-rule="evenodd" d="M6.17442 6.17442C7.56668 4.78216 9.45499 4 11.4239 4C13.3929 4 15.2812 4.78217 16.6735 6.17441C18.0657 7.56667 18.8479 9.45498 18.8479 11.4239C18.8479 13.1667 18.2351 14.8462 17.129 16.1745L20 19.0455L19.0455 20L16.1745 17.129C14.8462 18.2351 13.1667 18.8479 11.4239 18.8479C9.45498 18.8479 7.56668 18.0657 6.17443 16.6735C4.78218 15.2812 4 13.3929 4 11.4239C4 9.45499 4.78217 7.56668 6.17442 6.17442ZM15.719 15.719C16.8581 14.5798 17.4981 13.0349 17.4981 11.4239C17.4981 9.81298 16.8581 8.268 15.719 7.12888C14.5799 5.98976 13.0349 5.34981 11.4239 5.34981C9.81298 5.34981 8.268 5.98976 7.12888 7.12887M7.12888 7.12887C5.98976 8.268 5.34981 9.81298 5.34981 11.4239C5.34981 13.0349 5.98976 14.5799 7.12888 15.719C8.268 16.8581 9.81298 17.4981 11.4239 17.4981C13.0349 17.4981 14.5799 16.8581 15.719 15.719" />
</svg>
