<svg id="default" xmlns="http://www.w3.org/2000/svg" viewBox="0 0 24 24">
  <path fill-rule="evenodd" clip-rule="evenodd" d="M11.4677 2.75226C10.5897 2.81935 10.0305 2.92319 9.14275 3.18404L9.00717 3.22389V4.06773V4.91158L8.89168 4.9626C8.45354 5.15617 7.94776 5.44373 7.5811 5.70776C7.4651 5.79129 7.36116 5.8595 7.35011 5.85934C7.33906 5.85918 7.00653 5.67193 6.61112 5.44321L5.89224 5.0274L5.68718 5.22106C4.53682 6.30757 3.69959 7.61748 3.20329 9.10727C3.15728 9.24536 3.07123 9.5457 3.01206 9.77467L2.90448 10.191L3.01831 10.2592C3.08091 10.2967 3.41076 10.4879 3.75129 10.6841L4.37045 11.0407L4.35824 11.1335C4.29461 11.6166 4.29461 12.3826 4.35824 12.8657L4.37045 12.9585L3.75129 13.3151C3.41076 13.5113 3.08091 13.7025 3.01831 13.74L2.90448 13.8082L3.01206 14.2245C3.07123 14.4535 3.15728 14.7538 3.20329 14.8919C3.70013 16.3834 4.53041 17.6822 5.68718 18.7776L5.89224 18.9718L6.61112 18.556C7.00653 18.3273 7.33906 18.14 7.35011 18.1399C7.36116 18.1398 7.4651 18.2077 7.5811 18.291C7.95167 18.557 8.45719 18.8444 8.8956 19.0383L9.00717 19.0876V19.9315V20.7753L9.14275 20.8154C10.2314 21.1377 10.9579 21.2476 11.9999 21.2476C13.0419 21.2476 13.7685 21.1377 14.8571 20.8154L14.9927 20.7753V19.9315V19.0876L15.1043 19.0383C15.5427 18.8444 16.0482 18.557 16.4188 18.291C16.5348 18.2077 16.6387 18.1398 16.6498 18.1399C16.6608 18.14 16.9933 18.3273 17.3887 18.556L18.1076 18.9718L18.3127 18.7775C19.1662 17.9688 19.8191 17.0828 20.325 16.0469C20.6127 15.4579 20.8071 14.9234 20.9877 14.2245L21.0954 13.8082L20.9816 13.74C20.919 13.7025 20.5891 13.5113 20.2486 13.3151L19.6294 12.9585L19.6416 12.8657C19.7053 12.3826 19.7053 11.6167 19.6416 11.1336L19.6294 11.0409L20.1783 10.7241C20.4802 10.5498 20.81 10.3587 20.9113 10.2994L21.0955 10.1915L20.9878 9.7749C20.5218 7.97259 19.6501 6.48887 18.3127 5.22167L18.1076 5.0274L17.3887 5.44321C16.9933 5.67193 16.6608 5.85916 16.6498 5.8593C16.6387 5.85944 16.5348 5.79145 16.4188 5.70818C16.0482 5.44219 15.5427 5.15482 15.1043 4.96093L14.9927 4.91158V4.06773V3.22389L14.8571 3.18376C14.1462 2.97334 13.5185 2.84489 12.8837 2.77998C12.6699 2.7581 11.6519 2.7382 11.4677 2.75226ZM11.4275 4.01765C10.9836 4.06152 10.6404 4.11031 10.378 4.16689L10.2726 4.18963V4.98865V5.78766L10.0566 5.86306C9.12062 6.18987 8.51919 6.52912 7.78695 7.14338L7.48063 7.40035L6.81439 7.01575C6.44795 6.80423 6.13252 6.6271 6.11344 6.6221C6.05772 6.60753 5.56886 7.2145 5.30246 7.62903C4.93168 8.20597 4.6305 8.82268 4.42683 9.42193L4.37107 9.58597L5.03709 9.96971C5.40339 10.1808 5.71454 10.3607 5.72854 10.3695C5.74862 10.3821 5.7394 10.4723 5.68491 10.7959C5.53218 11.703 5.53204 12.3045 5.68433 13.2028C5.72255 13.4282 5.75144 13.6148 5.74854 13.6174C5.74563 13.62 5.43457 13.8003 5.05728 14.018L4.37129 14.4139L4.42709 14.5776C4.74462 15.5093 5.22911 16.3639 5.89001 17.1583C6.02546 17.3211 6.0893 17.3834 6.11402 17.3769C6.13304 17.372 6.44813 17.1948 6.81421 16.9832L7.47978 16.5986L7.79969 16.8665C8.52038 17.4702 9.11829 17.8064 10.0566 18.1356L10.2726 18.2114V19.0105V19.8096L10.378 19.8322C10.8485 19.9331 11.2378 19.9746 11.8292 19.9869C12.5103 20.001 13.0576 19.9539 13.6218 19.8323L13.7273 19.8096V19.0105V18.2114L13.9432 18.1356C14.8785 17.8075 15.4818 17.4683 16.2 16.8667L16.5197 16.5989L17.2128 16.9993L17.9059 17.3996L18.021 17.2654C18.2041 17.0521 18.3698 16.8435 18.5024 16.6595C18.9211 16.0784 19.3393 15.265 19.573 14.5773L19.6288 14.4132L18.9628 14.0295C18.5965 13.8184 18.2853 13.6385 18.2713 13.6297C18.2512 13.6171 18.2605 13.5269 18.315 13.2033C18.4679 12.2951 18.4679 11.7041 18.315 10.7959C18.2605 10.4723 18.2512 10.3821 18.2713 10.3695C18.2853 10.3607 18.5965 10.1808 18.9628 9.96971L19.6288 9.58597L19.573 9.42193C19.3393 8.73422 18.9211 7.92075 18.5024 7.33974C18.3698 7.15565 18.2041 6.94712 18.021 6.73375L17.9059 6.59962L17.2128 6.99995L16.5197 7.40025L16.2 7.13247C15.4795 6.52898 14.8815 6.19273 13.9432 5.86358L13.7273 5.78784V4.98873V4.18963L13.6218 4.16701C13.1152 4.05835 12.767 4.02364 12.1104 4.01639C11.779 4.01271 11.4717 4.0133 11.4275 4.01765ZM11.779 9.0293C10.546 9.11414 9.48377 9.97388 9.13803 11.1669C8.9857 11.6926 8.9857 12.3066 9.13803 12.8323C9.44472 13.8906 10.325 14.7012 11.4074 14.9222C11.6253 14.9667 11.955 14.9858 12.2159 14.969C13.5366 14.8839 14.6552 13.9015 14.9226 12.5921C14.9671 12.3743 14.9861 12.0446 14.9693 11.7837C14.893 10.5997 14.0948 9.56371 12.964 9.18112C12.7091 9.09488 12.4897 9.04858 12.2726 9.03526C12.1834 9.0298 12.0833 9.02295 12.0501 9.02006C12.017 9.01716 11.895 9.02132 11.779 9.0293ZM11.7489 10.2931C11.0695 10.3989 10.5066 10.9045 10.33 11.5678C10.2964 11.694 10.2872 11.7866 10.2872 11.9996C10.2872 12.2126 10.2964 12.3052 10.33 12.4314C10.4884 13.0263 10.9733 13.5112 11.5681 13.6696C11.6943 13.7032 11.7869 13.7123 11.9999 13.7123C12.2129 13.7123 12.3056 13.7032 12.4318 13.6696C13.0266 13.5112 13.5115 13.0263 13.6699 12.4314C13.7305 12.2039 13.7305 11.7953 13.6699 11.5678C13.5113 10.972 13.0182 10.4798 12.4318 10.3319C12.2445 10.2846 11.9212 10.2663 11.7489 10.2931Z" fill="currentColor"/>
</svg>