<svg id="default" viewBox="0 0 24 24" fill="none" xmlns="http://www.w3.org/2000/svg">
<path d="M12 22C17.5228 22 22 17.5228 22 12C22 6.47715 17.5228 2 12 2C6.47715 2 2 6.47715 2 12C2 17.5228 6.47715 22 12 22Z" fill="#F0F0F0"/>
<path d="M2 12C2 6.47717 6.47719 2 12 2C17.5228 2 22 6.47717 22 12" fill="#D80027"/>
<path d="M8.08562 7.21531C8.08562 5.75836 9.10956 4.54125 10.4769 4.24262C10.2667 4.19676 10.0487 4.17188 9.82471 4.17188C8.14382 4.17188 6.78125 5.53445 6.78125 7.21535C6.78125 8.89625 8.14382 10.2588 9.82471 10.2588C10.0487 10.2588 10.2667 10.2339 10.4769 10.188C9.10956 9.88941 8.08562 8.6723 8.08562 7.21531Z" fill="#F0F0F0"/>
<path d="M11.9963 4.38867L12.2122 5.05293H12.9107L12.3455 5.46352L12.5614 6.12778L11.9963 5.71727L11.4312 6.12778L11.6471 5.46352L11.082 5.05293H11.7805L11.9963 4.38867Z" fill="#F0F0F0"/>
<path d="M10.305 5.69531L10.5208 6.35961H11.2193L10.6542 6.77016L10.8701 7.43441L10.305 7.02391L9.73985 7.43441L9.95575 6.77016L9.39062 6.35961H10.0891L10.305 5.69531Z" fill="#F0F0F0"/>
<path d="M13.6956 5.69531L13.9115 6.35961H14.6099L14.0448 6.77016L14.2607 7.43441L13.6956 7.02391L13.1305 7.43441L13.3463 6.77016L12.7812 6.35961H13.4797L13.6956 5.69531Z" fill="#F0F0F0"/>
<path d="M13.0393 7.64844L13.2552 8.31273H13.9536L13.3885 8.72328L13.6044 9.38754L13.0393 8.97703L12.4742 9.38754L12.6901 8.72328L12.125 8.31273H12.8234L13.0393 7.64844Z" fill="#F0F0F0"/>
<path d="M10.9612 7.64844L11.177 8.31273H11.8755L11.3104 8.72328L11.5263 9.38754L10.9612 8.97703L10.3961 9.38754L10.612 8.72328L10.0469 8.31273H10.7454L10.9612 7.64844Z" fill="#F0F0F0"/>
</svg>
