<svg id="default" xmlns="http://www.w3.org/2000/svg" viewBox="0 0 24 24">
<path fill="currentColor" fill-rule="evenodd" clip-rule="evenodd" d="M5.21803 4.55582L4.31508 6.36163V8.70929V11.0569H12H19.6849V8.70929V6.36163L18.782 4.55582L17.879 2.75H12H6.12098L5.21803 4.55582ZM6.24135 5.33834L5.57918 6.66257V8.23774V9.81291H12H18.4208V8.23774V6.66257L17.7587 5.33834L17.0965 4.0141H12H6.90353L6.24135 5.33834ZM5.09762 17.0163V21.25H12H18.9024V17.0163V12.7825H18.2703H17.6383V16.3842V19.9859H15.5214H13.4046V16.3842V12.7825H12.7825H12.1605V14.8191V16.8557H9.26112H6.36172V14.8191V12.7825H5.72967H5.09762V17.0163ZM6.36172 19.0529V19.9859H9.26112H12.1605V19.0529V18.1198H9.26112H6.36172V19.0529Z"/>
</svg>