<svg id="default" width="24" height="24" viewBox="0 0 24 24" fill="none" xmlns="http://www.w3.org/2000/svg">
    <path d="M6 8.50001H9.114C9.19075 8.49941 9.26647 8.51847 9.33448 8.55553C9.40249 8.59259 9.46071 8.6465 9.504 8.71252L14.016 15.2876C14.0593 15.3536 14.1175 15.4076 14.1855 15.4446C14.2535 15.4817 14.3292 15.5007 14.406 15.5001H18" stroke="currentColor" stroke-width="1.6" stroke-linecap="round" stroke-linejoin="round"/>
    <path d="M16.5601 7L18.0001 8.50002L16.5601 10" stroke="currentColor" stroke-width="1.6" stroke-linecap="round" stroke-linejoin="round"/>
    <path d="M16.5601 14L18.0001 15.5L16.5601 17" stroke="currentColor" stroke-width="1.6" stroke-linecap="round" stroke-linejoin="round"/>
    <path d="M18 8.50001H14.406C14.3293 8.49941 14.2535 8.51847 14.1855 8.55553C14.1175 8.59259 14.0593 8.6465 14.016 8.71252L13.479 9.4969" stroke="currentColor" stroke-width="1.6" stroke-linecap="round" stroke-linejoin="round"/>
    <path d="M6 15.4998H9.114C9.19075 15.5004 9.26647 15.4814 9.33448 15.4443C9.40249 15.4072 9.46071 15.3533 9.504 15.2873L10.041 14.5029" stroke="currentColor" stroke-width="1.6" stroke-linecap="round" stroke-linejoin="round"/>
</svg>
