<svg id="default" viewBox="0 0 24 24" fill="none" xmlns="http://www.w3.org/2000/svg">
<path d="M12 22C17.5228 22 22 17.5228 22 12C22 6.47715 17.5228 2 12 2C6.47715 2 2 6.47715 2 12C2 17.5228 6.47715 22 12 22Z" fill="#F0F0F0"/>
<path d="M12 22.0016C17.5228 22.0016 22 17.5245 22 12.0017C22 10.7785 21.78 9.60672 21.378 8.52344H2.62199C2.22004 9.60672 2 10.7785 2 12.0017C2 17.5245 6.47719 22.0016 12 22.0016Z" fill="#0052B4"/>
<path d="M11.9991 22.0003C16.2987 22.0003 19.9641 19.2865 21.3771 15.4785H2.62109C4.03402 19.2865 7.69944 22.0003 11.9991 22.0003Z" fill="#D80027"/>
<path d="M4.58594 7.6543V12.6428C4.58594 15.4805 8.29301 16.35 8.29301 16.35C8.29301 16.35 12 15.4805 12 12.6428V7.6543H4.58594Z" fill="#F0F0F0"/>
<path d="M5.45312 7.6543V12.6428C5.45312 12.976 5.52711 13.2906 5.67367 13.5855H10.9075C11.0541 13.2906 11.1281 12.976 11.1281 12.6428V7.6543H5.45312Z" fill="#D80027"/>
<path d="M10.029 11.1321H8.72473V10.2625H9.5943V9.39297H8.72473V8.52344H7.85516V9.39297H6.98563V10.2625H7.85516V11.1321H6.55078V12.0017H7.85516V12.8712H8.72473V12.0017H10.029V11.1321Z" fill="#F0F0F0"/>
<path d="M6.85793 14.8C7.41828 15.1521 7.99398 15.3566 8.2887 15.4475C8.58343 15.3566 9.15913 15.1521 9.71948 14.8C10.2846 14.4448 10.6807 14.0386 10.9056 13.5861C10.6575 13.4106 10.3548 13.3071 10.0278 13.3071C9.90878 13.3071 9.79311 13.3212 9.6819 13.3471C9.44624 12.8116 8.91128 12.4375 8.28874 12.4375C7.66621 12.4375 7.13121 12.8116 6.89558 13.3471C6.78437 13.3212 6.66867 13.3071 6.54965 13.3071C6.22265 13.3071 5.91996 13.4106 5.67188 13.5861C5.89668 14.0386 6.29281 14.4448 6.85793 14.8Z" fill="#0052B4"/>
</svg>
