<svg id="default" xmlns="http://www.w3.org/2000/svg" viewBox="0 0 24 24">
<path fill-rule="evenodd" clip-rule="evenodd" d="M5.64684 2.75616C4.62131 2.82789 3.69276 3.52095 3.32964 4.48569C3.08856 5.12621 3.0982 5.84301 3.35646 6.47692C3.69825 7.31588 4.49588 7.95569 5.39252 8.11011C5.6439 8.15341 6.06766 8.15375 6.31499 8.11083C7.29292 7.94115 8.10084 7.24971 8.41637 6.31237L8.48518 6.10793H21.0161V4.78697H8.48518L8.41637 4.58254C8.21625 3.98805 7.79363 3.45945 7.26134 3.13787C6.77382 2.84334 6.2319 2.71523 5.64684 2.75616ZM5.67829 4.0681C5.10983 4.14671 4.61751 4.59323 4.50418 5.13294C4.37031 5.77063 4.6623 6.39542 5.22931 6.68459C5.90239 7.02783 6.73264 6.76103 7.09249 6.08586C7.23864 5.81166 7.28122 5.41464 7.19896 5.09302C7.02992 4.4321 6.35168 3.97496 5.67829 4.0681ZM11.6016 9.32605C10.5967 9.47508 9.7488 10.1933 9.42889 11.1663L9.36859 11.3498L2.98395 11.3498V12.6498L9.36859 12.6499L9.42889 12.8333C9.70149 13.6625 10.3561 14.3104 11.1908 14.5773C12.5883 15.0241 14.1156 14.2359 14.5702 12.8333L14.6296 12.6498H21.0161V11.3498H14.6296L14.5702 11.1664C14.4414 10.7692 14.2111 10.3952 13.9081 10.0911C13.3057 9.48672 12.4445 9.20104 11.6016 9.32605ZM11.6785 10.647C11.3139 10.7267 10.9361 11.027 10.7644 11.3734C10.6578 11.5885 10.6179 11.7586 10.6169 12.0017C10.6153 12.3797 10.7496 12.7004 11.0245 12.9754C11.2186 13.1694 11.4062 13.2784 11.6563 13.3424C11.9832 13.4259 12.3502 13.3819 12.6563 13.2223C12.8611 13.1156 13.1158 12.8609 13.2225 12.6561C13.4374 12.2439 13.4374 11.7557 13.2225 11.3435C13.1158 11.1388 12.8611 10.8841 12.6563 10.7774C12.3677 10.6269 11.9967 10.5775 11.6785 10.647ZM17.9339 15.8611C16.995 15.9258 16.1505 16.4947 15.7218 17.3511C15.6699 17.4547 15.6028 17.6187 15.5726 17.7156L15.5176 17.8917H2.98395V19.2127H15.5176L15.5726 19.3889C15.7543 19.9717 16.2025 20.5379 16.7387 20.8618C17.1726 21.124 17.6256 21.2487 18.1435 21.2487C18.8925 21.2487 19.5658 20.9622 20.0881 20.4214C20.5053 19.9893 20.7474 19.4829 20.8256 18.8791C20.8799 18.459 20.8247 18.0004 20.6704 17.5905C20.3418 16.7174 19.5141 16.0366 18.6048 15.8914C18.354 15.8513 18.1861 15.8437 17.9339 15.8611ZM17.8713 17.1887C17.6238 17.2356 17.3617 17.3769 17.1753 17.5637C16.8989 17.8409 16.7832 18.0997 16.7651 18.4819C16.7469 18.8635 16.8449 19.1625 17.0784 19.4381C17.652 20.115 18.6372 20.1092 19.2193 19.4254C19.6309 18.9419 19.6309 18.1626 19.2193 17.679C18.873 17.2723 18.3786 17.0924 17.8713 17.1887Z" fill="currentColor"/>
</svg>