<svg id="default" viewBox="0 0 24 24" fill="none" xmlns="http://www.w3.org/2000/svg">
<path d="M22 11.9996C22 17.5225 17.5228 21.9996 12 21.9996C6.47719 21.9996 2 17.5225 2 11.9996C2.43477 11.9996 12 10.6953 12 10.6953L22 11.9996Z" fill="#338AF3"/>
<path d="M2 12C2 6.47719 6.47719 2 12 2C17.5228 2 22 6.47719 22 12" fill="#F0F0F0"/>
<path d="M15.9668 8.90039L11.9974 12.8698L8.02805 8.90039C7.51473 9.66238 7.21484 10.5795 7.21484 11.5654V12.8698C7.21484 14.9641 8.56817 16.7482 10.4462 17.394C10.1955 17.8852 10.2378 18.4983 10.6051 18.9567C11.0929 18.5657 11.5979 18.161 12.0264 17.8177C12.4548 18.1611 12.9599 18.5658 13.4477 18.9567C13.8193 18.493 13.8585 17.8707 13.5979 17.3766C15.4503 16.7168 16.78 14.9458 16.78 12.8698V11.5655C16.7801 10.5795 16.4801 9.66242 15.9668 8.90039Z" fill="#6DA544"/>
<path d="M11.9978 16.3468C10.0798 16.3468 8.51953 14.7864 8.51953 12.8685V11.5642C8.51953 9.64625 10.0799 8.08594 11.9978 8.08594C13.9157 8.08594 15.476 9.64629 15.476 11.5642V12.8685C15.476 14.7864 13.9157 16.3468 11.9978 16.3468Z" fill="#FFDA44"/>
<path d="M14.172 12.8708V11.5665C14.172 10.3678 13.1968 9.39258 11.9981 9.39258C10.7994 9.39258 9.82422 10.3678 9.82422 11.5665V12.8708L11.9981 13.3056L14.172 12.8708Z" fill="#338AF3"/>
<path d="M9.82422 12.8672C9.82422 14.0659 10.7994 15.0411 11.9981 15.0411C13.1968 15.0411 14.172 14.0659 14.172 12.8672H9.82422Z" fill="#6DA544"/>
<path d="M14.608 8.08839C14.608 7.36804 14.024 6.78406 13.3037 6.78406C12.9695 6.78406 12.6649 6.90984 12.4341 7.11644V6.34926H12.8689V5.47969H12.4341V5.04492H11.5645V5.47969H11.1298V6.34926H11.5645V7.11644C11.3337 6.90984 11.0291 6.78406 10.695 6.78406C9.97461 6.78406 9.39062 7.36804 9.39062 8.08839C9.39062 8.4746 9.55863 8.82148 9.82539 9.06034V9.82753H14.1732V9.06034C14.44 8.82148 14.608 8.4746 14.608 8.08839Z" fill="#FFDA44"/>
</svg>
