<svg id="default" viewBox="0 0 24 24" fill="none" xmlns="http://www.w3.org/2000/svg">
<path d="M16.347 2.99232C15.0322 2.35658 13.5572 2 11.9989 2C10.4406 2 8.96563 2.35658 7.65087 2.99232L6.78125 12.0005L7.65087 21.0087C8.96563 21.6445 10.4406 22.0011 11.9989 22.0011C13.5572 22.0011 15.0322 21.6445 16.347 21.0087L17.2166 12.0005L16.347 2.99232Z" fill="#FFDA44"/>
<path d="M12.0011 8.52344L12.8644 11.1806H15.6587L13.3982 12.823L14.2616 15.4803L12.0011 13.838L9.74066 15.4803L10.6042 12.823L8.34375 11.1806H11.1378L12.0011 8.52344Z" fill="#496E2D"/>
<path d="M7.65248 2.99414C4.30739 4.61169 2 8.03722 2 12.002C2 15.9668 4.30739 19.3923 7.65248 21.0099V2.99414Z" fill="#496E2D"/>
<path d="M16.3477 2.99414V21.0099C19.6927 19.3923 22.0001 15.9668 22.0001 12.002C22.0001 8.03722 19.6927 4.61169 16.3477 2.99414Z" fill="#D80027"/>
</svg>
