<svg id="default" viewBox="0 0 24 24" fill="none" xmlns="http://www.w3.org/2000/svg">
<path d="M12 22C17.5228 22 22 17.5228 22 12C22 6.47715 17.5228 2 12 2C6.47715 2 2 6.47715 2 12C2 17.5228 6.47715 22 12 22Z" fill="#F0F0F0"/>
<path d="M21.378 8.52344H2.62195C2.22004 9.6068 2 10.7785 2 12.0017C2 13.2249 2.22004 14.3966 2.62195 15.4799H21.378C21.78 14.3966 22 13.2249 22 12.0017C22 10.7785 21.78 9.6068 21.378 8.52344Z" fill="#A2001D"/>
<path d="M12.0311 22.0001C15.4561 22.0001 18.4786 20.2778 20.2809 17.6523H3.78125C5.58352 20.2778 8.60594 22.0001 12.0311 22.0001Z" fill="#6DA544"/>
<path d="M12.0311 2C15.4561 2 18.4786 3.72234 20.2809 6.34781H3.78125C5.58352 3.72234 8.60594 2 12.0311 2Z" fill="#6DA544"/>
<path d="M12.001 8.52344L12.8643 11.1805H15.6583L13.398 12.8228L14.2614 15.4799L12.001 13.8378L9.74066 15.4799L10.6041 12.8228L8.34375 11.1805H11.1377L12.001 8.52344Z" fill="#FFDA44"/>
</svg>
