<svg id="default" viewBox="0 0 24 24" xmlns="http://www.w3.org/2000/svg">
<path fill="currentColor" fill-rule="evenodd" clip-rule="evenodd" d="M8.83239 8.31304L10.4112 5.60656C11.2795 4.11799 11.9945 2.90009 12 2.90009C12.0056 2.90009 12.7206 4.11799 13.5889 5.60656L15.1677 8.31304L17.9297 9.16286C19.4489 9.63025 20.7679 10.0364 20.8609 10.0654L21.03 10.1181L19.0154 12.1328L17.0007 14.1475L17.6754 17.5206C18.0464 19.3758 18.3471 20.8966 18.3436 20.9001C18.3401 20.9036 16.9113 20.2632 15.1686 19.4769L11.9999 18.0474L8.83132 19.4769C7.08861 20.2631 5.65991 20.9035 5.65641 20.9C5.65292 20.8965 5.95364 19.3758 6.32472 17.5206L6.99938 14.1475L4.98473 12.1328L2.97009 10.1181L3.13918 10.0654C3.23219 10.0364 4.55121 9.63025 6.07034 9.16286L8.83239 8.31304ZM12 16.6622L14.3061 17.7019C15.5744 18.2737 16.6176 18.7446 16.6241 18.7482C16.6307 18.7518 16.4106 17.6277 16.1351 16.2502L15.6341 13.7456L17.1472 12.2324C17.9794 11.4002 18.6562 10.7153 18.6511 10.7105C18.6461 10.7057 17.6714 10.4032 16.4851 10.0383C15.2988 9.67339 14.3257 9.37177 14.3226 9.36799C14.3195 9.36421 13.7991 8.47261 13.1661 7.38663C12.5331 6.30068 12.0084 5.41215 12 5.41215V16.6622Z"/>
</svg>