<svg id="default" xmlns="http://www.w3.org/2000/svg" viewBox="0 0 24 24" fill="currentColor">
<path fill-rule="evenodd" clip-rule="evenodd" d="M14.0771 18.4832H15.1962V9.98315H19.3495V18.4832H19.8915V19.9998H4.10834V18.4832H4.65033L4.65912 13.2185L8.80365 13.2097V18.4832H9.92279V5.99976H14.0771V18.4832ZM6.16693 18.4832H7.28705V14.7273H6.16693V18.4832ZM11.4404 18.4832H12.5595V7.51733H11.4404V18.4832ZM16.7128 18.4832H17.8329V11.4998H16.7128V18.4832Z" />
<path d="M19.8691 7.8689H18.7988V6.43921L16.996 8.24194L16.2411 7.48608L18.0429 5.68433L16.6142 5.68335V5.15796C16.6142 4.87373 16.6157 4.63813 16.6181 4.62769C16.6206 4.62521 17.3535 4.62283 18.246 4.6228H19.8681L19.8691 7.8689Z" />
</svg>