<svg id="default" viewBox="0 0 24 24" fill="none" xmlns="http://www.w3.org/2000/svg">
<path d="M2 12C2 17.5227 6.47734 22 12 22C17.5227 22 22 17.5227 22 12C22 6.47734 17.5227 2 12 2C6.33281 2 2 6.2 2 12Z" fill="#2A5F9D"/>
<path d="M11.8852 2C11.8215 2 11.7574 2 11.6942 2.00312V10.6477H7.87423V2.82031C6.37015 3.4547 5.05475 4.46567 4.05469 5.75586V10.6477H2.0832C2.07422 10.7227 2.06602 10.7984 2.05859 10.8742H11.8852V2Z" fill="#F2F2F2"/>
<path d="M4.05352 10.6476V5.75586C3.00508 7.1125 2.30898 8.77655 2.08203 10.6476H4.05352Z" fill="#002395"/>
<path d="M7.87109 10.6473H11.691V2.00391C10.3778 2.03372 9.08189 2.31055 7.87109 2.81992V10.6473Z" fill="#ED2939"/>
<path d="M18.4871 15.9899H19.109L17.8332 13.9559L16.8824 15.4383V14.0766H17.4527L17.875 13.4039H16.8824V12.9742H18.1453L18.5891 12.2676H14.3844L14.8281 12.9742H16.091V15.4383L15.1426 13.9559L13.8672 15.9899H14.4875L14.6129 15.766H15.6715L16.4879 17.2313L17.3043 15.766H18.3625L18.4871 15.9899ZM14.8828 15.282L15.1426 14.8164L15.402 15.282H14.8828ZM17.5727 15.282L17.832 14.8164L18.0934 15.282H17.5727Z" fill="#F2F2F2"/>
<path d="M16.7569 18.5232L17.1829 18.2136H16.6564L16.4938 17.7129L16.3312 18.2136H15.8047L16.2304 18.5232L16.0677 19.0239L16.4938 18.7143L16.9195 19.0239L16.7569 18.5232Z" fill="#F2F2F2"/>
<path d="M15.2022 17.3509L15.6282 17.0413H15.1017L14.9391 16.541L14.7765 17.0413H14.25L14.6761 17.3509L14.5131 17.8516L14.9391 17.5421L15.3648 17.8516L15.2022 17.3509Z" fill="#F2F2F2"/>
<path d="M18.3037 17.3509L18.7298 17.0413H18.2033L18.0407 16.541L17.8777 17.0413H17.3516L17.7772 17.3509L17.6146 17.8516L18.0407 17.5421L18.4663 17.8516L18.3037 17.3509Z" fill="#F2F2F2"/>
<path d="M13.8897 13.8685L14.3158 13.5593H13.7892L13.6266 13.0586L13.464 13.5593H12.9375L13.3632 13.8685L13.2006 14.3692L13.6266 14.0596L14.0523 14.3692L13.8897 13.8685Z" fill="#F2F2F2"/>
<path d="M19.6123 13.8685L20.0384 13.5593H19.5119L19.3493 13.0586L19.1867 13.5593H18.6602L19.0858 13.8685L18.9232 14.3692L19.3493 14.0596L19.7749 14.3692L19.6123 13.8685Z" fill="#F2F2F2"/>
</svg>
