<svg id="default" viewBox="0 0 24 24" fill="none" xmlns="http://www.w3.org/2000/svg">
<path d="M11.9981 21.9962C17.5199 21.9962 21.9962 17.5199 21.9962 11.9981C21.9962 6.4763 17.5199 2 11.9981 2C6.4763 2 2 6.4763 2 11.9981C2 17.5199 6.4763 21.9962 11.9981 21.9962Z" fill="#FFDA44"/>
<path d="M11.9972 2C11.9899 2.00008 11.5625 5.99924 11.5625 5.99924H19.9961C18.172 3.57091 15.2681 2 11.9972 2Z" fill="#496E2D"/>
<path d="M11.9989 21.9953C15.2698 21.9953 18.1738 20.4244 19.9978 17.9961H4C5.82403 20.4244 8.72797 21.9953 11.9989 21.9953Z" fill="#496E2D"/>
<path d="M21.7951 10H11.5625L11.9972 13.9992H21.7951C21.9263 13.3531 21.9952 12.6844 21.9952 11.9996C21.9952 11.3148 21.9262 10.6461 21.7951 10Z" fill="#496E2D"/>
<path d="M11.9981 13.9977C11.9981 11.9112 11.9981 4.34737 11.9981 2C6.47633 2 2 6.47635 2 11.9981C2 12.683 2.06905 13.3517 2.2002 13.9977H11.9981Z" fill="#D80027"/>
<path d="M7.51581 6.78125L8.16318 8.77365H10.2583L8.56342 10.0052L9.21072 11.9977L7.51581 10.7662L5.82089 11.9977L6.46831 10.0052L4.77344 8.77365H6.86847L7.51581 6.78125Z" fill="#F0F0F0"/>
</svg>
