<svg id="default" xmlns="http://www.w3.org/2000/svg" viewBox="0 0 75 24" fill="none">
  <path fill-rule="evenodd" clip-rule="evenodd" d="M47.7082 19.1748C44.0503 19.1748 43.7747 16.4218 44.2507 14.4241L44.9272 11.5005C45.754 8.11405 47.4076 6.53046 50.84 6.53046H57.8552C58.1058 6.53046 58.2811 6.72536 58.206 6.96899L57.5044 9.77073C57.4543 10.0144 57.2038 10.2093 56.9282 10.2093H51.0405C49.7877 10.2093 48.7605 10.3311 48.4348 11.4761L47.8586 14.083C47.6832 14.8382 47.7082 15.496 48.6352 15.496H55.8258C56.0764 15.496 56.2517 15.6909 56.1766 15.9346L55.5753 18.7119C55.5252 18.9556 55.2746 19.1505 54.999 19.1505L47.7082 19.1748ZM26.3122 19.175H31.1978C34.6302 19.175 35.933 17.8107 36.7598 14.4242L37.4363 11.5007C37.9123 9.50291 37.7119 6.53063 34.0539 6.53063H29.1684C25.7359 6.53063 24.0823 8.13859 23.2556 11.5007L20.7251 22.5615C20.675 22.8051 20.8253 23 21.0758 23H24.1074C24.3579 23 24.6085 22.8051 24.6586 22.5615L25.4353 19.1263C25.7109 19.1507 25.9865 19.175 26.3122 19.175ZM26.8632 11.4764C27.2139 10.3313 28.2161 10.1852 29.4688 10.1852H32.9764C33.8032 10.1852 34.1039 10.6724 33.9285 11.4277L33.3522 13.8396C33.0265 15.1552 32.5004 15.5207 31.1976 15.5207H27.0636C26.1366 15.5207 26.0865 14.8629 26.2869 14.1076L26.8632 11.4764ZM62.2136 11.4765C62.5644 10.3314 63.6167 10.1852 64.8694 10.1852H68.3519C69.1787 10.1852 69.4793 10.6725 69.304 11.4277L68.7277 13.8397C68.402 15.1553 67.8759 15.5207 66.5731 15.5207H62.4141C61.487 15.5207 61.4369 14.8629 61.6374 14.1077L62.2136 11.4765ZM66.574 19.1748C70.0065 19.1748 71.3093 17.8105 72.1361 14.424L72.8126 11.5005C73.2886 9.50272 73.0882 6.53044 69.4302 6.53044H64.5447C61.1122 6.53044 59.4586 8.1384 58.6319 11.5005L57.9554 14.424C57.4794 16.4218 57.755 19.1748 61.4129 19.1748H66.574ZM15.5898 18.7361C15.5397 18.9797 15.69 19.1746 15.9405 19.1746H18.9721C19.2226 19.1746 19.4732 18.9797 19.5233 18.7361L22.2041 6.92006C22.2542 6.67643 22.1039 6.48153 21.8533 6.48153H18.8218C18.5712 6.48153 18.3207 6.67643 18.2706 6.92006L15.5898 18.7361ZM37.461 18.7361C37.4109 18.9797 37.5612 19.1746 37.8118 19.1746H40.8433C41.0939 19.1746 41.3444 18.9797 41.3945 18.7361L44.0753 6.92006C44.1254 6.67643 43.9751 6.48153 43.7246 6.48153H40.693C40.4425 6.48153 40.1919 6.67643 40.1418 6.92006L37.461 18.7361ZM2.0096 9.74616C1.95949 9.98979 2.10982 10.1847 2.36036 10.1847H5.44204L4.48997 14.4239C4.01394 16.4216 4.56514 19.1746 8.19801 19.1746L12.7829 19.199C13.0084 19.199 13.259 19.0041 13.3091 18.7848L13.8603 16.4216C13.9104 16.2023 13.7601 15.9831 13.5095 15.9831H9.30039C8.29822 15.9831 8.24811 15.2522 8.44855 14.4239L9.42566 10.1847H14.8374C15.0879 10.1847 15.3385 9.98979 15.3886 9.74616L16.04 6.92006C16.0901 6.67643 15.9398 6.48153 15.6892 6.48153H3.21221C2.96166 6.48153 2.71112 6.67643 2.66101 6.92006L2.0096 9.74616ZM11.1043 3.19267C11.1043 1.97452 10.1022 1 8.84946 1C7.59675 1 6.59458 1.97452 6.59458 3.19267C6.59458 4.41082 7.59675 5.38533 8.84946 5.38533C10.0771 5.38533 11.1043 4.41082 11.1043 3.19267Z" fill="currentColor"/>
</svg>