<svg id="default" viewBox="0 0 72 94" fill="none" xmlns="http://www.w3.org/2000/svg">
<g style="mix-blend-mode:color-dodge">
<path d="M0.519938 45.0339C0.353518 45.5745 0.465897 46.1612 0.820888 46.6049C1.17588 47.0486 1.72865 47.2934 2.30119 47.2604H17.9007L13.0495 69C10.5463 79.2683 13.3733 93.3648 31.8808 93.3648L55.0844 93.4445C56.3766 93.4152 57.4858 92.5302 57.7833 91.2912L60.5361 79.1885C60.6767 78.6632 60.5653 78.1035 60.2338 77.6694C59.9023 77.2352 59.3872 76.9746 58.8358 76.9621H37.5282C32.4341 76.9621 32.1912 73.2203 33.1628 68.9867L38.095 47.2471H65.4953C66.8166 47.1986 67.9428 46.2878 68.2482 45.0206L71.4801 30.5253C71.6465 29.9847 71.5341 29.3981 71.1791 28.9543C70.8241 28.5106 70.2713 28.2659 69.6988 28.2989H6.58565C5.26435 28.3473 4.13818 29.2581 3.8328 30.5253L0.519938 45.0339Z" fill="#8B8B8B"/>
<path d="M46.5164 11.3501C46.5192 6.80594 43.742 2.70788 39.4805 0.96767C35.2189 -0.772537 30.3128 0.188005 27.0508 3.40119C23.7887 6.61438 22.8136 11.4471 24.5802 15.6448C26.3469 19.8425 30.5072 22.5781 35.1204 22.5754C38.144 22.579 41.0447 21.3974 43.1826 19.2915C45.3205 17.1856 46.52 14.3283 46.5164 11.3501Z" fill="#8B8B8B"/>
</g>
</svg>
