<svg id="default" viewBox="0 0 24 24" fill="none" xmlns="http://www.w3.org/2000/svg">
<path d="M12 22C17.5228 22 22 17.5228 22 12C22 6.47715 17.5228 2 12 2C6.47715 2 2 6.47715 2 12C2 17.5228 6.47715 22 12 22Z" fill="#FFDA44"/>
<path d="M12.0033 2C9.55499 2 7.31257 2.88035 5.57422 4.34117L16.3511 12L5.57422 19.6588C7.31257 21.1196 9.55499 22 12.0033 22C17.5261 22 22.0033 17.5228 22.0033 12C22.0033 6.47719 17.5261 2 12.0033 2Z" fill="#D80027"/>
<path d="M4.92893 4.92969C1.02369 8.83492 1.02369 15.1666 4.92893 19.0719C6.54271 17.4581 8.09478 15.906 12 12.0008L4.92893 4.92969Z" fill="black"/>
<path d="M4.77574 9.70703L6.29762 11.1473L8.13777 10.1448L7.23836 12.0374L8.76027 13.4778L6.68238 13.2072L5.78285 15.0997L5.3982 13.0399L3.32031 12.7691L5.16039 11.7668L4.77574 9.70703Z" fill="#F0F0F0"/>
</svg>
