<svg id="default" viewBox="0 0 24 24" fill="none" xmlns="http://www.w3.org/2000/svg">
<path d="M11.9993 2C11.2526 2 10.5253 2.08254 9.8254 2.2377L9.39062 12.0001L9.8254 21.7625C10.5254 21.9177 11.2527 22.0003 11.9993 22.0003C17.5222 22.0003 21.9994 17.523 21.9994 12.0001C21.9994 6.47721 17.5222 2 11.9993 2V2Z" fill="#496E2D"/>
<path d="M4.60871 5.26367C2.98822 7.04088 2 9.40459 2 11.9992C2 14.5939 2.98826 16.9576 4.60875 18.7349L5.04352 11.9992L4.60871 5.26367Z" fill="#496E2D"/>
<path d="M16.6258 9.54509C17.1178 8.17374 16.5651 6.68228 15.3789 5.93945C15.5922 5.96723 15.8058 6.01746 16.0166 6.09305C17.5988 6.66071 18.4212 8.40339 17.8536 9.98553C17.2859 11.5678 15.5432 12.3901 13.9611 11.8225C13.7502 11.7468 13.5534 11.6498 13.3711 11.5356C14.759 11.7163 16.1338 10.9164 16.6258 9.54509Z" fill="#F0F0F0"/>
<path d="M13.9004 5.5625L13.4729 6.11493L12.8155 5.87903L13.2087 6.4563L12.7812 7.00864L13.4518 6.8131L13.845 7.39029L13.8661 6.69216L14.5367 6.49657L13.8793 6.26075L13.9004 5.5625Z" fill="#F0F0F0"/>
<path d="M15.0489 7.36133L14.6214 7.91372L13.9639 7.67782L14.3572 8.25509L13.9297 8.80743L14.6002 8.61181L14.9935 9.18912L15.0147 8.49095L15.6852 8.29532L15.0277 8.05946L15.0489 7.36133Z" fill="#F0F0F0"/>
<path d="M11.8614 6.21875L11.4338 6.7711L10.7764 6.53528L11.1697 7.11251L10.7422 7.66491L11.4127 7.46932L11.8059 8.04655L11.8271 7.34842L12.4976 7.15283L11.8402 6.91693L11.8614 6.21875Z" fill="#F0F0F0"/>
<path d="M11.8146 8.2793L11.387 8.83168L10.7296 8.59582L11.1229 9.17309L10.6953 9.72544L11.3659 9.52989L11.7592 10.1071L11.7803 9.40895L12.4509 9.21337L11.7934 8.97747L11.8146 8.2793Z" fill="#F0F0F0"/>
<path d="M13.7755 8.98438L13.3479 9.53673L12.6905 9.30086L13.0838 9.87814L12.6562 10.4305L13.3268 10.2349L13.7201 10.8122L13.7412 10.114L14.4118 9.91841L13.7543 9.68255L13.7755 8.98438Z" fill="#F0F0F0"/>
<path d="M4.60938 5.26512V18.7363C5.97189 20.2306 7.78169 21.3097 9.82683 21.7631V2.23828C7.78165 2.69165 5.97193 3.77076 4.60938 5.26512Z" fill="#D80027"/>
<path d="M6.60005 7.26456L5.72656 6.61385V5.69364L6.60005 5.04297H7.83543L8.70892 5.69364V6.61385L7.83543 7.26456H6.60005Z" fill="#F0F0F0"/>
<path d="M7.2187 5.04297H6.6006L5.72656 5.69405V6.14423H7.2187V5.04297Z" fill="#FF9811"/>
<path d="M7.21875 7.26733H7.83681L8.71086 6.6162V6.14648H7.21875V7.26733Z" fill="#FF9811"/>
<path d="M6.60005 18.956L5.72656 18.3053V17.3851L6.60005 16.7344H7.83543L8.70892 17.3851V18.3053L7.83543 18.956H6.60005Z" fill="#F0F0F0"/>
<path d="M7.2187 16.7344H6.6006L5.72656 17.3855V17.8357H7.2187V16.7344Z" fill="#FF9811"/>
<path d="M7.21875 18.9587H7.83681L8.71086 18.3076V17.8379H7.21875V18.9587Z" fill="#FF9811"/>
<path d="M6.60005 13.1102L5.72656 12.4595V11.5394L6.60005 10.8887H7.83543L8.70892 11.5394V12.4595L7.83543 13.1102H6.60005Z" fill="#496E2D"/>
<path d="M8.7388 14.5426H8.35832V14.1622H7.68976L7.21702 13.6895L6.74431 14.1622H6.07575V14.5426H5.69531V15.3035H6.07575V15.6839H6.74427L7.21706 16.1567L7.68976 15.6839H8.35832V15.3035H8.7388V14.5426Z" fill="#496E2D"/>
<path d="M8.7388 8.69696H8.35832V8.31649H7.68976L7.21702 7.84375L6.74431 8.31649H6.07575V8.69696H5.69531V9.45782H6.07575V9.83826H6.74427L7.21706 10.3111L7.68976 9.83826H8.35832V9.45782H8.7388V8.69696Z" fill="#496E2D"/>
<path d="M6.78125 11.5645H7.65138V12.4346H6.78125V11.5645Z" fill="#D80027"/>
<path d="M7.2163 9.51269C7.45657 9.51269 7.65134 9.31791 7.65134 9.07763C7.65134 8.83736 7.45657 8.64258 7.2163 8.64258C6.97603 8.64258 6.78125 8.83736 6.78125 9.07763C6.78125 9.31791 6.97603 9.51269 7.2163 9.51269Z" fill="#D80027"/>
<path d="M7.2163 15.3584C7.45657 15.3584 7.65134 15.1636 7.65134 14.9233C7.65134 14.6831 7.45657 14.4883 7.2163 14.4883C6.97603 14.4883 6.78125 14.6831 6.78125 14.9233C6.78125 15.1636 6.97603 15.3584 7.2163 15.3584Z" fill="#D80027"/>
</svg>
