<svg id="default" viewBox="0 0 24 24" fill="none" xmlns="http://www.w3.org/2000/svg">
<path d="M12 22C17.5228 22 22 17.5228 22 12C22 6.47715 17.5228 2 12 2C6.47715 2 2 6.47715 2 12C2 17.5228 6.47715 22 12 22Z" fill="#D80027"/>
<path d="M12.0014 16.7821C14.6427 16.7821 16.784 14.6408 16.784 11.9994C16.784 9.35805 14.6427 7.2168 12.0014 7.2168C9.36 7.2168 7.21875 9.35805 7.21875 11.9994C7.21875 14.6408 9.36 16.7821 12.0014 16.7821Z" fill="#F0F0F0"/>
<path d="M12.5875 10.1719L13.408 11.3025L14.7368 10.8717L13.915 12.0014L14.7354 13.132L13.407 12.6995L12.5853 13.8292L12.5861 12.4323L11.2578 11.9998L12.5866 11.5689L12.5875 10.1719Z" fill="#D80027"/>
<path d="M13.0886 14.8278C11.5278 14.8278 10.2625 13.5625 10.2625 12.0017C10.2625 10.4409 11.5278 9.17562 13.0886 9.17562C13.5753 9.17562 14.0332 9.29867 14.433 9.51531C13.8058 8.90199 12.9482 8.52344 12.0017 8.52344C10.0807 8.52344 8.52344 10.0807 8.52344 12.0017C8.52344 13.9226 10.0807 15.4799 12.0017 15.4799C12.9482 15.4799 13.8058 15.1014 14.433 14.488C14.0332 14.7048 13.5753 14.8278 13.0886 14.8278Z" fill="#D80027"/>
</svg>
