<svg id="default" viewBox="0 0 24 24" fill="none" xmlns="http://www.w3.org/2000/svg">
<path d="M7.4179 3.11133C6.52259 3.57344 5.68217 4.17915 4.93164 4.92968C4.18107 5.68024 3.57535 6.52066 3.11328 7.41597L9.54378 14.4614L16.5892 20.8919C17.4846 20.4298 18.325 19.8241 19.0755 19.0736C19.8261 18.323 20.4318 17.4826 20.8939 16.5873L14.4634 9.5418L7.4179 3.11133Z" fill="#F0F0F0"/>
<path d="M19.0716 19.0716C19.4911 18.6521 19.8653 18.2045 20.1947 17.7349L6.26449 3.80469C5.79496 4.13405 5.34731 4.50822 4.92778 4.92775C4.50826 5.34727 4.13409 5.79492 3.80469 6.26449L17.7349 20.1947C18.2044 19.8653 18.6521 19.4912 19.0716 19.0716Z" fill="black"/>
<path d="M4.92883 19.0717C8.08405 22.2269 12.8226 22.8326 16.5864 20.89L3.11052 7.41406C1.16798 11.1779 1.77377 15.9165 4.92883 19.0717Z" fill="#D80027"/>
<path d="M19.0717 4.92887C15.9164 1.7737 11.1779 1.16803 7.41406 3.11049L20.89 16.5865C22.8325 12.8227 22.2269 8.08405 19.0717 4.92887Z" fill="#D80027"/>
</svg>
