<svg id="default" viewBox="0 0 24 24" fill="none" xmlns="http://www.w3.org/2000/svg">
<path d="M22 12C22 17.5228 17.5228 22 12 22C6.47719 22 2 17.5228 2 12C2 12.0024 12 2.00109 12 2C17.5228 2 22 6.47719 22 12Z" fill="#338AF3"/>
<path d="M6.78125 12.0017H10.154L7.21602 8.52344L6.78125 9.82777V12.0017Z" fill="#0052B4"/>
<path d="M12.0017 10.154L8.52344 6.78125H12.0017L12.0017 10.154Z" fill="#0052B4"/>
<path d="M11.9727 12.0014H11.9994C11.9994 11.9924 11.9994 11.9836 11.9994 11.9746C11.9905 11.9836 11.9816 11.9925 11.9727 12.0014Z" fill="#F0F0F0"/>
<path d="M12 7.21738C12 5.45781 12 4.30484 12 2H11.9984C6.47625 2.00094 2 6.47769 2 12H7.21742V9.06207L10.1554 12H11.9733C11.9822 11.9911 11.9911 11.9822 12.0001 11.9732C12.0001 11.2995 12.0001 10.6984 12.0001 10.1554L9.06203 7.21738H12Z" fill="#F0F0F0"/>
<path d="M7.05952 3.30469C5.4955 4.19527 4.19527 5.4955 3.30469 7.05952V12.0003H5.91339V5.91347V5.91339H12.0003C12.0003 5.09062 12.0003 4.3068 12.0003 3.30469H7.05952Z" fill="#D80027"/>
<path d="M12.0013 10.7697L8.44843 7.2168H7.21875V7.21687L12.0013 11.9994H12.0013C12.0013 11.9994 12.0013 11.1515 12.0013 10.7697Z" fill="#D80027"/>
<path d="M12.9182 18.5215L13.1341 19.1858H13.8326L13.2675 19.5963L13.4834 20.2606L12.9182 19.8501L12.3532 20.2606L12.569 19.5963L12.0039 19.1858H12.7024L12.9182 18.5215Z" fill="#FFDA44"/>
<path d="M18.4808 14.1758L18.6966 14.8401H19.3951L18.83 15.2507L19.0459 15.9149L18.4808 15.5044L17.9157 15.9149L18.1316 15.2507L17.5664 14.8401H18.2649L18.4808 14.1758Z" fill="#FFDA44"/>
<path d="M19.8752 7.65234L20.0911 8.31664H20.7896L20.2245 8.72719L20.4404 9.39145L19.8752 8.98094L19.3102 9.39145L19.5261 8.72719L18.9609 8.31664H19.6594L19.8752 7.65234Z" fill="#FFDA44"/>
<path d="M20.219 12.4336L20.4349 13.0979H21.1333L20.5683 13.5085L20.7842 14.1727L20.219 13.7622L19.654 14.1727L19.8699 13.5085L19.3047 13.0979H20.0032L20.219 12.4336Z" fill="#FFDA44"/>
<path d="M13.9228 16.958L14.5453 17.2751L15.0391 16.7812L14.9299 17.4711L15.5522 17.7882L14.8623 17.8975L14.753 18.5874L14.436 17.965L13.7461 18.0743L14.24 17.5804L13.9228 16.958Z" fill="#FFDA44"/>
<path d="M13.9228 14.3525L14.5453 14.6696L15.0391 14.1758L14.9299 14.8656L15.5522 15.1827L14.8623 15.292L14.753 15.9819L14.436 15.3595L13.7461 15.4688L14.24 14.975L13.9228 14.3525Z" fill="#FFDA44"/>
<path d="M16.0947 16.0224L16.7171 16.3396L17.211 15.8457L17.1018 16.5355L17.7241 16.8526L17.0342 16.9619L16.9249 17.6518L16.6079 17.0294L15.918 17.1387L16.4118 16.6449L16.0947 16.0224Z" fill="#FFDA44"/>
<path d="M16.0947 10.4404L16.7171 10.7575L17.211 10.2637L17.1018 10.9535L17.7241 11.2706L17.0342 11.3799L16.9249 12.0698L16.6079 11.4474L15.918 11.5567L16.4118 11.0629L16.0947 10.4404Z" fill="#FFDA44"/>
<path d="M18.2002 10.3701L18.8226 10.6872L19.3165 10.1934L19.2072 10.8832L19.8296 11.2003L19.1396 11.3096L19.0304 11.9995L18.7134 11.3771L18.0234 11.4864L18.5173 10.9925L18.2002 10.3701Z" fill="#FFDA44"/>
</svg>
