<svg id="default" viewBox="0 0 24 24" fill="none" xmlns="http://www.w3.org/2000/svg">
<path d="M22 12C22 17.5228 17.5228 22 12 22C6.47719 22 2 17.5228 2 12C5.43477 8.56523 8.34781 5.65219 12 2C17.5228 2 22 6.47719 22 12Z" fill="#D80027"/>
<path d="M12 12C12 6.47719 12 5.82609 12 2C6.47719 2 2 6.47719 2 12H12Z" fill="#0052B4"/>
<path d="M10.7004 7.85298L9.4791 8.42751L10.1294 9.61029L8.80328 9.35653L8.6352 10.6963L7.71152 9.71095L6.78777 10.6963L6.61977 9.35653L5.29359 9.61021L5.94391 8.42743L4.72266 7.85298L5.94395 7.27856L5.29359 6.09574L6.61973 6.34946L6.78781 5.00977L7.71152 5.99508L8.63523 5.00977L8.80328 6.34946L10.1295 6.09574L9.4791 7.2786L10.7004 7.85298Z" fill="#F0F0F0"/>
<path d="M7.7052 9.71508C8.73325 9.71508 9.56665 8.88168 9.56665 7.85363C9.56665 6.82558 8.73325 5.99219 7.7052 5.99219C6.67715 5.99219 5.84375 6.82558 5.84375 7.85363C5.84375 8.88168 6.67715 9.71508 7.7052 9.71508Z" fill="#0052B4"/>
<path d="M7.70668 8.84313C7.15977 8.84313 6.71484 8.39816 6.71484 7.85125C6.71484 7.30434 7.15981 6.85938 7.70668 6.85938C8.2536 6.85938 8.69856 7.30434 8.69856 7.85125C8.69852 8.39816 8.25352 8.84313 7.70668 8.84313Z" fill="#F0F0F0"/>
</svg>
