<svg id="default" viewBox="0 0 24 24" fill="none" xmlns="http://www.w3.org/2000/svg">
<path d="M12 22C17.5228 22 22 17.5228 22 12C22 6.47715 17.5228 2 12 2C6.47715 2 2 6.47715 2 12C2 17.5228 6.47715 22 12 22Z" fill="#F0F0F0"/>
<path d="M11.5625 12.0013H21.9972C21.9972 11.0987 21.8769 10.2243 21.6527 9.39258H11.5625V12.0013Z" fill="#D80027"/>
<path d="M11.5625 6.78448H20.5295C19.9174 5.78558 19.1347 4.90265 18.2221 4.17578H11.5625V6.78448Z" fill="#D80027"/>
<path d="M11.9983 22.002C14.3518 22.002 16.5149 21.1886 18.2231 19.8281H5.77344C7.48164 21.1886 9.6448 22.002 11.9983 22.002Z" fill="#D80027"/>
<path d="M3.46699 17.22H20.5316C21.023 16.4181 21.4041 15.5416 21.6548 14.6113H2.34375C2.59441 15.5416 2.97555 16.4181 3.46699 17.22Z" fill="#D80027"/>
<path d="M6.63219 3.56164H7.54348L6.69582 4.17746L7.01961 5.17391L6.17199 4.55809L5.32437 5.17391L5.60406 4.31309C4.85773 4.93477 4.20359 5.66312 3.66453 6.47469H3.95652L3.41695 6.86668C3.33289 7.00691 3.25227 7.14937 3.175 7.29394L3.43266 8.08695L2.95195 7.73769C2.83246 7.99086 2.72316 8.24973 2.62492 8.51398L2.90879 9.38773H3.95652L3.10887 10.0036L3.43266 11L2.58504 10.3842L2.0773 10.7531C2.02648 11.1616 2 11.5777 2 12H12C12 6.47719 12 5.82609 12 2C10.0245 2 8.18301 2.57305 6.63219 3.56164ZM7.01961 11L6.17199 10.3842L5.32437 11L5.64816 10.0036L4.80051 9.38773H5.84824L6.17199 8.39129L6.49574 9.38773H7.54348L6.69582 10.0036L7.01961 11ZM6.69582 7.09051L7.01961 8.08695L6.17199 7.47113L5.32437 8.08695L5.64816 7.09051L4.80051 6.47469H5.84824L6.17199 5.47824L6.49574 6.47469H7.54348L6.69582 7.09051ZM10.6066 11L9.75894 10.3842L8.91133 11L9.23512 10.0036L8.38746 9.38773H9.43519L9.75894 8.39129L10.0827 9.38773H11.1304L10.2828 10.0036L10.6066 11ZM10.2828 7.09051L10.6066 8.08695L9.75894 7.47113L8.91133 8.08695L9.23512 7.09051L8.38746 6.47469H9.43519L9.75894 5.47824L10.0827 6.47469H11.1304L10.2828 7.09051ZM10.2828 4.17746L10.6066 5.17391L9.75894 4.55809L8.91133 5.17391L9.23512 4.17746L8.38746 3.56164H9.43519L9.75894 2.5652L10.0827 3.56164H11.1304L10.2828 4.17746Z" fill="#0052B4"/>
</svg>
