<svg id="default" xmlns="http://www.w3.org/2000/svg" viewBox="0 0 24 24">
  <path fill-rule="evenodd" clip-rule="evenodd" d="M11.6966 2.7742C10.0259 2.86268 8.48231 3.89498 7.74209 5.41875C7.5119 5.89269 7.37725 6.32605 7.29999 6.84184C7.25156 7.16506 7.25194 7.82763 7.3007 8.16025C7.45713 9.22695 7.94009 10.172 8.70753 10.9132C9.09129 11.2839 9.42217 11.5166 9.9082 11.7578C10.3631 11.9836 10.8002 12.1202 11.3303 12.2021C11.6613 12.2533 12.3367 12.2535 12.6697 12.2025C13.6835 12.0472 14.5674 11.6135 15.2875 10.9181C16.0602 10.1717 16.5425 9.22977 16.6993 8.16025C16.7484 7.82571 16.7485 7.16414 16.6996 6.84184C16.4242 5.02806 15.2079 3.57578 13.4805 2.99823C12.9262 2.8129 12.3448 2.73988 11.6966 2.7742ZM11.8117 4.08179C10.926 4.15096 10.1997 4.47366 9.60342 5.06303C9.1927 5.46897 8.93838 5.87285 8.75947 6.40322C8.71303 6.54086 8.66067 6.72458 8.64309 6.81147C8.38607 8.08311 8.86605 9.39795 9.87671 10.1908C10.384 10.5888 10.9274 10.8171 11.5668 10.9008C12.8787 11.0725 14.1784 10.4612 14.8983 9.33397C15.2854 8.7278 15.4797 7.92892 15.4125 7.21955C15.3813 6.88947 15.3425 6.70541 15.2405 6.40322C15.0616 5.87285 14.8073 5.46897 14.3966 5.06303C13.779 4.45269 13.0054 4.1204 12.1151 4.0832C12 4.07838 11.8635 4.07776 11.8117 4.08179ZM10.9327 13.8232C9.26145 13.9103 7.63583 14.2194 6.21364 14.7205C4.94275 15.1683 3.67257 15.8372 2.95414 16.4369L2.75 16.6073L2.75534 18.9235L2.76065 21.2397H12H21.2393L21.2447 18.9235L21.25 16.6073L21.0459 16.4369C20.3897 15.8892 19.1842 15.2366 18.0561 14.8185C16.4918 14.2387 14.8624 13.9171 13.0045 13.8214C12.5367 13.7973 11.4108 13.7983 10.9327 13.8232ZM10.8595 15.1421C8.96114 15.2556 7.15329 15.6839 5.57456 16.3942C5.13398 16.5925 4.47459 16.9549 4.15762 17.1729L4.0686 17.2342V18.583V19.9318H12H19.9314V18.583V17.2342L19.8424 17.1729C19.5016 16.9384 18.8202 16.5684 18.3409 16.3574C16.7395 15.6525 15.0142 15.2534 13.0807 15.1404C12.6505 15.1153 11.2917 15.1163 10.8595 15.1421Z" fill="currentColor"/>
</svg>