<svg id="default" viewBox="0 0 24 24" fill="none" xmlns="http://www.w3.org/2000/svg">
<path d="M12 22C17.5228 22 22 17.5228 22 12C22 6.47715 17.5228 2 12 2C6.47715 2 2 6.47715 2 12C2 17.5228 6.47715 22 12 22Z" fill="#F0F0F0"/>
<path d="M12 9.38996H21.6555C21.4048 8.45973 21.0237 7.58312 20.5323 6.78125H12V9.38996Z" fill="#338AF3"/>
<path d="M5.77614 19.8275H18.2259C19.1385 19.1006 19.9212 18.2177 20.5333 17.2188H3.46875C4.0809 18.2177 4.86356 19.1006 5.77614 19.8275Z" fill="#338AF3"/>
<path d="M12 2V4.1739H18.2249C16.5167 2.81343 14.3535 2 12 2Z" fill="#338AF3"/>
<path d="M12 9.38996H21.6555C21.4048 8.45973 21.0237 7.58312 20.5323 6.78125H12V9.38996Z" fill="#338AF3"/>
<path d="M2 12C2 12.9026 2.12031 13.7769 2.34449 14.6087H21.6555C21.8797 13.7769 22 12.9026 22 12H2Z" fill="#338AF3"/>
<path d="M10.7004 7.85298L9.47906 8.42747L10.1294 9.61029L8.80324 9.35661L8.6352 10.6963L7.71152 9.71095L6.78777 10.6963L6.61977 9.35661L5.29359 9.61021L5.94391 8.42743L4.72266 7.85298L5.94395 7.27856L5.29359 6.09574L6.61973 6.34942L6.78781 5.00977L7.71152 5.99508L8.63523 5.00977L8.80324 6.34942L10.1295 6.09574L9.4791 7.2786L10.7004 7.85298Z" fill="#FFDA44"/>
</svg>
