<svg id="default" viewBox="0 0 24 24" fill="none" xmlns="http://www.w3.org/2000/svg">
<path d="M12 22C17.5228 22 22 17.5228 22 12C22 6.47715 17.5228 2 12 2C6.47715 2 2 6.47715 2 12C2 17.5228 6.47715 22 12 22Z" fill="#FCFCFC"/>
<path d="M13.6996 8.98742C13.6996 8.04945 12.9392 7.28906 12.0012 7.28906C11.0632 7.28906 10.3028 8.04945 10.3028 8.98742H6.56641C6.56641 9.91089 7.37086 10.6596 8.29434 10.6596H8.23871C8.23871 11.5832 8.9873 12.3319 9.91094 12.3319C9.91094 13.1496 10.4982 13.829 11.2738 13.9743L11.2695 13.984H12.7329L12.7286 13.9743C13.5042 13.829 14.0914 13.1496 14.0914 12.3319C15.015 12.3319 15.7637 11.5832 15.7637 10.6596H15.708C16.6314 10.6596 17.4359 9.91089 17.4359 8.98742H13.6996Z" fill="#FFDA44"/>
<path d="M11.2523 13.8086L10.1992 16.186C10.7548 16.4119 11.3621 16.5374 11.9989 16.5374C12.6357 16.5374 13.243 16.4119 13.7986 16.186L12.7455 13.8086H11.2523Z" fill="#FFDA44"/>
<path d="M9.82422 9.82031V12.7457C9.82422 14.4097 11.9981 14.9196 11.9981 14.9196C11.9981 14.9196 14.172 14.4097 14.172 12.7457V9.82031H9.82422Z" fill="#F0F0F0"/>
<path d="M4.42309 12.0723L5.59883 15.3607L6.76234 12.0723H7.65031L5.95398 16.4201H5.24363L3.53516 12.0723H4.42309Z" fill="#338AF3"/>
<path d="M18.0859 16.4201V12.0723H18.931V16.4201H18.0859Z" fill="#338AF3"/>
<path d="M10.6953 10.7656V14.3107C10.9942 14.5306 11.3157 14.6819 11.5649 14.7788V10.7656H10.6953Z" fill="#D80027"/>
<path d="M13.2992 10.7656V14.3107C13.0004 14.5306 12.6788 14.6819 12.4297 14.7788V10.7656H13.2992Z" fill="#D80027"/>
<path d="M9.82422 9.82031H14.172V11.1998H9.82422V9.82031Z" fill="#0052B4"/>
</svg>
