<svg id="default" viewBox="0 0 24 24" fill="none" xmlns="http://www.w3.org/2000/svg">
<path d="M22 12.0008C22 11.5587 21.971 11.1234 21.9154 10.6964H10.6956C8.65255 8.65355 4.92877 4.93 4.92892 4.92969C1.02369 8.83491 1.02369 15.1665 4.92892 19.0718L10.6957 13.3051H21.9154C21.9709 12.8781 22 12.4428 22 12.0008Z" fill="black"/>
<path d="M21.9837 12.498C21.9828 12.5172 21.9815 12.5362 21.9805 12.5553C21.9815 12.5362 21.9827 12.5172 21.9837 12.498Z" fill="#F0F0F0"/>
<path d="M21.9711 12.7188C21.9691 12.7469 21.9671 12.775 21.9648 12.803C21.9671 12.775 21.969 12.7469 21.9711 12.7188Z" fill="#F0F0F0"/>
<path d="M21.9375 10.9102C21.9412 10.9436 21.9448 10.977 21.9482 11.0106C21.9448 10.977 21.9411 10.9436 21.9375 10.9102Z" fill="#F0F0F0"/>
<path d="M21.9805 11.4414C21.9815 11.4605 21.9828 11.4795 21.9837 11.4986C21.9828 11.4795 21.9815 11.4604 21.9805 11.4414Z" fill="#F0F0F0"/>
<path d="M21.9648 11.1973C21.9671 11.2253 21.9691 11.2534 21.9711 11.2815C21.969 11.2534 21.9671 11.2253 21.9648 11.1973Z" fill="#F0F0F0"/>
<path d="M21.9162 10.6956C21.9207 10.7298 21.9246 10.7643 21.9287 10.7986C21.3352 5.84233 17.117 2 12.0008 2C9.23936 2 6.73933 3.11933 4.92969 4.92905L10.6962 10.6956H21.9162V10.6956Z" fill="#D80027"/>
<path d="M21.9162 13.3042H10.6962L4.92969 19.0708C6.73933 20.8805 9.23936 21.9999 12.0008 21.9999C17.117 21.9999 21.3353 18.1575 21.9287 13.2012C21.9246 13.2355 21.9206 13.27 21.9162 13.3042Z" fill="#6DA544"/>
<path d="M21.956 12.9883C21.9527 13.0218 21.949 13.0552 21.9453 13.0887C21.949 13.0552 21.9527 13.0219 21.956 12.9883Z" fill="#F0F0F0"/>
<path d="M21.9727 11.2812C21.9765 11.3348 21.9799 11.3884 21.9828 11.4421C21.9799 11.3884 21.9765 11.3348 21.9727 11.2812Z" fill="black"/>
<path d="M21.9297 10.7988C21.9342 10.8359 21.9384 10.8731 21.9424 10.9103C21.9384 10.8731 21.9341 10.836 21.9297 10.7988Z" fill="black"/>
<path d="M21.9531 11.0098C21.9592 11.0719 21.9647 11.1341 21.9697 11.1966C21.9648 11.1341 21.9593 11.0718 21.9531 11.0098Z" fill="black"/>
<path d="M21.9989 12C21.9989 12.0761 21.9978 12.1519 21.9961 12.2275C21.9978 12.1519 21.9989 12.0761 21.9989 12Z" fill="black"/>
<path d="M21.9828 12.5566C21.9799 12.6104 21.9764 12.664 21.9727 12.7175C21.9764 12.664 21.9798 12.6104 21.9828 12.5566Z" fill="black"/>
<path d="M21.9697 12.8008C21.9647 12.8632 21.9592 12.9255 21.9531 12.9876C21.9593 12.9255 21.9648 12.8632 21.9697 12.8008Z" fill="black"/>
<path d="M21.9424 13.0898C21.9384 13.1271 21.9342 13.1642 21.9297 13.2013C21.9341 13.1642 21.9384 13.1271 21.9424 13.0898Z" fill="black"/>
<path d="M21.9961 11.7734C21.9978 11.8491 21.9989 11.925 21.9989 12.001C21.9989 11.925 21.9978 11.8491 21.9961 11.7734Z" fill="black"/>
<path d="M21.9883 11.498C21.9918 11.5697 21.9945 11.6415 21.9965 11.7135C21.9945 11.6415 21.9919 11.5697 21.9883 11.498Z" fill="black"/>
<path d="M21.9965 12.2852C21.9945 12.3572 21.9918 12.429 21.9883 12.5007C21.9919 12.429 21.9945 12.3572 21.9965 12.2852Z" fill="black"/>
<path d="M21.9917 11.5619H10.3294L4.3389 5.57227C4.14527 5.77648 3.93539 6.06164 3.80559 6.26472L9.53444 11.9966L3.80078 17.7304C3.9143 17.9323 4.1616 18.2312 4.33523 18.4257L10.3295 12.4314H21.9931C21.9993 12.2872 22.0012 12.1424 22.0012 11.9967C22.0012 11.8014 21.9958 11.6575 21.9917 11.5619Z" fill="#FFDA44"/>
<path d="M4.42945 14.1305V13.2929C5.26531 13.2929 5.94527 12.6129 5.94527 11.7771C5.94527 11.1857 5.46414 10.7046 4.87281 10.7046C4.46996 10.7046 4.14219 11.0324 4.14219 11.4353C4.14219 11.6929 4.35176 11.9025 4.60941 11.9025C4.75504 11.9025 4.87351 11.784 4.87351 11.6384H5.71109C5.71109 12.2459 5.21687 12.7401 4.60945 12.7401C3.88996 12.7401 3.30469 12.1548 3.30469 11.4354C3.30469 10.5707 4.0082 9.86719 4.87285 9.86719C5.92605 9.86719 6.78292 10.7241 6.78292 11.7772C6.78288 13.0748 5.72714 14.1305 4.42945 14.1305Z" fill="#FFDA44"/>
</svg>
