<svg id="default" viewBox="0 0 24 24" fill="currentColor" xmlns="http://www.w3.org/2000/svg">
<path fill-rule="evenodd" clip-rule="evenodd" d="M11.498 3.02642C12.0798 2.97699 12.9134 2.99859 13.4844 3.0772C15.1139 3.30165 16.6757 3.96096 17.9482 4.96099C18.3775 5.2984 18.9312 5.82481 19.2578 6.20709C20.2226 7.33656 20.8907 8.63847 21.2383 10.0665C21.795 12.3542 21.4575 14.7564 20.29 16.8204C20.1125 17.1342 19.7507 17.6758 19.5439 17.9366C18.2203 19.6062 16.4617 20.7399 14.4297 21.2344C13.7086 21.4099 12.9914 21.4961 12.25 21.4961C10.1896 21.4961 8.16095 20.7969 6.55176 19.5323C5.38974 18.619 4.45003 17.4315 3.84961 16.1172C3.28677 14.885 3 13.5801 3 12.2461C3.00008 10.1848 3.69903 8.15685 4.96387 6.54791C5.41633 5.97238 5.97653 5.41315 6.55176 4.96099C7.96016 3.8539 9.67934 3.18111 11.498 3.02642ZM11.6982 4.27252C10.9427 4.34495 10.4935 4.42939 9.89453 4.61138C9.11475 4.84843 8.17514 5.32008 7.51953 5.80474C6.89896 6.26352 6.26736 6.89609 5.80859 7.51666C5.35773 8.12658 4.92776 8.95858 4.66113 9.73834C4.56843 10.0095 4.43099 10.5658 4.37598 10.8926C4.28544 11.4306 4.27344 11.5859 4.27344 12.2461C4.27344 12.9047 4.28613 13.0642 4.375 13.5909C4.50823 14.3804 4.74448 15.0911 5.12891 15.8575C5.89073 17.3761 7.12011 18.6053 8.63867 19.3672C9.54471 19.8218 10.3712 20.0692 11.4072 20.1963C11.6897 20.231 12.8106 20.231 13.0928 20.1963C14.2455 20.0547 15.2357 19.7336 16.2207 19.1807C17.3978 18.52 18.5239 17.3939 19.1846 16.2169C19.7374 15.2319 20.0586 14.2416 20.2002 13.0889C20.2348 12.8062 20.2349 11.6857 20.2002 11.4034C20.0731 10.3675 19.8255 9.54167 19.3711 8.6358C18.9824 7.86092 18.5217 7.22485 17.8965 6.59966C17.2714 5.9746 16.6361 5.51372 15.8613 5.12506C14.9776 4.68176 14.181 4.4386 13.1934 4.30963C12.9563 4.27868 11.9055 4.25263 11.6982 4.27252Z"/>
<path d="M11.5 13.3195V8H12.7444L12.7546 12.0649L15.2537 12.0752V13.3195H11.5Z"/>
</svg>
