<svg id="default"  viewBox="0 0 24 24" xmlns="http://www.w3.org/2000/svg">
<path fill-rule="evenodd" clip-rule="evenodd" d="M2.75 7.72571H4.13092V4.13092H19.8691V7.72571H21.25V2.75H2.75V7.72571ZM6.18405 6.18405C6.17601 6.19207 6.16943 9.5852 6.16943 13.7243V21.25H17.8306V6.16943H12.0146C8.81583 6.16943 6.19207 6.17601 6.18405 6.18405ZM7.55035 19.8691H16.4496V7.55035H7.55035V19.8691ZM11.6712 10.9048C10.4017 11.06 9.38639 12.0477 9.20486 13.3042C9.02176 14.5715 9.71163 15.8062 10.8829 16.3075C11.9817 16.7778 13.2619 16.508 14.0693 15.636C14.7614 14.8885 14.999 13.8359 14.6947 12.8658C14.3813 11.8666 13.4969 11.0938 12.475 10.9261C12.2734 10.893 11.8578 10.882 11.6712 10.9048ZM11.6712 12.2971C11.2839 12.3803 10.8924 12.686 10.7125 13.0458C10.5867 13.2972 10.5445 13.5037 10.5591 13.7953C10.5789 14.1916 10.6909 14.4402 10.9801 14.7298C11.2861 15.0362 11.5724 15.1557 12 15.1557C12.4276 15.1557 12.7139 15.0362 13.0199 14.7298C13.2212 14.5283 13.3041 14.3962 13.3921 14.1371C13.4492 13.9689 13.4607 13.5994 13.4151 13.3944C13.2956 12.8575 12.8448 12.4062 12.3178 12.2959C12.128 12.2562 11.8594 12.2567 11.6712 12.2971Z" fill="currentColor"/>
</svg>
