<svg id="default" viewBox="0 0 24 24" fill="none" xmlns="http://www.w3.org/2000/svg">
<path d="M22 12C22 17.5228 17.5228 22 12 22C6.47719 22 2 17.5228 2 12C5.43477 8.56523 8.34781 5.65219 12 2C17.5228 2 22 6.47719 22 12Z" fill="#D80027"/>
<path d="M12 12C12 6.47719 12 5.82609 12 2C6.47719 2 2 6.47719 2 12H12Z" fill="#0052B4"/>
<path d="M10.0104 8.52344L10.1724 9.022H10.6966L10.2725 9.33006L10.4345 9.82862L10.0104 9.52049L9.5863 9.82862L9.74832 9.33006L9.32422 9.022H9.84839L10.0104 8.52344Z" fill="#F0F0F0"/>
<path d="M7.38117 4.60938L7.65098 5.4398H8.5241L7.81769 5.95289L8.08758 6.78328L7.38117 6.27004L6.6748 6.78328L6.94465 5.95289L6.23828 5.4398H7.11133L7.38117 4.60938Z" fill="#F0F0F0"/>
<path d="M9.98274 5.47852L10.2525 6.30899H11.1256L10.4193 6.82207L10.6891 7.65246L9.98274 7.13922L9.27637 7.65246L9.54621 6.82207L8.83984 6.30899H9.71289L9.98274 5.47852Z" fill="#F0F0F0"/>
<path d="M7.92414 8.95703L8.19398 9.78746H9.06703L8.36066 10.3005L8.63051 11.1309L7.92414 10.6177L7.21777 11.1309L7.48762 10.3005L6.78125 9.78746H7.65434L7.92414 8.95703Z" fill="#F0F0F0"/>
<path d="M5.63895 6.78125L5.90879 7.61168H6.78187L6.07547 8.12477L6.34531 8.95516L5.63895 8.44196L4.93262 8.95516L5.20242 8.12477L4.49609 7.61168H5.36914L5.63895 6.78125Z" fill="#F0F0F0"/>
</svg>
