<svg id="default" xmlns="http://www.w3.org/2000/svg" viewBox="0 0 24 24">
<path fill-rule="evenodd" clip-rule="evenodd" d="M7.01538 3C4.73094 3 3 5.03348 3 7.38462V16.6154C3 18.9665 4.73094 21 7.01538 21H16.9846C19.2691 21 21 18.9665 21 16.6154V7.38462C21 5.03348 19.2691 3 16.9846 3H7.01538ZM15.6456 10.6648C15.7081 10.7557 15.7554 10.8608 15.7876 10.9801H17.2109C17.1768 10.6903 17.0897 10.4242 16.9496 10.1818C16.8094 9.93939 16.6266 9.73011 16.4013 9.55398C16.1778 9.37784 15.9202 9.24148 15.6285 9.14489C15.3388 9.0483 15.0253 9 14.6882 9C14.2999 9 13.9373 9.06629 13.6001 9.19886C13.2649 9.33144 12.9695 9.52652 12.7138 9.78409C12.46 10.0417 12.2621 10.3561 12.12 10.7273C11.978 11.0966 11.907 11.5199 11.907 11.9972C11.907 12.6108 12.0244 13.1411 12.2592 13.5881C12.4941 14.0331 12.8217 14.3759 13.2422 14.6165C13.6626 14.857 14.1503 14.9773 14.7052 14.9773C15.2052 14.9773 15.6475 14.8778 16.032 14.679C16.4183 14.4801 16.7213 14.1951 16.941 13.8239C17.1626 13.4527 17.2734 13.0066 17.2734 12.4858V11.7159H14.7649V12.7415H15.918C15.9136 12.9386 15.8673 13.111 15.7791 13.2585C15.6863 13.4138 15.5499 13.5341 15.37 13.6193C15.192 13.7027 14.9742 13.7443 14.7166 13.7443C14.4249 13.7443 14.1768 13.6752 13.9723 13.5369C13.7677 13.3987 13.6115 13.1979 13.5035 12.9347C13.3956 12.6714 13.3416 12.3532 13.3416 11.9801C13.3416 11.6089 13.3975 11.2936 13.5092 11.0341C13.621 10.7727 13.7791 10.5739 13.9837 10.4375C14.1901 10.3011 14.4344 10.233 14.7166 10.233C14.8568 10.233 14.9856 10.25 15.103 10.2841C15.2204 10.3163 15.3246 10.3646 15.4155 10.429C15.5064 10.4934 15.5831 10.572 15.6456 10.6648ZM9.19034 11.9716L8.47159 10.5341H7.0625L8.26705 12.7159L7 14.8977H8.40909L9.19034 13.4489L9.99148 14.8977H11.3807L10.1165 12.7159L11.3352 10.5341H9.93466L9.19034 11.9716Z" fill="currentColor" />
</svg>