<svg id="default" viewBox="0 0 24 24" fill="none" xmlns="http://www.w3.org/2000/svg">
<path d="M12 22C17.5228 22 22 17.5228 22 12C22 6.47715 17.5228 2 12 2C6.47715 2 2 6.47715 2 12C2 17.5228 6.47715 22 12 22Z" fill="#0052B4"/>
<path d="M6.39477 8.08984L6.61063 8.75423H7.30907L6.74403 9.16474L6.95985 9.82901L6.39477 9.4185L5.82965 9.82901L6.04555 9.16474L5.48047 8.75423H6.17887L6.39477 8.08984Z" fill="#F0F0F0"/>
<path d="M8.5705 7.43945L8.78636 8.10379H9.4848L8.91976 8.5143L9.13558 9.17855L8.5705 8.76805L8.00543 9.17855L8.22129 8.5143L7.65625 8.10379H8.35468L8.5705 7.43945Z" fill="#F0F0F0"/>
<path d="M10.7424 6.78516L10.9582 7.44949H11.6567L11.0916 7.86004L11.3075 8.5243L10.7424 8.11375L10.1773 8.5243L10.3932 7.86004L9.82812 7.44949H10.5266L10.7424 6.78516Z" fill="#F0F0F0"/>
<path d="M17.6096 8.08984L17.3938 8.75423H16.6953L17.2604 9.16474L17.0445 9.82901L17.6096 9.4185L18.1747 9.82901L17.9588 9.16474L18.5239 8.75423H17.8255L17.6096 8.08984Z" fill="#F0F0F0"/>
<path d="M15.4338 7.43945L15.218 8.10379H14.5195L15.0846 8.5143L14.8688 9.17855L15.4338 8.76805L15.9989 9.17855L15.783 8.5143L16.3481 8.10379H15.6496L15.4338 7.43945Z" fill="#F0F0F0"/>
<path d="M13.2619 6.78516L13.0461 7.44949H12.3477L12.9127 7.86004L12.6969 8.5243L13.2619 8.11375L13.827 8.5243L13.6112 7.86004L14.1762 7.44949H13.4778L13.2619 6.78516Z" fill="#F0F0F0"/>
<path d="M13.7397 12.4337L12.0005 10.2598L11.1309 10.6945V11.5641L9.8266 12.4337H8.95703V13.5571C10.2316 14.0732 11.1309 15.3219 11.1309 16.7815H12.0005V15.9119L12.8701 15.0424L13.7397 15.9119L14.6092 15.0424V14.1728L15.4788 12.8685L13.7397 12.4337Z" fill="#FFDA44"/>
</svg>
