<svg id="default" viewBox="0 0 24 24" fill="none" xmlns="http://www.w3.org/2000/svg">
<path d="M12 22C17.5228 22 22 17.5228 22 12C22 6.47715 17.5228 2 12 2C6.47715 2 2 6.47715 2 12C2 17.5228 6.47715 22 12 22Z" fill="#F0F0F0"/>
<path d="M4.92893 19.0699C1.02369 15.1646 1.02369 8.833 4.92893 4.92773C4.92866 4.92816 10.6957 11.9988 10.6957 11.9988L4.92893 19.0699Z" fill="black"/>
<path d="M10.6951 11.9995L3.32574 7.01953C3.09727 7.41668 2.89578 7.83121 2.72266 8.26028L6.45349 11.9995L2.72277 15.739C2.89574 16.1677 3.09703 16.582 3.32535 16.9789L10.6951 11.9995Z" fill="#FFDA44"/>
<path d="M21.9137 10.6943H10.6937L4.92715 4.92773C4.30574 5.54914 3.76586 6.25192 3.32461 7.01875L8.29489 11.9987L3.32422 16.978C3.76547 17.745 4.30559 18.448 4.92715 19.0696L10.6937 13.303H21.9137C21.9693 12.8761 21.9983 12.4408 21.9983 11.9987C21.9983 11.5566 21.9693 11.1213 21.9137 10.6943Z" fill="#6DA544"/>
<path d="M5.91016 19.9334C7.59645 21.2296 9.70727 22.0007 11.9985 22.0007C16.6188 22.0007 20.5065 18.867 21.654 14.6094H11.2342L5.91016 19.9334Z" fill="#0052B4"/>
<path d="M21.654 9.3913C20.5065 5.13364 16.6188 2 11.9985 2C9.70727 2 7.59645 2.77113 5.91016 4.06731L11.2341 9.3913H21.654Z" fill="#D80027"/>
</svg>
