<svg id="default" viewBox="0 0 24 24" fill="none" xmlns="http://www.w3.org/2000/svg">
<path d="M12 22C17.5228 22 22 17.5228 22 12C22 6.47715 17.5228 2 12 2C6.47715 2 2 6.47715 2 12C2 17.5228 6.47715 22 12 22Z" fill="#496E2D"/>
<path d="M15.9091 12H11.9961V22C13.165 22 14.2868 21.7988 15.3294 21.4303L15.9091 12Z" fill="#D80027"/>
<path d="M18.6617 19.4529C20.7073 17.6218 21.9951 14.9615 21.9951 12H18.082L18.6617 19.4529Z" fill="#FF9811"/>
<path d="M15.332 12V21.4302C16.5741 20.9911 17.7036 20.3138 18.6654 19.4529V12H15.332Z" fill="black"/>
<path d="M20.48 8.52192H17.8713C17.8713 8.04168 17.4819 7.65234 17.0017 7.65234C16.5215 7.65234 16.1321 8.04168 16.1321 8.52192H13.5234C13.5234 9.00219 13.9418 9.39149 14.422 9.39149H14.393C14.393 9.87177 14.7823 10.2611 15.2626 10.2611C15.2626 10.7413 15.6518 11.1306 16.1321 11.1306H17.8713C18.3515 11.1306 18.7408 10.7413 18.7408 10.2611C19.2211 10.2611 19.6104 9.87177 19.6104 9.39149H19.5815C20.0617 9.39145 20.48 9.00215 20.48 8.52192Z" fill="#FF9811"/>
</svg>
