<svg id="default" viewBox="0 0 24 24" fill="none" xmlns="http://www.w3.org/2000/svg">
<path d="M11.9991 21.9981C17.5214 21.9981 21.9981 17.5214 21.9981 11.9991C21.9981 6.47674 17.5214 2 11.9991 2C6.47674 2 2 6.47674 2 11.9991C2 17.5214 6.47674 21.9981 11.9991 21.9981Z" fill="#F0F0F0"/>
<path d="M21.0373 7.72432C20.5293 6.65122 19.8359 5.68322 18.9985 4.86123L11.9953 4.17188L4.99202 4.86126C4.96968 4.88318 4.94789 4.9056 4.92578 4.92774L7.72239 7.72436L11.9953 7.85486L21.0373 7.72432Z" fill="#FFDA44"/>
<path d="M4.92578 19.069C4.96257 19.1058 4.99929 19.1427 5.03663 19.1789L11.9954 19.8248L18.9541 19.1789C19.8001 18.3587 20.5019 17.3906 21.0171 16.3158L8.08267 15.9121C6.96977 17.0251 5.68614 18.3086 4.92578 19.069Z" fill="#FFDA44"/>
<path d="M21.9003 10.5889L10.2617 10.2598L12.0007 11.9987C11.4856 12.5138 10.7167 13.2827 10.2617 13.7377L21.8942 13.452C21.9634 12.9775 21.9998 12.4924 21.9998 11.9987C21.9998 11.5201 21.9654 11.0496 21.9003 10.5889Z" fill="black"/>
<path d="M11.9993 2C9.27194 2 6.80006 3.09248 4.99609 4.86309H19.0026C17.1986 3.09248 14.7267 2 11.9993 2Z" fill="#6DA544"/>
<path d="M10.5896 10.5896H21.8991C21.7564 9.57884 21.4628 8.61667 21.0415 7.72656H7.72656L10.5896 10.5896Z" fill="#D80027"/>
<path d="M7.68359 16.3162H21.0217C21.448 15.4268 21.7463 14.4645 21.8935 13.4531H10.5467C9.43792 14.5619 8.49824 15.5016 7.68359 16.3162Z" fill="#D80027"/>
<path d="M11.9977 21.9974C14.7028 21.9974 17.1564 20.9228 18.9564 19.1777H5.03906C6.83905 20.9228 9.29273 21.9974 11.9977 21.9974Z" fill="#6DA544"/>
<path d="M5.56771 4.33984C5.34543 4.52662 5.13096 4.72242 4.92578 4.92752L11.9962 11.9979L4.92578 19.0684C5.13092 19.2735 5.34543 19.4693 5.56771 19.656L13.2258 11.9979L5.56771 4.33984Z" fill="black"/>
<path d="M6.01998 9.39062L6.66738 11.3832H8.76269L7.06761 12.6148L7.71505 14.6075L6.01998 13.376L4.32486 14.6075L4.97238 12.6148L3.27734 11.3832H5.37254L6.01998 9.39062Z" fill="#D80027"/>
<path d="M7.8038 12.1629L6.11654 11.5651C6.11654 11.5651 5.99186 10.3956 5.98432 10.356C5.92706 10.0543 5.66197 9.82617 5.34364 9.82617C4.98352 9.82617 4.69152 10.1181 4.69152 10.4783C4.69152 10.538 4.70023 10.5956 4.71527 10.6505L4.24219 11.1268H5.08336C5.08336 11.9999 4.43186 11.9999 4.43186 12.8694L4.79327 13.7389H6.96696L7.32927 12.8694H7.32912C7.3654 12.7859 7.38743 12.6999 7.39653 12.6139C7.70885 12.4876 7.8038 12.1629 7.8038 12.1629Z" fill="#FFDA44"/>
</svg>
