<svg id="default" viewBox="0 0 24 24" fill="none" xmlns="http://www.w3.org/2000/svg">
<path d="M7.65086 21.0087C8.96561 21.6444 10.4406 22.001 11.9989 22.001C13.5572 22.001 15.0322 21.6444 16.3469 21.0087L17.2165 12.0005L16.3469 2.99231C15.0322 2.35658 13.5572 2 11.9989 2C10.4406 2 8.96561 2.35658 7.65086 2.99231L6.78125 12.0005L7.65086 21.0087Z" fill="#FFDA44"/>
<path d="M16.3477 21.0098C19.6928 19.3923 22.0001 15.9667 22.0001 12.002C22.0001 8.0372 19.6928 4.61164 16.3477 2.99414V21.0098Z" fill="#D80027"/>
<path d="M7.65246 21.0098V2.99414C4.30734 4.61164 2 8.03716 2 12.002C2 15.9668 4.30734 19.3923 7.65246 21.0098Z" fill="#0052B4"/>
<path d="M12 15.4803C12 13.8845 12 12.002 12 12.002H14.6088V13.3063C14.6088 13.533 14.1741 14.3633 13.1008 15.0456C12.6944 15.304 12.2736 15.3871 12 15.4803Z" fill="#D80027"/>
<path d="M9.39062 9.39258H11.9995V12.0014H9.39062V9.39258Z" fill="#D80027"/>
<path d="M13.3062 8.52C13.3062 8.03971 12.9169 7.65039 12.4366 7.65039C12.278 7.65039 12.1298 7.69352 12.0018 7.76766C11.8738 7.69352 11.7257 7.65039 11.5671 7.65039C11.0868 7.65039 10.6974 8.03971 10.6974 8.52H8.52344V12.868C8.52344 14.4866 9.80889 15.4227 10.8169 15.908C10.7415 16.0368 10.6974 16.1863 10.6974 16.3465C10.6974 16.8268 11.0868 17.2161 11.5671 17.2161C11.7257 17.2161 11.8739 17.1729 12.0018 17.0988C12.1299 17.1729 12.278 17.2161 12.4366 17.2161C12.9169 17.2161 13.3062 16.8268 13.3062 16.3465C13.3062 16.1863 13.2622 16.0368 13.1867 15.908C14.1948 15.4227 15.4802 14.4867 15.4802 12.868V8.52H13.3062ZM14.1758 12.868C14.1758 13.0946 14.1758 13.7841 13.1027 14.4664C12.6962 14.7249 12.2754 14.8924 12.0018 14.9856C11.7282 14.8924 11.3075 14.7249 10.901 14.4664C9.82783 13.7841 9.82783 13.0946 9.82783 12.868V9.8244H14.1758V12.868Z" fill="#FF9811"/>
</svg>
