<svg id="default" viewBox="0 0 24 24" fill="none" xmlns="http://www.w3.org/2000/svg">
<path d="M16.3469 2.99231C15.0322 2.35658 13.5572 2 11.9989 2C10.4406 2 8.96561 2.35658 7.65086 2.99231L6.78125 12.0005L7.65086 21.0087C8.96561 21.6444 10.4406 22.001 11.9989 22.001C13.5572 22.001 15.0322 21.6444 16.3469 21.0087L17.2165 12.0005L16.3469 2.99231Z" fill="#D80027"/>
<path d="M7.65246 2.99414C4.30738 4.61168 2 8.0372 2 12.002C2 15.9667 4.30738 19.3922 7.65246 21.0098V2.99414Z" fill="black"/>
<path d="M16.3477 2.99414V21.0098C19.6927 19.3922 22.0001 15.9667 22.0001 12.002C22.0001 8.0372 19.6927 4.61168 16.3477 2.99414Z" fill="#496E2D"/>
<path d="M11.9979 8.52344C10.0768 8.52344 8.51953 10.0808 8.51953 12.0018C8.51953 13.9229 10.0769 15.4802 11.9979 15.4802C13.919 15.4802 15.4763 13.9229 15.4763 12.0018C15.4763 10.0808 13.919 8.52344 11.9979 8.52344ZM11.9979 14.1758C10.7973 14.1758 9.82393 13.2025 9.82393 12.0018C9.82393 10.8012 10.7973 9.82783 11.9979 9.82783C13.1986 9.82783 14.1719 10.8012 14.1719 12.0018C14.1719 13.2025 13.1986 14.1758 11.9979 14.1758Z" fill="#FFDA44"/>
<path d="M12.0024 10.6973C11.5221 10.6973 11.1328 11.0866 11.1328 11.5669V12.8713H12.8721V11.5669C12.8721 11.0866 12.4827 10.6973 12.0024 10.6973Z" fill="#FFDA44"/>
</svg>
