<svg id="default" viewBox="0 0 24 24" fill="none" xmlns="http://www.w3.org/2000/svg">
<path d="M12 22C17.5228 22 22 17.5228 22 12C22 6.47715 17.5228 2 12 2C6.47715 2 2 6.47715 2 12C2 17.5228 6.47715 22 12 22Z" fill="#D80027"/>
<path d="M17.652 9.4216H14.0299C14.2535 9.18746 14.3911 8.87047 14.3911 8.52113C14.3911 7.80078 13.8071 7.2168 13.0867 7.2168C12.6329 7.2168 12.2334 7.44867 11.9998 7.80027C11.7662 7.44867 11.3666 7.2168 10.9128 7.2168C10.1925 7.2168 9.60851 7.80078 9.60851 8.52113C9.60851 8.87047 9.74612 9.1875 9.96972 9.4216H6.34766C6.34766 10.3821 7.18426 11.1607 8.14468 11.1607H8.08671C8.08671 12.1212 8.86534 12.8999 9.82589 12.8999C9.82589 13.211 9.90788 13.5026 10.051 13.7551L8.60843 15.1977L9.71522 16.3045L11.2852 14.7345C11.3467 14.757 11.4103 14.7751 11.476 14.7874L10.5273 16.9294L11.9998 18.5211L13.4722 16.9293L12.5235 14.7873C12.5893 14.775 12.6529 14.757 12.7144 14.7344L14.2844 16.3044L15.3911 15.1976L13.9485 13.755C14.0917 13.5025 14.1737 13.2109 14.1737 12.8998C15.1342 12.8998 15.9128 12.1212 15.9128 11.1606H15.8549C16.8153 11.1607 17.652 10.3821 17.652 9.4216Z" fill="black"/>
</svg>
