<svg id="default" viewBox="0 0 24 24" fill="none" xmlns="http://www.w3.org/2000/svg">
<path d="M12 22C17.5228 22 22 17.5228 22 12C22 6.47715 17.5228 2 12 2C6.47715 2 2 6.47715 2 12C2 17.5228 6.47715 22 12 22Z" fill="#F0F0F0"/>
<path d="M16.8514 3.25437C15.4145 2.45562 13.7605 2 12 2C6.47757 2 2.0007 6.47648 2 11.9988L8.95651 8.52176L16.8514 3.25437Z" fill="#0052B4"/>
<path d="M2 12C2.0007 17.5223 6.47757 21.9988 12 21.9988C13.7605 21.9988 15.4145 21.5433 16.8514 20.7444L8.95651 15.4771L2 12Z" fill="#0052B4"/>
<path d="M17.6847 3.77406C17.4161 3.58816 17.1378 3.41527 16.851 3.25586L2 12.0001V12.0013C2 12.0013 2 12.0021 2 12.0025L16.8511 20.7467C17.1379 20.5873 17.4161 20.4144 17.6848 20.2285L3.71179 12.0013L17.6847 3.77406Z" fill="#D80027"/>
<path d="M19.3923 11.6267H18.2012C18.5109 11.2548 18.4918 10.7015 18.1428 10.3527C18.5125 9.9831 18.5125 9.38384 18.1428 9.01419L18.1206 9.03653C18.4902 8.66696 18.5125 8.04535 18.1428 7.67578L12.7891 13.0296C13.1587 13.3992 13.7474 13.3948 14.117 13.0252L14.22 12.931L16.7837 12.698V13.8005H17.6532V12.6189L18.9576 12.5003L19.3923 11.6267Z" fill="#A2001D"/>
<path d="M12.8699 14.1743L12 13.7395L12.8699 13.3047H18.522V14.1743H12.8699Z" fill="#FFDA44"/>
</svg>
