<svg id="default" viewBox="0 0 24 24" fill="none" xmlns="http://www.w3.org/2000/svg">
<path d="M21.378 15.4803C21.78 14.397 22 13.2253 22 12.0021C22 10.7789 21.78 9.60722 21.378 8.52386L12 7.6543L2.62199 8.52386C2.22004 9.60722 2 10.7789 2 12.0021C2 13.2253 2.22004 14.397 2.62199 15.4803L12 16.3499L21.378 15.4803Z" fill="#F0F0F0"/>
<path d="M11.9992 22.0003C16.2988 22.0003 19.9642 19.2865 21.3771 15.4785H2.62109C4.03406 19.2865 7.69946 22.0003 11.9992 22.0003Z" fill="#D80027"/>
<path d="M11.9991 2C7.69945 2 4.03406 4.71375 2.62109 8.52176H21.3771C19.9642 4.71375 16.2987 2 11.9991 2Z" fill="#D80027"/>
</svg>
