<svg id="default" viewBox="0 0 24 24" fill="none" xmlns="http://www.w3.org/2000/svg">
<path d="M21.6555 14.6097C21.8797 13.7779 22 12.9036 22 12.001C22 11.0984 21.8797 10.2241 21.6555 9.39231L11.1304 2.03906C9.17648 2.20742 7.3834 2.9375 5.91305 4.06723L2.34449 9.39231C2.12031 10.2241 2 11.0984 2 12.001C2 12.8984 2.11887 13.7679 2.34055 14.5953L5.91301 19.9348C7.38336 21.0646 9.17645 21.7947 11.1304 21.963L21.6555 14.6097Z" fill="#FFDA44"/>
<path d="M2.34375 14.6094C2.92234 16.7562 4.19754 18.6169 5.9123 19.9344V14.6094H2.34375Z" fill="#0052B4"/>
<path d="M11.1328 21.9626C11.4195 21.9873 11.7093 22.0007 12.0024 22.0007C16.6227 22.0007 20.5104 18.867 21.6579 14.6094H11.1328V21.9626Z" fill="#0052B4"/>
<path d="M21.6579 9.3913C20.5104 5.13364 16.6227 2 12.0024 2C11.7093 2 11.4195 2.01336 11.1328 2.03805V9.3913H21.6579Z" fill="#0052B4"/>
<path d="M5.9123 4.06641C4.19754 5.38398 2.92234 7.24465 2.34375 9.39148H5.9123V4.06641Z" fill="#0052B4"/>
<path d="M21.9154 10.6943H9.82613H9.82609V2.23633C8.90195 2.44125 8.02582 2.7734 7.21738 3.21453V10.6943H2.08465C2.02898 11.1213 2 11.5566 2 11.9986C2 12.4407 2.02898 12.876 2.08465 13.303H7.21734H7.21738V20.7827C8.02582 21.2238 8.90195 21.556 9.82609 21.7609V13.3031V13.303H21.9154C21.9709 12.876 22 12.4407 22 11.9986C22 11.5566 21.9709 11.1213 21.9154 10.6943Z" fill="#D80027"/>
</svg>
