<svg id="default" viewBox="0 0 24 24" fill="none" xmlns="http://www.w3.org/2000/svg">
<path d="M22 11.999C22 10.7758 21.78 9.60402 21.378 8.52074L12 8.08594L2.62199 8.5207C2.22004 9.60402 2 10.7758 2 11.999C2 13.2222 2.22004 14.3939 2.62199 15.4772L12 15.912L21.378 15.4773C21.78 14.3939 22 13.2222 22 11.999Z" fill="#D80027"/>
<path d="M11.9991 22.0003C16.2987 22.0003 19.9641 19.2865 21.3771 15.4785H2.62109C4.03402 19.2865 7.69944 22.0003 11.9991 22.0003Z" fill="#6DA544"/>
<path d="M2.62109 8.52176H21.3771C19.9642 4.71375 16.2987 2 11.9991 2C7.69945 2 4.03402 4.71375 2.62109 8.52176Z" fill="#338AF3"/>
<path d="M12.2176 14.8278C10.6568 14.8278 9.39145 13.5625 9.39145 12.0017C9.39145 10.4409 10.6568 9.17562 12.2176 9.17562C12.7042 9.17562 13.1621 9.29867 13.5619 9.51531C12.9347 8.90199 12.077 8.52344 11.1306 8.52344C9.20957 8.52344 7.65234 10.0807 7.65234 12.0017C7.65234 13.9227 9.20961 15.4799 11.1306 15.4799C12.0771 15.4799 12.9347 15.1014 13.5619 14.488C13.1621 14.7048 12.7042 14.8278 12.2176 14.8278Z" fill="#F0F0F0"/>
<path d="M14.3901 10.0449L14.7645 11.0977L15.7736 10.6179L15.2939 11.6271L16.3467 12.0014L15.2939 12.3758L15.7736 13.385L14.7645 12.9052L14.3901 13.958L14.0158 12.9052L13.0066 13.385L13.4864 12.3758L12.4336 12.0014L13.4864 11.6271L13.0066 10.6179L14.0158 11.0977L14.3901 10.0449Z" fill="#F0F0F0"/>
</svg>
