<svg id="default" viewBox="0 0 24 24" fill="none" xmlns="http://www.w3.org/2000/svg">
<path d="M15.4785 2.622C14.3951 2.22004 13.2234 2 12.0002 2C10.777 2 9.60525 2.22004 8.52192 2.622L7.65234 12.0001L8.52192 21.3782C9.60525 21.7802 10.777 22.0002 12.0002 22.0002C13.2234 22.0002 14.3951 21.7802 15.4785 21.3782L16.3481 12.0001L15.4785 2.622Z" fill="#FFDA44"/>
<path d="M22.0023 11.9992C22.0023 7.6995 19.2885 4.034 15.4805 2.62109V21.3773C19.2885 19.9643 22.0023 16.2989 22.0023 11.9992Z" fill="#D80027"/>
<path d="M2 11.9992C2 16.2989 4.71378 19.9643 8.52183 21.3773V2.62109C4.71378 4.034 2 7.69951 2 11.9992Z" fill="black"/>
</svg>
