<svg id="default" viewBox="0 0 24 24" fill="none" xmlns="http://www.w3.org/2000/svg">
<path d="M22 12C22 17.5228 17.5228 22 12 22C6.47719 22 2 17.5228 2 12C2 12.0024 12 2.00109 12 2C17.5228 2 22 6.47719 22 12Z" fill="#D80027"/>
<path d="M12.0017 6.78125V10.154L8.52344 6.78125H12.0017Z" fill="#0052B4"/>
<path d="M7.21602 11.999H10.154L7.21602 8.08594L6.78125 11.1294L7.21602 11.999Z" fill="#0052B4"/>
<path d="M11.9727 11.9994H11.9994C11.9994 11.9904 11.9994 11.9817 11.9994 11.9727C11.9905 11.9816 11.9816 11.9905 11.9727 11.9994Z" fill="#F0F0F0"/>
<path d="M12 7.21738C12 5.45781 12 4.30488 12 2H11.9983C6.4762 2.00094 2 6.47769 2 12H7.21737V9.06207L10.1553 12H11.9733C11.9822 11.9911 11.9911 11.9822 12 11.9732C12 11.2995 12 10.6984 12 10.1554L9.06201 7.21738H12Z" fill="#F0F0F0"/>
<path d="M7.05953 3.30469C5.49551 4.19527 4.19523 5.49551 3.30469 7.05953V12.4351H5.9134V5.91348V5.9134H12.4351C12.4351 5.09062 12.4351 4.3068 12.4351 3.30469H7.05953Z" fill="#D80027"/>
<path d="M12.3989 11.1671L8.44844 7.2168H7.21875V7.21687L12.3988 12.3969H12.3989C12.3989 12.397 12.3989 11.549 12.3989 11.1671Z" fill="#D80027"/>
<path d="M13.3047 7.2168V11.9994C13.3047 14.3291 19.3917 14.3291 19.3917 11.9994V7.2168H13.3047Z" fill="#F3F3F3"/>
<path d="M13.3047 12V12C13.3047 14.3297 16.3482 15.0435 16.3482 15.0435C16.3482 15.0435 19.3917 14.3297 19.3917 12V12H13.3047Z" fill="#6DA544"/>
<path d="M16.3505 10.0859L14.9375 10.6946V11.999L16.3505 12.8685L17.7636 11.999V10.6946L16.3505 10.0859Z" fill="#A2001D"/>
<path d="M14.9375 9.39258H17.7636V10.6969H14.9375V9.39258Z" fill="#338AF3"/>
</svg>
