<svg id="default" viewBox="0 0 24 24" fill="none" xmlns="http://www.w3.org/2000/svg">
<path d="M11.999 21.999C17.5214 21.999 21.9981 17.5225 21.9981 12.0005C21.9981 6.47845 17.5214 2.00195 11.999 2.00195C6.47672 2.00195 2 6.47845 2 12.0005C2 17.5225 6.47672 21.999 11.999 21.999Z" fill="#F0F0F0"/>
<path d="M3.34187 7C2.89055 7.78158 2.55763 8.5987 2.33594 9.43103L19.0582 19.0852C19.6682 18.477 20.2095 17.7801 20.6607 16.9985L3.34187 7Z" fill="black"/>
<path d="M17.0017 3.341C13.0008 1.03123 8.06768 1.80105 4.94531 4.91408L21.6675 14.5681C22.8025 10.3078 21.0026 5.65082 17.0017 3.341Z" fill="#FFDA44"/>
<path d="M7.00051 20.6608C11.0013 22.9706 15.9346 22.2008 19.0569 19.0878L2.33466 9.43359C1.19977 13.694 2.99959 18.3511 7.00051 20.6608Z" fill="#FFDA44"/>
<path d="M14.8233 10.9125C14.8233 12.4731 13.5581 13.7382 11.9975 13.7382C10.4368 13.7382 9.17165 12.4731 9.17165 10.9125C9.17165 10.426 9.29467 9.96809 9.51132 9.56836C8.89811 10.1954 8.51953 11.053 8.51953 11.9993C8.51953 13.92 10.0766 15.4771 11.9975 15.4771C13.9183 15.4771 15.4754 13.9201 15.4754 11.9993C15.4754 11.053 15.0969 10.1954 14.4836 9.56836C14.7003 9.96817 14.8233 10.426 14.8233 10.9125Z" fill="#D80027"/>
<path d="M11.3438 7.65234H12.648V14.1731H11.3438V7.65234Z" fill="#D80027"/>
<path d="M14.1716 8.95703H9.82422C9.82422 9.25716 10.0857 9.50044 10.3858 9.50044H10.3677C10.3677 9.80057 10.611 10.0439 10.9111 10.0439C10.9111 10.344 11.1544 10.5873 11.4545 10.5873H12.5414C12.8415 10.5873 13.0848 10.344 13.0848 10.0439C13.385 10.0439 13.6282 9.80057 13.6282 9.50044H13.6102C13.9102 9.5004 14.1716 9.25719 14.1716 8.95703Z" fill="#D80027"/>
<path d="M8.95703 14.6074H15.0434V15.9116H8.95703V14.6074Z" fill="#D80027"/>
<path d="M13.3008 15.043H15.9092V16.3471H13.3008V15.043Z" fill="#D80027"/>
<path d="M8.08594 15.043H10.6943V16.3471H8.08594V15.043Z" fill="#D80027"/>
</svg>
