<svg id="default" viewBox="0 0 24 24" fill="none" xmlns="http://www.w3.org/2000/svg">
<path d="M4.9284 19.068C1.02387 15.1635 1.02387 8.83298 4.9284 4.92841C8.83294 1.02384 15.1635 1.02388 19.0681 4.92841C19.0681 4.92978 21.7226 13.9134 17.818 17.818C13.9135 21.7226 4.93114 19.0707 4.9284 19.068Z" fill="#FFDA44"/>
<path d="M4.92969 19.0673C8.83422 22.9719 15.1648 22.9719 19.0693 19.0673C22.9739 15.1628 22.9738 8.8323 19.0693 4.92773L4.92969 19.0673Z" fill="#FF9811"/>
<path d="M17.6518 7.65094V5.91211H14.3189L14.0643 6.16671C13.1586 7.07237 13.311 8.1289 13.4222 8.90032C13.5253 9.61594 13.5377 9.89007 13.2716 10.1562C13.0055 10.4223 12.7313 10.41 12.0157 10.3068C11.2443 10.1956 10.1878 10.0432 9.28217 10.9488C8.37655 11.8544 8.52898 12.9109 8.64029 13.6823C8.74351 14.3978 8.75593 14.6719 8.48989 14.938C8.2238 15.204 7.94959 15.1916 7.23421 15.0884C6.95528 15.0481 6.66686 15.0065 6.35894 15.0031L6.33984 16.7418C6.53254 16.744 6.75278 16.7757 6.98594 16.8094C7.26198 16.8493 7.57443 16.8943 7.90351 16.8943C8.24454 16.8943 8.6033 16.8457 8.95761 16.6927V18.0839H11.5659V16.7798H10.2618V15.9104H11.1312V14.6063H10.4363C10.4693 14.1844 10.4113 13.7804 10.3613 13.4341C10.2581 12.7185 10.2457 12.4444 10.5117 12.1784C10.7778 11.9123 11.0519 11.9247 11.7676 12.0279C12.3297 12.1089 13.0432 12.2113 13.7394 11.9107V13.3022H16.3476V11.9981H15.0435V11.1286H15.913V9.82453H15.2181C15.2511 9.40262 15.1932 8.99867 15.1432 8.6522C15.0712 8.15226 15.0434 7.86777 15.124 7.65098H17.6518V7.65094Z" fill="#F0F0F0"/>
</svg>
