<svg id="default" viewBox="0 0 24 24" fill="none" xmlns="http://www.w3.org/2000/svg">
<path d="M22 12.0003C22 8.56827 20.2707 5.54043 17.6362 3.73949L12 3.30469L6.36379 3.73945C3.7293 5.54043 2 8.56831 2 12.0003C2 15.4325 3.7293 18.4602 6.36379 20.2612L12 20.696L17.6362 20.2612C20.2707 18.4602 22 15.4325 22 12.0003Z" fill="#0052B4"/>
<path d="M17.6318 3.73914C16.0269 2.64203 14.0864 2 11.9956 2C9.90484 2 7.96426 2.64203 6.35938 3.73914H17.6318Z" fill="#A2001D"/>
<path d="M6.35938 20.2598C7.96422 21.3569 9.90484 21.9989 11.9956 21.9989C14.0864 21.9989 16.0269 21.3569 17.6318 20.2598H6.35938Z" fill="#A2001D"/>
<path d="M12.0014 16.782C14.6427 16.782 16.784 14.6408 16.784 11.9994C16.784 9.35805 14.6427 7.2168 12.0014 7.2168C9.36 7.2168 7.21875 9.35805 7.21875 11.9994C7.21875 14.6408 9.36 16.782 12.0014 16.782Z" fill="#F0F0F0"/>
<path d="M11.999 15.912C14.1601 15.912 15.912 14.1601 15.912 11.999C15.912 9.83787 14.1601 8.08594 11.999 8.08594C9.83787 8.08594 8.08594 9.83787 8.08594 11.999C8.08594 14.1601 9.83787 15.912 11.999 15.912Z" fill="#6DA544"/>
<path d="M11.9993 14.61C13.4401 14.61 14.608 13.442 14.608 12.0013C14.608 10.5605 13.4401 9.39258 11.9993 9.39258C10.5586 9.39258 9.39062 10.5605 9.39062 12.0013C9.39062 13.442 10.5586 14.61 11.9993 14.61Z" fill="#F0F0F0"/>
<path d="M12.0029 11.3457L10.5898 11.9979V13.0848L12.0029 13.9544L13.4159 13.0848V11.9979L12.0029 11.3457Z" fill="#0052B4"/>
<path d="M10.5898 10.6953H13.4159V11.9996H10.5898V10.6953Z" fill="#FFDA44"/>
</svg>
