<svg id="default" viewBox="0 0 24 24" fill="none" xmlns="http://www.w3.org/2000/svg">
<path d="M12 22C17.5228 22 22 17.5228 22 12C22 6.47715 17.5228 2 12 2C6.47715 2 2 6.47715 2 12C2 17.5228 6.47715 22 12 22Z" fill="#F0F0F0"/>
<path d="M20.782 7.21719C19.4898 4.84887 17.2678 3.06102 14.6066 2.34375L14.1719 7.21719H20.782Z" fill="#0052B4"/>
<path d="M3.21484 7.21719H9.825L9.39023 2.34375C6.72902 3.06102 4.50707 4.84891 3.21484 7.21719Z" fill="#0052B4"/>
<path d="M14.1719 12V16.7826H20.782C21.5572 15.3619 21.998 13.7324 21.998 12H14.1719Z" fill="#6DA544"/>
<path d="M9.82609 12H2C2 13.7324 2.44074 15.3619 3.2159 16.7826H9.82605V12H9.82609Z" fill="#6DA544"/>
<path d="M3.21484 16.7812C4.50707 19.1496 6.72902 20.9374 9.39023 21.6547L9.825 17.3926L3.21484 16.7812Z" fill="#FFDA44"/>
<path d="M14.6066 21.6547C17.2678 20.9374 19.4898 19.1496 20.782 16.7812L14.1719 17.3925L14.6066 21.6547Z" fill="#FFDA44"/>
<path d="M14.1719 17.3925L20.7821 16.7812H14.1719V17.3925Z" fill="#FFDA44"/>
<path d="M9.82504 16.7812H3.21484L9.82504 17.3925V16.7812Z" fill="#FFDA44"/>
<path d="M11.9993 2C11.0967 2 10.2224 2.12031 9.39062 2.34449V21.6555C10.2224 21.8797 11.0967 22 11.9993 22C12.9019 22 13.7762 21.8797 14.608 21.6555V2.34449C13.7762 2.12031 12.9019 2 11.9993 2V2Z" fill="#D80027"/>
<path d="M7.38109 4.17188L7.65085 5.00223H8.52401L7.81769 5.51543L8.08749 6.34578L7.38109 5.83262L6.67472 6.34578L6.94461 5.51543L6.23828 5.00223H7.11136L7.38109 4.17188Z" fill="#FFDA44"/>
</svg>
