<svg id="default" viewBox="0 0 24 24" fill="none" xmlns="http://www.w3.org/2000/svg">
<path d="M22 12C22 17.5228 17.5228 22 12 22C6.47719 22 2 17.5228 2 12C2 12.0024 12 2.00109 12 2C17.5228 2 22 6.47719 22 12Z" fill="#0052B4"/>
<path d="M11.9727 11.9994H11.9994C11.9994 11.9904 11.9994 11.9817 11.9994 11.9727C11.9905 11.9816 11.9816 11.9905 11.9727 11.9994Z" fill="#F0F0F0"/>
<path d="M12 7.21738C12 5.45781 12 4.30488 12 2H11.9983C6.4762 2.00094 2 6.47769 2 12H7.21737V9.06207L10.1553 12H11.9733C11.9822 11.9911 11.9911 11.9822 12 11.9732C12 11.2995 12 10.6984 12 10.1554L9.06201 7.21738H12Z" fill="#F0F0F0"/>
<path d="M7.05952 3.30469C5.4955 4.19527 4.19523 5.4955 3.30469 7.05952V12.0003H5.91339V5.91347V5.91339H12.0003C12.0003 5.09062 12.0003 4.3068 12.0003 3.30469H7.05952Z" fill="#D80027"/>
<path d="M12.0014 10.7697L8.44844 7.2168H7.21875V7.21687L12.0013 11.9994H12.0014C12.0014 11.9994 12.0014 11.1515 12.0014 10.7697Z" fill="#D80027"/>
<path d="M15.4829 11.998L15.6679 12.5674H16.2666L15.7823 12.9193L15.9673 13.4887L15.4829 13.1368L14.9985 13.4887L15.1835 12.9193L14.6992 12.5674H15.2979L15.4829 11.998Z" fill="#F0F0F0"/>
<path d="M13.0227 13.0168L13.5561 13.2886L13.9794 12.8652L13.8857 13.4566L14.4192 13.7284L13.8278 13.822L13.7342 14.4134L13.4624 13.8799L12.8711 13.9736L13.2945 13.5502L13.0227 13.0168Z" fill="#F0F0F0"/>
<path d="M12.0039 15.475L12.5733 15.29L12.5734 14.6914L12.9252 15.1757L13.4946 14.9906L13.1427 15.475L13.4946 15.9594L12.9252 15.7744L12.5734 16.2587V15.6601L12.0039 15.475Z" fill="#F0F0F0"/>
<path d="M13.0227 17.9356L13.2944 17.4021L12.8711 16.9789L13.4624 17.0725L13.7342 16.5391L13.8278 17.1304L14.4192 17.224L13.8857 17.4958L13.9794 18.0872L13.5561 17.6637L13.0227 17.9356Z" fill="#F0F0F0"/>
<path d="M15.4829 18.9536L15.2979 18.3841H14.6992L15.1836 18.0323L14.9986 17.4629L15.4829 17.8148L15.9673 17.4629L15.7823 18.0323L16.2666 18.3841H15.668L15.4829 18.9536Z" fill="#F0F0F0"/>
<path d="M17.9395 17.9356L17.4061 17.6639L16.9828 18.0872L17.0764 17.4958L16.543 17.2241L17.1343 17.1304L17.228 16.5391L17.4997 17.0725L18.0911 16.9789L17.6677 17.4022L17.9395 17.9356Z" fill="#F0F0F0"/>
<path d="M18.9594 15.475L18.39 15.6601V16.2587L18.0381 15.7744L17.4688 15.9594L17.8207 15.475L17.4688 14.9906L18.0381 15.1757L18.39 14.6914V15.29L18.9594 15.475Z" fill="#F0F0F0"/>
<path d="M17.9395 13.0168L17.6678 13.5502L18.0911 13.9735L17.4997 13.8798L17.228 14.4133L17.1343 13.8219L16.543 13.7283L17.0764 13.4565L16.9828 12.8652L17.4061 13.2885L17.9395 13.0168Z" fill="#F0F0F0"/>
</svg>
