<svg id="default" viewBox="0 0 24 24" fill="none" xmlns="http://www.w3.org/2000/svg">
<path d="M12 22C17.5228 22 22 17.5228 22 12C22 6.47715 17.5228 2 12 2C6.47715 2 2 6.47715 2 12C2 17.5228 6.47715 22 12 22Z" fill="#F0F0F0"/>
<path d="M22 11.9975C22 17.5203 17.5228 21.9975 12 21.9975C6.47719 21.9975 2 17.5203 2 11.9975C2 6.47475 12 11.9975 12 11.9975C12 11.9975 19.5688 11.9975 22 11.9975Z" fill="#D80027"/>
<path d="M2 12C2 6.47719 6.47719 2 12 2V12C12 12 5.47824 12 2 12Z" fill="#0052B4"/>
<path d="M7.9539 5.47852L8.60144 7.47141H10.6969L9.00163 8.70306L9.64913 10.696L7.9539 9.46427L6.25867 10.696L6.90617 8.70306L5.21094 7.47141H7.30636L7.9539 5.47852Z" fill="#F0F0F0"/>
</svg>
