<svg id="default" viewBox="0 0 24 24" fill="none" xmlns="http://www.w3.org/2000/svg">
<path d="M12 22C17.5228 22 22 17.5228 22 12C22 6.47715 17.5228 2 12 2C6.47715 2 2 6.47715 2 12C2 17.5228 6.47715 22 12 22Z" fill="#D80027"/>
<path d="M7.46874 8.08594L8.33202 10.7422H11.125L8.86718 12.3867L9.73046 15.043L7.46874 13.4023L5.20703 15.043L6.07421 12.3867L3.8125 10.7422H6.60546L7.46874 8.08594Z" fill="#FFDA44"/>
<path d="M13.8555 17.4863L13.1953 16.6738L12.2188 17.0527L12.7852 16.1738L12.125 15.3574L13.1367 15.6269L13.707 14.748L13.7617 15.7949L14.7773 16.0644L13.7969 16.4394L13.8555 17.4863Z" fill="#FFDA44"/>
<path d="M15.1641 15.1036L15.4766 14.1035L14.6211 13.4981L15.668 13.4824L15.9766 12.4824L16.3164 13.4746L17.3633 13.4629L16.5234 14.0879L16.8594 15.0801L16.0039 14.4746L15.1641 15.1036Z" fill="#FFDA44"/>
<path d="M16.9336 9.33984L16.4727 10.2812L17.2227 11.0117L16.1875 10.8633L15.7266 11.8008L15.5469 10.7695L14.5078 10.6211L15.4375 10.1328L15.2578 9.09766L16.0078 9.82812L16.9336 9.33984Z" fill="#FFDA44"/>
<path d="M13.8789 6.48828L13.8008 7.53125L14.7734 7.92578L13.7539 8.17578L13.6797 9.22266L13.1289 8.33203L12.1094 8.58203L12.7852 7.78125L12.2305 6.89453L13.2031 7.28906L13.8789 6.48828Z" fill="#FFDA44"/>
</svg>
