<svg id="default" viewBox="0 0 24 24" fill="none" xmlns="http://www.w3.org/2000/svg">
<path d="M12 22C17.5228 22 22 17.5228 22 12C22 6.47715 17.5228 2 12 2C6.47715 2 2 6.47715 2 12C2 17.5228 6.47715 22 12 22Z" fill="#F0F0F0"/>
<path d="M21.378 8.52344H2.62199C2.22004 9.60676 2 10.7785 2 12.0017C2 13.2249 2.22004 14.3966 2.62199 15.4799H21.378C21.78 14.3966 22 13.2249 22 12.0017C22 10.7785 21.78 9.60676 21.378 8.52344Z" fill="#D80027"/>
<path d="M11.9985 2C8.96758 2 6.25184 3.34859 4.41797 5.47824H19.5789C17.7451 3.34859 15.0294 2 11.9985 2Z" fill="#0052B4"/>
<path d="M19.579 18.5215H4.41797C6.25184 20.6511 8.96758 21.9997 11.9985 21.9997C15.0294 21.9997 17.7451 20.6511 19.579 18.5215Z" fill="#0052B4"/>
</svg>
