<svg id="default" viewBox="0 0 24 24" fill="none" xmlns="http://www.w3.org/2000/svg">
<path d="M12 22C17.5228 22 22 17.5228 22 12C22 6.47715 17.5228 2 12 2C6.47715 2 2 6.47715 2 12C2 17.5228 6.47715 22 12 22Z" fill="#FFDA44"/>
<path d="M12.0011 22.0019C15.2824 22.0019 18.1945 20.4215 20.0179 17.9805H3.98438C5.80781 20.4215 8.71988 22.0019 12.0011 22.0019Z" fill="#0052B4"/>
<path d="M22 12C22 6.47719 17.5228 2 12 2C6.47719 2 2 6.47719 2 12C2 13.1825 2.20582 14.3169 2.58266 15.3699H21.4173C21.7942 14.3169 22 13.1825 22 12Z" fill="#0052B4"/>
<path d="M8.84433 8.41406L9.3839 10.0747H11.1301L9.71745 11.1012L10.257 12.7618L8.84433 11.7354L7.43164 12.7618L7.97128 11.1012L6.55859 10.0747H8.30476L8.84433 8.41406Z" fill="#F0F0F0"/>
<path d="M5.84407 6.67383L6.16782 7.67023H7.21559L6.36797 8.28609L6.69172 9.28254L5.84407 8.66668L4.99645 9.28254L5.32024 8.28609L4.47266 7.67023H5.52039L5.84407 6.67383Z" fill="#F0F0F0"/>
</svg>
