<svg id="default" viewBox="0 0 24 24" fill="none" xmlns="http://www.w3.org/2000/svg">
<path d="M19.0711 19.0719C15.1659 22.9771 8.83421 22.9771 4.92894 19.0719C1.02367 15.1666 1.02371 8.83496 4.92894 4.92969C5.23636 5.23707 12.9223 11.0784 12.9223 11.0784L19.0711 19.0719Z" fill="#0052B4"/>
<path d="M4.92969 4.92893C8.83493 1.02369 15.1666 1.02369 19.0719 4.92893C22.9772 8.83416 22.9771 15.1658 19.0719 19.0711" fill="#6DA544"/>
<path d="M11.9993 14.608C13.4401 14.608 14.608 13.4401 14.608 11.9993C14.608 10.5586 13.4401 9.39062 11.9993 9.39062C10.5586 9.39062 9.39062 10.5586 9.39062 11.9993C9.39062 13.4401 10.5586 14.608 11.9993 14.608Z" fill="#FFDA44"/>
<path d="M5.7282 16.3477L6.00261 16.9214L6.62226 16.7782L6.34476 17.3505L6.84312 17.7457L6.22265 17.8855L6.22437 18.5215L5.7282 18.1236L5.23203 18.5215L5.23375 17.8855L4.61328 17.7457L5.11164 17.3505L4.8341 16.7782L5.45379 16.9214L5.7282 16.3477Z" fill="#F0F0F0"/>
<path d="M3.93129 11.5664L4.2057 12.1402L4.82535 11.9969L4.54789 12.5693L5.04617 12.9644L4.42574 13.1043L4.42746 13.7403L3.93129 13.3424L3.43516 13.7403L3.43684 13.1043L2.81641 12.9644L3.31473 12.5693L3.03723 11.9969L3.65687 12.1402L3.93129 11.5664Z" fill="#F0F0F0"/>
<path d="M5.72816 7.65234L6.00257 8.22613L6.62222 8.08285L6.34476 8.6552L6.84308 9.05039L6.22261 9.1902L6.22433 9.82625L5.72816 9.42836L5.23199 9.82625L5.23371 9.1902L4.61328 9.05039L5.11156 8.6552L4.83406 8.08285L5.45375 8.22613L5.72816 7.65234Z" fill="#F0F0F0"/>
<path d="M7.95473 10.6973L8.22914 11.2711L8.84883 11.1278L8.57129 11.7002L9.06961 12.0953L8.44918 12.2352L8.45086 12.8712L7.95473 12.4733L7.45855 12.8712L7.46027 12.2352L6.83984 12.0953L7.33813 11.7002L7.06066 11.1278L7.68031 11.2711L7.95473 10.6973Z" fill="#F0F0F0"/>
<path d="M6.36351 13.3066L6.57937 13.9709H7.27781L6.71273 14.3815L6.92859 15.0457L6.36351 14.6352L5.79844 15.0457L6.0143 14.3815L5.44922 13.9709H6.14765L6.36351 13.3066Z" fill="#F0F0F0"/>
<path d="M12.0008 13.7388H12.8703C12.8703 13.7388 13.2471 13.0722 12.8703 12.4345L13.7399 11.5649L13.3051 10.6953H12.8704C12.8704 10.6953 12.653 11.3475 11.7834 11.3475C10.9139 11.3475 10.6965 10.6953 10.6965 10.6953H10.2617L10.6965 11.5649L10.2617 12.4345L10.6965 12.8692C10.6965 12.8692 11.1312 11.9997 12.0008 12.4345C12.0008 12.4345 12.3703 12.9779 12.0008 13.7388Z" fill="#6DA544"/>
<path d="M18.491 7.4766C18.5115 7.36976 18.5224 7.25957 18.5224 7.14675C18.5224 6.37332 18.0174 5.7182 17.3193 5.49219C17.5326 5.92578 17.6528 6.41344 17.6528 6.92937C17.6528 7.10336 17.6389 7.27406 17.6126 7.44066C17.5075 7.2714 17.3725 7.11675 17.2076 6.98554C16.5865 6.49133 15.7377 6.47824 15.1102 6.89445C15.5947 7.00023 16.0631 7.21527 16.4775 7.54492C16.8018 7.80304 17.0639 8.15218 17.2646 8.48921L14.6094 9.32066C17.2181 9.75542 19.392 8.01632 19.392 8.01632C19.1511 7.5346 18.777 7.45336 18.491 7.4766Z" fill="#FFDA44"/>
</svg>
