<svg id="default" viewBox="0 0 24 24" fill="none" xmlns="http://www.w3.org/2000/svg">
<path d="M12 22C17.5228 22 22 17.5228 22 12C22 6.47715 17.5228 2 12 2C6.47715 2 2 6.47715 2 12C2 17.5228 6.47715 22 12 22Z" fill="#FCFCFC"/>
<path d="M17.652 10.6953C17.3476 10.6953 16.9708 10.6953 16.3476 10.6953C16.3476 13.0966 14.401 15.0431 11.9998 15.0431C9.59852 15.0431 7.65199 13.0966 7.65199 10.6953C7.23168 10.6953 6.76789 10.6953 6.34766 10.6953C6.34766 13.2818 8.085 15.4626 10.4565 16.1342C10.1965 16.6281 10.2361 17.2499 10.6075 17.7134C11.0953 17.3224 11.6004 16.9177 12.0288 16.5744C12.4572 16.9177 12.9623 17.3225 13.4501 17.7134C13.8252 17.2453 13.8621 16.6156 13.5934 16.1193C15.9389 15.4312 17.652 13.2634 17.652 10.6953Z" fill="#6DA544"/>
<path d="M8.52344 10.2603C8.52344 10.2603 8.52344 12.4342 10.6973 12.4342L11.1321 12.869H12.0017C12.0017 12.869 12.4364 11.5646 13.306 11.5646C13.306 11.5646 13.306 10.695 14.1756 10.695C15.0452 10.695 15.4799 10.695 15.4799 10.695C15.4799 10.695 15.0452 8.9559 17.2191 7.65156L16.3495 7.2168C16.3495 7.2168 13.306 9.39071 11.1321 8.95594V9.82552H10.2625L9.82777 9.39075L8.52344 10.2603Z" fill="#FFDA44"/>
</svg>
