<svg id="default" viewBox="0 0 24 24" fill="none" xmlns="http://www.w3.org/2000/svg">
<path d="M11.1312 12.8696C11.1312 12.8696 4.93555 4.92754 4.92969 4.92895C6.7393 3.1193 9.23935 2 12.0008 2C17.5236 2 22.0008 6.47719 22.0008 12L11.1312 12.8696Z" fill="#338AF3"/>
<path d="M11.1312 12C11.1312 12 4.93555 19.0725 4.92969 19.0711C6.7393 20.8807 9.23935 22 12.0008 22C17.5236 22 22.0008 17.5228 22.0008 12H11.1312Z" fill="#6DA544"/>
<path d="M4.92892 4.92969C1.02369 8.83493 1.02369 15.1666 4.92892 19.0719C6.54271 17.4581 8.09477 15.906 12 12.0008L4.92892 4.92969Z" fill="#F0F0F0"/>
<path d="M6.04762 9.39062L6.69508 11.3834H8.79063L7.0954 12.6152L7.74282 14.6081L6.04762 13.3764L4.35235 14.6081L4.99992 12.6152L3.30469 11.3834H5.40008L6.04762 9.39062Z" fill="#D80027"/>
</svg>
