<svg id="default" viewBox="0 0 24 24" fill="none" xmlns="http://www.w3.org/2000/svg">
<path d="M11.9993 21.9986C17.5218 21.9986 21.9986 17.5218 21.9986 11.9993C21.9986 6.47684 17.5218 2 11.9993 2C6.47684 2 2 6.47684 2 11.9993C2 17.5218 6.47684 21.9986 11.9993 21.9986Z" fill="#F0F0F0"/>
<path d="M13.957 21.808C17.91 21.0239 21.0239 17.91 21.8081 13.957H13.957V21.808Z" fill="#496E2D"/>
<path d="M2.19531 13.957C2.97944 17.91 6.09336 21.0239 10.0463 21.808V13.957H2.19531Z" fill="#496E2D"/>
<path d="M21.8081 10.0444C21.0239 6.09144 17.91 2.97752 13.957 2.19336V10.0444H21.8081Z" fill="#496E2D"/>
<path d="M10.0463 2.19336C6.09336 2.97752 2.97944 6.09144 2.19531 10.0444H10.0463V2.19336Z" fill="#496E2D"/>
<path d="M11.3511 13.957H10.0469V21.808C10.4725 21.8924 10.9079 21.9496 11.3511 21.9782V13.957Z" fill="#FFDA44"/>
<path d="M11.3511 10.0407V2.01953C10.9079 2.04804 10.4725 2.10527 10.0469 2.18968V10.0407H11.3511Z" fill="#FFDA44"/>
<path d="M12.6519 2.02176C12.4362 2.00781 12.219 2 11.9998 2C11.7806 2 11.5633 2.00781 11.3477 2.02176V10.043H12.6519V2.02176H12.6519Z" fill="black"/>
<path d="M11.3477 21.9782C11.5633 21.9921 11.7806 21.9999 11.9998 21.9999C12.219 21.9999 12.4362 21.9921 12.6519 21.9782V13.957H11.3477V21.9782H11.3477Z" fill="black"/>
<path d="M10.0407 11.3492V10.0449H2.18968C2.10523 10.4706 2.04804 10.906 2.01953 11.3492H10.0407Z" fill="#FFDA44"/>
<path d="M13.957 11.3492H21.9782C21.9497 10.906 21.8925 10.4706 21.808 10.0449H13.9571V11.3492H13.957Z" fill="#FFDA44"/>
<path d="M13.957 12.6539H21.9782C21.9921 12.4382 21.9999 12.2209 21.9999 12.0017C21.9999 11.7826 21.9921 11.5653 21.9782 11.3496H13.957V12.6539Z" fill="black"/>
<path d="M2.02176 11.3496C2.00785 11.5653 2 11.7826 2 12.0017C2 12.2209 2.00785 12.4382 2.02176 12.6539H10.043V11.3496H2.02176V11.3496Z" fill="black"/>
<path d="M12.001 16.7814C14.6422 16.7814 16.7833 14.6403 16.7833 11.9991C16.7833 9.3579 14.6422 7.2168 12.001 7.2168C9.35986 7.2168 7.21875 9.3579 7.21875 11.9991C7.21875 14.6403 9.35986 16.7814 12.001 16.7814Z" fill="#D80027"/>
<path d="M13.0966 12.5329C12.7409 11.8215 12.2785 11.1004 12.2785 11.1004C12.2785 11.1004 12.29 10.7721 12.29 10.5765C12.29 10.2819 12.0511 10.043 11.7565 10.043C11.4773 10.043 11.2486 10.2574 11.2252 10.5305C11.0057 10.5449 10.832 10.7269 10.832 10.9501C10.832 11.1123 10.9239 11.2529 11.0585 11.3231C11.1253 11.1667 11.2563 11.0446 11.4182 10.989C11.4446 11.0106 11.473 11.0299 11.5032 11.0462L11.5716 11.079C11.5716 11.079 11.3181 11.7934 11.3181 12.1772C11.3181 13.2562 12.0296 13.589 12.0296 13.589V13.6001L11.6738 13.9558H12.3852V13.2443L12.741 13.6C12.7441 13.5934 13.4147 13.1692 13.0966 12.5329Z" fill="#496E2D"/>
<path d="M12.0025 8.08594L12.1645 8.58446H12.6887L12.2646 8.89259L12.4266 9.39112L12.0025 9.08303L11.5784 9.39112L11.7405 8.89259L11.3164 8.58446H11.8406L12.0025 8.08594Z" fill="#496E2D"/>
<path d="M9.70353 8.83598L10.1276 9.1441L10.5517 8.83594L10.3897 9.33454L10.8138 9.64258L10.2896 9.64262L10.1276 10.1411L9.96558 9.64262L9.44141 9.64258L9.86547 9.33446L9.70353 8.83598Z" fill="#496E2D"/>
<path d="M8.28125 10.7895H8.80538L8.9674 10.291L9.12938 10.7895L9.65358 10.7895L9.22952 11.0977L9.39154 11.5962L8.9674 11.2881L8.54333 11.5962L8.70527 11.0976L8.28125 10.7895Z" fill="#496E2D"/>
<path d="M8.28125 13.207L8.70527 12.899L8.54329 12.4004L8.96739 12.7085L9.3915 12.4004L9.22952 12.8989L9.65362 13.207L9.12937 13.2071L8.96739 13.7056L8.80538 13.207H8.28125Z" fill="#496E2D"/>
<path d="M9.70357 15.1645L9.86551 14.6661L9.44141 14.3579H9.96562L10.1276 13.8594L10.2896 14.3579H10.8138L10.3897 14.6661L10.5517 15.1646L10.1276 14.8564L9.70357 15.1645Z" fill="#496E2D"/>
<path d="M12.0025 15.9126L11.8406 15.4142H11.3164L11.7405 15.106L11.5784 14.6075L12.0025 14.9155L12.4266 14.6074L12.2646 15.106L12.6887 15.4141L12.1645 15.4142L12.0025 15.9126Z" fill="#496E2D"/>
<path d="M14.3017 15.1645L13.8776 14.8564L13.4536 15.1646L13.6155 14.6661L13.1914 14.3579L13.7156 14.3579L13.8776 13.8594L14.0396 14.3579H14.5638L14.1397 14.6661L14.3017 15.1645Z" fill="#496E2D"/>
<path d="M15.724 13.207H15.1998L15.0378 13.7055L14.8758 13.207H14.3516L14.7757 12.8989L14.6137 12.4004L15.0378 12.7085L15.4618 12.4004L15.2999 12.8989L15.724 13.207Z" fill="#496E2D"/>
<path d="M15.724 10.7895L15.2999 11.0976L15.4619 11.5961L15.0378 11.288L14.6137 11.5962L14.7757 11.0976L14.3516 10.7895L14.8758 10.7895L15.0378 10.291L15.1998 10.7895H15.724Z" fill="#496E2D"/>
<path d="M14.3017 8.83398L14.1397 9.33247L14.5638 9.64059H14.0396L13.8776 10.1392L13.7156 9.64063L13.1914 9.64067L13.6155 9.33247L13.4535 8.83402L13.8776 9.14207L14.3017 8.83398Z" fill="#496E2D"/>
</svg>
