<svg id="default" viewBox="0 0 24 24" fill="none" xmlns="http://www.w3.org/2000/svg">
<path d="M2 12C2 6.47719 6.47719 2 12 2C17.5228 2 22 6.47719 22 12L12 12.8696L2 12Z" fill="#FFDA44"/>
<path d="M3.33984 16.9979C5.06894 19.9868 8.30035 21.9978 12.0017 21.9978C15.7031 21.9978 18.9345 19.9868 20.6636 16.9979L12.0017 16.3457L3.33984 16.9979Z" fill="#D80027"/>
<path d="M20.6619 17C21.5127 15.5291 22 13.8215 22 12H2C2 13.8215 2.48727 15.5291 3.33812 17H20.6619Z" fill="#0052B4"/>
<path d="M12.0017 15.4799C13.9227 15.4799 15.4799 13.9227 15.4799 12.0017C15.4799 10.0807 13.9227 8.52344 12.0017 8.52344C10.0807 8.52344 8.52344 10.0807 8.52344 12.0017C8.52344 13.9227 10.0807 15.4799 12.0017 15.4799Z" fill="#FFDA44"/>
<path d="M12.002 14.1756C10.8033 14.1756 9.82812 13.2004 9.82812 12.0017V10.6973C9.82812 9.49864 10.8034 8.52344 12.002 8.52344C13.2007 8.52344 14.176 9.49867 14.176 10.6973V12.0017C14.176 13.2004 13.2008 14.1756 12.002 14.1756Z" fill="#338AF3"/>
<path d="M15.48 6.78363H12.8713C12.8713 6.3034 12.482 5.91406 12.0017 5.91406C11.5215 5.91406 11.1321 6.3034 11.1321 6.78363H8.52344C8.52344 7.26391 8.94176 7.6532 9.42195 7.6532H9.39301C9.39301 8.13348 9.7823 8.52277 10.2626 8.52277C10.2626 9.00305 10.6519 9.39234 11.1321 9.39234H12.8713C13.3516 9.39234 13.7409 9.00305 13.7409 8.52277C14.2211 8.52277 14.6104 8.13348 14.6104 7.6532H14.5815C15.0617 7.6532 15.48 7.26387 15.48 6.78363Z" fill="black"/>
</svg>
