<svg id="default" viewBox="0 0 24 24" fill="none" xmlns="http://www.w3.org/2000/svg">
<path d="M12 22C17.5228 22 22 17.5228 22 12C22 6.47715 17.5228 2 12 2C6.47715 2 2 6.47715 2 12C2 17.5228 6.47715 22 12 22Z" fill="#F0F0F0"/>
<path d="M11.9991 2C7.69945 2 4.03402 4.71375 2.62109 8.52176H21.3771C19.9642 4.71375 16.2987 2 11.9991 2Z" fill="#D80027"/>
<path d="M11.9991 22.0003C16.2987 22.0003 19.9641 19.2865 21.3771 15.4785H2.62109C4.03402 19.2865 7.69944 22.0003 11.9991 22.0003Z" fill="black"/>
<path d="M15.48 10.9145H12.8713C12.8713 10.4343 12.482 10.0449 12.0017 10.0449C11.5215 10.0449 11.1321 10.4343 11.1321 10.9145H8.52344C8.52344 11.3948 8.94176 11.7841 9.42199 11.7841H9.39301C9.39301 12.2643 9.7823 12.6536 10.2626 12.6536C10.2626 13.1339 10.6519 13.5232 11.1321 13.5232H12.8713C13.3516 13.5232 13.7409 13.1339 13.7409 12.6536C14.2211 12.6536 14.6104 12.2643 14.6104 11.7841H14.5815C15.0617 11.7841 15.48 11.3948 15.48 10.9145Z" fill="#FF9811"/>
</svg>
