<svg id="default" viewBox="0 0 24 24" fill="none" xmlns="http://www.w3.org/2000/svg">
<path d="M12 22C17.5228 22 22 17.5228 22 12C22 6.47715 17.5228 2 12 2C6.47715 2 2 6.47715 2 12C2 17.5228 6.47715 22 12 22Z" fill="#F0F0F0"/>
<path d="M21.5664 12.001L21.9163 10.6967C21.8582 10.2521 21.771 9.81663 21.6567 9.39233H11.1316V2.03906C10.6878 2.07727 10.2525 2.1448 9.82723 2.2391L8.08809 3.30535L7.21852 3.21758C6.7609 3.46726 6.32492 3.75164 5.91418 4.06722V9.39229H2.34563C2.23129 9.81659 2.1441 10.2521 2.08598 10.6966L2.4359 12.001L2.08594 13.3053C2.14406 13.7499 2.23125 14.1854 2.34559 14.6097H5.91414V19.9347C6.32488 20.2504 6.7609 20.5347 7.21848 20.7844L8.52281 20.6966L9.82715 21.7629C10.2524 21.8571 10.6878 21.9247 11.1315 21.9629V14.6097H21.6566C21.7709 14.1854 21.8581 13.7499 21.9162 13.3054L21.5664 12.001Z" fill="#0052B4"/>
<path d="M21.9154 10.6943H9.82613H9.82609V2.23633C8.90195 2.44125 8.02582 2.7734 7.21738 3.21453V10.6943H2.08465C2.02906 11.1213 2 11.5566 2 11.9986C2 12.4407 2.02906 12.876 2.08465 13.303H7.21734H7.21738V20.7827C8.02582 21.2238 8.90195 21.556 9.82609 21.7609V13.3031V13.303H21.9154C21.9709 12.876 22 12.4407 22 11.9986C22 11.5566 21.9709 11.1213 21.9154 10.6943Z" fill="#D80027"/>
</svg>
