<svg id="default" viewBox="0 0 24 24" fill="none" xmlns="http://www.w3.org/2000/svg">
<path d="M11.9996 22C17.5223 22 21.9992 17.5228 21.9992 12C21.9992 6.47715 17.5223 2 11.9996 2C6.47698 2 2 6.47715 2 12C2 17.5228 6.47698 22 11.9996 22Z" fill="#F0F0F0"/>
<path d="M11.8499 2C11.1286 1.99985 10.4093 2.07751 9.70466 2.23164V4.36094L8.91406 4.9586L9.70388 6.63125V21.7348C11.1632 22.0767 12.6804 22.0882 14.1447 21.7684V6.55547L14.8615 5.14414L14.1455 4.34571V2.26524C13.3931 2.08851 12.6228 1.9995 11.8499 2Z" fill="#EC1B2E"/>
<path d="M21.757 9.80469H2.24218C1.91524 11.2685 1.91937 12.7868 2.25429 14.2488H21.7457C22.0806 12.7868 22.0848 11.2685 21.7578 9.80469H21.757Z" fill="#EC1B2E"/>
<path d="M11.9178 17.934L13.6072 15.0387H16.9449L15.2876 12.1125L16.9449 9.18672H13.6072L11.9178 6.29102L10.2284 9.18672H6.89062L8.54798 12.1125L6.89062 15.0387H10.2284L11.9178 17.934Z" fill="white"/>
<path d="M14.1637 11.365C13.8759 11.1029 13.1895 11.8494 12.9407 11.9713C13.0208 11.2479 12.9259 10.4268 12.8466 9.70568C12.8239 9.4963 12.4439 8.48419 12.2607 9.20958C12.2548 8.39279 11.6427 8.60724 11.6287 9.30646C11.5771 8.98536 11.3494 8.86388 11.1209 9.11115C10.9674 9.27911 11.0248 9.70177 11.0427 9.90568C10.9748 9.53497 10.7334 9.49982 10.5799 9.78536C10.4822 9.96661 10.5592 10.3322 10.5611 10.5248C10.5681 11.2756 10.39 12.1025 10.531 12.844C10.6049 13.2322 10.8068 13.4916 10.8627 13.8803C10.899 14.1303 10.7521 14.5205 10.9431 14.7111C11.0849 14.8529 11.6072 14.6799 11.7357 14.6764C12.1044 14.6666 12.3997 14.76 12.7591 14.6514C12.7103 14.2549 12.8454 13.89 12.8228 13.5022C13.0868 13.2361 14.3469 11.5315 14.1637 11.365Z" fill="#EC1B2E"/>
<path d="M14.8366 5.65377C14.8323 5.64478 14.8413 5.63228 14.8366 5.62408C15.1471 5.25103 14.976 5.20142 14.6159 4.91431C14.5639 5.11197 14.6018 5.24947 14.6006 5.45025C14.3878 5.19126 14.0358 5.72369 14.4366 5.80181C14.3839 6.37252 13.4433 5.92369 13.6655 5.62252C13.978 5.81549 14.1276 5.17798 13.6901 5.23619C13.9819 4.85064 13.1769 4.66392 13.328 5.17329C12.9312 4.96939 12.8499 5.62212 13.2214 5.54517C13.3191 5.96822 12.0593 6.04244 12.1195 5.40494C12.4581 5.61666 12.5593 4.89282 12.1261 5.05728C12.3722 4.51392 11.4789 4.5104 11.7238 5.05728C11.2871 4.89165 11.3961 5.61392 11.7304 5.40494C11.7918 6.04908 10.5324 5.96275 10.6285 5.54517C10.9801 5.61587 10.923 4.96704 10.5219 5.17329C10.6731 4.66548 9.868 4.85064 10.1594 5.23619C9.71254 5.17876 9.87816 5.8108 10.1844 5.62252C10.4086 5.92213 9.46606 6.37252 9.41333 5.80181C9.80394 5.7272 9.46176 5.18072 9.24966 5.45025C9.24966 5.24986 9.2856 5.11197 9.23404 4.91431C8.87389 5.20181 8.70281 5.25064 9.01334 5.62408C8.97662 5.6733 8.98951 5.78931 9.02428 5.83892C9.05553 5.88306 9.13443 5.94439 9.19537 5.92291C9.23052 6.02994 9.26841 6.33814 9.4063 6.3526C9.39419 6.53893 9.43169 6.90182 9.552 7.1108C9.27583 7.25416 9.52309 7.56354 9.68519 7.62643C9.81097 7.67487 10.3328 7.48698 10.4844 7.47018C10.9621 7.41757 11.4424 7.39318 11.923 7.39713C12.3527 7.39713 12.7882 7.41159 13.2175 7.45456C13.4155 7.47409 13.9663 7.67643 14.1374 7.62253C14.2936 7.57409 14.6061 7.2737 14.2936 7.11237C14.4135 6.90338 14.4499 6.54049 14.4393 6.35416C14.5772 6.33814 14.6151 6.03033 14.6503 5.92447C14.7932 5.97369 14.8917 5.76002 14.8366 5.65377Z" fill="#FFF100"/>
<path d="M11.7346 3.06377C11.7161 3.26701 11.6674 3.46635 11.59 3.65517H12.2545C12.1774 3.46627 12.1288 3.26696 12.1102 3.06377C12.2454 3.08295 12.3746 3.13224 12.4882 3.20801V2.54351C12.3744 2.61888 12.2453 2.66814 12.1102 2.68774C12.1295 2.55361 12.1784 2.42543 12.2533 2.3125H11.5888C11.6649 2.426 11.7143 2.55521 11.7334 2.69048C11.5983 2.67095 11.4692 2.62169 11.3555 2.54625V3.21074C11.4692 3.13385 11.5988 3.08361 11.7346 3.06377Z" fill="#FFF100"/>
<path d="M14.5031 4.86549C14.6318 4.94737 14.7533 5.04002 14.8664 5.14244C14.8394 5.119 14.8047 5.09674 14.7758 5.07369C15.0066 5.25884 15.4617 5.13931 15.1793 4.86783C13.9238 3.72136 12.061 3.2823 10.4642 3.85222C10.0603 3.99636 8.73808 4.45494 8.64746 4.93736C8.57793 5.30689 8.86035 5.24556 9.07713 5.0733C9.04862 5.09635 9.01464 5.11822 8.98769 5.14127C9.10339 5.04209 9.22468 4.94962 9.35095 4.86432C9.30174 4.89791 9.26228 4.93307 9.21619 4.96705C9.91382 4.45299 10.77 4.09245 11.638 4.01628C11.6419 4.1362 11.6645 4.20104 11.702 4.23229C11.1161 4.8151 12.7329 4.80494 12.1591 4.23229C12.1954 4.19987 12.2169 4.13542 12.2208 4.01745C12.2165 4.01706 13.3988 4.19167 14.5031 4.86549Z" fill="#FFF100"/>
<path d="M10.7097 6.35465C10.5768 6.27256 10.1011 6.37263 10.1808 6.59464C10.381 6.97379 11.1299 6.61497 10.7097 6.35465Z" fill="#EC1B2E"/>
<path d="M12.366 6.40158C12.3246 6.12485 11.3767 6.09788 11.467 6.49812C11.5338 6.80651 12.4238 6.77524 12.366 6.40158Z" fill="#EC1B2E"/>
<path d="M9.61036 6.59919C9.1296 6.42719 9.36138 7.29694 9.74912 6.64649C9.70261 6.63202 9.65609 6.61639 9.61036 6.59919Z" fill="#EC1B2E"/>
<path d="M13.3793 6.31137C12.9517 6.23593 12.9173 6.825 13.3891 6.77458C13.7061 6.74057 13.7639 6.37861 13.3793 6.31137Z" fill="#EC1B2E"/>
<path d="M14.501 6.75272C14.5589 6.45645 14.2626 6.52993 14.082 6.64914C14.1899 6.8305 14.4385 7.07439 14.501 6.75272Z" fill="#EC1B2E"/>
</svg>
