<svg id="default" viewBox="0 0 24 24" fill="none" xmlns="http://www.w3.org/2000/svg">
<path d="M12 22C17.5228 22 22 17.5228 22 12C22 6.47715 17.5228 2 12 2C6.47715 2 2 6.47715 2 12C2 17.5228 6.47715 22 12 22Z" fill="#F0F0F0"/>
<path d="M18.0864 4.06719C16.4002 2.77105 14.2895 2 11.9983 2C9.70715 2 7.59637 2.77109 5.91016 4.06719L11.9983 10.1553L18.0864 4.06719Z" fill="#0052B4"/>
<path d="M4.06715 5.91211C2.7711 7.59832 2 9.70907 2 12.0002C2 14.2914 2.7711 16.4022 4.06719 18.0885L10.1554 12.0002L4.06715 5.91211Z" fill="#0052B4"/>
<path d="M5.91016 19.9319C7.59641 21.228 9.70715 21.9991 11.9983 21.9991C14.2895 21.9991 16.4002 21.228 18.0865 19.9319L11.9983 13.8438L5.91016 19.9319Z" fill="#0052B4"/>
<path d="M19.9319 18.0884C21.228 16.4021 21.9991 14.2914 21.9991 12.0002C21.9991 9.70906 21.228 7.59832 19.9319 5.91211L13.8438 12.0002L19.9319 18.0884Z" fill="#0052B4"/>
</svg>
