<svg id="default" viewBox="0 0 24 24" fill="none" xmlns="http://www.w3.org/2000/svg">
<path d="M12 22C17.5228 22 22 17.5228 22 12C22 6.47715 17.5228 2 12 2C6.47715 2 2 6.47715 2 12C2 17.5228 6.47715 22 12 22Z" fill="#F0F0F0"/>
<path d="M4.06645 5.91211C3.28094 6.9341 2.68863 8.11203 2.34375 9.39168H7.54603L4.06645 5.91211Z" fill="#0052B4"/>
<path d="M21.6553 9.39165C21.3104 8.11204 20.7181 6.9341 19.9326 5.91211L16.4531 9.39165H21.6553Z" fill="#0052B4"/>
<path d="M2.34375 14.6094C2.68867 15.889 3.28098 17.0669 4.06645 18.0889L7.5459 14.6094H2.34375Z" fill="#0052B4"/>
<path d="M18.0889 4.06649C17.0669 3.28098 15.889 2.68867 14.6094 2.34375V7.54599L18.0889 4.06649Z" fill="#0052B4"/>
<path d="M5.90625 19.9306C6.92824 20.7161 8.10617 21.3084 9.38578 21.6533V16.4512L5.90625 19.9306Z" fill="#0052B4"/>
<path d="M9.38575 2.34375C8.10614 2.68867 6.92821 3.28098 5.90625 4.06645L9.38575 7.54594V2.34375Z" fill="#0052B4"/>
<path d="M14.6094 21.6533C15.889 21.3084 17.0669 20.7161 18.0889 19.9306L14.6094 16.4512V21.6533Z" fill="#0052B4"/>
<path d="M16.4531 14.6094L19.9326 18.0889C20.7181 17.067 21.3104 15.889 21.6553 14.6094H16.4531Z" fill="#0052B4"/>
<path d="M21.9154 10.6957H13.3044H13.3044V2.08465C12.8774 2.02906 12.4421 2 12 2C11.5579 2 11.1226 2.02906 10.6957 2.08465V10.6956V10.6956H2.08465C2.02906 11.1226 2 11.5579 2 12C2 12.4421 2.02906 12.8774 2.08465 13.3043H10.6956H10.6956V21.9154C11.1226 21.9709 11.5579 22 12 22C12.4421 22 12.8774 21.971 13.3043 21.9154V13.3044V13.3044H21.9154C21.9709 12.8774 22 12.4421 22 12C22 11.5579 21.9709 11.1226 21.9154 10.6957Z" fill="#D80027"/>
<path d="M14.6094 14.6094L19.0717 19.0718C19.2769 18.8666 19.4727 18.6521 19.6595 18.4298L15.8391 14.6094H14.6094V14.6094Z" fill="#D80027"/>
<path d="M9.39207 14.6094H9.39199L4.92969 19.0717C5.13484 19.2769 5.34934 19.4727 5.57168 19.6595L9.39207 15.839V14.6094Z" fill="#D80027"/>
<path d="M9.39391 9.39215V9.39207L4.93156 4.92969C4.72633 5.13484 4.53055 5.34934 4.34375 5.57168L8.16418 9.39211H9.39391V9.39215Z" fill="#D80027"/>
<path d="M14.6094 9.39004L19.0718 4.92762C18.8666 4.72238 18.6521 4.5266 18.4298 4.33984L14.6094 8.16027V9.39004Z" fill="#D80027"/>
</svg>
