<svg id="default" viewBox="0 0 24 24" fill="none" xmlns="http://www.w3.org/2000/svg">
<path d="M12 22C17.5228 22 22 17.5228 22 12C22 6.47715 17.5228 2 12 2C6.47715 2 2 6.47715 2 12C2 17.5228 6.47715 22 12 22Z" fill="#FFDA44"/>
<path d="M6.36328 3.73915C7.96817 2.64203 9.90872 2 11.9995 2C14.0903 2 16.0308 2.64203 17.6357 3.73915L11.9995 4.17391L6.36328 3.73915Z" fill="#A2001D"/>
<path d="M11.9996 12.0019L11.361 11.3633L11.1914 11.667L11.9996 12.0019Z" fill="#0052B4"/>
<path d="M4.92893 4.92969C1.02369 8.83493 1.02369 15.1666 4.92893 19.0719C6.54272 17.4581 8.09479 15.906 12 12.0008L4.92893 4.92969Z" fill="#496E2D"/>
<path d="M19.0711 4.92969C22.9763 8.83493 22.9763 15.1666 19.0711 19.0719C17.4573 17.4581 15.9052 15.906 12 12.0008L19.0711 4.92969Z" fill="#496E2D"/>
<path d="M11.9978 15.4799C13.9188 15.4799 15.476 13.9227 15.476 12.0017C15.476 10.0807 13.9188 8.52344 11.9978 8.52344C10.0768 8.52344 8.51953 10.0807 8.51953 12.0017C8.51953 13.9227 10.0768 15.4799 11.9978 15.4799Z" fill="#A2001D"/>
<path d="M11.9982 8.52344L12.7779 10.923H15.3012L13.2599 12.4063L14.0396 14.806L11.9982 13.323L9.95683 14.806L10.7366 12.4063L8.69531 10.923H11.2185L11.9982 8.52344Z" fill="#FFDA44"/>
<path d="M12.0075 2H12.0008C9.24094 2.0009 6.74246 3.11977 4.93359 4.92844H19.0747C17.2658 3.11977 14.7674 2.0009 12.0075 2Z" fill="#A2001D"/>
<path d="M4.93359 19.0723C6.74321 20.8816 9.24298 22.0007 12.0041 22.0007C14.7652 22.0007 17.265 20.8816 19.0746 19.0723H4.93359Z" fill="#A2001D"/>
<path d="M12.0026 3.08594L12.1646 3.58447H12.6888L12.2647 3.8926L12.4267 4.39113L12.0026 4.08303L11.5785 4.39113L11.7405 3.8926L11.3164 3.58447H11.8406L12.0026 3.08594Z" fill="#FFDA44"/>
<path d="M9.57681 3.08594L9.73883 3.58447H10.263L9.83893 3.8926L10.001 4.39113L9.57681 4.08303L9.15279 4.39113L9.31477 3.8926L8.89062 3.58447H9.41479L9.57681 3.08594Z" fill="#FFDA44"/>
<path d="M14.4206 3.08594L14.5826 3.58447H15.1067L14.6827 3.8926L14.8447 4.39113L14.4206 4.08303L13.9965 4.39113L14.1585 3.8926L13.7344 3.58447H14.2585L14.4206 3.08594Z" fill="#FFDA44"/>
<path d="M12.0026 19.6094L12.1646 20.1079H12.6888L12.2647 20.416L12.4267 20.9146L12.0026 20.6064L11.5785 20.9146L11.7405 20.416L11.3164 20.1079H11.8406L12.0026 19.6094Z" fill="#FFDA44"/>
<path d="M9.57681 19.6094L9.73883 20.1079H10.263L9.83893 20.416L10.001 20.9146L9.57681 20.6064L9.15279 20.9146L9.31477 20.416L8.89062 20.1079H9.41479L9.57681 19.6094Z" fill="#FFDA44"/>
<path d="M14.4206 19.6094L14.5826 20.1079H15.1067L14.6827 20.416L14.8447 20.9146L14.4206 20.6064L13.9965 20.9146L14.1585 20.416L13.7344 20.1079H14.2585L14.4206 19.6094Z" fill="#FFDA44"/>
<path d="M5.04735 11.8325C5.30419 12.2383 5.18349 12.7755 4.77767 13.0324C4.37189 13.2892 3.8347 13.1685 3.57783 12.7627C3.11279 12.028 3.38244 10.8281 3.38244 10.8281C3.38244 10.8281 4.58228 11.0978 5.04735 11.8325Z" fill="#FFDA44"/>
<path d="M4.54833 13.1045C4.7886 13.1045 4.98338 12.9097 4.98338 12.6694C4.98338 12.4292 4.7886 12.2344 4.54833 12.2344C4.30806 12.2344 4.11328 12.4292 4.11328 12.6694C4.11328 12.9097 4.30806 13.1045 4.54833 13.1045Z" fill="#A2001D"/>
</svg>
