<svg id="default" viewBox="0 0 24 24" fill="none" xmlns="http://www.w3.org/2000/svg">
<path d="M12 22C17.5228 22 22 17.5228 22 12C22 6.47715 17.5228 2 12 2C6.47715 2 2 6.47715 2 12C2 17.5228 6.47715 22 12 22Z" fill="#F9F9F9"/>
<path d="M11.9992 22.0003C16.2988 22.0003 19.9642 19.2865 21.3771 15.4785H2.62109C4.03406 19.2865 7.69946 22.0003 11.9992 22.0003Z" fill="#D80027"/>
<path d="M15.9144 10.2625V8.9582H16.3492V8.08863H15.4796V8.52343H14.6101V8.08863H13.7405V8.9582H14.1753V10.2625H13.3057V7.21914H13.7405V6.34961H12.8709V6.7843H12.4361V6.34961H11.5666V6.7843H11.1318V6.34961H10.2622V7.21914H10.697V10.2625H9.82746V8.9582H10.2622V8.08863H9.39265V8.52343H8.52312V8.08863H7.65355V8.9582H8.08832V10.2625H7.21875V13.7408H16.784V10.2625H15.9144Z" fill="#D80027"/>
<path d="M12.0008 13.3047C11.2805 13.3047 10.6965 13.8887 10.6965 14.609C10.6965 15.1768 11.0595 15.6598 11.5661 15.8389V17.6525H10.2617V19.3917H12.4356V15.8389C12.9421 15.6598 13.3052 15.1769 13.3052 14.6091C13.3052 13.8887 12.7212 13.3047 12.0008 13.3047ZM12.0008 15.0438C11.7607 15.0438 11.5661 14.8491 11.5661 14.6091C11.5661 14.3689 11.7607 14.1743 12.0008 14.1743C12.2409 14.1743 12.4356 14.3689 12.4356 14.6091C12.4356 14.8491 12.2409 15.0438 12.0008 15.0438Z" fill="#FFDA44"/>
</svg>
