<svg id="default" viewBox="0 0 24 24" fill="none" xmlns="http://www.w3.org/2000/svg">
<path d="M2 12C2 6.47719 6.47719 2 12 2C17.5228 2 22 6.47719 22 12C21.5652 12 12 13.3043 12 13.3043L2 12Z" fill="#F0F0F0"/>
<path d="M22 12C22 17.5228 17.5228 22 12 22C6.47719 22 2 17.5228 2 12" fill="#D80027"/>
<path d="M8.96231 16.782C11.6037 16.782 13.7449 14.6408 13.7449 11.9994C13.7449 9.35805 11.6037 7.2168 8.96231 7.2168C6.32094 7.2168 4.17969 9.35805 4.17969 11.9994C4.17969 14.6408 6.32094 16.782 8.96231 16.782Z" fill="#F0F0F0"/>
<path d="M4.17969 11.9994C4.17969 9.35812 6.32094 7.2168 8.96231 7.2168C11.6037 7.2168 13.7449 9.35808 13.7449 11.9994" fill="#D80027"/>
</svg>
