<svg id="default" viewBox="0 0 13 13" fill="none" xmlns="http://www.w3.org/2000/svg">
    <path fill-rule="evenodd" clip-rule="evenodd" d="M6.45312 1C9.49069 1 11.9531 3.46243 11.9531 6.5C11.9531 9.53757 9.49069 12 6.45312 12C3.41556 12 0.953125 9.53757 0.953125 6.5C0.953125 3.46243 3.41556 1 6.45312 1ZM5.22852 8.81836C5.35985 9.26356 5.51864 9.64714 5.68652 9.96484C5.89301 10.3556 6.10619 10.64 6.28125 10.8184C6.34961 10.888 6.40808 10.9352 6.45215 10.9668C6.4963 10.9352 6.55531 10.8883 6.62402 10.8184C6.79908 10.64 7.01227 10.3556 7.21875 9.96484C7.38663 9.64714 7.54543 9.26355 7.67676 8.81836H5.22852ZM8.71387 8.81836C8.5528 9.44627 8.33864 9.98661 8.10352 10.4316C8.04364 10.5449 7.98127 10.652 7.91895 10.7539C8.92502 10.4073 9.77011 9.71563 10.3105 8.81836H8.71387ZM2.5957 8.81836C3.13561 9.71477 3.97958 10.406 4.98438 10.7529C4.92238 10.6515 4.86132 10.5444 4.80176 10.4316C4.56664 9.98661 4.35247 9.44627 4.19141 8.81836H2.5957ZM8.91016 5.18164C8.96586 5.59387 8.99805 6.03375 8.99805 6.5C8.99805 6.96692 8.96513 7.40665 8.90918 7.81836H10.7568C10.8844 7.4014 10.9531 6.95873 10.9531 6.5C10.9531 6.04127 10.8844 5.5986 10.7568 5.18164H8.91016ZM2.14941 5.18164C2.02184 5.5986 1.95312 6.04127 1.95312 6.5C1.95312 6.95873 2.02184 7.4014 2.14941 7.81836H3.99609C3.94014 7.40666 3.90723 6.96691 3.90723 6.5C3.90723 6.0337 3.94038 5.59391 3.99609 5.18164H2.14941ZM5.00781 5.18164C4.94621 5.58711 4.90723 6.0268 4.90723 6.5C4.90723 6.97399 4.94686 7.41351 5.00879 7.81836H7.89648C7.95841 7.41351 7.99805 6.97399 7.99805 6.5C7.99805 6.02679 7.95907 5.58711 7.89746 5.18164H5.00781ZM7.92969 2.24902C7.99316 2.35371 8.05543 2.46453 8.11621 2.58105C8.34751 3.02452 8.55773 3.56082 8.71582 4.18164H10.3105C9.772 3.28749 8.93114 2.59683 7.92969 2.24902ZM4.97461 2.25C3.97406 2.59804 3.13389 3.2881 2.5957 4.18164H4.18945C4.34754 3.56083 4.55777 3.02451 4.78906 2.58105C4.84962 2.46496 4.91132 2.35431 4.97461 2.25ZM6.45215 2.02734C6.40604 2.05877 6.34256 2.1089 6.26758 2.18555C6.09201 2.36507 5.88041 2.65072 5.67578 3.04297C5.5106 3.35965 5.3554 3.74114 5.22656 4.18164H7.67871C7.54988 3.74115 7.39467 3.35964 7.22949 3.04297C7.02485 2.65071 6.81326 2.36506 6.6377 2.18555C6.56232 2.1085 6.49833 2.05873 6.45215 2.02734Z" fill="#717171"/>
</svg>
