<svg id="default" viewBox="0 0 24 24" fill="none" xmlns="http://www.w3.org/2000/svg">
<path d="M12 22C17.5228 22 22 17.5228 22 12C22 6.47715 17.5228 2 12 2C6.47715 2 2 6.47715 2 12C2 17.5228 6.47715 22 12 22Z" fill="#F0F0F0"/>
<path d="M12.002 2C7.86784 2 4.31988 4.50883 2.79688 8.08695H21.2072C19.6842 4.50883 16.1362 2 12.002 2Z" fill="#A2001D"/>
<path d="M12.002 21.9991C16.1362 21.9991 19.6842 19.4902 21.2072 15.9121H2.79688C4.31988 19.4902 7.86784 21.9991 12.002 21.9991Z" fill="#496E2D"/>
<path d="M21.6555 9.39258H2.34449C2.12031 10.2243 2 11.0987 2 12.0013C2 12.9039 2.12031 13.7782 2.34449 14.61H21.6555C21.8797 13.7782 22 12.9039 22 12.0013C22 11.0987 21.8797 10.2243 21.6555 9.39258Z" fill="#0052B4"/>
</svg>
