<svg id="default" viewBox="0 0 24 24" fill="none" xmlns="http://www.w3.org/2000/svg">
<path d="M15.4773 2.62204C14.394 2.22004 13.2222 2 11.9989 2C10.7758 2 9.60403 2.22004 8.52075 2.62196L8.08594 12.0001L8.52071 21.3783C9.60403 21.7802 10.7758 22.0002 11.9989 22.0002C13.2222 22.0002 14.394 21.7802 15.4773 21.3782L15.9121 12.0001L15.4773 2.62204Z" fill="#FFDA44"/>
<path d="M2 12.0012C2 16.3009 4.71378 19.9664 8.52183 21.3793V2.62305C4.71378 4.03603 2 7.70147 2 12.0012Z" fill="#D80027"/>
<path d="M22.0023 12.0012C22.0023 7.70146 19.2885 4.03603 15.4805 2.62305V21.3793C19.2885 19.9663 22.0023 16.3008 22.0023 12.0012Z" fill="#6DA544"/>
</svg>
