<svg id="default" viewBox="0 0 24 24" fill="none" xmlns="http://www.w3.org/2000/svg">
<path d="M12 22C17.5228 22 22 17.5228 22 12C22 6.47715 17.5228 2 12 2C6.47715 2 2 6.47715 2 12C2 17.5228 6.47715 22 12 22Z" fill="#F0F0F0"/>
<path d="M12 9.38996H21.6555C21.4048 8.45973 21.0237 7.58312 20.5323 6.78125H12V9.38996Z" fill="#338AF3"/>
<path d="M5.77614 19.8275H18.2259C19.1385 19.1006 19.9212 18.2177 20.5333 17.2188H3.46875C4.0809 18.2177 4.86356 19.1006 5.77614 19.8275Z" fill="#338AF3"/>
<path d="M5.47926 4.41992C4.69309 5.09692 4.01344 5.89414 3.46875 6.78305H5.47926V4.41992Z" fill="#338AF3"/>
<path d="M12 12.0013C12 10.9827 12 10.1302 12 9.39258H8.08695V12.0013H5.47824V9.39258H2.34449C2.12031 10.2244 2 11.0987 2 12.0013C2 12.9039 2.12031 13.7782 2.34449 14.61H21.6555C21.8797 13.7782 22 12.9039 22 12.0013H12Z" fill="#338AF3"/>
<path d="M11.999 2C10.6103 2 9.28789 2.28332 8.08594 2.79484V6.78261H11.999C11.999 5.87199 11.999 5.09749 11.999 4.1739H18.2238C16.5156 2.81344 14.3524 2 11.999 2Z" fill="#338AF3"/>
</svg>
