<svg id="default" viewBox="0 0 24 24" fill="none" xmlns="http://www.w3.org/2000/svg">
<path d="M2 12C2 17.5227 6.47734 22 12 22C17.5227 22 22 17.5227 22 12C22 6.47734 17.5227 2 12 2C6.10586 2 2 6.85156 2 12Z" fill="#2A5F9D"/>
<path d="M4.99999 4.99999L3.00391 7.63709C2.34216 8.99623 1.99883 10.4883 2 12H5.99999V6.99999L9.99998 12H12V9.49998L9.19998 5.99999H12V2C10.4884 1.99882 8.99648 2.34215 7.63749 3.00391L4.99999 4.99999Z" fill="#F0F0F0"/>
<path d="M11.9977 10.3531L7.66406 5H5.66406L11.3309 12H11.9977V10.3531Z" fill="#ED4C5C"/>
<path d="M12 3H7.63748C5.61614 3.98296 3.98313 5.61584 3 7.63711V12H4.99999V5H12V3Z" fill="#ED4C5C"/>
<path d="M13.1367 15.3469L15.3633 12.2422L16.1883 15.2308L13.1367 15.3469Z" fill="#6B4C2E"/>
<path d="M16.9559 15.3156L19.8321 15.1477C19.9172 14.5117 16.8164 14.2441 16.8164 14.2441L16.9559 15.3156Z" fill="white"/>
<path d="M15.5213 9.96875C15.6979 10.1043 16.0139 11.2035 16.0139 11.2035C15.9155 11.252 15.7319 11.3266 15.6206 11.2875C15.4042 11.2875 15.4452 11.7727 15.5815 11.8016C15.5815 11.8016 16.6065 12.1489 17.585 11.7043C17.942 11.5422 17.5752 11.0609 17.3081 11.3469L17.0198 11.1641C17.0198 11.1641 17.3518 10.0246 17.5038 9.96875H15.5213Z" fill="#656364"/>
<path d="M19.6786 15.1285C19.4258 14.9176 18.8852 14.8234 18.7844 14.5215C18.6673 14.1719 18.3969 13.7012 18.4149 13.3289C18.4509 12.5477 18.6942 11.5187 18.4958 10.7566C18.5661 10.5656 18.6911 10.5703 18.8864 10.5668C19.2977 10.5578 19.2606 10.7027 19.3841 11.0297C19.5618 11.4984 19.8372 11.9633 19.87 12.4805C19.9044 13.0383 19.8915 13.8133 19.6309 14.3203C19.4454 14.6816 19.8798 14.7793 20.1465 14.9113L19.6786 15.1285Z" fill="#3F4347"/>
<path d="M16.605 15.5154C16.8176 15.5307 17.4473 15.4259 17.2519 14.584L16.0011 14.5801C16.0011 14.5801 15.7736 15.4553 16.605 15.5154Z" fill="#03723D"/>
<path d="M15.3098 11.7991C15.7281 11.8475 16.1691 11.6389 16.5574 11.9409C16.6477 11.7346 17.0594 11.7475 17.0594 11.7475C18.2848 11.4257 18.0594 12.7241 17.8188 13.5237C17.3258 15.1597 15.7875 15.2097 15.3867 13.5104C15.3607 12.9401 15.3346 12.3697 15.3086 11.7991H15.3098Z" fill="white"/>
<path d="M15.5625 11.791L16.6121 14.5879L17.5605 11.7305C17.2664 11.7496 16.6355 11.6836 16.5566 11.952C16.4355 11.7117 15.7719 11.8086 15.5625 11.791Z" fill="#066C37"/>
<path d="M16.3953 6.20117L16.3011 6.34619L16.47 6.67687L16.3046 6.94267L16.1092 6.42984L16.0185 6.49785L16.1768 6.91609L16.0693 7.04742L15.9001 6.61081L15.7852 6.63114L15.9571 7.05563L15.9032 7.20416L15.9935 7.27843L16.6619 6.72456L16.3953 6.20117Z" fill="#CEAD56"/>
<path d="M15.6469 6.80376L15.566 7.07465L15.6117 7.20911L15.5336 7.27673L15.0118 6.81354L14.9609 6.46643L15.2029 6.42969L15.1302 6.73067L15.2701 6.97302L15.3221 6.80611L15.4276 6.55282L15.5469 6.51607L15.3819 6.95034L15.4538 7.03321L15.5832 6.69119L15.6469 6.80376Z" fill="#CEAD56"/>
<path d="M18.7758 16.4719C18.8444 16.3935 18.9269 16.3285 19.0192 16.2801C19.0192 16.2801 18.8594 16.0801 18.8195 15.9406C19.1387 16.1004 19.5836 15.5805 19.0985 15.541C18.7524 15.5766 18.4715 15.843 18.2645 16.166C17.7661 15.9281 17.2202 15.8065 16.6679 15.8104C16.1157 15.8143 15.5715 15.9437 15.0766 16.1887C14.8766 15.8641 14.6039 15.6027 14.2609 15.5961C13.7719 15.6352 14.2219 16.159 14.5422 15.998C14.5031 16.1391 14.341 16.3395 14.341 16.3395C14.4242 16.3828 14.4992 16.4402 14.5629 16.509C14.2956 16.7114 14.0644 16.9574 13.8789 17.2367C13.8789 17.2367 14.2406 17.4844 14.2473 17.5988C14.4175 17.3493 14.6281 17.1297 14.8703 16.9492C14.9914 17.1902 15.1023 17.5188 15.1645 17.9668C15.1645 17.9668 15.3527 17.4246 15.466 17.4199C15.516 17.4164 15.4641 17.0684 15.3133 16.6758C16.1223 16.2637 17.1391 16.193 18.0293 16.6223C17.8777 16.9914 17.8184 17.3328 17.8621 17.4168C17.9754 17.4234 18.2016 17.8996 18.2016 17.8996C18.2629 17.4609 18.3711 17.1367 18.4883 16.8992C18.7208 17.0698 18.9288 17.2715 19.1067 17.4984C19.2945 17.2512 19.4887 17.1707 19.4887 17.1707C19.2867 16.904 19.0465 16.6685 18.7758 16.4719Z" fill="#FFCE30"/>
<path d="M18.5157 11.1719C19.17 11.1898 18.911 11.1906 18.6329 11.5715C19.2501 12.1473 18.5606 12.4723 18.5341 13.2094C18.5138 14.1719 19.2731 14.7883 19.0844 13.3926C19.2493 13.3805 19.6673 14.0848 19.268 14.1117C18.6298 16.2192 17.7876 11.668 18.5157 11.1719Z" fill="#F4F5F5"/>
<path d="M17.653 9.59963C17.4097 9.32306 18.6362 8.50195 18.6362 8.50195C18.671 8.76172 18.3894 9.01798 18.3894 9.01798C18.3894 9.01798 19.2405 8.87227 19.4124 8.65625C19.3945 8.75313 19.223 9.35939 18.3144 9.35275C18.6581 9.67892 18.2046 9.93869 18.0105 9.86057" fill="white"/>
<path d="M15.034 9.62969C15.034 9.62539 14.6855 9.62969 14.893 9.98125C14.7367 10.0301 14.3945 9.80508 14.6328 9.50547C13.8516 9.4875 13.5352 9.11289 13.5352 8.76875C13.7645 9.00703 14.3113 8.91016 14.5051 9.05547C14.4352 8.98862 14.3817 8.90652 14.3488 8.81559C14.3158 8.72466 14.3044 8.62735 14.3152 8.53125C14.3152 8.53125 14.9793 8.72969 15.1004 9.32031C15.0613 9.4375 15.043 9.63867 15.034 9.62969Z" fill="white"/>
<path d="M15.6505 9.44428C15.5763 9.87084 16.9884 9.52787 17.4693 9.65522C17.3169 9.24858 17.1509 8.99623 17.3064 8.54311C17.3361 8.38296 17.0888 8.34194 17.1501 8.17553C17.1306 8.22827 17.3614 8.18803 17.3572 8.18842C17.2724 8.19546 17.2353 7.84897 17.1228 7.80639C16.7638 7.67905 15.9345 8.03686 15.99 7.41226C16.7072 7.36655 16.0849 7.17163 15.7825 7.17788C15.3411 7.27515 14.9927 7.21147 15.5962 7.57827C15.8646 7.74194 15.9411 7.77085 15.6505 9.44428Z" fill="#91411F"/>
<path d="M18.5374 10.7988L18.0938 11.0302L18.2048 11.1323L18.6461 11.1252L18.5374 10.7988Z" fill="#F27121"/>
<path d="M18.3672 14.6852L18.6357 14.9338L19.2001 14.847L18.8788 14.6641L18.3672 14.6852Z" fill="#F27121"/>
<path d="M14.6766 11.3389C14.5797 11.5975 14.9071 12.0068 15.0176 12.2303C15.3797 11.6932 15.3672 12.3267 15.3324 12.6185C15.2899 12.7264 15.077 12.6662 15.1528 12.7967C15.4356 13.2783 15.1782 14.1513 14.8571 14.5404C14.8715 14.3465 14.8739 14.1518 14.8641 13.9576C14.8461 13.8709 14.6778 13.6181 14.7391 13.5197C14.668 13.6338 14.3973 14.0053 14.2274 13.8974C14.3293 14.3451 14.0535 14.6642 13.9664 15.0967C13.0903 14.8674 12.5711 13.8076 13.3098 13.1385C13.6332 12.8365 13.6184 12.2764 13.786 11.8955C13.7078 11.4158 13.6403 10.8076 14.2606 10.6596C14.816 10.5748 15.0918 10.8549 14.6766 11.3389Z" fill="#899295"/>
<path d="M15.5234 9.57422H17.5059V9.96836H15.5234V9.57422Z" fill="white"/>
<path d="M16.1562 12.2402L16.5184 13.6981L17.1617 12.1484L16.6 12.4813L16.1562 12.2402Z" fill="#FFC905"/>
</svg>
