<svg id="default" viewBox="0 0 24 24" fill="none" xmlns="http://www.w3.org/2000/svg">
<path d="M6.36328 20.2602C7.96812 21.3573 9.90875 21.9994 11.9995 21.9994C14.0902 21.9994 16.0308 21.3573 17.6357 20.2602L11.9995 19.3906L6.36328 20.2602Z" fill="#D80027"/>
<path d="M17.6357 3.73914C16.0308 2.64207 14.0902 2 11.9995 2C9.90875 2 7.96812 2.64207 6.36328 3.73914L11.9995 4.60871L17.6357 3.73914Z" fill="#D80027"/>
<path d="M22 12.003C22 8.69405 20.0189 5.37101 17.6362 3.74219H6.36379C3.7293 5.54312 2 8.57101 2 12.003C2 15.4352 3.7293 18.4629 6.36379 20.2639H17.6362C20.2707 18.4629 22 15.4352 22 12.003Z" fill="#0052B4"/>
<path d="M11.4331 18.311C11.2965 18.1938 8.08594 15.4029 8.08594 11.9986C8.08594 8.59437 11.2964 5.8034 11.4331 5.68625L11.999 5.20117L12.5649 5.68621C12.7015 5.8034 15.912 8.59434 15.912 11.9986C15.912 15.4029 12.7016 18.1939 12.5649 18.311L11.999 18.7961L11.4331 18.311Z" fill="#D80027"/>
<path d="M15.0479 11.9998C15.0479 8.95636 12.0044 6.34766 12.0044 6.34766C12.0044 6.34766 8.96094 8.95644 8.96094 11.9998C8.96094 12.9309 9.24598 13.8211 9.64137 14.6085H14.3675C14.7629 13.8211 15.0479 12.9309 15.0479 11.9998Z" fill="#338AF3"/>
<path d="M15.0479 12C15.0479 12.9311 14.7629 13.8212 14.3675 14.6087L12.0044 15.0435L9.64137 14.6087C9.24598 13.8213 8.96094 12.9311 8.96094 12H15.0479Z" fill="#0052B4"/>
<path d="M11.9998 17.6528C11.9998 17.6528 13.4657 16.3959 14.3628 14.6094H9.63672C10.5338 16.3959 11.9998 17.6528 11.9998 17.6528Z" fill="#FFDA44"/>
<path d="M10.043 10.2598H13.956L11.9995 12.2163L10.043 10.2598Z" fill="#6DA544"/>
<path d="M11.3438 11.5645H12.6481V15.4775H11.3438V11.5645Z" fill="#A2001D"/>
</svg>
