<svg id="default" viewBox="0 0 24 24" fill="none" xmlns="http://www.w3.org/2000/svg">
<path d="M12.0016 2C11.099 2 10.2247 2.12031 9.39295 2.34449L8.52344 11.9998L9.39299 21.6551C10.2247 21.8793 11.099 21.9996 12.0016 21.9996C17.5243 21.9996 22.0014 17.5225 22.0014 11.9998C22.0014 6.4771 17.5243 2 12.0016 2Z" fill="#FFDA44"/>
<path d="M8.52344 12L9.39299 21.6553C10.2247 21.8795 11.099 21.9998 12.0016 21.9998C17.5243 21.9998 22.0014 17.5227 22.0014 12H8.52344Z" fill="#6DA544"/>
<path d="M2 11.9988C2 15.7891 4.10894 19.0867 7.21728 20.7827V3.21484C4.10894 4.91082 2 8.20841 2 11.9988Z" fill="#D80027"/>
<path d="M2 12.001C2 16.6212 5.13357 20.5089 9.39114 21.6563V2.3457C5.13357 3.49318 2 7.38084 2 12.001Z" fill="#D80027"/>
<path d="M5.77803 9.38867L6.42548 11.3814H8.52099L6.82578 12.6131L7.47319 14.606L5.77803 13.3743L4.08279 14.606L4.73036 12.6131L3.03516 11.3814H5.13054L5.77803 9.38867Z" fill="black"/>
</svg>
