<svg id="default" viewBox="0 0 24 24" fill="none" xmlns="http://www.w3.org/2000/svg">
<path d="M11.9993 21.9987C17.5218 21.9987 21.9987 17.5218 21.9987 11.9993C21.9987 6.47686 17.5218 2 11.9993 2C6.47686 2 2 6.47686 2 11.9993C2 17.5218 6.47686 21.9987 11.9993 21.9987Z" fill="#F0F0F0"/>
<path d="M11.9982 2C10.2303 2 8.5699 2.45942 7.12891 3.26445V20.7342C8.56994 21.5393 10.2303 21.9987 11.9982 21.9987C17.5206 21.9987 21.9975 17.5218 21.9975 11.9993C21.9975 6.47689 17.5206 2 11.9982 2Z" fill="#6DA544"/>
<path d="M7.15937 3.25C6.53031 3.59861 5.94293 4.01296 5.40629 4.48402C5.46054 4.43644 5.51534 4.38942 5.57057 4.34301L13.2288 12.0013L5.57054 19.6597C5.51527 19.6133 5.4605 19.5662 5.40625 19.5186C5.94289 19.9897 6.53031 20.404 7.15933 20.7527L21.9985 12.0013L7.15937 3.25Z" fill="#F0F0F0"/>
<path d="M6.31443 3.76953C6.00949 3.98069 5.71662 4.2079 5.43754 4.45073L11.9988 11.9962L5.4375 19.5417C5.71658 19.7846 6.00945 20.0118 6.3144 20.2229L20.2865 11.9962L6.31443 3.76953Z" fill="#FFDA44"/>
<path d="M5.56773 4.3418C5.34544 4.52858 5.13092 4.72439 4.92578 4.92949L11.1269 12.0001L4.92578 19.0707C5.13092 19.2759 5.3454 19.4717 5.56773 19.6584L13.226 12.0001L5.56773 4.3418Z" fill="black"/>
<path d="M4.92873 4.92969C1.02376 8.83466 1.02376 15.1659 4.92873 19.0709C6.54241 17.4573 8.09438 15.9053 11.9994 12.0003L4.92873 4.92969Z" fill="#D80027"/>
</svg>
