<svg id="default" viewBox="0 0 24 24" fill="none" xmlns="http://www.w3.org/2000/svg">
<path d="M12 22C17.5228 22 22 17.5228 22 12C22 6.47715 17.5228 2 12 2C6.47715 2 2 6.47715 2 12C2 17.5228 6.47715 22 12 22Z" fill="#D80027"/>
<path d="M13.0306 9.56596C12.8034 10.5112 12.3996 10.331 12.2014 11.1553C11.0341 10.8747 10.3152 9.70084 10.5959 8.53346C10.8764 7.36615 12.0504 6.64725 13.2177 6.92791C12.8213 8.57662 13.234 8.72053 13.0306 9.56596Z" fill="#F0F0F0"/>
<path d="M9.99875 10.2684C10.8275 10.7766 10.5313 11.105 11.254 11.5483C10.6264 12.5718 9.28789 12.8927 8.26437 12.2651C7.24089 11.6374 6.91991 10.2989 7.54757 9.27539C8.99312 10.1618 9.25738 9.81387 9.99875 10.2684Z" fill="#F0F0F0"/>
<path d="M9.72914 13.3648C10.4686 12.7336 10.6893 13.1168 11.3342 12.5664C12.1137 13.4796 12.0052 14.8518 11.0921 15.6313C10.1789 16.4108 8.80672 16.3022 8.02734 15.3891C9.31696 14.2882 9.0677 13.9293 9.72914 13.3648Z" fill="#F0F0F0"/>
<path d="M12.5915 14.5777C12.2196 13.6793 12.6523 13.5878 12.3281 12.8045C13.4375 12.3454 14.709 12.8725 15.1682 13.9818C15.6273 15.0911 15.1001 16.3627 13.9908 16.8218C13.3424 15.2551 12.9241 15.3812 12.5915 14.5777Z" fill="#F0F0F0"/>
<path d="M14.6301 12.2294C13.6608 12.3055 13.7073 11.8656 12.8622 11.9319C12.7684 10.7351 13.6627 9.68858 14.8596 9.59463C16.0564 9.50092 17.1029 10.3951 17.1968 11.5921C15.5063 11.7246 15.4969 12.1615 14.6301 12.2294Z" fill="#F0F0F0"/>
</svg>
