<svg id="default" viewBox="0 0 24 24" fill="none" xmlns="http://www.w3.org/2000/svg">
<path d="M22 12C22 17.5228 17.5228 22 12 22C6.47719 22 2 17.5228 2 12C2 6.47719 12 2 12 2C12 2 22 6.47719 22 12Z" fill="#A2001D"/>
<path d="M2 12C2 6.47719 6.47719 2 12 2C17.5228 2 22 6.47719 22 12" fill="#0052B4"/>
<path d="M15.4799 14.61L12.0017 14.1752L8.52344 14.61V9.39258H15.4799V14.61Z" fill="#F0F0F0"/>
<path d="M12.0009 14.1736C12.9614 14.1736 13.74 13.3949 13.74 12.4344C13.74 11.474 12.9614 10.6953 12.0009 10.6953C11.0404 10.6953 10.2617 11.474 10.2617 12.4344C10.2617 13.3949 11.0404 14.1736 12.0009 14.1736Z" fill="#0052B4"/>
<path d="M11.9985 13.3036C12.4787 13.3036 12.868 12.9143 12.868 12.434C12.868 11.9538 12.4787 11.5645 11.9985 11.5645C11.5182 11.5645 11.1289 11.9538 11.1289 12.434C11.1289 12.9143 11.5182 13.3036 11.9985 13.3036Z" fill="#A2001D"/>
<path d="M10.6953 10.2598H13.304L11.9997 11.5641L10.6953 10.2598Z" fill="#6DA544"/>
<path d="M11.5625 11.1309H12.4321V13.7396H11.5625V11.1309Z" fill="#FFDA44"/>
<path d="M13.393 13.4785H10.6103L8.52344 14.609H15.4799L13.393 13.4785Z" fill="#6DA544"/>
</svg>
