<svg id="default" viewBox="0 0 24 24" fill="none" xmlns="http://www.w3.org/2000/svg">
<path d="M12 22C17.5228 22 22 17.5228 22 12C22 6.47715 17.5228 2 12 2C6.47715 2 2 6.47715 2 12C2 17.5228 6.47715 22 12 22Z" fill="#F0F0F0"/>
<path d="M15.7651 9.82429H13.2548L11.9997 7.65039L10.7447 9.82429H8.23438L9.48961 11.9982L8.23438 14.1721H10.7447L11.9997 16.346L13.2548 14.1721H15.7651L14.5098 11.9982L15.7651 9.82429ZM13.5417 11.9982L12.7708 13.3337H11.2288L10.4577 11.9982L11.2288 10.6627H12.7707L13.5417 11.9982ZM11.9997 9.32722L12.2867 9.82425H11.7129L11.9997 9.32722ZM9.68668 10.6627H10.2606L9.97363 11.1598L9.68668 10.6627ZM9.68668 13.3337L9.97367 12.8366L10.2606 13.3337H9.68668ZM11.9997 14.6691L11.7128 14.1721H12.2867L11.9997 14.6691ZM14.3128 13.3337H13.7389L14.0259 12.8366L14.3128 13.3337ZM13.7389 10.6627H14.3128L14.0258 11.1598L13.7389 10.6627Z" fill="#0052B4"/>
<path d="M18.2259 4.17383H5.77614C4.86352 4.9007 4.08086 5.78359 3.46875 6.78253H20.5333C19.9212 5.78363 19.1385 4.9007 18.2259 4.17383Z" fill="#0052B4"/>
<path d="M5.77614 19.8275H18.2259C19.1385 19.1006 19.9212 18.2177 20.5333 17.2188H3.46875C4.0809 18.2177 4.86356 19.1006 5.77614 19.8275Z" fill="#0052B4"/>
</svg>
