<svg id="default" viewBox="0 0 24 24" fill="none" xmlns="http://www.w3.org/2000/svg">
<path d="M12 22C17.5228 22 22 17.5228 22 12C22 6.47715 17.5228 2 12 2C6.47715 2 2 6.47715 2 12C2 17.5228 6.47715 22 12 22Z" fill="#F0F0F0"/>
<path d="M20.328 13.1994C19.4947 13.1994 19.4947 12.4375 18.6613 12.4375C17.828 12.4375 17.828 13.1994 16.9947 13.1994C16.1614 13.1994 16.1614 12.4375 15.3281 12.4375C14.4948 12.4375 14.4948 13.1994 13.6614 13.1994C12.8281 13.1994 12.828 12.4375 11.9946 12.4375C11.1613 12.4375 11.1613 13.1994 10.328 13.1994C9.49484 13.1994 9.49484 12.4375 8.66152 12.4375C7.82813 12.4375 7.82812 13.1994 6.99473 13.1994C6.16133 13.1994 6.16133 12.4375 5.32793 12.4375C4.49473 12.4375 4.49473 13.1994 3.66141 13.1994C2.83258 13.1994 2.82777 12.4459 2.00781 12.4379C2.0309 12.8952 2.08551 13.3443 2.16809 13.7835C2.8323 13.881 2.89047 14.5327 3.66148 14.5327C4.4948 14.5327 4.4948 13.7708 5.32801 13.7708C6.16141 13.7708 6.16141 14.5327 6.9948 14.5327C7.8282 14.5327 7.8282 13.7708 8.6616 13.7708C9.49492 13.7708 9.49492 14.5327 10.3281 14.5327C11.1614 14.5327 11.1614 13.7708 11.9947 13.7708C12.8281 13.7708 12.8281 14.5327 13.6615 14.5327C14.4949 14.5327 14.4949 13.7708 15.3282 13.7708C16.1615 13.7708 16.1615 14.5327 16.9948 14.5327C17.8281 14.5327 17.8281 13.7708 18.6614 13.7708C19.4948 13.7708 19.4948 14.5327 20.3281 14.5327C21.0991 14.5327 21.1573 13.8811 21.8216 13.7835C21.9042 13.3443 21.9587 12.8953 21.9819 12.4379C21.1618 12.4459 21.1569 13.1994 20.328 13.1994Z" fill="#0052B4"/>
<path d="M18.6596 15.0469C17.8262 15.0469 17.8262 15.8088 16.993 15.8088C16.1597 15.8088 16.1596 15.0469 15.3264 15.0469C14.493 15.0469 14.493 15.8088 13.6597 15.8088C12.8263 15.8088 12.8263 15.0469 11.9929 15.0469C11.1596 15.0469 11.1596 15.8088 10.3263 15.8088C9.49308 15.8088 9.49308 15.0469 8.65976 15.0469C7.82637 15.0469 7.82637 15.8088 6.99297 15.8088C6.15957 15.8088 6.15957 15.0469 5.32617 15.0469C4.49297 15.0469 4.49297 15.8088 3.65965 15.8088C3.04578 15.8088 2.88371 15.3956 2.50781 15.178C2.73547 15.8584 3.03449 16.506 3.39562 17.1124C3.47383 17.1313 3.56078 17.1421 3.65961 17.1421C4.49293 17.1421 4.49293 16.3803 5.32613 16.3803C6.15953 16.3803 6.15953 17.1421 6.99293 17.1421C7.82633 17.1421 7.82633 16.3803 8.65973 16.3803C9.49305 16.3803 9.49305 17.1421 10.3262 17.1421C11.1596 17.1421 11.1596 16.3803 11.9928 16.3803C12.8262 16.3803 12.8262 17.1421 13.6596 17.1421C14.493 17.1421 14.493 16.3803 15.3263 16.3803C16.1596 16.3803 16.1596 17.1421 16.9929 17.1421C17.8262 17.1421 17.8262 16.3803 18.6595 16.3803C19.4929 16.3803 19.4929 17.1421 20.3262 17.1421C20.4251 17.1421 20.5121 17.1313 20.5904 17.1124C20.9516 16.506 21.2505 15.8584 21.4782 15.178C21.1023 15.3957 20.9402 15.8089 20.3262 15.8089C19.493 15.8088 19.493 15.0469 18.6596 15.0469Z" fill="#0052B4"/>
<path d="M21.7569 9.84934C21.1477 9.97578 21.0701 10.5881 20.3227 10.5881C19.4894 10.5881 19.4894 9.82617 18.6561 9.82617C17.8227 9.82617 17.8227 10.5881 16.9895 10.5881C16.1562 10.5881 16.1561 9.82617 15.3229 9.82617C14.4895 9.82617 14.4895 10.5881 13.6562 10.5881C12.8228 10.5881 12.8228 9.82617 11.9894 9.82617C11.5391 9.82617 11.3321 10.0486 11.1055 10.2531V11.5864C11.3321 11.3819 11.5391 11.1596 11.9894 11.1596C12.8228 11.1596 12.8228 11.9214 13.6562 11.9214C14.4896 11.9214 14.4896 11.1596 15.3229 11.1596C16.1562 11.1596 16.1562 11.9214 16.9895 11.9214C17.8227 11.9214 17.8228 11.1596 18.6561 11.1596C19.4894 11.1596 19.4894 11.9214 20.3227 11.9214C21.0938 11.9214 21.1519 11.2698 21.8162 11.1722C21.8588 11.1722 21.9064 11.1718 21.9551 11.1712C21.9182 10.7215 21.8514 10.2802 21.7569 9.84934Z" fill="#0052B4"/>
<path d="M21.0264 7.7152C20.8537 7.86024 20.6541 7.9807 20.3227 7.9807C19.4894 7.9807 19.4894 7.21875 18.6561 7.21875C17.8227 7.21875 17.8227 7.9807 16.9895 7.9807C16.1562 7.9807 16.1561 7.21875 15.3229 7.21875C14.4895 7.21875 14.4895 7.9807 13.6562 7.9807C12.8228 7.9807 12.8228 7.21875 11.9894 7.21875C11.5391 7.21875 11.3321 7.44117 11.1055 7.6457V8.97903C11.3321 8.77453 11.5391 8.55215 11.9894 8.55215C12.8228 8.55215 12.8228 9.31403 13.6562 9.31403C14.4895 9.31403 14.4895 8.55215 15.3228 8.55215C16.1561 8.55215 16.1561 9.31403 16.9894 9.31403C17.8227 9.31403 17.8227 8.55215 18.656 8.55215C19.4894 8.55215 19.4894 9.31403 20.3227 9.31403C20.914 9.31403 21.0862 8.93102 21.4339 8.70828C21.3154 8.36856 21.1793 8.03711 21.0264 7.7152Z" fill="#0052B4"/>
<path d="M18.7311 4.61141C18.708 4.61016 18.6845 4.60938 18.66 4.60938C17.8267 4.60938 17.8267 5.37133 16.9934 5.37133C16.1601 5.37133 16.1601 4.60938 15.3268 4.60938C14.4935 4.60938 14.4935 5.37133 13.6601 5.37133C12.8267 5.37133 12.8267 4.60938 11.9933 4.60938C11.543 4.60938 11.336 4.8318 11.1094 5.03633V6.36964C11.336 6.16515 11.543 5.94277 11.9933 5.94277C12.8267 5.94277 12.8267 6.70464 13.6601 6.70464C14.4935 6.70464 14.4935 5.94277 15.3267 5.94277C16.1601 5.94277 16.1601 6.70464 16.9933 6.70464C17.8266 6.70464 17.8267 5.94277 18.6599 5.94277C19.4933 5.94277 19.4933 6.70464 20.3266 6.70464C20.3779 6.70464 20.4259 6.7016 20.4713 6.69617C19.9872 5.92414 19.4011 5.22269 18.7311 4.61141Z" fill="#0052B4"/>
<path d="M14.5477 2.33016C14.319 2.53594 14.1123 2.76195 13.6584 2.76195C12.825 2.76195 12.825 2.00008 11.9916 2H11.9915C11.5605 2.00004 11.3525 2.20383 11.1367 2.40066V3.73403C11.3525 3.53719 11.5606 3.33336 11.9916 3.33336C12.825 3.33336 12.825 4.09524 13.6584 4.09524C14.4918 4.09524 14.4918 3.33336 15.3251 3.33336C16.1584 3.33336 16.1584 4.09524 16.9917 4.09524C17.3414 4.09524 17.5442 3.96102 17.7236 3.80532C16.7729 3.1391 15.7011 2.63418 14.5477 2.33016Z" fill="#0052B4"/>
<path d="M13.6622 21.0218C12.8288 21.0218 12.8288 20.2598 11.9954 20.2598C11.1621 20.2598 11.1621 21.0218 10.3288 21.0218C9.49558 21.0218 9.49558 20.2598 8.66226 20.2598C8.02394 20.2598 7.87422 20.7064 7.46484 20.9157C8.59375 21.4905 9.84636 21.8569 11.1721 21.965C11.3772 21.7776 11.5855 21.5932 11.9954 21.5932C12.4054 21.5932 12.6137 21.7776 12.8188 21.965C14.1446 21.857 15.3973 21.4906 16.5262 20.9158C16.1168 20.7065 15.9671 20.2598 15.3289 20.2598C14.4956 20.2598 14.4956 21.0218 13.6622 21.0218Z" fill="#0052B4"/>
<path d="M16.9947 18.4163C16.1614 18.4163 16.1614 17.6543 15.3281 17.6543C14.4948 17.6543 14.4948 18.4163 13.6614 18.4163C12.828 18.4163 12.828 17.6543 11.9946 17.6543C11.1613 17.6543 11.1613 18.4163 10.328 18.4163C9.49481 18.4163 9.49481 17.6543 8.66149 17.6543C7.82809 17.6543 7.82809 18.4163 6.99469 18.4163C6.16129 18.4163 6.16129 17.6543 5.32789 17.6543C4.72863 17.6543 4.56035 18.0484 4.20312 18.2697C4.42703 18.5478 4.66508 18.8139 4.91699 19.0663C5.02984 19.0181 5.16227 18.9877 5.32785 18.9877C6.16125 18.9877 6.16125 19.7495 6.99465 19.7495C7.82805 19.7495 7.82805 18.9877 8.66145 18.9877C9.49477 18.9877 9.49477 19.7495 10.328 19.7495C11.1613 19.7495 11.1613 18.9877 11.9946 18.9877C12.828 18.9877 12.828 19.7495 13.6614 19.7495C14.4948 19.7495 14.4948 18.9877 15.3281 18.9877C16.1613 18.9877 16.1614 19.7495 16.9947 19.7495C17.8279 19.7495 17.828 18.9877 18.6613 18.9877C18.827 18.9877 18.9595 19.0181 19.0724 19.0664C19.3243 18.814 19.5624 18.5478 19.7863 18.2698C19.429 18.0485 19.2607 17.6543 18.6613 17.6543C17.828 17.6543 17.828 18.4163 16.9947 18.4163Z" fill="#0052B4"/>
<path d="M11.9766 12.0014H12.0033C12.0033 11.9924 12.0033 11.9836 12.0033 11.9746C11.9944 11.9836 11.9855 11.9925 11.9766 12.0014Z" fill="#F0F0F0"/>
<path d="M11.9978 7.21602V10.154L8.51953 6.78125L11.9978 7.21602Z" fill="#0052B4"/>
<path d="M7.21606 12.001H10.154L7.21602 8.08789L6.78125 11.1314L7.21606 12.001Z" fill="#0052B4"/>
<path d="M12 7.21738C12 5.45781 12 4.30488 12 2H11.9983C6.47624 2.00094 2 6.47769 2 12H7.21741V9.06207L10.1553 12H11.9733C11.9822 11.9911 11.9911 11.9822 12 11.9732C12 11.2995 12 10.6984 12 10.1554L9.06201 7.21738H12Z" fill="#F0F0F0"/>
<path d="M7.05952 3.30664C5.4955 4.19723 4.19527 5.49746 3.30469 7.06148V12.0023H5.91339V5.91543V5.91535H12.0003C12.0003 5.09258 12.0003 4.30875 12.0003 3.30664H7.05952Z" fill="#D80027"/>
<path d="M12.0014 10.7716L8.44844 7.21875H7.21875V7.21883L12.0013 12.0013H12.0014C12.0014 12.0013 12.0014 11.1534 12.0014 10.7716Z" fill="#D80027"/>
<path d="M15.043 7.21875H18.956L16.9995 9.17528L15.043 7.21875Z" fill="#6DA544"/>
<path d="M16.5703 8.74219H17.4399V11.1335H16.5703V8.74219Z" fill="#A2001D"/>
<path d="M16.5703 15.0469H17.4399V17.4382H16.5703V15.0469Z" fill="#A2001D"/>
<path d="M19.608 13.7388C19.608 13.0184 19.024 12.4345 18.3037 12.4345C17.9695 12.4345 17.6649 12.5602 17.4341 12.7668V11.9997H17.8689V11.1301H17.4341V10.6953H16.5645V11.1301H16.1298V11.9997H16.5645V12.7668C16.3337 12.5602 16.0291 12.4345 15.695 12.4345C14.9746 12.4345 14.3906 13.0184 14.3906 13.7388C14.3906 14.125 14.5586 14.4719 14.8254 14.7107V15.4779H19.1732V14.7107C19.44 14.4719 19.608 14.125 19.608 13.7388Z" fill="#FFDA44"/>
<path d="M18.309 13.3047C18.1719 13.3047 18.0759 13.3649 18.0194 13.4154L17.4395 13.9346H16.57L15.99 13.4154C15.9336 13.3649 15.8375 13.3047 15.7004 13.3047C15.4607 13.3047 15.2656 13.4997 15.2656 13.7395C15.2656 13.9083 15.3567 14.015 15.4109 14.0636L15.7004 14.3229V14.609H18.3091V14.3229L18.5986 14.0636C18.6529 14.015 18.7439 13.9083 18.7439 13.7395C18.7438 13.4997 18.5488 13.3047 18.309 13.3047Z" fill="#D80027"/>
</svg>
