<svg id="default" viewBox="0 0 24 24" fill="none" xmlns="http://www.w3.org/2000/svg">
<path d="M12 22C17.5228 22 22 17.5228 22 12C22 6.47715 17.5228 2 12 2C6.47715 2 2 6.47715 2 12C2 17.5228 6.47715 22 12 22Z" fill="#F0F0F0"/>
<path d="M2.34375 14.6094C2.92234 16.7562 4.19754 18.6169 5.91231 19.9344V14.6094H2.34375Z" fill="#0052B4"/>
<path d="M11.1289 21.9626C11.4155 21.9873 11.7054 22.0007 11.9985 22.0007C16.6188 22.0007 20.5065 18.867 21.654 14.6094H11.1289V21.9626Z" fill="#0052B4"/>
<path d="M21.654 9.3913C20.5065 5.13364 16.6188 2 11.9985 2C11.7054 2 11.4155 2.01336 11.1289 2.03805V9.3913H21.654Z" fill="#0052B4"/>
<path d="M5.91231 4.06641C4.19754 5.38398 2.92234 7.24465 2.34375 9.39148H5.91231V4.06641Z" fill="#0052B4"/>
<path d="M21.9154 10.6943H9.82613H9.82609V2.23633C8.90195 2.44125 8.02582 2.7734 7.21738 3.21453V10.6943H2.08465C2.02898 11.1213 2 11.5566 2 11.9986C2 12.4407 2.02898 12.876 2.08465 13.303H7.21734H7.21738V20.7827C8.02582 21.2238 8.90195 21.556 9.82609 21.7609V13.3031V13.303H21.9154C21.9709 12.876 22 12.4407 22 11.9986C22 11.5566 21.9709 11.1213 21.9154 10.6943Z" fill="#D80027"/>
</svg>
