<svg id="default" viewBox="0 0 24 24" fill="none" xmlns="http://www.w3.org/2000/svg">
<path d="M12 22C17.5228 22 22 17.5228 22 12C22 6.47715 17.5228 2 12 2C6.47715 2 2 6.47715 2 12C2 17.5228 6.47715 22 12 22Z" fill="#F0F0F0"/>
<path d="M19.9373 18.0888L13.8485 12H13.8484L19.9373 5.91102C19.6747 5.56977 19.3875 5.24145 19.0749 4.92883C18.7623 4.61625 18.434 4.32895 18.0927 4.06641L12.0039 10.1553L12.0038 10.1553L5.91496 4.06641C5.57375 4.32898 5.24539 4.61621 4.93277 4.92883C4.62016 5.24145 4.33289 5.56977 4.07035 5.91102L10.1592 11.9998L10.1593 11.9999L4.07031 18.0888C4.33293 18.4301 4.6202 18.7584 4.93273 19.071C5.24535 19.3836 5.57363 19.6709 5.91492 19.9334L12.0038 13.8446L12.0039 13.8445L18.0927 19.9334C18.4339 19.6708 18.7623 19.3836 19.0749 19.071C19.3875 18.7584 19.6748 18.43 19.9373 18.0888Z" fill="#D80027"/>
<path d="M10.2656 5.04305L12.0048 5.47781L13.7439 5.04305V3.5648L13.0482 3.91262L12.0048 2.86914L10.9613 3.91262L10.2656 3.5648V5.04305Z" fill="#FFDA44"/>
<path d="M10.2656 5.04492V6.13195C10.2656 7.4632 12.0048 7.87109 12.0048 7.87109C12.0048 7.87109 13.7439 7.46316 13.7439 6.13195V5.04492H10.2656Z" fill="#D80027"/>
</svg>
