<svg id="default" viewBox="0 0 24 24" fill="none" xmlns="http://www.w3.org/2000/svg">
<path d="M12 22C17.5228 22 22 17.5228 22 12C22 6.47715 17.5228 2 12 2C6.47715 2 2 6.47715 2 12C2 17.5228 6.47715 22 12 22Z" fill="#F0F0F0"/>
<path d="M8.09129 8.52176H21.3823C19.9694 4.71375 16.3039 2 12.0043 2C9.24285 2 6.74312 3.11949 4.93359 4.92926L8.09129 8.52176Z" fill="black"/>
<path d="M8.09129 15.4785H21.3823C19.9694 19.2865 16.3039 22.0003 12.0043 22.0003C9.24285 22.0003 6.74312 20.8808 4.93359 19.071L8.09129 15.4785Z" fill="#6DA544"/>
<path d="M4.92893 4.92969C1.02369 8.83492 1.02369 15.1666 4.92893 19.0719C6.54271 17.4581 8.09478 15.906 12 12.0008L4.92893 4.92969Z" fill="#D80027"/>
<path d="M5.97199 9.82617L6.52078 10.9738L7.76019 10.6873L7.20511 11.8319L8.20179 12.6223L6.96089 12.902L6.96433 14.174L5.97199 13.3782L4.97961 14.174L4.98308 12.902L3.74219 12.6223L4.73883 11.8319L4.18383 10.6873L5.42316 10.9738L5.97199 9.82617Z" fill="#F0F0F0"/>
</svg>
