<svg id="default" viewBox="0 0 24 24" fill="none" xmlns="http://www.w3.org/2000/svg">
<path d="M12 22C17.5228 22 22 17.5228 22 12C22 6.47715 17.5228 2 12 2C6.47715 2 2 6.47715 2 12C2 17.5228 6.47715 22 12 22Z" fill="#F0F0F0"/>
<path d="M11.9999 2C8.0353 2 4.60968 4.30723 2.99219 7.6522H21.0076C19.3901 4.30723 15.9645 2 11.9999 2Z" fill="black"/>
<path d="M11.9999 21.9978C8.0353 21.9978 4.60968 19.6906 2.99219 16.3457H21.0076C19.3901 19.6906 15.9645 21.9978 11.9999 21.9978Z" fill="#496E2D"/>
<path d="M21.5278 8.95508H2.47223C2.1659 9.9148 2 10.9373 2 11.9986C2 13.0598 2.1659 14.0823 2.47223 15.042H21.5277C21.8341 14.0823 22 13.0598 22 11.9986C22 10.9373 21.8341 9.9148 21.5278 8.95508Z" fill="#A2001D"/>
<path d="M15.1145 6.62277L13.9302 6.07617L12.0006 10.4454L10.071 6.07617L8.88672 6.62277L11.2823 12.0016L8.88672 17.3805L10.071 17.9271L12.0006 13.5579L13.9302 17.9271L15.1145 17.3805L12.7188 12.0016L15.1145 6.62277Z" fill="#F0F0F0"/>
<path d="M12.804 7.13613C12.3455 6.63547 11.9996 6.34766 11.9996 6.34766C11.9996 6.34766 11.6537 6.63543 11.1953 7.13613V16.8635C11.6537 17.3642 11.9996 17.652 11.9996 17.652C11.9996 17.652 12.3455 17.3643 12.804 16.8635V7.13613Z" fill="#F0F0F0"/>
<path d="M9.82812 9.00109V14.9977C10.3126 15.8561 10.9055 16.5596 11.3499 17.0261V6.97266C10.9055 7.4391 10.3125 8.14273 9.82812 9.00109Z" fill="#A2001D"/>
<path d="M14.1702 9.00109C13.6857 8.14269 13.0928 7.4391 12.6484 6.97266V17.0261C13.0928 16.5596 13.6857 15.8561 14.1702 14.9977V9.00109Z" fill="#A2001D"/>
<path d="M14.1719 9V14.9966C14.6623 14.1275 15.0414 13.0998 15.0414 11.9983C15.0414 10.8969 14.6623 9.86914 14.1719 9Z" fill="black"/>
<path d="M9.82659 9V14.9966C9.33617 14.1275 8.95703 13.0998 8.95703 11.9983C8.95703 10.8969 9.33617 9.86914 9.82659 9Z" fill="black"/>
</svg>
