<svg id="default" viewBox="0 0 24 24" fill="none" xmlns="http://www.w3.org/2000/svg">
<path d="M12 22C17.5228 22 22 17.5228 22 12C22 6.47715 17.5228 2 12 2C6.47715 2 2 6.47715 2 12C2 17.5228 6.47715 22 12 22Z" fill="#F0F0F0"/>
<path d="M21.9978 11.9707H11.1576C9.00539 14.123 7.7039 15.7846 6.375 17.1135L12.0272 17.6229L20.798 16.7533C21.5634 15.3394 21.9982 13.7203 21.9982 11.9996C21.9982 11.99 21.9978 11.9804 21.9978 11.9707Z" fill="#D80027"/>
<path d="M6.37824 7.18844H20.7693C19.0686 4.09594 15.7799 2 12.0014 2C9.2473 2 6.75371 3.11371 4.94531 4.915L6.37824 7.18844Z" fill="#FFDA44"/>
<path d="M6.8148 16.752C5.91582 17.6509 5.5684 18.4041 4.91797 19.0545C6.72871 20.8728 9.23437 21.9983 12.0032 21.9983C15.8054 21.9983 19.1118 19.8762 20.8031 16.752H6.8148Z" fill="#0052B4"/>
<path d="M4.92893 4.89844C1.02369 8.80367 1.02369 15.1354 4.92893 19.0406C6.54271 17.4268 8.09478 15.8748 12 11.9695L4.92893 4.89844Z" fill="#6DA544"/>
<path d="M4.64031 11.9712C4.64031 10.5143 5.66426 9.29711 7.0316 8.99852C6.82145 8.95262 6.6034 8.92773 6.37941 8.92773C4.69852 8.92773 3.33594 10.2903 3.33594 11.9712C3.33594 13.6521 4.69852 15.0147 6.37941 15.0147C6.60336 15.0147 6.82141 14.9898 7.0316 14.9439C5.66426 14.6453 4.64031 13.4282 4.64031 11.9712Z" fill="#F0F0F0"/>
<path d="M6.99479 9.36328L7.15681 9.86181H7.68098L7.25688 10.1699L7.4189 10.6685L6.99479 10.3604L6.57068 10.6685L6.7327 10.1699L6.30859 9.86181H6.83277L6.99479 9.36328Z" fill="#F0F0F0"/>
<path d="M6.99479 10.668L7.15681 11.1665H7.68098L7.25688 11.4746L7.4189 11.9732L6.99479 11.6651L6.57068 11.9732L6.7327 11.4746L6.30859 11.1665H6.83277L6.99479 10.668Z" fill="#F0F0F0"/>
<path d="M6.99479 11.9727L7.15681 12.4712H7.68098L7.25688 12.7793L7.4189 13.2779L6.99479 12.9697L6.57068 13.2779L6.7327 12.7793L6.30859 12.4712H6.83277L6.99479 11.9727Z" fill="#F0F0F0"/>
<path d="M6.99479 13.2734L7.15681 13.772H7.68098L7.25688 14.0801L7.4189 14.5786L6.99479 14.2705L6.57068 14.5786L6.7327 14.0801L6.30859 13.772H6.83277L6.99479 13.2734Z" fill="#F0F0F0"/>
</svg>
