<svg id="default" viewBox="0 0 24 24" fill="none" xmlns="http://www.w3.org/2000/svg">
<path d="M22 12C22 17.5228 17.5228 22 12 22C6.47719 22 2 17.5228 2 12C2 12.0024 12 2.00109 12 2C17.5228 2 22 6.47719 22 12Z" fill="#0052B4"/>
<path d="M11.9727 11.9994H11.9994C11.9994 11.9904 11.9994 11.9817 11.9994 11.9727C11.9905 11.9816 11.9816 11.9905 11.9727 11.9994Z" fill="#F0F0F0"/>
<path d="M12 7.21738C12 5.45781 12 4.30488 12 2H11.9983C6.4762 2.00094 2 6.47769 2 12H7.21737V9.06207L10.1553 12H11.9733C11.9822 11.9911 11.9911 11.9822 12 11.9732C12 11.2995 12 10.6984 12 10.1554L9.06201 7.21738H12Z" fill="#F0F0F0"/>
<path d="M16.3485 9.39234C17.309 9.39234 18.0876 8.6137 18.0876 7.6532C18.0876 6.6927 17.309 5.91406 16.3485 5.91406C15.388 5.91406 14.6094 6.6927 14.6094 7.6532C14.6094 8.6137 15.388 9.39234 16.3485 9.39234Z" fill="#6DA544"/>
<path d="M7.05952 3.30469C5.4955 4.19527 4.19523 5.4955 3.30469 7.05952V12.0003H5.91339V5.91347V5.91339H12.0003C12.0003 5.09062 12.0003 4.3068 12.0003 3.30469H7.05952Z" fill="#D80027"/>
<path d="M12.0014 10.7697L8.44844 7.2168H7.21875V7.21687L12.0013 11.9994H12.0014C12.0014 11.9994 12.0014 11.1515 12.0014 10.7697Z" fill="#D80027"/>
<path d="M13.3047 7.2168H19.3917V9.82551H13.3047V7.2168Z" fill="#D80027"/>
<path d="M13.3047 13.7402V15.4794H14.2197C14.7683 16.017 15.5193 16.3489 16.3482 16.3489C17.177 16.3489 17.928 16.017 18.4767 15.4794H18.5221H19.3917V13.7402H13.3047Z" fill="#FFDA44"/>
<path d="M13.3047 9.39258V12.0013C13.3047 14.3309 16.3482 15.0448 16.3482 15.0448C16.3482 15.0448 19.3917 14.3309 19.3917 12.0013V9.39258H13.3047Z" fill="#338AF3"/>
<path d="M16.348 10.7832C15.5871 10.7832 15.5871 11.4789 14.8263 11.4789C14.0655 11.4789 14.0655 10.7832 13.3047 10.7832V12.0006C14.0655 12.0006 14.0655 12.6962 14.8263 12.6962C15.5871 12.6962 15.5871 12.0006 16.348 12.0006C17.1089 12.0006 17.1089 12.6962 17.8698 12.6962C18.6307 12.6962 18.6307 12.0006 19.3916 12.0006V10.7832C18.6307 10.7832 18.6307 11.4789 17.8698 11.4789C17.1089 11.4789 17.1089 10.7832 16.348 10.7832Z" fill="#F3F3F3"/>
<path d="M16.348 8.34961C15.5871 8.34961 15.5871 9.04528 14.8263 9.04528C14.0655 9.04528 14.0655 8.34961 13.3047 8.34961V9.567C14.0655 9.567 14.0655 10.2627 14.8263 10.2627C15.5871 10.2627 15.5871 9.567 16.348 9.567C17.1089 9.567 17.1089 10.2627 17.8698 10.2627C18.6307 10.2627 18.6307 9.567 19.3916 9.567V8.34961C18.6307 8.34961 18.6307 9.04528 17.8698 9.04528C17.1089 9.04528 17.1089 8.34961 16.348 8.34961Z" fill="#F3F3F3"/>
</svg>
