<svg id="default" viewBox="0 0 24 24" fill="none" xmlns="http://www.w3.org/2000/svg">
<path d="M22 11.9996C22 17.5225 17.5228 21.9996 12 21.9996C6.47719 21.9996 2 17.5225 2 11.9996C2.43477 11.9996 12 10.6953 12 10.6953L22 11.9996Z" fill="#D80027"/>
<path d="M2 12C2 6.47719 6.47719 2 12 2C17.5228 2 22 6.47719 22 12" fill="#0052B4"/>
<path d="M9.39318 8.95753C9.39318 8.23718 8.80919 7.6532 8.08884 7.6532C7.75466 7.6532 7.45009 7.77898 7.21927 7.98558V7.21839H7.65403V6.34883H7.21927V5.91406H6.34969V6.34883H5.91493V7.21839H6.34969V7.98558C6.11887 7.77898 5.8143 7.6532 5.48012 7.6532C4.75977 7.6532 4.17578 8.23718 4.17578 8.95753C4.17578 9.34374 4.34379 9.69061 4.61055 9.92948V10.6967H8.95837V9.92948C9.22521 9.69061 9.39318 9.34374 9.39318 8.95753Z" fill="#FFDA44"/>
</svg>
