<svg id="default" viewBox="0 0 24 24" fill="none" xmlns="http://www.w3.org/2000/svg">
<path d="M12 22C17.5228 22 22 17.5228 22 12C22 6.47715 17.5228 2 12 2C6.47715 2 2 6.47715 2 12C2 17.5228 6.47715 22 12 22Z" fill="#D80027"/>
<path d="M17.9053 10.2077H13.3907L11.9956 5.91406L10.6005 10.2077H6.08594L9.73832 12.8612L8.3432 17.155L11.9956 14.5013L15.648 17.155L14.2529 12.8613L17.9053 10.2077ZM10.7605 12.5291L11.2323 11.0772H12.7589L13.2307 12.5291V12.5291L11.9956 13.4264L10.7606 12.5291L10.7605 12.5291ZM12.4764 10.2077H11.5149L11.9956 8.72797L12.4764 10.2077ZM13.9704 11.9917L13.6732 11.0772H15.229L13.9704 11.9917ZM10.318 11.0772L10.0209 11.9917L8.76215 11.0772H10.318ZM9.99723 14.8784L10.478 13.3987L11.2559 13.9639L9.99723 14.8784ZM12.7353 13.9639L13.5132 13.3988L13.994 14.8784L12.7353 13.9639Z" fill="#FFDA44"/>
</svg>
