<svg id="default" viewBox="0 0 24 24" fill="none" xmlns="http://www.w3.org/2000/svg">
<path d="M16.3469 2.99231C15.0322 2.35658 13.5572 2 11.9989 2C10.4406 2 8.96561 2.35658 7.65086 2.99231L6.78125 12.0005L7.65086 21.0087C8.96561 21.6444 10.4406 22.001 11.9989 22.001C13.5572 22.001 15.0322 21.6444 16.3469 21.0087L17.2165 12.0005L16.3469 2.99231Z" fill="#FFDA44"/>
<path d="M7.65246 2.99414C4.30738 4.61168 2 8.0372 2 12.002C2 15.9667 4.30738 19.3922 7.65246 21.0098V2.99414Z" fill="#0052B4"/>
<path d="M16.3477 2.99414V21.0098C19.6927 19.3922 22.0001 15.9667 22.0001 12.002C22.0001 8.0372 19.6927 4.61168 16.3477 2.99414Z" fill="#D80027"/>
<path d="M15.4763 9.86826H13.0849C13.0849 9.26791 12.5983 8.78125 11.9979 8.78125C11.3976 8.78125 10.9109 9.26791 10.9109 9.86826H8.51953C8.51953 10.4593 9.03444 10.9385 9.62544 10.9385H9.58981C9.58981 11.5296 10.069 12.0088 10.6601 12.0088C10.6601 12.5321 11.036 12.967 11.5324 13.06L10.689 14.964C11.0931 15.1283 11.5348 15.2196 11.9979 15.2196C12.461 15.2196 12.9027 15.1283 13.3068 14.964L12.4635 13.06C12.9599 12.967 13.3358 12.5321 13.3358 12.0088C13.9269 12.0088 14.4061 11.5296 14.4061 10.9385H14.3704C14.9615 10.9385 15.4763 10.4593 15.4763 9.86826Z" fill="#FF9811"/>
<path d="M12.003 11.3477L10.5898 11.9999V13.3043L12.003 14.1739L13.4161 13.3043V11.9999L12.003 11.3477Z" fill="#0052B4"/>
<path d="M10.5898 10.6953H13.4161V11.9997H10.5898V10.6953Z" fill="#D80027"/>
</svg>
