<svg id="default" viewBox="0 0 24 24" fill="none" xmlns="http://www.w3.org/2000/svg">
<path d="M11.999 22.0002C13.2222 22.0002 14.394 21.7802 15.4773 21.3782L15.9121 12.0001L15.4773 2.622C14.394 2.22004 13.2222 2 11.999 2C10.7758 2 9.60404 2.22004 8.52075 2.622L8.08594 12.0001L8.52071 21.3782C9.60404 21.7802 10.7758 22.0002 11.999 22.0002Z" fill="#0052B4"/>
<path d="M2 12.0012C2 16.3009 4.71378 19.9663 8.52183 21.3793V2.62305C4.71378 4.03599 2 7.70146 2 12.0012Z" fill="#A2001D"/>
<path d="M15.4805 2.62305V21.3793C19.2885 19.9664 22.0023 16.3009 22.0023 12.0012C22.0023 7.70147 19.2885 4.03599 15.4805 2.62305Z" fill="#A2001D"/>
<path d="M6.78125 12H7.65083V15.4783H6.78125V12Z" fill="#FFDA44"/>
<path d="M3.30469 12H4.17427V15.4783H3.30469V12Z" fill="#FFDA44"/>
<path d="M5.47896 14.1747C5.95921 14.1747 6.34854 13.7854 6.34854 13.3051C6.34854 12.8249 5.95921 12.4355 5.47896 12.4355C4.9987 12.4355 4.60938 12.8249 4.60938 13.3051C4.60938 13.7854 4.9987 14.1747 5.47896 14.1747Z" fill="#FFDA44"/>
<path d="M5.48193 10.6982C5.7222 10.6982 5.91698 10.5034 5.91698 10.2632C5.91698 10.0229 5.7222 9.82812 5.48193 9.82812C5.24166 9.82812 5.04688 10.0229 5.04688 10.2632C5.04688 10.5034 5.24166 10.6982 5.48193 10.6982Z" fill="#FFDA44"/>
<path d="M4.60938 14.6113H6.34853V15.4809H4.60938V14.6113Z" fill="#FFDA44"/>
<path d="M4.60938 11.1328H6.34853V12.0024H4.60938V11.1328Z" fill="#FFDA44"/>
<path d="M5.47622 7.21875L5.78419 8.16641H6.78061L5.97455 8.75212L6.28228 9.69979L5.47622 9.11408L4.6702 9.69979L4.97794 8.75212L4.17188 8.16641H5.16829L5.47622 7.21875Z" fill="#FFDA44"/>
</svg>
