<svg id="default" viewBox="0 0 24 24" fill="none" xmlns="http://www.w3.org/2000/svg">
<path d="M12 22C17.5228 22 22 17.5228 22 12C22 6.47715 17.5228 2 12 2C6.47715 2 2 6.47715 2 12C2 17.5228 6.47715 22 12 22Z" fill="#496E2D"/>
<path d="M13.7381 11.5833C13.4926 11.5833 13.2595 11.6322 13.0431 11.7101C13.1617 11.4459 13.2412 11.1519 13.2412 10.838C13.2412 9.59574 11.999 8.66406 11.999 8.66406C11.999 8.66406 10.7567 9.59574 10.7567 10.838C10.7567 11.1519 10.8362 11.4459 10.9548 11.7101C10.7383 11.6323 10.5053 11.5833 10.2598 11.5833C9.01762 11.5833 8.08594 12.8255 8.08594 12.8255C8.08594 12.8255 9.01762 14.0678 10.2598 14.0678C10.9882 14.0678 11.6093 13.6409 11.999 13.2876C12.3886 13.6409 13.0098 14.0678 13.7381 14.0678C14.9804 14.0678 15.912 12.8255 15.912 12.8255C15.912 12.8255 14.9803 11.5833 13.7381 11.5833Z" fill="#F0F0F0"/>
<path d="M11.9932 5.91211L12.2498 6.70179H13.0801L12.4085 7.18992L12.6649 7.9796L11.9932 7.49148L11.3215 7.9796L11.5779 7.18992L10.9062 6.70179H11.7366L11.9932 5.91211Z" fill="#FFDA44"/>
<path d="M8.83949 7.29297L9.33317 7.73742L9.90844 7.40531L9.63828 8.01215L10.1319 8.45668L9.47129 8.38722L9.20113 8.99406L9.06293 8.34433L8.40234 8.27488L8.97758 7.94269L8.83949 7.29297Z" fill="#FFDA44"/>
<path d="M6.52734 9.6032L7.17711 9.74129L7.50926 9.16602L7.57871 9.8266L8.2284 9.9648L7.62161 10.235L7.69106 10.8955L7.24649 10.402L6.63969 10.6721L6.97184 10.0968L6.52734 9.6032Z" fill="#FFDA44"/>
<path d="M15.1518 7.29297L14.6581 7.73742L14.0829 7.40531L14.353 8.01215L13.8594 8.45668L14.52 8.38722L14.7902 8.99406L14.9284 8.34433L15.589 8.27488L15.0137 7.94269L15.1518 7.29297Z" fill="#FFDA44"/>
<path d="M17.4628 9.6032L16.813 9.74129L16.4809 9.16602L16.4114 9.8266L15.7617 9.9648L16.3685 10.235L16.2991 10.8955L16.7436 10.402L17.3504 10.6721L17.0183 10.0968L17.4628 9.6032Z" fill="#FFDA44"/>
<path d="M12.0009 17.5433C12.9876 17.5433 13.8971 17.2141 14.6268 16.6602H9.375C10.1046 17.2141 11.0141 17.5433 12.0009 17.5433Z" fill="#F0F0F0"/>
<path d="M8.01172 14.9395C8.14973 15.2553 8.32473 15.5511 8.53027 15.8226H15.4646C15.6701 15.5512 15.8451 15.2553 15.9831 14.9395H8.01172Z" fill="#F0F0F0"/>
</svg>
