<svg id="default" viewBox="0 0 24 24" fill="none" xmlns="http://www.w3.org/2000/svg">
<path d="M12 22C17.5228 22 22 17.5228 22 12C22 6.47715 17.5228 2 12 2C6.47715 2 2 6.47715 2 12C2 17.5228 6.47715 22 12 22Z" fill="#F0F0F0"/>
<path d="M21.9146 10.6959C21.6388 8.58707 20.6915 6.54934 19.0714 4.92922C17.4513 3.3091 15.4135 2.3618 13.3047 2.08594L13.3047 10.6959H21.9146Z" fill="#0052B4"/>
<path d="M10.6959 2.08594C8.58708 2.3618 6.5493 3.30906 4.92918 4.92918C3.3091 6.54934 2.3618 8.58711 2.08594 10.696L10.696 10.6959L10.6959 2.08594Z" fill="#0052B4"/>
<path d="M2.08594 13.3047C2.3618 15.4135 3.3091 17.4513 4.92918 19.0714C6.5493 20.6915 8.58704 21.6388 10.696 21.9148L10.6959 13.3048L2.08594 13.3047Z" fill="#0052B4"/>
<path d="M13.3047 21.9146C15.4135 21.6388 17.4512 20.6915 19.0714 19.0714C20.6915 17.4513 21.6387 15.4135 21.9146 13.3047H13.3047V21.9146Z" fill="#0052B4"/>
<path d="M15.4155 8.34641C15.4155 8.21344 15.5236 8.10535 15.6566 8.10535H16.1732C16.9897 8.10535 17.6541 7.44105 17.6541 6.62453C17.6541 5.80801 16.9898 5.14367 16.1732 5.14367H15.6826C15.5225 5.0234 15.3077 4.94922 15.0707 4.94922C14.5765 4.94922 14.1758 5.26973 14.1758 5.66512C14.1758 6.05668 14.5688 6.37434 15.0565 6.38051L15.0563 6.38336H16.1732C16.3062 6.38336 16.4143 6.49148 16.4143 6.62445C16.4143 6.75742 16.3062 6.86551 16.1732 6.86551H15.6566C14.84 6.86551 14.1758 7.52981 14.1758 8.34633C14.1758 9.16285 14.84 9.82719 15.6566 9.82719H17.654V8.58742H15.6566C15.5236 8.58746 15.4155 8.47938 15.4155 8.34641Z" fill="#F0F0F0"/>
<path d="M7.58734 8.34641C7.58734 8.21344 7.69543 8.10535 7.82843 8.10535H8.345C9.16156 8.10535 9.82589 7.44105 9.82589 6.62453C9.82589 5.80801 9.1616 5.14367 8.345 5.14367H7.85445C7.69433 5.0234 7.47953 4.94922 7.24258 4.94922C6.74832 4.94922 6.34766 5.26973 6.34766 5.66512C6.34766 6.05668 6.74066 6.37434 7.22832 6.38051L7.22808 6.38336H8.34503C8.47804 6.38336 8.58613 6.49148 8.58613 6.62445C8.58613 6.75742 8.47804 6.86551 8.34503 6.86551H7.82847C7.01191 6.86551 6.34766 7.52981 6.34766 8.34633C6.34766 9.16285 7.01187 9.82719 7.82847 9.82719H9.82585V8.58742H7.82843C7.69543 8.58746 7.58734 8.47938 7.58734 8.34641Z" fill="#F0F0F0"/>
<path d="M15.4116 17.571C15.4116 17.4381 15.5197 17.33 15.6527 17.33H16.1693C16.9858 17.33 17.6502 16.6657 17.6502 15.8491C17.6502 15.0326 16.9859 14.3683 16.1693 14.3683H15.6787C15.5186 14.248 15.3038 14.1738 15.0669 14.1738C14.5726 14.1738 14.1719 14.4944 14.1719 14.8897C14.1719 15.2813 14.5649 15.5989 15.0526 15.6051L15.0523 15.608H16.1692C16.3023 15.608 16.4103 15.7161 16.4103 15.8491C16.4103 15.982 16.3023 16.0901 16.1692 16.0901H15.6527C14.8361 16.0901 14.1719 16.7544 14.1719 17.5709C14.1719 18.3875 14.8361 19.0518 15.6527 19.0518H17.6501V17.8121H15.6527C15.5197 17.8121 15.4116 17.704 15.4116 17.571Z" fill="#F0F0F0"/>
<path d="M7.58738 17.571C7.58738 17.4381 7.69547 17.33 7.82847 17.33H8.34503C9.1616 17.33 9.82593 16.6657 9.82593 15.8491C9.82593 15.0326 9.16163 14.3683 8.34503 14.3683H7.85449C7.69437 14.248 7.47957 14.1738 7.24262 14.1738C6.74832 14.1738 6.34766 14.4944 6.34766 14.8897C6.34766 15.2813 6.74066 15.5989 7.22832 15.6051L7.22808 15.608H8.34503C8.47804 15.608 8.58613 15.7161 8.58613 15.8491C8.58613 15.982 8.47804 16.0901 8.34503 16.0901H7.82847C7.01191 16.0901 6.34766 16.7544 6.34766 17.5709C6.34766 18.3875 7.01187 19.0518 7.82847 19.0518H9.82589V17.8121H7.82847C7.69547 17.8121 7.58738 17.704 7.58738 17.571Z" fill="#F0F0F0"/>
</svg>
