<svg id="default" viewBox="0 0 24 24" fill="none" xmlns="http://www.w3.org/2000/svg">
<path d="M12 22C17.5228 22 22 17.5228 22 12C22 6.47715 17.5228 2 12 2C6.47715 2 2 6.47715 2 12C2 17.5228 6.47715 22 12 22Z" fill="#F0F0F0"/>
<path d="M11.5625 11.9993H21.9972C21.9972 11.0967 21.8769 10.2224 21.6527 9.39062H11.5625V11.9993Z" fill="#D80027"/>
<path d="M11.5625 6.78253H20.5295C19.9174 5.78363 19.1348 4.9007 18.2222 4.17383H11.5625V6.78253Z" fill="#D80027"/>
<path d="M11.9983 22.002C14.3518 22.002 16.515 21.1886 18.2232 19.8281H5.77344C7.48168 21.1886 9.64484 22.002 11.9983 22.002Z" fill="#D80027"/>
<path d="M3.46699 17.22H20.5316C21.023 16.4182 21.4041 15.5416 21.6548 14.6113H2.34375C2.59441 15.5416 2.97555 16.4182 3.46699 17.22Z" fill="#D80027"/>
<path d="M12 12C12 6.47719 12 5.82609 12 2C6.47719 2 2 6.47719 2 12H12Z" fill="#0052B4"/>
<path d="M8.65081 10.5612C7.28511 10.5612 6.17801 9.45402 6.17801 8.08836C6.17801 6.7227 7.28515 5.61555 8.65081 5.61555C9.07663 5.61555 9.4773 5.72324 9.8271 5.91277C9.27835 5.37617 8.52788 5.04492 7.69972 5.04492C6.0189 5.04492 4.65625 6.40754 4.65625 8.0884C4.65625 9.76926 6.0189 11.1319 7.69972 11.1319C8.52788 11.1319 9.27835 10.8006 9.8271 10.264C9.4773 10.4535 9.07667 10.5612 8.65081 10.5612Z" fill="#FFDA44"/>
<path d="M9.34641 6.34766L9.78543 7.26571L10.7769 7.03664L10.3329 7.95223L11.1302 8.58454L10.1375 8.80833L10.1403 9.82595L9.34641 9.1893L8.5525 9.82595L8.55524 8.80833L7.5625 8.58454L8.35985 7.95223L7.91582 7.03664L8.90735 7.26571L9.34641 6.34766Z" fill="#FFDA44"/>
</svg>
