<svg id="default" viewBox="0 0 24 24" fill="none" xmlns="http://www.w3.org/2000/svg">
<path d="M12 22C17.5228 22 22 17.5228 22 12C22 6.47715 17.5228 2 12 2C6.47715 2 2 6.47715 2 12C2 17.5228 6.47715 22 12 22Z" fill="#0052B4"/>
<path d="M12 22C17.5228 22 22 17.5228 22 12C22 6.47715 17.5228 2 12 2C6.47715 2 2 6.47715 2 12C2 17.5228 6.47715 22 12 22Z" fill="#FFDA44"/>
<path d="M11.9971 2C6.76722 2 2.4759 6.01488 2.03516 11.1304H21.959C21.5182 6.01488 17.2269 2 11.9971 2Z" fill="#0052B4"/>
<path d="M11.9971 21.9996C17.2269 21.9996 21.5182 17.9847 21.959 12.8691H2.03516C2.4759 17.9847 6.76722 21.9996 11.9971 21.9996Z" fill="#0052B4"/>
<path d="M10.2659 15.4778L9.14536 16.0049L9.74204 17.0901L8.52528 16.8574L8.3711 18.0865L7.52356 17.1825L6.67606 18.0865L6.52188 16.8574L5.30508 17.0901L5.9018 16.0049L4.78125 15.4778L5.90184 14.9507L5.30508 13.8656L6.52184 14.0983L6.6761 12.8691L7.52356 13.7732L8.37114 12.8691L8.52528 14.0983L9.74208 13.8656L9.1454 14.9508L10.2659 15.4778Z" fill="#F0F0F0"/>
</svg>
