<svg id="default" viewBox="0 0 24 24" fill="none" xmlns="http://www.w3.org/2000/svg">
<path d="M22 12C22 17.5228 17.5228 22 12 22C6.47719 22 2 17.5228 2 12C2 12.0024 12 2.00109 12 2C17.5228 2 22 6.47719 22 12Z" fill="#FFDA44"/>
<path d="M12.0017 6.78125V10.154L8.52344 6.78125H12.0017Z" fill="#0052B4"/>
<path d="M7.21602 11.999H10.154L7.21602 8.08594L6.78125 11.1294L7.21602 11.999Z" fill="#0052B4"/>
<path d="M11.9727 12.0014H11.9994C11.9994 11.9924 11.9994 11.9836 11.9994 11.9746C11.9905 11.9836 11.9816 11.9925 11.9727 12.0014Z" fill="#F0F0F0"/>
<path d="M12 7.21738C12 5.45781 12 4.30488 12 2H11.9983C6.4762 2.00094 2 6.47769 2 12H7.21737V9.06207L10.1553 12H11.9733C11.9822 11.9911 11.9911 11.9822 12 11.9732C12 11.2995 12 10.6984 12 10.1554L9.06201 7.21738H12Z" fill="#F0F0F0"/>
<path d="M12.0014 10.7697L8.44844 7.2168H7.21875V7.21687L12.0013 11.9994H12.0014C12.0014 11.9994 12.0014 11.1515 12.0014 10.7697Z" fill="#D80027"/>
<path d="M7.05952 3.30469C6.67402 3.52422 6.30468 3.76887 5.95343 4.03594H6.36374L5.27929 4.82398L5.69343 6.09886L4.60898 5.31097L4.49359 5.39484C4.04332 5.90617 3.6441 6.46351 3.30469 7.05952V12.0003H5.91339V5.91347V5.91339H12.0003C12.0003 5.09062 12.0003 4.3068 12.0003 3.30469H7.05952Z" fill="#D80027"/>
<path d="M6.27378 3.80078C6.16593 3.87629 6.0596 3.95391 5.95488 4.03355L5.28086 4.8216L4.61054 5.30855L4.49418 5.39309C4.24863 5.67199 4.01836 5.96465 3.80469 6.26984C4.04824 6.38805 4.32164 6.45449 4.61054 6.45449C5.63109 6.45449 6.45835 5.62723 6.45835 4.60668C6.45843 4.3177 6.39202 4.04438 6.27378 3.80078Z" fill="#0052B4"/>
<path d="M4.49609 5.39469L4.61246 5.31016L5.69691 6.09809L5.28273 4.82321L6.3671 4.03516H5.95671C5.4257 4.43902 4.93637 4.89465 4.49609 5.39469Z" fill="#FFDA44"/>
<path d="M8.91046 3.73828L9.12632 4.40254H9.82475L9.25972 4.81313L9.47546 5.47738L8.91046 5.06684L8.34543 5.47738L8.56113 4.81313L7.99609 4.40254H8.69457L8.91046 3.73828Z" fill="#FFDA44"/>
<path d="M4.60965 8.08594L4.82551 8.75019H5.52395L4.95895 9.16082L5.17469 9.82507L4.60965 9.41449L4.04457 9.82507L4.26031 9.16082L3.69531 8.75019H4.39375L4.60965 8.08594Z" fill="#FFDA44"/>
</svg>
