<svg id="default" viewBox="0 0 24 24" fill="none" xmlns="http://www.w3.org/2000/svg">
<path d="M22 12C22 17.5228 17.5228 22 12 22C6.47719 22 2 17.5228 2 12C2 12.0024 12 2.00109 12 2C17.5228 2 22 6.47719 22 12Z" fill="#0052B4"/>
<path d="M11.9727 12.0014H11.9994C11.9994 11.9924 11.9994 11.9836 11.9994 11.9746C11.9905 11.9836 11.9816 11.9925 11.9727 12.0014Z" fill="#F0F0F0"/>
<path d="M12 7.21738C12 5.45781 12 4.30488 12 2H11.9983C6.47624 2.00094 2 6.47769 2 12H7.21737V9.06207L10.1553 12H11.9733C11.9822 11.9911 11.9911 11.9822 12 11.9732C12 11.2995 12 10.6984 12 10.1554L9.06201 7.21738H12Z" fill="#F0F0F0"/>
<path d="M7.05952 3.30469C5.4955 4.19527 4.19527 5.4955 3.30469 7.05952V12.0003H5.91339V5.91347V5.91339H12.0003C12.0003 5.09062 12.0003 4.3068 12.0003 3.30469H7.05952Z" fill="#D80027"/>
<path d="M12.0013 10.7697L8.44848 7.2168C8.44848 7.2168 7.21875 7.21688 7.21875 7.2168V7.21687L12.0013 11.9994H12.0013C12.0013 11.9994 12.0013 11.1515 12.0013 10.7697Z" fill="#D80027"/>
<path d="M19.3167 9.42188L19.5325 10.0862H20.231L19.6659 10.4967L19.8818 11.161L19.3167 10.7505L18.7516 11.161L18.9675 10.4967L18.4023 10.0862H19.1008L19.3167 9.42188Z" fill="#D80027"/>
<path d="M16.8207 14.2031L17.1445 15.1996H18.1922L17.3445 15.8154L17.6684 16.8119L16.8207 16.196L15.973 16.8119L16.2969 15.8154L15.4492 15.1996H16.4969L16.8207 14.2031Z" fill="#D80027"/>
<path d="M16.9163 6.37695L17.1861 7.20738H18.0592L17.3528 7.72047L17.6227 8.55086L16.9163 8.03762L16.21 8.55086L16.4798 7.72047L15.7734 7.20738H16.6465L16.9163 6.37695Z" fill="#D80027"/>
<path d="M14.5121 9.39062L14.8359 10.3871H15.8836L15.0359 11.0029L15.3598 11.9994L14.5121 11.3835L13.6645 11.9994L13.9883 11.0029L13.1406 10.3871H14.1883L14.5121 9.39062Z" fill="#D80027"/>
</svg>
