<svg id="default" viewBox="0 0 24 24" fill="none" xmlns="http://www.w3.org/2000/svg">
<path d="M12 22C17.5228 22 22 17.5228 22 12C22 6.47715 17.5228 2 12 2C6.47715 2 2 6.47715 2 12C2 17.5228 6.47715 22 12 22Z" fill="#F0F0F0"/>
<path d="M2 12C2 17.5228 6.47719 22 12 22C12 18.1971 12 12 12 12C12 12 5.47824 12 2 12Z" fill="#0052B4"/>
<path d="M12 2C17.5228 2 22 6.47719 22 12C18.1971 12 12 12 12 12C12 12 12 5.47824 12 2Z" fill="#D80027"/>
<path d="M7.95001 5.47852L8.59755 7.47141H10.693L8.99774 8.70306L9.64525 10.696L7.95001 9.46427L6.25477 10.696L6.90227 8.70306L5.20703 7.47141H7.30247L7.95001 5.47852Z" fill="#0052B4"/>
<path d="M16.0476 13.3047L16.6952 15.2976H18.7906L17.0953 16.5292L17.7429 18.5221L16.0476 17.2904L14.3524 18.5221L14.9999 16.5292L13.3047 15.2976H15.4001L16.0476 13.3047Z" fill="#D80027"/>
</svg>
