<svg id="default" viewBox="0 0 24 24" fill="none" xmlns="http://www.w3.org/2000/svg">
<path d="M12 22C17.5228 22 22 17.5228 22 12C22 6.47715 17.5228 2 12 2C6.47715 2 2 6.47715 2 12C2 17.5228 6.47715 22 12 22Z" fill="#F0F0F0"/>
<path d="M12.0008 2V12L4.92969 19.0711C6.73934 20.8807 9.23934 22 12.0008 22C17.5236 22 22.0008 17.5228 22.0008 12C22.0008 6.47719 12.0008 2 12.0008 2Z" fill="#D80027"/>
<path d="M12.0008 2C9.23934 2 6.73934 3.1193 4.92969 4.92891C7.3832 7.38242 8.25418 8.25344 12.0008 12H22.0008C22.0008 6.47719 17.5236 2 12.0008 2Z" fill="#0052B4"/>
<path d="M8.84882 11.9995L7.62757 11.425L8.27792 10.2423L6.95175 10.496L6.7837 9.15625L5.85996 10.1416L4.93625 9.15625L4.76816 10.496L3.44203 10.2422L4.09238 11.425L2.87109 11.9995L4.09238 12.5739L3.44203 13.7567L4.76828 13.503L4.93621 14.8427L5.85996 13.8574L6.7837 14.8427L6.95175 13.503L8.27784 13.7567L7.62753 12.574L8.84882 11.9995Z" fill="#FFDA44"/>
<path d="M4.66718 5.91211L5.07359 6.48019L5.73941 6.26929L5.32464 6.83132L5.73105 7.39941L5.06832 7.17866L4.65359 7.74065L4.65879 7.04222L3.99609 6.82144L4.66203 6.61054L4.66718 5.91211Z" fill="#FFDA44"/>
<path d="M4.66718 16.2578L5.07359 16.8259L5.73941 16.615L5.32464 17.177L5.73105 17.7451L5.06832 17.5244L4.65359 18.0864L4.65879 17.3879L3.99609 17.1671L4.66203 16.9562L4.66718 16.2578Z" fill="#FFDA44"/>
<path d="M10.4668 11.082L10.0604 11.6501L9.39453 11.4391L9.8093 12.0012L9.40289 12.5693L10.0656 12.3486L10.4804 12.9105L10.4752 12.2121L11.1379 11.9914L10.472 11.7805L10.4668 11.082Z" fill="#FFDA44"/>
</svg>
