<svg id="default" viewBox="0 0 24 24" fill="none" xmlns="http://www.w3.org/2000/svg">
<path d="M22 12C22 17.5228 17.5228 22 12 22C6.47719 22 2 17.5228 2 12C2 12.0024 12 2.00109 12 2C17.5228 2 22 6.47719 22 12Z" fill="#0052B4"/>
<path d="M11.9727 11.9994H11.9994C11.9994 11.9904 11.9994 11.9817 11.9994 11.9727C11.9905 11.9816 11.9816 11.9905 11.9727 11.9994Z" fill="#F0F0F0"/>
<path d="M12 7.21738C12 5.45781 12 4.30488 12 2H11.9983C6.4762 2.00094 2 6.47769 2 12H7.21737V9.06207L10.1553 12H11.9733C11.9822 11.9911 11.9911 11.9822 12 11.9732C12 11.2995 12 10.6984 12 10.1554L9.06201 7.21738H12Z" fill="#F0F0F0"/>
<path d="M7.05952 3.30469C5.4955 4.19527 4.19523 5.4955 3.30469 7.05952V12.0003H5.91339V5.91347V5.91339H12.0003C12.0003 5.09062 12.0003 4.3068 12.0003 3.30469H7.05952Z" fill="#D80027"/>
<path d="M12.0014 10.7697L8.44844 7.2168H7.21875V7.21687L12.0013 11.9994H12.0014C12.0014 11.9994 12.0014 11.1515 12.0014 10.7697Z" fill="#D80027"/>
<path d="M17.6528 8.08798L16.3485 8.52278L15.0441 8.08798L14.6094 7.00102L15.0441 5.91406H17.6528L17.218 7.00102L17.6528 8.08798Z" fill="#ACABB1"/>
<path d="M13.3047 8.08594V12.8685C13.3047 15.1982 16.3482 15.912 16.3482 15.912C16.3482 15.912 19.3917 15.1982 19.3917 12.8685V8.08594H13.3047Z" fill="#338AF3"/>
<path d="M13.5781 14.0038C14.3263 15.4401 16.3473 15.9143 16.3473 15.9143C16.3473 15.9143 18.3683 15.4401 19.1164 14.0038L16.3473 9.39258L13.5781 14.0038Z" fill="#6DA544"/>
<path d="M19.3917 12.8202L16.3482 8.08594L13.3047 12.8202V12.8685C13.3047 13.2997 13.4091 13.6754 13.579 14.0016L16.3482 9.69394L19.1173 14.0015C19.2872 13.6753 19.3917 13.2996 19.3917 12.8685V12.8202Z" fill="#FFDA44"/>
</svg>
