<svg id="default" viewBox="0 0 24 24" fill="none" xmlns="http://www.w3.org/2000/svg">
<path d="M12 22C17.5228 22 22 17.5228 22 12C22 6.47715 17.5228 2 12 2C6.47715 2 2 6.47715 2 12C2 17.5228 6.47715 22 12 22Z" fill="#F0F0F0"/>
<path d="M12.0043 2C8.73277 2 5.82828 3.57121 4.00391 6.00001H20.0048C18.1804 3.57121 15.2759 2 12.0043 2Z" fill="#D80027"/>
<path d="M12.0043 22.002C15.2759 22.002 18.1804 20.4308 20.0048 18.002H4.00391C5.82828 20.4308 8.73277 22.002 12.0043 22.002Z" fill="#D80027"/>
<path d="M2 12C2 12.685 2.06906 13.3538 2.20027 14H21.7998C21.931 13.3538 22 12.685 22 12C22 11.315 21.9309 10.6462 21.7998 10H2.20027C2.06906 10.6462 2 11.315 2 12H2Z" fill="#D80027"/>
<path d="M4.92893 4.92969C1.02369 8.83492 1.02369 15.1666 4.92893 19.0719C6.54271 17.4581 8.09478 15.906 12 12.0008L4.92893 4.92969Z" fill="#0052B4"/>
<path d="M6.04762 9.39258L6.69508 11.3854H8.79062L7.09539 12.6171L7.74281 14.61L6.04762 13.3783L4.35234 14.61L4.99992 12.6171L3.30469 11.3854H5.40008L6.04762 9.39258Z" fill="#F0F0F0"/>
</svg>
