<svg id="default" viewBox="0 0 24 24" fill="none" xmlns="http://www.w3.org/2000/svg">
<path d="M12 22C17.5228 22 22 17.5228 22 12C22 6.47715 17.5228 2 12 2C6.47715 2 2 6.47715 2 12C2 17.5228 6.47715 22 12 22Z" fill="#F0F0F0"/>
<path d="M8.08739 8.52176H21.3784C19.9655 4.71375 16.3001 2 12.0004 2C9.23895 2 6.73922 3.11949 4.92969 4.92926L8.08739 8.52176Z" fill="black"/>
<path d="M8.08739 15.4785H21.3784C19.9655 19.2865 16.3001 22.0003 12.0004 22.0003C9.23895 22.0003 6.73922 20.8808 4.92969 19.071L8.08739 15.4785Z" fill="#6DA544"/>
<path d="M4.92893 4.92969C1.02369 8.83492 1.02369 15.1666 4.92893 19.0719C6.54271 17.4581 8.09478 15.906 12 12.0008L4.92893 4.92969Z" fill="#D80027"/>
</svg>
