<svg id="default" viewBox="0 0 24 24" fill="none" xmlns="http://www.w3.org/2000/svg">
<path d="M12 22C17.5228 22 22 17.5228 22 12C22 6.47715 17.5228 2 12 2C6.47715 2 2 6.47715 2 12C2 17.5228 6.47715 22 12 22Z" fill="#F0F0F0"/>
<path d="M12 2C6.47719 2 2 6.47718 2 12C2 13.2232 2.22004 14.3949 2.62199 15.4782H21.378C21.78 14.3949 22 13.2232 22 12C22 6.47718 17.5228 2 12 2Z" fill="#0052B4"/>
<path d="M11.9991 2C7.69945 2 4.03402 4.71375 2.62109 8.52176H21.3771C19.9642 4.71375 16.2987 2 11.9991 2Z" fill="#D80027"/>
<path d="M4.58594 7.6543V12.6428C4.58594 15.4805 8.29301 16.35 8.29301 16.35C8.29301 16.35 12 15.4805 12 12.6428V7.6543H4.58594Z" fill="#D80027"/>
<path d="M6.11719 8.52278H10.465V6.78364L9.59546 7.2184L8.29113 5.91406L6.98676 7.2184L6.11719 6.78364V8.52278Z" fill="#FFDA44"/>
<path d="M11.1287 13.3359L8.30266 10.5098L5.47656 13.3359L6.39887 14.2582L8.30266 12.3544L10.2064 14.2582L11.1287 13.3359Z" fill="#FFDA44"/>
<path d="M11.1287 10.6968H9.81016C9.8843 10.5689 9.92742 10.4207 9.92742 10.2622C9.92742 9.78184 9.53809 9.39258 9.05785 9.39258C8.72602 9.39258 8.43785 9.57844 8.29125 9.85168C8.14465 9.57848 7.85648 9.39258 7.52465 9.39258C7.04441 9.39258 6.65508 9.78184 6.65508 10.2622C6.65508 10.4207 6.6982 10.5689 6.77234 10.6968H5.47656C5.47656 11.1771 5.89488 11.5664 6.37508 11.5664H6.34613C6.34613 12.0467 6.73543 12.436 7.2157 12.436C7.2157 12.8612 7.52109 13.2145 7.92441 13.2901L7.23926 14.8371C7.56762 14.9706 7.92645 15.0447 8.3027 15.0447C8.67895 15.0447 9.03777 14.9706 9.36613 14.8371L8.68098 13.2901C9.0843 13.2146 9.38969 12.8613 9.38969 12.436C9.86996 12.436 10.2593 12.0467 10.2593 11.5664H10.2303C10.7105 11.5664 11.1287 11.1771 11.1287 10.6968Z" fill="#F0F0F0"/>
</svg>
