<svg id="default" viewBox="0 0 24 24" fill="none" xmlns="http://www.w3.org/2000/svg">
<path d="M12 22C17.5228 22 22 17.5228 22 12C22 6.47715 17.5228 2 12 2C6.47715 2 2 6.47715 2 12C2 17.5228 6.47715 22 12 22Z" fill="#F0F0F0"/>
<path d="M21.378 15.4799C21.78 14.3966 22 13.2249 22 12.0017C22 10.7785 21.78 9.60676 21.378 8.52344H2.62199C2.22004 9.60676 2 10.7785 2 12.0017C2 13.2249 2.22004 14.3966 2.62199 15.4799L12 16.3495L21.378 15.4799Z" fill="#0052B4"/>
<path d="M11.9991 22.0003C16.2987 22.0003 19.9641 19.2865 21.3771 15.4785H2.62109C4.03402 19.2865 7.69944 22.0003 11.9991 22.0003Z" fill="#D80027"/>
</svg>
