<svg id="default" viewBox="0 0 24 24" fill="none" xmlns="http://www.w3.org/2000/svg">
<path d="M2 12.0004C2 13.7329 2.44074 15.3623 3.2159 16.7831L12 17.6526L20.7841 16.7831C21.5593 15.3623 22 13.7329 22 12.0004L12 11.1309L2 12.0004Z" fill="#FFDA44"/>
<path d="M20.7841 7.21738C19.088 4.10895 15.7904 2 12 2C8.20957 2 4.91195 4.10895 3.2159 7.21738C2.44074 8.63812 2 10.2676 2 12H22C22 10.2676 21.5593 8.63812 20.7841 7.21738Z" fill="#338AF3"/>
<path d="M11.9989 21.9986C15.7894 21.9986 19.087 19.8897 20.783 16.7812H3.21484C4.9109 19.8897 8.20852 21.9986 11.9989 21.9986Z" fill="#496E2D"/>
<path d="M13.3047 7.85298L14.526 8.42747L13.8757 9.61029L15.2018 9.35661L15.3699 10.6963L16.2935 9.71095L17.2173 10.6963L17.3853 9.35661L18.7115 9.61021L18.0612 8.42743L19.2824 7.85298L18.0611 7.27856L18.7115 6.09574L17.3853 6.34942L17.2173 5.00977L16.2935 5.99508L15.3698 5.00977L15.2018 6.34942L13.8756 6.09574L14.526 7.2786L13.3047 7.85298Z" fill="#FFDA44"/>
</svg>
