<svg id="default" viewBox="0 0 24 24" fill="none" xmlns="http://www.w3.org/2000/svg">
<path d="M12 22C17.5228 22 22 17.5228 22 12C22 6.47715 17.5228 2 12 2C6.47715 2 2 6.47715 2 12C2 17.5228 6.47715 22 12 22Z" fill="#F0F0F0"/>
<path d="M21.378 8.52277H10.6957V5.91406H5.47824V8.52277H2.62199C2.22004 9.60605 2 10.7778 2 12.001C2 13.2242 2.22004 14.3959 2.62199 15.4793L12 16.3488L21.378 15.4793C21.78 14.3959 22 13.2242 22 12.001C22 10.7778 21.78 9.60605 21.378 8.52277Z" fill="#0052B4"/>
<path d="M11.9991 22.0003C16.2987 22.0003 19.9641 19.2865 21.3771 15.4785H2.62109C4.03402 19.2865 7.69944 22.0003 11.9991 22.0003Z" fill="#D80027"/>
<path d="M5.48047 8.5207V9.39023C5.48047 11.3871 8.08917 11.999 8.08917 11.999C8.08917 11.999 10.6979 11.3871 10.6979 9.39023V8.5207L9.82831 9.39027L8.08917 8.08594L6.35004 9.39027L5.48047 8.5207Z" fill="#F0F0F0"/>
</svg>
