<svg id="default" viewBox="0 0 24 24" fill="none" xmlns="http://www.w3.org/2000/svg">
<path d="M12 22C17.5228 22 22 17.5228 22 12C22 6.47715 17.5228 2 12 2C6.47715 2 2 6.47715 2 12C2 17.5228 6.47715 22 12 22Z" fill="#F0F0F0"/>
<path d="M21.2242 8.12316C19.7098 4.52586 16.1523 2 12.0043 2C9.24284 2 6.74312 3.11949 4.93359 4.92926L7.43789 8.12316H21.2242Z" fill="black"/>
<path d="M7.46629 15.8379L4.93359 19.068C6.74312 20.8778 9.24285 21.9973 12.0043 21.9973C16.1663 21.9973 19.7339 19.4545 21.2396 15.8379H7.46629Z" fill="#496E2D"/>
<path d="M4.17578 9.35742V14.611H21.6574C21.8817 13.7793 22.0019 12.905 22.0019 12.0023C22.0019 11.0866 21.8785 10.1999 21.6479 9.35742H4.17578Z" fill="#A2001D"/>
<path d="M4.92893 4.92969C1.02369 8.83492 1.02369 15.1666 4.92893 19.0719C6.54271 17.4581 8.09478 15.906 12 12.0008L4.92893 4.92969Z" fill="#0052B4"/>
<path d="M5.26066 9.51367L6.48116 11.2168L8.47834 10.5823L7.23573 12.2695L8.45623 13.9727L6.46765 13.3123L5.22499 14.9995L5.23867 12.9041L3.25 12.2435L5.24703 11.609L5.26066 9.51367Z" fill="#FFDA44"/>
</svg>
