<svg id="default" viewBox="0 0 24 24" fill="none" xmlns="http://www.w3.org/2000/svg">
<path d="M12 22C17.5228 22 22 17.5228 22 12C22 6.47715 17.5228 2 12 2C6.47715 2 2 6.47715 2 12C2 17.5228 6.47715 22 12 22Z" fill="#F0F0F0"/>
<path d="M11.9999 2C8.0353 2 4.60968 4.30723 2.99219 7.6522H21.0076C19.3901 4.30723 15.9645 2 11.9999 2Z" fill="#0052B4"/>
<path d="M11.9999 21.9978C15.9645 21.9978 19.3902 19.6906 21.0077 16.3457H2.99219C4.60969 19.6906 8.03532 21.9978 11.9999 21.9978Z" fill="#0052B4"/>
<path d="M9.99219 12.4333L12.0004 8.95508L14.0086 12.4333H9.99219Z" fill="#FFDA44"/>
<path d="M14.608 13.5848L11.9993 14.8892L9.39062 13.5848V11.8457H14.608V13.5848Z" fill="#6DA544"/>
<path d="M14.4611 9.10547L13.5388 10.0278C13.9322 10.4212 14.1756 10.9646 14.1756 11.565C14.1756 12.7656 13.2023 13.7389 12.0017 13.7389C10.8011 13.7389 9.82777 12.7655 9.82777 11.565C9.82777 10.9646 10.0711 10.4212 10.4645 10.0278L9.54222 9.10547C8.91273 9.73484 8.52344 10.6044 8.52344 11.565C8.52344 13.486 10.0807 15.0432 12.0017 15.0432C13.9226 15.0432 15.4799 13.4859 15.4799 11.565C15.4799 10.6044 15.0906 9.73484 14.4611 9.10547Z" fill="#FFDA44"/>
</svg>
