<svg id="default" viewBox="0 0 24 24" fill="none" xmlns="http://www.w3.org/2000/svg">
<path d="M11.1312 12.8696C11.1312 12.8696 4.93555 4.92754 4.92969 4.92895C6.7393 3.1193 9.23935 2 12.0008 2C17.5236 2 22.0008 6.47719 22.0008 12L11.1312 12.8696Z" fill="#D80027"/>
<path d="M11.1312 12C11.1312 12 4.93555 19.0725 4.92969 19.0711C6.7393 20.8807 9.23935 22 12.0008 22C17.5236 22 22.0008 17.5228 22.0008 12H11.1312Z" fill="#0052B4"/>
<path d="M4.92893 4.92969C1.02369 8.83493 1.02369 15.1666 4.92893 19.0719C6.54272 17.4581 8.09479 15.906 12 12.0008L4.92893 4.92969Z" fill="#F0F0F0"/>
<path d="M3.09512 12C3.08965 12.0718 3.08594 12.1441 3.08594 12.2173C3.08594 13.7781 4.35125 15.0434 5.91203 15.0434C7.47281 15.0434 8.73813 13.7781 8.73813 12.2173C8.73813 12.1441 8.73441 12.0718 8.72895 12H3.09512Z" fill="#FFDA44"/>
<path d="M5.91253 10.6981C6.39278 10.6981 6.7821 10.3088 6.7821 9.82856C6.7821 9.34831 6.39278 8.95898 5.91253 8.95898C5.43229 8.95898 5.04297 9.34831 5.04297 9.82856C5.04297 10.3088 5.43229 10.6981 5.91253 10.6981Z" fill="#FFDA44"/>
<path d="M3.95703 9.60742V12.4335C3.95703 13.9312 5.91356 14.39 5.91356 14.39C5.91356 14.39 7.87009 13.9312 7.87009 12.4335V9.60742H3.95703Z" fill="#D80027"/>
<path d="M5.91605 13.4796C5.55308 13.3489 4.82812 13.0151 4.82812 12.4331V10.4766H7.00207V12.4331C7.00207 13.017 6.27718 13.35 5.91605 13.4796Z" fill="#338AF3"/>
<path d="M6.34477 11.5643V11.1295L5.91 10.9121L5.4752 11.1295V11.5643L5.25781 11.7817V12.6513H6.5622V11.7817L6.34477 11.5643Z" fill="#F3F3F3"/>
</svg>
