<svg id="default" viewBox="0 0 24 24" fill="none" xmlns="http://www.w3.org/2000/svg">
<path d="M12 22C17.5228 22 22 17.5228 22 12C22 6.47715 17.5228 2 12 2C6.47715 2 2 6.47715 2 12C2 17.5228 6.47715 22 12 22Z" fill="#F0F0F0"/>
<path d="M11.9991 2C7.69945 2 4.03402 4.71375 2.62109 8.52176H21.3771C19.9642 4.71375 16.2987 2 11.9991 2Z" fill="#D80027"/>
<path d="M11.9991 22.0003C16.2987 22.0003 19.9641 19.2865 21.3771 15.4785H2.62109C4.03402 19.2865 7.69944 22.0003 11.9991 22.0003Z" fill="black"/>
<path d="M7.9772 9.60938L8.51677 11.27H10.263L8.85028 12.2965L9.38989 13.9572L7.9772 12.9308L6.56449 13.9572L7.10411 12.2965L5.69141 11.27H7.43762L7.9772 9.60938Z" fill="#6DA544"/>
<path d="M16.028 9.60938L16.5676 11.27H18.3138L16.9011 12.2965L17.4407 13.9572L16.028 12.9308L14.6153 13.9572L15.1549 12.2965L13.7422 11.27H15.4884L16.028 9.60938Z" fill="#6DA544"/>
</svg>
