<svg id="default" viewBox="0 0 24 24" fill="none" xmlns="http://www.w3.org/2000/svg">
<path d="M21.0077 16.3473C21.6434 15.0326 22 13.5576 22 11.9994C22 10.4412 21.6434 8.96625 21.0077 7.6516L12 7.2168L2.99227 7.65156C2.35656 8.96626 2 10.4412 2 11.9994C2 13.5576 2.35656 15.0326 2.99227 16.3473L12 16.7821L21.0077 16.3473Z" fill="#FFDA44"/>
<path d="M12.0038 2C8.03921 2 4.61359 4.30723 2.99609 7.6522H21.0115C19.394 4.30723 15.9684 2 12.0038 2Z" fill="black"/>
<path d="M12.0038 21.9998C8.03921 21.9998 4.61359 19.6926 2.99609 16.3477H21.0115C19.394 19.6926 15.9684 21.9998 12.0038 21.9998Z" fill="#0052B4"/>
<path d="M21.5278 8.95703H2.47223C2.1659 9.91676 2 10.9392 2 12.0005C2 13.0618 2.1659 14.0843 2.47223 15.044H21.5277C21.8341 14.0843 22 13.0618 22 12.0005C22 10.9392 21.8341 9.91676 21.5278 8.95703Z" fill="#A2001D"/>
<path d="M5.48047 11.5664H18.5239V12.4359H5.48047V11.5664Z" fill="#FFDA44"/>
<path d="M7.21875 9.82617H16.784V10.6957H7.21875V9.82617Z" fill="#FFDA44"/>
<path d="M16.8441 12.0013C16.8441 12.0013 14.608 14.61 11.9993 14.61C9.39066 14.61 9.39062 12.0013 9.39062 12.0013C9.39062 12.0013 9.39063 9.39258 11.9993 9.39258C14.608 9.39258 16.8441 12.0013 16.8441 12.0013Z" fill="#F0F0F0"/>
<path d="M11.9971 14.61C9.38837 14.61 7.15234 12.0013 7.15234 12.0013C7.15234 12.0013 9.38837 9.39258 11.9971 9.39258" fill="black"/>
<path d="M10.2656 11.1289H11.1352V12.8681H10.2656V11.1289Z" fill="#F0F0F0"/>
<path d="M12.8711 11.1289H13.7407V12.8681H12.8711V11.1289Z" fill="black"/>
<path d="M5.47504 12.87C5.95529 12.87 6.34461 12.4807 6.34461 12.0004C6.34461 11.5202 5.95529 11.1309 5.47504 11.1309C4.99479 11.1309 4.60547 11.5202 4.60547 12.0004C4.60547 12.4807 4.99479 12.87 5.47504 12.87Z" fill="#0052B4"/>
<path d="M18.5219 12.87C19.0022 12.87 19.3915 12.4807 19.3915 12.0004C19.3915 11.5202 19.0022 11.1309 18.5219 11.1309C18.0417 11.1309 17.6523 11.5202 17.6523 12.0004C17.6523 12.4807 18.0417 12.87 18.5219 12.87Z" fill="#0052B4"/>
</svg>
