<svg id="default" viewBox="0 0 24 24" fill="none" xmlns="http://www.w3.org/2000/svg">
<path d="M22 12C22 17.5228 17.5228 22 12 22C6.47719 22 2 17.5228 2 12C2 12.0024 12 2.00109 12 2C17.5228 2 22 6.47719 22 12Z" fill="#0052B4"/>
<path d="M11.9727 12.0014H11.9994C11.9994 11.9924 11.9994 11.9836 11.9994 11.9746C11.9905 11.9836 11.9816 11.9925 11.9727 12.0014Z" fill="#F0F0F0"/>
<path d="M12 7.21738C12 5.45781 12 4.30488 12 2H11.9983C6.4762 2.00094 2 6.47769 2 12H7.21737V9.06207L10.1553 12H11.9733C11.9822 11.9911 11.9911 11.9822 12 11.9732C12 11.2995 12 10.6984 12 10.1554L9.06201 7.21738H12Z" fill="#F0F0F0"/>
<path d="M7.05952 3.30469C5.4955 4.19527 4.19523 5.4955 3.30469 7.05952V12.0003H5.91339V5.91347V5.91339H12.0003C12.0003 5.09062 12.0003 4.3068 12.0003 3.30469H7.05952Z" fill="#D80027"/>
<path d="M12.0014 10.7697L8.44844 7.2168H7.21875V7.21687L12.0013 11.9994H12.0014C12.0014 11.9994 12.0014 11.1515 12.0014 10.7697Z" fill="#D80027"/>
<path d="M13.3047 7.2168V11.9994C13.3047 14.3291 16.3482 15.0429 16.3482 15.0429C16.3482 15.0429 19.3917 14.3291 19.3917 11.9994V7.2168H13.3047Z" fill="#FFDA44"/>
<path d="M15.911 8.95551C15.911 9.43578 15.5217 10.6946 15.0414 10.6946C14.5612 10.6946 14.1719 9.43578 14.1719 8.95551C14.1719 8.47523 15.0414 8.08594 15.0414 8.08594C15.0414 8.08594 15.911 8.47523 15.911 8.95551Z" fill="#FF9811"/>
<path d="M18.2169 9.90259C18.3572 9.5602 18.4664 9.05973 18.4664 8.81059C18.4664 8.41035 17.9446 8.08594 17.9446 8.08594C17.9446 8.08594 17.4229 8.41039 17.4229 8.81059C17.4229 9.05973 17.532 9.5602 17.6723 9.90259L17.3711 10.5827C17.5481 10.6546 17.7416 10.6946 17.9446 10.6946C18.1475 10.6946 18.341 10.6546 18.518 10.5827L18.2169 9.90259Z" fill="#A2001D"/>
<path d="M15.6965 12.0012C15.6965 12.0012 15.2617 12.8707 15.2617 13.7403H17.4356C17.4356 12.8707 17.0008 12.0012 17.0008 12.0012L16.3486 11.5664L15.6965 12.0012Z" fill="#6DA544"/>
<path d="M17.0005 11.999V11.7815C17.0005 11.4211 16.7084 11.1289 16.3479 11.1289C15.9875 11.1289 15.6953 11.4211 15.6953 11.7815V11.999H17.0005Z" fill="#D80027"/>
</svg>
