<svg id="default" viewBox="0 0 24 24" fill="none" xmlns="http://www.w3.org/2000/svg">
<path d="M2.99227 7.65082C2.35656 8.96551 2 10.4404 2 11.9986C2 13.5568 2.35656 15.0318 2.99227 16.3464L12 17.216L21.0077 16.3464C21.6434 15.0318 22 13.5568 22 11.9986C22 10.4404 21.6434 8.96551 21.0077 7.65082L12 6.78125L2.99227 7.65082Z" fill="#F0F0F0"/>
<path d="M2.98828 16.3477C4.60574 19.6926 8.03109 21.9998 11.9957 21.9998C15.9602 21.9998 19.3856 19.6926 21.003 16.3477H2.98828Z" fill="#6DA544"/>
<path d="M2.98828 7.6522H21.003C19.3856 4.30727 15.9602 2 11.9957 2C8.03109 2 4.60574 4.30727 2.98828 7.6522Z" fill="#D80027"/>
<path d="M10.2656 14.6075H13.7439V13.1293L13.0482 13.4771L12.0048 12.4336L10.9613 13.4771L10.2656 13.1293V14.6075Z" fill="#FFDA44"/>
<path d="M8.27213 12.8672L8.43415 13.3657H8.95833L8.53422 13.6739L8.69624 14.1724L8.27213 13.8643L7.84802 14.1724L8.01004 13.6739L7.58594 13.3657H8.11011L8.27213 12.8672Z" fill="#FFDA44"/>
<path d="M8.77212 11.127L8.93414 11.6255H9.45831L9.03421 11.9336L9.19619 12.4321L8.77212 12.124L8.34802 12.4321L8.51004 11.9336L8.08594 11.6255H8.6101L8.77212 11.127Z" fill="#FFDA44"/>
<path d="M10.2135 9.82422L10.3755 10.3228H10.8997L10.4757 10.6309L10.6376 11.1294L10.2135 10.8213L9.78947 11.1294L9.95145 10.6309L9.52734 10.3228H10.0516L10.2135 9.82422Z" fill="#FFDA44"/>
<path d="M15.7292 12.8672L15.5671 13.3657H15.043L15.4671 13.6739L15.3051 14.1724L15.7292 13.8643L16.1532 14.1724L15.9913 13.6739L16.4154 13.3657H15.8912L15.7292 12.8672Z" fill="#FFDA44"/>
<path d="M15.233 11.127L15.071 11.6255H14.5469L14.971 11.9336L14.809 12.4321L15.233 12.124L15.6571 12.4321L15.4951 11.9336L15.9192 11.6255H15.3951L15.233 11.127Z" fill="#FFDA44"/>
<path d="M13.7955 9.82422L13.6335 10.3228H13.1094L13.5334 10.6309L13.3714 11.1294L13.7955 10.8213L14.2196 11.1294L14.0576 10.6309L14.4817 10.3228H13.9575L13.7955 9.82422Z" fill="#FFDA44"/>
<path d="M11.9987 9.17188L12.1607 9.6704H12.6849L12.2608 9.97853L12.4228 10.4771L11.9987 10.169L11.5746 10.4771L11.7366 9.97853L11.3125 9.6704H11.8367L11.9987 9.17188Z" fill="#FFDA44"/>
</svg>
