<svg id="default" viewBox="0 0 24 24" fill="none" xmlns="http://www.w3.org/2000/svg">
<path d="M12 22C17.5228 22 22 17.5228 22 12C22 6.47715 17.5228 2 12 2C6.47715 2 2 6.47715 2 12C2 17.5228 6.47715 22 12 22Z" fill="#FFDA44"/>
<path d="M18.087 6.78262C17.9973 7.21367 17.9565 7.67277 17.9565 8.13043C17.9565 10.7685 19.5291 13.0517 21.7829 14.0796C21.9248 13.4086 22 12.7131 22 12C22 6.47719 17.5228 2 12 2C6.47719 2 2 6.47719 2 12C2 17.5228 6.47719 22 12 22C15.4251 22 18.4476 20.2777 20.2498 17.6522H7.65219V16.3479H21.0077C21.1444 16.0652 21.2679 15.775 21.378 15.4783H7.65219L18.087 6.78262Z" fill="#0052B4"/>
<path d="M9.34013 7.21484L9.55599 7.87915H10.2544L9.68939 8.28974L9.90525 8.95401L9.34013 8.5435L8.77508 8.95401L8.9909 8.28974L8.42578 7.87915H9.12427L9.34013 7.21484Z" fill="#F0F0F0"/>
<path d="M6.51394 12L6.78379 12.8304H7.65683L6.95047 13.3435L7.22031 14.1739L6.51394 13.6607L5.80762 14.1739L6.07742 13.3435L5.37109 12.8304H6.24414L6.51394 12Z" fill="#F0F0F0"/>
<path d="M6.51394 5.04297L6.78379 5.8734H7.65683L6.95047 6.38648L7.22031 7.21687L6.51394 6.70367L5.80762 7.21687L6.07742 6.38648L5.37109 5.8734H6.24414L6.51394 5.04297Z" fill="#F0F0F0"/>
<path d="M4.33426 8.95703L4.6041 9.78746H5.47711L4.77078 10.3005L5.04062 11.1309L4.33426 10.6177L3.62793 11.1309L3.89773 10.3005L3.19141 9.78746H4.06441L4.33426 8.95703Z" fill="#F0F0F0"/>
</svg>
