<svg id="default" viewBox="0 0 24 24" fill="none" xmlns="http://www.w3.org/2000/svg">
<path d="M12 22C17.5228 22 22 17.5228 22 12C22 6.47715 17.5228 2 12 2C6.47715 2 2 6.47715 2 12C2 17.5228 6.47715 22 12 22Z" fill="#F0F0F0"/>
<path d="M8.52277 7.2184V5.91406H7.2184V7.2184H5.91406V8.52277H7.2184V9.8271H8.52277V8.52277H9.8271V7.2184H8.52277Z" fill="#D80027"/>
<path d="M12 2V12C6.47719 12 4.28223 12 2 12C2 17.5228 6.47719 22 12 22C17.5228 22 22 17.5228 22 12C22 6.47719 17.5228 2 12 2Z" fill="#D80027"/>
</svg>
