<svg id="default" viewBox="0 0 24 24" fill="none" xmlns="http://www.w3.org/2000/svg">
<path d="M12 22C17.5228 22 22 17.5228 22 12C22 6.47715 17.5228 2 12 2C6.47715 2 2 6.47715 2 12C2 17.5228 6.47715 22 12 22Z" fill="#D80027"/>
<path d="M11.5914 10.1699L12.4119 11.3006L13.7407 10.8697L12.9189 11.9994L13.7393 13.13L12.411 12.6975L11.5892 13.8272L11.5901 12.4303L10.2617 11.9978L11.5905 11.567L11.5914 10.1699Z" fill="#F0F0F0"/>
<path d="M9.35035 14.8258C7.78957 14.8258 6.52426 13.5605 6.52426 11.9998C6.52426 10.439 7.78957 9.17367 9.35035 9.17367C9.83699 9.17367 10.2949 9.29676 10.6946 9.51336C10.0675 8.9 9.2098 8.52148 8.2634 8.52148C6.34238 8.52148 4.78516 10.0787 4.78516 11.9997C4.78516 13.9207 6.34242 15.478 8.2634 15.478C9.20988 15.478 10.0675 15.0994 10.6946 14.4861C10.2949 14.7028 9.83699 14.8258 9.35035 14.8258Z" fill="#F0F0F0"/>
</svg>
