<svg id="default" viewBox="0 0 24 24" fill="none" xmlns="http://www.w3.org/2000/svg">
<path d="M12 22C17.5228 22 22 17.5228 22 12C22 6.47715 17.5228 2 12 2C6.47715 2 2 6.47715 2 12C2 17.5228 6.47715 22 12 22Z" fill="#FFDA44"/>
<path d="M4.93148 19.0698C5.35097 19.4893 5.79855 19.8634 6.26804 20.1927L20.1965 6.26418C19.8672 5.79469 19.4931 5.34711 19.0736 4.92762C18.6541 4.50813 18.2065 4.13406 17.737 3.80469L3.80859 17.7332C4.13789 18.2026 4.51203 18.6502 4.93148 19.0698Z" fill="black"/>
<path d="M4.93243 4.92848C1.77766 8.08333 1.172 12.8213 3.1143 16.5847L16.5886 3.11039C12.8252 1.16808 8.08723 1.77378 4.93243 4.92848Z" fill="#6DA544"/>
<path d="M19.0663 19.0702C22.221 15.9155 22.8266 11.1775 20.8844 7.41406L7.41016 20.8883C11.1735 22.8306 15.9115 22.225 19.0663 19.0702Z" fill="#338AF3"/>
</svg>
