<svg id="default" viewBox="0 0 24 24" fill="none" xmlns="http://www.w3.org/2000/svg">
<path d="M19.4529 18.6692C21.0366 16.9 22 14.564 22 12.0026C22 9.4412 21.0365 7.10515 19.4528 5.33594L12 4.61133L4.54719 5.33594C2.96348 7.10515 2 9.4412 2 12.0026C2 14.564 2.96344 16.9 4.54715 18.6692L12 19.3939L19.4529 18.6692Z" fill="#FFDA44"/>
<path d="M4.54688 5.33333H19.4525C17.6215 3.28774 14.9611 2 11.9997 2C9.03824 2 6.37789 3.28774 4.54688 5.33333Z" fill="black"/>
<path d="M2 12.0013L12 12.8709L22 12.0013C22 10.8324 21.7988 9.71062 21.4302 8.66797H2.56984C2.20121 9.71062 2 10.8324 2 12.0013H2Z" fill="#D80027"/>
<path d="M2.56984 15.3333H21.4302C21.7988 14.2907 22 13.1689 22 12H2C2 13.1689 2.20121 14.2907 2.56984 15.3333Z" fill="black"/>
<path d="M19.4526 18.666H4.54688C6.37789 20.7117 9.03824 21.9994 11.9997 21.9994C14.9612 21.9994 17.6216 20.7117 19.4526 18.666Z" fill="#D80027"/>
<path d="M15.3419 11.9991C15.3419 13.8421 13.848 15.336 12.0049 15.336C10.1618 15.336 8.66797 13.8421 8.66797 11.9991C8.66797 10.156 10.1618 8.66211 12.0049 8.66211C13.848 8.66211 15.3419 10.156 15.3419 11.9991Z" fill="#F0F0F0"/>
<path d="M13.2253 12.1694L12.0028 11.6396C12.0028 11.6396 12.2889 10.6903 12.3041 10.6254C12.3152 10.5779 12.3212 10.5284 12.3212 10.4775C12.3212 10.2974 12.2482 10.1344 12.1301 10.0164L12.4375 9.70898C12.2409 9.5123 11.9691 9.39062 11.6689 9.39062C11.3688 9.39062 11.097 9.51227 10.9004 9.70898L11.2078 10.0164C11.0897 10.1344 11.0168 10.2975 11.0168 10.4775C11.0168 10.5434 11.0267 10.6069 11.0449 10.6668L10.582 11.1296H11.4233C11.4233 11.1296 11.0755 11.6521 10.8856 12.0811C10.6957 12.5101 10.8882 13.0338 11.327 13.2289L11.5808 13.3416L12.0028 13.7384V14.1731L11.5681 14.6079H12.4376V13.7383L12.8344 13.3416H13.655C13.659 13.3334 13.6631 13.3254 13.6669 13.3171C13.8618 12.8783 13.6642 12.3644 13.2253 12.1694Z" fill="black"/>
</svg>
