<svg id="default" viewBox="0 0 24 24" fill="none" xmlns="http://www.w3.org/2000/svg">
<path d="M2.47219 8.95824C2.16586 9.91793 1.99996 10.9403 2 12.0016C1.99996 13.0629 2.1659 14.0854 2.47223 15.0451L12 15.4799L21.5277 15.0451C21.834 14.0854 22 13.0629 22 12.0017C22 10.9403 21.8341 9.91793 21.5277 8.9582L12 8.52344L2.47219 8.95824Z" fill="#F0F0F0"/>
<path d="M21.5283 8.9582L12.0005 8.52344L2.47273 8.9582C2.38195 9.24273 2.30379 9.53285 2.23828 9.82777H21.7626C21.6972 9.53281 21.6191 9.24265 21.5283 8.9582Z" fill="#D80027"/>
<path d="M2.23438 14.1738C2.2998 14.4687 2.37797 14.7588 2.46875 15.0434L2.46969 15.0434L11.9965 15.4782L21.5242 15.0434C21.615 14.7589 21.6932 14.4687 21.7587 14.1738H2.23438Z" fill="#D80027"/>
<path d="M11.9965 21.9994C16.458 21.9994 20.2365 19.0775 21.5242 15.043H2.46875C3.75644 19.0774 7.53503 21.9994 11.9965 21.9994Z" fill="#6DA544"/>
<path d="M11.9965 2C7.53503 2.00004 3.75652 4.92203 2.46875 8.95652L21.5242 8.95656C20.2366 4.92199 16.4581 1.99996 11.9965 2Z" fill="#338AF3"/>
<path d="M6.57289 6.13226C6.57289 5.19566 7.23113 4.41324 8.11015 4.22129C7.97507 4.19176 7.83488 4.17578 7.69089 4.17578C6.61035 4.17578 5.73438 5.05172 5.73438 6.1323C5.73438 7.21288 6.61027 8.08882 7.69089 8.08882C7.83488 8.08882 7.97503 8.0728 8.11015 8.04331C7.23117 7.85128 6.57289 7.06886 6.57289 6.13226Z" fill="#F0F0F0"/>
<path d="M9.26849 7.02148L9.401 7.42937H9.82987L9.48292 7.68149L9.61543 8.08938L9.26849 7.8373L8.92147 8.08938L9.05401 7.68149L8.70703 7.42937H9.1359L9.26849 7.02148Z" fill="#F0F0F0"/>
<path d="M10.6317 7.02148L10.7642 7.42937H11.1931L10.8461 7.68149L10.9787 8.08938L10.6317 7.8373L10.2847 8.08938L10.4173 7.68149L10.0703 7.42937H10.4991L10.6317 7.02148Z" fill="#F0F0F0"/>
<path d="M12.0029 7.02148L12.1354 7.42937H12.5643L12.2173 7.68149L12.3498 8.08938L12.0029 7.8373L11.6558 8.08938L11.7884 7.68149L11.4414 7.42937H11.8703L12.0029 7.02148Z" fill="#F0F0F0"/>
<path d="M13.3701 7.02148L13.5026 7.42937H13.9315L13.5845 7.68149L13.7171 8.08938L13.3701 7.8373L13.023 8.08938L13.1556 7.68149L12.8086 7.42937H13.2375L13.3701 7.02148Z" fill="#F0F0F0"/>
<path d="M14.7372 7.02148L14.8697 7.42937H15.2986L14.9516 7.68149L15.0842 8.08938L14.7372 7.8373L14.3902 8.08938L14.5227 7.68149L14.1758 7.42937H14.6046L14.7372 7.02148Z" fill="#F0F0F0"/>
<path d="M10.6317 5.59961L10.7642 6.00745H11.1931L10.8461 6.2596L10.9787 6.66744L10.6317 6.41536L10.2847 6.66744L10.4173 6.2596L10.0703 6.00745H10.4991L10.6317 5.59961Z" fill="#F0F0F0"/>
<path d="M12.0029 5.59961L12.1354 6.00745H12.5643L12.2173 6.2596L12.3498 6.66744L12.0029 6.41536L11.6558 6.66744L11.7884 6.2596L11.4414 6.00745H11.8703L12.0029 5.59961Z" fill="#F0F0F0"/>
<path d="M13.3701 5.59961L13.5026 6.00745H13.9315L13.5845 6.2596L13.7171 6.66744L13.3701 6.41536L13.023 6.66744L13.1556 6.2596L12.8086 6.00745H13.2375L13.3701 5.59961Z" fill="#F0F0F0"/>
<path d="M14.7372 5.59961L14.8697 6.00745H15.2986L14.9516 6.2596L15.0842 6.66744L14.7372 6.41536L14.3902 6.66744L14.5227 6.2596L14.1758 6.00745H14.6046L14.7372 5.59961Z" fill="#F0F0F0"/>
<path d="M12.0029 4.17578L12.1354 4.58371H12.5643L12.2173 4.83579L12.3498 5.24371L12.0029 4.99163L11.6558 5.24371L11.7884 4.83579L11.4414 4.58371H11.8703L12.0029 4.17578Z" fill="#F0F0F0"/>
<path d="M13.3701 4.17578L13.5026 4.58371H13.9315L13.5845 4.83579L13.7171 5.24371L13.3701 4.99163L13.023 5.24371L13.1556 4.83579L12.8086 4.58371H13.2375L13.3701 4.17578Z" fill="#F0F0F0"/>
<path d="M14.7372 4.17578L14.8697 4.58371H15.2986L14.9516 4.83579L15.0842 5.24371L14.7372 4.99163L14.3902 5.24371L14.5227 4.83579L14.1758 4.58371H14.6046L14.7372 4.17578Z" fill="#F0F0F0"/>
</svg>
