<svg id="default" viewBox="0 0 24 24" fill="none" xmlns="http://www.w3.org/2000/svg">
<path d="M11.9997 2C17.5226 2 21.9998 6.47726 21.9998 12.0002C21.9998 17.5231 17.5226 22.0003 11.9997 22.0003C11.9997 21.5655 10.6953 12.0002 10.6953 12.0002L11.9997 2Z" fill="#F0F0F0"/>
<path d="M12.0002 22.0003C6.47726 22.0003 2 17.5231 2 12.0002C2 6.47726 6.47726 2 12.0002 2" fill="#FFDA44"/>
<path d="M15.8324 10.7019L17.7118 13.1881C17.4157 13.6365 17.4173 14.2406 17.7597 14.6936C18.1941 15.2683 19.0121 15.382 19.5868 14.9476C20.1615 14.5132 20.2752 13.6952 19.8408 13.1205C19.4984 12.6675 18.9176 12.5013 18.4055 12.6638L15.4765 8.78906L14.7828 9.31344L13.7422 10.0999L14.791 11.4873L15.8324 10.7019ZM18.5381 13.5602C18.7296 13.4153 19.0023 13.4533 19.1471 13.6448C19.2919 13.8364 19.254 14.1091 19.0625 14.2539C18.871 14.3986 18.5983 14.3608 18.4535 14.1692C18.3086 13.9777 18.3465 13.705 18.5381 13.5602Z" fill="#ACABB1"/>
<path d="M19.0559 11.4873L20.1046 10.1L19.0641 9.31344L18.3704 8.78906L15.4414 12.6638C14.9294 12.5013 14.3486 12.6676 14.0061 13.1205C13.5717 13.6952 13.6854 14.5132 14.2601 14.9476C14.8348 15.382 15.6527 15.2683 16.0871 14.6936C16.4296 14.2406 16.4311 13.6365 16.1351 13.1881L18.0144 10.7019L19.0559 11.4873ZM15.3934 14.1693C15.2487 14.3609 14.976 14.3988 14.7845 14.254C14.5929 14.1091 14.555 13.8364 14.6998 13.6449C14.8446 13.4534 15.1173 13.4154 15.3089 13.5603C15.5004 13.7051 15.5383 13.9778 15.3934 14.1693Z" fill="#FFDA44"/>
</svg>
