<svg id="default" viewBox="0 0 24 24" fill="none" xmlns="http://www.w3.org/2000/svg">
<path d="M16.7802 3.2161C15.3593 2.44081 13.7296 2 11.9969 2C10.2642 2 8.63443 2.44081 7.21346 3.2161L6.34375 12.0016L7.21346 20.7871C8.63443 21.5624 10.2642 22.0032 11.9969 22.0032C13.7296 22.0032 15.3593 21.5624 16.7802 20.7871L17.65 12.0016L16.7802 3.2161Z" fill="#FFDA44"/>
<path d="M7.21823 20.7859V3.21484C4.10929 4.91121 2 8.20936 2 12.0004C2 15.7915 4.10929 19.0896 7.21823 20.7859Z" fill="#338AF3"/>
<path d="M21.9995 12.0004C21.9995 8.20936 19.8902 4.91121 16.7812 3.21484V20.7859C19.8902 19.0896 21.9995 15.7915 21.9995 12.0004Z" fill="#6DA544"/>
<path d="M9.8215 14.6108L8.08203 12.0017L9.82146 9.39258L11.561 12.0017L9.8215 14.6108Z" fill="#6DA544"/>
<path d="M14.1691 14.6108L12.4297 12.0017L14.1691 9.39258L15.9085 12.0017L14.1691 14.6108Z" fill="#6DA544"/>
<path d="M12.0011 18.0893L10.2617 15.4802L12.0011 12.8711L13.7405 15.4802L12.0011 18.0893Z" fill="#6DA544"/>
</svg>
