<svg id="default" viewBox="0 0 24 24" fill="none" xmlns="http://www.w3.org/2000/svg">
<path d="M21.0077 16.3464C21.6435 15.0318 22 13.5569 22 11.9986C22 10.4404 21.6435 8.96551 21.0077 7.65082L12 6.78125L2.99227 7.65082C2.35652 8.96551 2 10.4404 2 11.9986C2 13.5569 2.35652 15.0318 2.99227 16.3464L12 17.216L21.0077 16.3464Z" fill="#0052B4"/>
<path d="M12.0038 21.9998C15.9684 21.9998 19.3941 19.6926 21.0116 16.3477H2.99609C4.6136 19.6926 8.03923 21.9998 12.0038 21.9998Z" fill="#D80027"/>
<path d="M19.3164 13.962L18.7882 14.3747L19.0174 15.0044L18.4617 14.6297L17.9335 15.0423L18.1182 14.398L17.5625 14.0232L18.2324 13.9998L18.4172 13.3555L18.6465 13.9853L19.3164 13.962Z" fill="#F0F0F0"/>
<path d="M17.963 11.6199L17.6079 12.1884L18.0388 12.7017L17.3884 12.5398L17.0331 13.1081L16.9863 12.4394L16.3359 12.2772L16.9575 12.0261L16.9108 11.3574L17.3416 11.871L17.963 11.6199Z" fill="#F0F0F0"/>
<path d="M15.894 9.88086L15.7547 10.5365L16.3352 10.8717L15.6686 10.9419L15.5292 11.5974L15.2565 10.9851L14.5898 11.0551L15.0881 10.6066L14.8154 9.99433L15.3959 10.3294L15.894 9.88086Z" fill="#F0F0F0"/>
<path d="M13.3537 8.95508L13.4471 9.61887L14.1071 9.73519L13.5047 10.0292L13.598 10.6929L13.1324 10.2107L12.5298 10.5046L12.8446 9.91265L12.3789 9.43055L13.0391 9.54691L13.3537 8.95508Z" fill="#F0F0F0"/>
<path d="M10.6479 8.95508L10.9627 9.54692L11.6226 9.43047L11.1571 9.91278L11.4717 10.5047L10.8693 10.2108L10.4036 10.6928L10.497 10.0292L9.89453 9.73536L10.5546 9.61887L10.6479 8.95508Z" fill="#F0F0F0"/>
<path d="M8.10512 9.88086L8.60332 10.3294L9.18367 9.99433L8.91113 10.6068L9.40922 11.0553L8.74262 10.9851L8.46988 11.5974L8.3307 10.9418L7.66406 10.8718L8.24453 10.5366L8.10512 9.88086Z" fill="#F0F0F0"/>
<path d="M6.03652 11.6198L6.65812 11.8709L7.08883 11.3574L7.04223 12.0262L7.66363 12.2773L7.01328 12.4394L6.96645 13.108L6.61137 12.5397L5.96094 12.7017L6.3918 12.1882L6.03652 11.6198Z" fill="#F0F0F0"/>
<path d="M4.67969 13.9619L5.34969 13.9852L5.57883 13.3555L5.76379 13.9998L6.4336 14.0232L5.87789 14.3981L6.06258 15.0424L5.53445 14.6297L4.97871 15.0045L5.20797 14.3746L4.67969 13.9619Z" fill="#F0F0F0"/>
<path d="M21.0116 7.6522C19.3941 4.30723 15.9684 2 12.0038 2C8.03923 2 4.6136 4.30723 2.99609 7.6522H21.0116Z" fill="#FFDA44"/>
</svg>
