<svg id="default" viewBox="0 0 24 24" fill="none" xmlns="http://www.w3.org/2000/svg">
<path d="M22 12C22 17.5228 17.5228 22 12 22C6.47719 22 2 17.5228 2 12C2 12.0024 12 2.00109 12 2C17.5228 2 22 6.47719 22 12Z" fill="#0052B4"/>
<path d="M11.9727 11.9994H11.9994C11.9994 11.9904 11.9994 11.9817 11.9994 11.9727C11.9905 11.9816 11.9816 11.9905 11.9727 11.9994Z" fill="#F0F0F0"/>
<path d="M12 7.21738C12 5.45781 12 4.30488 12 2H11.9983C6.4762 2.00094 2 6.47769 2 12H7.21737V9.06207L10.1553 12H11.9733C11.9822 11.9911 11.9911 11.9822 12 11.9732C12 11.2995 12 10.6984 12 10.1554L9.06201 7.21738H12Z" fill="#F0F0F0"/>
<path d="M7.05952 3.30469C5.4955 4.19527 4.19523 5.4955 3.30469 7.05952V12.0003H5.91339V5.91347V5.91339H12.0003C12.0003 5.09062 12.0003 4.3068 12.0003 3.30469H7.05952Z" fill="#D80027"/>
<path d="M16.3474 12L13.6445 14.7028C14.1511 15.6798 15.1709 16.3478 16.3474 16.3478C17.5238 16.3478 18.5436 15.6798 19.0502 14.7028L16.3474 12Z" fill="#FFDA44"/>
<path d="M12.0014 10.7697L8.44844 7.2168H7.21875V7.21687L12.0013 11.9994H12.0014C12.0014 11.9994 12.0014 11.1515 12.0014 10.7697Z" fill="#D80027"/>
<path d="M13.3047 7.2168V11.9994V11.9994C13.3047 14.329 16.3482 15.0429 16.3482 15.0429C16.3482 15.0429 19.3916 14.329 19.3917 11.9994V11.9994V7.2168H13.3047Z" fill="#6DA544"/>
<path d="M15.6953 9.39258H16.9996V12.8708H15.6953V9.39258Z" fill="#F0F0F0"/>
<path d="M16.3479 10.0455C16.7084 10.0455 17.0005 9.75328 17.0005 9.39285C17.0005 9.03242 16.7084 8.74023 16.3479 8.74023C15.9875 8.74023 15.6953 9.03242 15.6953 9.39285C15.6953 9.75328 15.9875 10.0455 16.3479 10.0455Z" fill="#A2001D"/>
<path d="M14.1719 8.08594H15.042V8.95609H14.1719V8.08594Z" fill="#FFDA44"/>
<path d="M14.1719 10.0391H15.042V10.9092H14.1719V10.0391Z" fill="#FFDA44"/>
<path d="M14.1719 12H15.042V12.8701H14.1719V12Z" fill="#FFDA44"/>
<path d="M17.6484 8.08594H18.5186V8.95609H17.6484V8.08594Z" fill="#FFDA44"/>
<path d="M17.6484 10.0391H18.5186V10.9092H17.6484V10.0391Z" fill="#FFDA44"/>
<path d="M17.6484 12H18.5186V12.8701H17.6484V12Z" fill="#FFDA44"/>
</svg>
