<svg id="default" xmlns="http://www.w3.org/2000/svg" viewBox="0 0 24 24" fill="currentColor">
<path fill-rule="evenodd" d="M12.0262 2C17.5635 2 22.0524 6.47721 22.0524 12C22.0524 17.523 17.5635 22 12.0262 22C6.48871 22 2 17.523 2 12C2 6.47721 6.48871 2 12.0262 2ZM12.0262 4.10542C16.3979 4.10542 19.9416 7.63984 19.9416 12.0001C19.9416 16.3603 16.3979 19.895 12.0262 19.895C7.65456 19.895 4.11087 16.3603 4.11087 12.0001C4.11087 7.63984 7.65456 4.10542 12.0262 4.10542Z"/>
<path fill-rule="evenodd" clip-rule="evenodd" d="M9.9921 12.8948C9.9921 12.5995 10.0656 12.3281 10.2124 12.0806C10.3593 11.8337 10.5911 11.643 10.9075 11.5088C10.6361 11.3946 10.4386 11.2374 10.3153 11.0374C10.1919 10.8376 10.1306 10.6181 10.1306 10.3797C10.1306 9.97226 10.2728 9.63575 10.5582 9.3697C10.8432 9.10412 11.2486 8.9711 11.7744 8.9711C12.2949 8.9711 12.6989 9.10412 12.9867 9.3697C13.2742 9.63575 13.418 9.97226 13.418 10.3797C13.418 10.6332 13.3521 10.8585 13.2201 11.056C13.0879 11.2537 12.9025 11.4044 12.6635 11.5088C12.9673 11.6306 13.1984 11.8083 13.3565 12.0416C13.5146 12.2751 13.5938 12.5448 13.5938 12.8504C13.5938 13.3546 13.4325 13.7646 13.11 14.0799C12.7873 14.3955 12.3581 14.5532 11.8229 14.5532C11.3247 14.5532 10.9099 14.4227 10.5788 14.162C10.1877 13.8539 9.9921 13.4316 9.9921 12.8948ZM7.58604 8.97127H8.4378V14.4564H7.38808V10.5101C7.00452 10.868 6.55241 11.1324 6.03174 11.3038V10.3536C6.30571 10.2643 6.60347 10.0948 6.92477 9.84499C7.24608 9.59545 7.46642 9.30406 7.58604 8.97127ZM11.7892 11.956C11.5324 11.956 11.3415 12.0441 11.2158 12.2206C11.0901 12.3969 11.0269 12.5883 11.0269 12.7943C11.0269 13.0825 11.1011 13.3074 11.2494 13.469C11.3974 13.6304 11.5823 13.7111 11.8041 13.7111C12.0207 13.7111 12.2002 13.6334 12.3422 13.4781C12.484 13.3227 12.5551 13.0985 12.5551 12.8057C12.5551 12.5497 12.4831 12.3441 12.3383 12.1888C12.1939 12.0334 12.0109 11.956 11.7892 11.956ZM11.3035 9.9809C11.4231 9.86159 11.5837 9.80206 11.7854 9.80206C11.9796 9.80206 12.1361 9.86113 12.2543 9.97904C12.3728 10.0972 12.432 10.2544 12.432 10.4507C12.432 10.6593 12.3721 10.8225 12.2525 10.9404C12.1331 11.0586 11.9736 11.1174 11.7745 11.1174C11.5777 11.1174 11.42 11.0593 11.3016 10.9425C11.1831 10.8258 11.1242 10.663 11.1242 10.4542C11.1242 10.2581 11.1838 10.1002 11.3035 9.9809Z"/>
<path d="M16.6462 13.6702V12.2507H18.0847V11.2702H16.6462V9.85071H15.69V11.2702H14.2552V12.2507H15.69V13.6702H16.6462Z"/>
</svg>