<svg id="default" viewBox="0 0 16 16" xmlns="http://www.w3.org/2000/svg">

<path fill-rule="evenodd" clip-rule="evenodd" d="M8.00004 3.29285L3.45959 8.49995L6.1667 8.49995V11.8333H9.83337V8.49995H12.5405L8.00004 3.29285Z"  fill="currentColor"/>
<path d="M8.00004 3.29285L8.56532 2.79994L8.00004 2.15166L7.43475 2.79994L8.00004 3.29285ZM3.45959 8.49995L2.89431 8.00705L1.81054 9.24995L3.45959 9.24995L3.45959 8.49995ZM6.1667 8.49995H6.9167V7.74995L6.1667 7.74995V8.49995ZM6.1667 11.8333H5.4167V12.5833H6.1667V11.8333ZM9.83337 11.8333V12.5833H10.5834V11.8333H9.83337ZM9.83337 8.49995V7.74995H9.08337V8.49995H9.83337ZM12.5405 8.49995V9.24995H14.1895L13.1058 8.00705L12.5405 8.49995ZM7.43475 3.78575L11.9752 8.99286L13.1058 8.00705L8.56532 2.79994L7.43475 3.78575ZM4.02488 8.99286L8.56532 3.78575L7.43475 2.79994L2.89431 8.00705L4.02488 8.99286ZM6.1667 7.74995L3.45959 7.74995L3.45959 9.24995L6.1667 9.24995L6.1667 7.74995ZM6.9167 11.8333V8.49995H5.4167V11.8333H6.9167ZM9.83337 11.0833H6.1667V12.5833H9.83337V11.0833ZM9.08337 8.49995V11.8333H10.5834V8.49995H9.08337ZM12.5405 7.74995H9.83337V9.24995H12.5405V7.74995Z"  fill="currentColor"/>

</svg>
