<svg id="default" viewBox="0 0 16 16" xmlns="http://www.w3.org/2000/svg">

    <path fill-rule="evenodd" clip-rule="evenodd"
        d="M8.00003 12.6667L12.5405 7.45958L9.83336 7.45958L9.83336 4.12625L6.16669 4.12625L6.16669 7.45958L3.45959 7.45958L8.00003 12.6667Z"
        fill="currentColor" />
    <path
        d="M8.00003 12.6667L7.43475 13.1596L8.00003 13.8079L8.56531 13.1596L8.00003 12.6667ZM12.5405 7.45958L13.1057 7.95249L14.1895 6.70958L12.5405 6.70958L12.5405 7.45958ZM9.83336 7.45958L9.08336 7.45958L9.08336 8.20958L9.83336 8.20958L9.83336 7.45958ZM9.83336 4.12625L10.5834 4.12625L10.5834 3.37625L9.83336 3.37625L9.83336 4.12625ZM6.16669 4.12625L6.16669 3.37625L5.41669 3.37625L5.41669 4.12625L6.16669 4.12625ZM6.16669 7.45958L6.16669 8.20958L6.91669 8.20958L6.91669 7.45958L6.16669 7.45958ZM3.45959 7.45958L3.45959 6.70958L1.81053 6.70958L2.89431 7.95249L3.45959 7.45958ZM8.56531 12.1738L4.02487 6.96667L2.89431 7.95249L7.43475 13.1596L8.56531 12.1738ZM11.9752 6.96667L7.43475 12.1738L8.56531 13.1596L13.1057 7.95249L11.9752 6.96667ZM9.83336 8.20958L12.5405 8.20958L12.5405 6.70958L9.83336 6.70958L9.83336 8.20958ZM9.08336 4.12625L9.08336 7.45958L10.5834 7.45958L10.5834 4.12625L9.08336 4.12625ZM6.16669 4.87625L9.83336 4.87625L9.83336 3.37625L6.16669 3.37625L6.16669 4.87625ZM6.91669 7.45958L6.91669 4.12625L5.41669 4.12625L5.41669 7.45958L6.91669 7.45958ZM3.45959 8.20958L6.16669 8.20958L6.16669 6.70958L3.45959 6.70958L3.45959 8.20958Z"
        fill="currentColor" />

</svg>