<svg id="default" viewBox="0 0 24 24" xmlns="http://www.w3.org/2000/svg">
<path fill="currentColor" fill-rule="evenodd" clip-rule="evenodd" d="M4.00143 4.0163C3.99651 4.02929 3.99466 7.63007 3.9973 12.018L4.00213 19.9961H19.9961V4.00216L12.0032 3.99742C5.61886 3.99362 4.00861 3.99742 4.00143 4.0163ZM5.57887 18.4194H18.4194V5.57889H5.57887V18.4194ZM7.42941 9.35551H9.35548V7.42943H7.42941V9.35551ZM11.0361 9.35551H12.9622V7.42943H11.0361V9.35551ZM14.6427 9.35551H16.5688V7.42943H14.6427V9.35551ZM7.42941 12.9622H9.35548V11.0361H7.42941V12.9622ZM11.0361 12.9622H12.9622V11.0361H11.0361V12.9622ZM14.6427 12.9622H16.5688V11.0361H14.6427V12.9622ZM7.42941 16.5688H9.35548V14.6428H7.42941V16.5688ZM11.0361 16.5688H12.9622V14.6428H11.0361V16.5688ZM14.6427 16.5688H16.5688V14.6428H14.6427V16.5688Z" />
</svg>