<svg id="default" viewBox="0 0 24 24" fill="none" xmlns="http://www.w3.org/2000/svg">
    <path fill-rule="evenodd" clip-rule="evenodd" d="M11.2475 2.78049C9.42911 2.93515 7.70949 3.60752 6.30134 4.71444C5.72611 5.1666 5.16662 5.72612 4.71416 6.30164C3.44915 7.91072 2.75024 9.93874 2.75024 12.0003C2.75024 13.3347 3.03548 14.6349 3.59931 15.8707C4.19829 17.1835 5.13911 18.3728 6.30134 19.2862C7.91057 20.5509 9.93948 21.2501 12 21.2501C12.7415 21.2501 13.4588 21.164 14.18 20.9885C16.212 20.494 17.9703 19.36 19.2939 17.6904C19.5007 17.4295 19.8629 16.888 20.0404 16.5742C21.2079 14.5103 21.545 12.1081 20.9882 9.82035C20.6406 8.39217 19.9724 7.09011 19.0074 5.96053C18.6809 5.57825 18.128 5.05187 17.6987 4.71446C16.426 3.71431 14.8638 3.05515 13.2341 2.83073C12.6629 2.75209 11.8293 2.73101 11.2475 2.78049ZM11.4482 4.02601C10.8719 4.08125 10.5164 4.13689 10.1239 4.23327C9.01212 4.5062 7.90662 5.0426 7.06442 5.71777C6.95982 5.80163 6.86047 5.88111 6.84364 5.89439C6.81775 5.91482 7.68451 6.7902 12.4414 11.5479C15.5371 14.6441 18.0746 17.1773 18.0804 17.1773C18.1042 17.1773 18.4569 16.7153 18.6313 16.4556C18.8601 16.1147 19.0016 15.8649 19.2046 15.4429C19.6 14.6211 19.8306 13.817 19.9503 12.8431C19.9849 12.5609 19.9849 11.44 19.9503 11.1576C19.8231 10.1215 19.5757 9.29533 19.1212 8.38926C18.7325 7.61438 18.2721 6.97864 17.6469 6.35345C17.0217 5.72827 16.3859 5.26786 15.6111 4.87914C14.7273 4.43581 13.9308 4.19223 12.9431 4.06327C12.706 4.03233 11.6555 4.00612 11.4482 4.02601ZM5.73711 7.03906C5.18137 7.73576 4.71982 8.5897 4.41127 9.4921C4.26619 9.91639 4.11863 10.5961 4.04974 11.1576C4.01509 11.4398 4.01509 12.5608 4.04974 12.8431C4.17688 13.8792 4.42431 14.7053 4.87884 15.6114C5.64073 17.1301 6.8702 18.3596 8.38896 19.1215C9.29503 19.576 10.1212 19.8234 11.1572 19.9506C11.4397 19.9853 12.5606 19.9852 12.8428 19.9506C13.8167 19.8309 14.6208 19.6003 15.4426 19.2049C16.017 18.9286 16.5074 18.6261 16.9297 18.2876C17.0375 18.2011 17.1395 18.1195 17.1564 18.1062C17.1823 18.0858 16.3155 17.2104 11.5586 12.4527C8.46294 9.35657 5.92543 6.82335 5.91965 6.82335C5.91389 6.82335 5.83174 6.92043 5.73711 7.03906Z" fill="currentColor" style="fill-opacity:1;"/>
</svg>
