<svg id="default" viewBox="0 0 20 20" xmlns="http://www.w3.org/2000/svg">
<path fill-rule="evenodd" clip-rule="evenodd" d="M3.55396 9.94002C3.55396 14.1796 3.55724 17.6484 3.56126 17.6484C3.56528 17.6484 5.01342 16.8039 6.77935 15.7718C8.54529 14.7396 9.99452 13.8952 9.99989 13.8952C10.0052 13.8952 11.4546 14.7396 13.2206 15.7718C14.9866 16.8039 16.4348 17.6484 16.4388 17.6484C16.4428 17.6484 16.4461 14.1796 16.4461 9.94002V2.23169H3.55396V9.94002ZM4.61427 15.8177L4.65214 15.7932C4.67298 15.7797 5.88477 15.0706 7.34501 14.2173L10 12.6658L12.655 14.2173C14.1153 15.0706 15.327 15.7797 15.3479 15.7932L15.3857 15.8177V3.29201H4.61427V15.8177Z" fill="currentColor"/>
</svg>
