<svg id="default" viewBox="0 0 24 24" fill="none" xmlns="http://www.w3.org/2000/svg">
    <path fill-rule="evenodd" clip-rule="evenodd" d="M11.2477 2.77662C9.42821 2.93137 7.70846 3.60379 6.29948 4.71136C5.72402 5.16371 5.1643 5.72345 4.71166 6.2992C3.39901 7.96887 2.69614 10.0875 2.75377 12.2009C2.79161 13.5883 3.06048 14.729 3.64431 15.9791L3.73536 16.174L3.37881 18.5643C3.18271 19.879 3.02684 20.9592 3.03244 20.9648C3.03804 20.9704 4.12544 20.8182 5.44891 20.6267L7.8552 20.2784L8.04591 20.3664C9.06267 20.836 9.99357 21.0961 11.0469 21.205C11.4701 21.2487 12.2175 21.2637 12.5926 21.236C13.1955 21.1915 13.6458 21.1223 14.1813 20.992C16.2142 20.4973 17.9732 19.3629 19.2973 17.6925C19.5042 17.4316 19.8665 16.8898 20.0441 16.5759C21.2121 14.5111 21.5493 12.108 20.9923 9.81934C20.6446 8.39058 19.9761 7.08799 19.0107 5.95795C18.684 5.57552 18.1309 5.04892 17.7014 4.71138C16.4283 3.71082 14.8654 3.05139 13.235 2.82689C12.6637 2.74822 11.8296 2.72712 11.2477 2.77662ZM11.4484 4.02265C10.6926 4.09511 10.2436 4.17944 9.64441 4.36151C8.86422 4.59861 7.92436 5.07111 7.26834 5.55607C6.6475 6.01504 6.01531 6.64723 5.55634 7.26807C5.07138 7.92408 4.59888 8.86394 4.36179 9.64413C4.13114 10.4032 4.03457 11.0132 4.01676 11.8238C3.99785 12.6832 4.08204 13.3679 4.30426 14.1625C4.4398 14.6471 4.58206 15.0117 4.84894 15.5584L5.04253 15.9549L4.77955 17.7163C4.63489 18.6851 4.51875 19.48 4.52144 19.4827C4.52413 19.4855 5.32501 19.3719 6.30117 19.2302L8.07602 18.9727L8.39025 19.129C9.2124 19.538 9.96368 19.7781 10.8261 19.9074C11.6375 20.0291 12.5996 20.0146 13.4157 19.8681C14.482 19.6768 15.5506 19.2431 16.4604 18.6322C18.1319 17.51 19.3215 15.7843 19.7867 13.8068C19.8508 13.5343 19.9131 13.1752 19.9539 12.8433C19.9886 12.561 19.9886 11.4396 19.9539 11.1571C19.8268 10.1206 19.5792 9.2941 19.1245 8.38767C18.7356 7.61248 18.275 6.97648 17.6496 6.35104C17.0242 5.72559 16.3882 5.265 15.613 4.87613C14.7289 4.43262 13.932 4.18894 12.9439 4.05992C12.7068 4.02897 11.6558 4.00275 11.4484 4.02265ZM8.46746 10.6753H15.5335V9.41065H8.46746V10.6753ZM8.46746 14.5897H13.9677V13.3251H8.46746V14.5897Z" fill="currentColor"/>
</svg>
