<svg id="default" viewBox="0 0 20 20" fill="currentColor" xmlns="http://www.w3.org/2000/svg">
    <path fill-rule="evenodd" clip-rule="evenodd" d="M4.98147 2.38249C4.0329 2.96688 3.20123 3.68949 2.51472 4.52574C2.4176 4.64406 2.404 4.66828 2.42385 4.6875C2.46432 4.72666 3.21628 5.31485 3.22505 5.31419C3.22965 5.31386 3.26351 5.27437 3.30029 5.22646C3.5344 4.92154 4.1011 4.34452 4.45612 4.04962C4.81863 3.7485 5.227 3.4565 5.56276 3.25833C5.62947 3.21897 5.68404 3.1834 5.68404 3.17932C5.68404 3.1692 5.1815 2.29837 5.16792 2.28495C5.16198 2.27908 5.07807 2.32297 4.98147 2.38249ZM14.5707 2.72988C14.4304 2.9732 14.3156 3.17552 14.3156 3.17951C14.3156 3.18349 14.3702 3.21897 14.4369 3.25833C14.7737 3.45715 15.1836 3.75031 15.5431 4.04967C15.9037 4.34992 16.4618 4.91801 16.6993 5.22662C16.7361 5.27445 16.77 5.31383 16.7746 5.31416C16.7833 5.31476 17.5346 4.72698 17.5758 4.68735C17.5956 4.66828 17.5819 4.64391 17.4849 4.52574C17.0067 3.94321 16.4129 3.37415 15.8127 2.92318C15.4852 2.67707 14.8894 2.28701 14.8416 2.28738C14.8329 2.28744 14.711 2.48657 14.5707 2.72988ZM9.52308 3.60991C7.96197 3.72055 6.51304 4.32501 5.33276 5.35799C4.50714 6.08056 3.83419 7.04293 3.42717 8.08314C2.54096 10.348 2.8844 12.9142 4.33431 14.8612C4.77182 15.4487 5.33015 15.9934 5.93496 16.4229C6.77016 17.0159 7.79053 17.4373 8.80619 17.6086C9.25696 17.6846 9.47003 17.7011 9.99982 17.7011C10.5296 17.7011 10.7427 17.6846 11.1935 17.6086C12.4629 17.3945 13.6905 16.808 14.6585 15.9532C15.7546 14.9853 16.5147 13.7279 16.8574 12.3156C17.105 11.2953 17.1245 10.282 16.9165 9.2544C16.5596 7.49134 15.5484 5.93645 14.0808 4.89381C13.5293 4.50204 12.7927 4.13314 12.1536 3.92873C11.3271 3.66433 10.378 3.54932 9.52308 3.60991ZM9.57326 4.65624C8.34827 4.754 7.19624 5.20558 6.24442 5.96114C6.01886 6.1402 5.50162 6.65478 5.32936 6.87152C4.61483 7.77053 4.19546 8.75578 4.03382 9.91515C3.99677 10.1809 3.99127 11.0738 4.02516 11.3203C4.13404 12.1123 4.31686 12.7193 4.64196 13.368C5.15579 14.3934 6.00864 15.2917 7.0139 15.8663C7.54913 16.1722 8.2243 16.425 8.82887 16.5457C9.57202 16.6942 10.4276 16.6942 11.1708 16.5457C11.7753 16.425 12.4505 16.1722 12.9857 15.8663C13.9904 15.292 14.8442 14.3928 15.3577 13.368C15.6828 12.7193 15.8656 12.1123 15.9745 11.3203C16.0084 11.0738 16.0029 10.1809 15.9658 9.91515C15.8042 8.75583 15.3856 7.77223 14.6704 6.87152C14.5018 6.65918 13.983 6.14269 13.7636 5.96872C12.999 5.36257 12.1199 4.95097 11.1875 4.76248C10.8083 4.68585 10.5604 4.66142 10.1002 4.65539C9.85638 4.65219 9.61926 4.65258 9.57326 4.65624ZM9.48126 11.1697H12.6094V10.1329L10.5267 10.1243L10.5182 6.73686H9.48126V11.1697Z" fill="currentColor"/>
</svg>
