<svg id="default" width="24" height="24" viewBox="0 0 24 24" fill="none" xmlns="http://www.w3.org/2000/svg">
<path fill-rule="evenodd" clip-rule="evenodd" d="M2.75 19.685H21.25V4.31519H2.75V19.685ZM4.02413 6.93286L12 11.2831L19.9759 6.93286L19.9864 5.57929H4.01356L4.02413 6.93286ZM4.0141 13.3946V18.4209H19.9859V13.393C19.9859 10.6276 19.9782 8.36799 19.9688 8.37168C19.9594 8.37535 18.1659 9.35276 15.9831 10.5437C12.3843 12.5072 12.0095 12.7072 11.9621 12.6889C11.9333 12.6778 10.1362 11.7011 7.96863 10.5185C5.80104 9.33591 4.02451 8.36833 4.02082 8.36833C4.01713 8.36833 4.0141 10.6302 4.0141 13.3946Z" fill="currentColor"/>
</svg>
