<svg id="default" xmlns="http://www.w3.org/2000/svg" viewBox="0 0 24 24">
<path fill="currentColor" fill-rule="evenodd" clip-rule="evenodd" d="M3.18886 3.19997L2.75006 3.63911L20.362 21.2511L21.2501 20.363L17.7416 16.8544L17.7796 16.8048C17.8004 16.7775 17.9033 16.6486 18.0082 16.5185C18.4127 16.0166 18.7696 15.5211 19.4438 14.5256C20.6059 12.8097 20.7686 12.5708 20.9582 12.3009C21.0698 12.142 21.1568 12.0005 21.1514 11.9865C21.1461 11.9726 21.0547 11.8376 20.9483 11.6867C20.842 11.5358 20.5483 11.1069 20.2957 10.7337C18.9244 8.70743 18.707 8.39392 18.3099 7.86986C17.2808 6.51178 16.3882 5.69314 15.3071 5.11608C14.2439 4.54852 12.863 4.2837 11.4578 4.37792C9.8323 4.48691 8.54807 5.00809 7.34741 6.04604L7.12527 6.23807L5.38656 4.49944C4.43027 3.54321 3.64332 2.76083 3.63776 2.76083C3.63221 2.76083 3.4302 2.95845 3.18886 3.19997ZM11.3976 5.63436C10.2311 5.7471 9.33714 6.08466 8.48756 6.73319C8.29312 6.88161 8.02855 7.10866 8.02855 7.12712C8.02855 7.13506 8.56093 7.67389 9.21163 8.32451L10.3947 9.50745L10.5533 9.41704C11.2216 9.03624 12.0735 8.93895 12.8274 9.1574C13.7969 9.43836 14.5627 10.2041 14.8436 11.1737C15.0625 11.9292 14.9657 12.7779 14.584 13.4477L14.4936 13.6063L15.6665 14.7794C16.3117 15.4246 16.8457 15.9503 16.8531 15.9475C16.8734 15.9401 17.2069 15.5198 17.4272 15.2241C17.6983 14.86 17.9432 14.5096 18.4728 13.7273C18.7255 13.3541 19.0919 12.8131 19.2869 12.525L19.6416 12.0012L19.2601 11.4373C17.9729 9.53437 17.719 9.16716 17.3522 8.67813C16.0215 6.904 14.8669 6.05744 13.3517 5.74507C12.9198 5.65602 12.6779 5.63263 12.1098 5.6249C11.8134 5.62089 11.4929 5.62514 11.3976 5.63436ZM4.93264 8.9225C4.78304 9.13934 4.39762 9.70742 4.07613 10.1849C3.58367 10.9163 3.17379 11.5155 2.89172 11.9162L2.83201 12.001L2.89172 12.0858C3.16856 12.4791 3.58607 13.0892 4.09703 13.847C5.11175 15.3521 5.55867 15.9822 6.00088 16.5313C7.08523 17.8777 8.098 18.6855 9.30092 19.1635C10.2103 19.5248 11.2912 19.6865 12.4076 19.6282C13.3222 19.5804 14.0898 19.4169 14.8184 19.1146C15.039 19.0231 15.4127 18.8404 15.4127 18.824C15.4127 18.8086 14.8984 17.8625 14.8417 17.7736L14.8131 17.7287L14.6389 17.8161C14.1012 18.0858 13.5383 18.2507 12.8482 18.3406C12.4539 18.392 11.5248 18.3921 11.1419 18.3407C10.4232 18.2443 9.8838 18.0818 9.31578 17.7908C8.75665 17.5043 8.30376 17.1666 7.78816 16.6516C7.04721 15.9114 6.58269 15.2968 5.09539 13.0887C4.7627 12.5947 4.45941 12.1477 4.42143 12.0954L4.35238 12.0001L4.40104 11.9357C4.4278 11.9003 4.75573 11.417 5.12979 10.8618C5.50383 10.3066 5.90523 9.71484 6.02178 9.54688C6.13831 9.37892 6.23113 9.23962 6.22803 9.23731C6.1057 9.14601 5.24686 8.54426 5.22952 8.53769C5.21455 8.53202 5.09608 8.68557 4.93264 8.9225ZM11.7506 10.3056C11.6172 10.3265 11.3444 10.4035 11.3319 10.4237C11.3274 10.4309 11.8302 10.9432 12.4492 11.5621L13.5746 12.6874L13.5974 12.6286C13.6098 12.5962 13.6385 12.5024 13.6609 12.4201C13.7195 12.2055 13.7187 11.7951 13.6593 11.5719C13.5017 10.98 13.0117 10.4909 12.4291 10.344C12.2428 10.297 11.9215 10.2788 11.7506 10.3056Z"/>
</svg>