<svg id="default" viewBox="0 0 24 24" fill="none" xmlns="http://www.w3.org/2000/svg">
<path fill-rule="evenodd" clip-rule="evenodd" d="M11.3833 8.92993L9.3344 6.88126L8.44929 7.7664L12 11.3171L15.5507 7.7664L14.6656 6.88126L12.6167 8.92993V2.65399H11.3833V8.92993ZM4.3812 21.154H19.6188V9.01958H16.2769V10.2728H18.3656V12.3959L15.1879 14.1612C12.5557 15.6235 12.0028 15.9236 11.967 15.9095C11.9432 15.9001 10.5087 15.1057 8.7791 14.1442L5.63442 12.396V10.2728H7.72313V9.01958H4.3812V21.154ZM5.63442 16.8672V19.9008H18.3656V16.8672C18.3656 15.1987 18.3616 13.8336 18.3567 13.8336C18.3517 13.8336 16.9195 14.627 15.1739 15.5968L12 17.36L8.82617 15.5968C7.08056 14.627 5.64831 13.8336 5.64337 13.8336C5.63846 13.8336 5.63442 15.1987 5.63442 16.8672Z" fill="currentColor"/>
</svg>
