<svg id="default" viewBox="0 0 24 24" fill="none" xmlns="http://www.w3.org/2000/svg">
<g clip-path="url(#clip0_22076_3910)">
<path d="M21.25 12C21.25 6.89137 17.1086 2.75 12 2.75C6.89137 2.75 2.75 6.89137 2.75 12C2.75 17.1086 6.89137 21.25 12 21.25C17.1086 21.25 21.25 17.1086 21.25 12Z" fill="url(#paint0_linear_22076_3910)"/>
<path d="M15.4053 11.3611V14.8416C15.4053 15.0094 15.3386 15.1704 15.2199 15.2891C15.1012 15.4078 14.9402 15.4744 14.7724 15.4744H9.00833C8.8405 15.4744 8.67953 15.4078 8.56085 15.2891C8.44218 15.1704 8.3755 15.0094 8.3755 14.8416V11.3611M11.8561 8.67154C11.8561 8.4525 11.7911 8.23839 11.6694 8.05627C11.5477 7.87415 11.3748 7.73221 11.1724 7.64839C10.9701 7.56456 10.7474 7.54263 10.5325 7.58537C10.3177 7.6281 10.1204 7.73357 9.96552 7.88845C9.81064 8.04333 9.70517 8.24066 9.66244 8.45549C9.61971 8.67031 9.64164 8.89298 9.72546 9.09534C9.80928 9.2977 9.95122 9.47066 10.1333 9.59235C10.3155 9.71404 10.5295 9.77899 10.7486 9.77899H11.8561M11.8561 8.67154V9.77899M11.8561 8.67154C11.8561 8.4525 11.921 8.23839 12.0427 8.05627C12.1644 7.87415 12.3374 7.73221 12.5397 7.64839C12.7421 7.56456 12.9648 7.54263 13.1796 7.58537C13.3944 7.6281 13.5918 7.73357 13.7466 7.88845C13.9015 8.04333 14.0069 8.24066 14.0497 8.45549C14.0924 8.67031 14.0705 8.89298 13.9866 9.09534C13.9029 9.2977 13.7609 9.47066 13.5788 9.59235C13.3967 9.71404 13.1825 9.77899 12.9635 9.77899H11.8561M11.8561 9.77899V15.4744M8.21729 11.3611H15.5635C15.8255 11.3611 16.0381 11.1484 16.0381 10.8864V10.2536C16.0381 9.99162 15.8255 9.77899 15.5635 9.77899H8.21729C7.9553 9.77899 7.74268 9.99162 7.74268 10.2536V10.8864C7.74268 11.1484 7.9553 11.3611 8.21729 11.3611Z" stroke="white" stroke-width="0.770833" stroke-linecap="round" stroke-linejoin="round"/>
</g>
<defs>
<linearGradient id="paint0_linear_22076_3910" x1="12" y1="2.75" x2="12" y2="21.25" gradientUnits="userSpaceOnUse">
<stop stop-color="#C8102E"/>
<stop offset="1" stop-color="#650010"/>
</linearGradient>
<clipPath id="clip0_22076_3910">
<rect width="18.5" height="18.5" fill="white" transform="translate(2.75 2.75)"/>
</clipPath>
</defs>
</svg>
