<svg id="default" viewBox="0 0 24 24" xmlns="http://www.w3.org/2000/svg" fill="none">
<path d="M8.41187 6H19.0001M8.41187 12H19.0001M8.41187 18H19.0001" stroke="currentColor" stroke-width="1.5" stroke-linecap="round" stroke-linejoin="round"/>
<path d="M3 16.768C3.05946 16.5485 3.18921 16.3546 3.36939 16.2159C3.54956 16.0772 3.77022 16.0014 3.9976 16C4.27746 16 4.54585 16.1112 4.74374 16.3091C4.94163 16.5069 5.0528 16.7753 5.0528 17.0552C5.0528 17.3058 4.95326 17.5461 4.77607 17.7233C4.59889 17.9005 4.35858 18 4.108 18C4.35858 18 4.59889 18.0995 4.77607 18.2767C4.95326 18.4539 5.0528 18.6942 5.0528 18.9448C5.0528 19.2247 4.94163 19.4931 4.74374 19.6909C4.54585 19.8888 4.27746 20 3.9976 20C3.77022 19.9986 3.54956 19.9228 3.36939 19.7841C3.18921 19.6454 3.05946 19.4515 3 19.232" stroke="currentColor" stroke-linecap="round" stroke-linejoin="round"/>
<path d="M3 10H5V11.6L3 12.8V14H5.2" stroke="currentColor" stroke-linecap="round" stroke-linejoin="round"/>
<path d="M5 8H3H4V4L3 5" stroke="currentColor" stroke-linecap="round" stroke-linejoin="round"/>
</svg>
