<svg id="default" viewBox="0 0 24 24" xmlns="http://www.w3.org/2000/svg">
<path fill-rule="evenodd" clip-rule="evenodd" d="M2.75 21.25H21.25V2.75H2.75V21.25ZM4.13092 13.0302H9.25424L9.26687 13.5508C9.28046 14.1108 9.30018 14.2517 9.41134 14.5835C9.78162 15.6887 10.8365 16.4488 12 16.4488C12.1855 16.4488 12.5477 16.4004 12.7124 16.3535C13.6038 16.0998 14.3026 15.4424 14.5855 14.5914C14.7009 14.2444 14.7202 14.1082 14.7334 13.5508L14.7458 13.0302H19.8691V4.13092H4.13092V13.0302ZM7.72571 7.55035H16.2743V6.16943H7.72571V7.55035ZM7.72571 10.9698H16.2743V9.61078H7.72571V10.9698ZM4.13092 19.8691H19.8691V14.4111H16.0559L16.0449 14.4605C16.0389 14.4876 16.0196 14.5739 16.0022 14.6523C15.8853 15.1763 15.6096 15.7571 15.2595 16.2171C15.0867 16.4441 14.7344 16.7964 14.5073 16.9692C13.0123 18.1073 10.9877 18.1073 9.49266 16.9692C9.26562 16.7964 8.91333 16.4441 8.74049 16.2171C8.3904 15.7571 8.11472 15.1763 7.99784 14.6523C7.98037 14.5739 7.96113 14.4876 7.95508 14.4605L7.94407 14.4111H4.13092V19.8691Z" fill="currentColor"/>
</svg>
