<svg id="default" viewBox="0 0 24 24" xmlns="http://www.w3.org/2000/svg">
    <path fill-rule="evenodd" clip-rule="evenodd" d="M11.2478 2.7805C9.42935 2.93516 7.70974 3.60752 6.30158 4.71445C5.72636 5.16661 5.16686 5.72613 4.7144 6.30165C3.4494 7.91072 2.75049 9.93875 2.75049 12.0003C2.75049 13.3347 3.03572 14.635 3.59955 15.8707C4.19853 17.1835 5.13935 18.3728 6.30158 19.2862C7.91081 20.5509 9.93972 21.2501 12.0003 21.2501C12.7417 21.2501 13.4591 21.164 14.1802 20.9885C16.2123 20.494 17.9705 19.36 19.2942 17.6904C19.501 17.4296 19.8631 16.888 20.0406 16.5742C21.2081 14.5103 21.5452 12.1081 20.9884 9.82036C20.6409 8.39218 19.9727 7.09011 19.0077 5.96053C18.6811 5.57826 18.1282 5.05188 17.6989 4.71447C16.4263 3.71431 14.864 3.05515 13.2343 2.83074C12.6632 2.7521 11.8295 2.73101 11.2478 2.7805ZM11.3782 8.0875H12.6223V6.50231H11.3782V8.0875ZM8.87 11.0569L11.3682 11.0673L11.3784 15.2911H8.87V16.5552H15.1305V15.2911H12.6223V9.81316H8.87V11.0569Z" fill="currentColor"/>
</svg>
