<svg id="default" viewBox="0 0 24 24" xmlns="http://www.w3.org/2000/svg">
<path fill-rule="evenodd" clip-rule="evenodd" d="M11.2475 2.78049C9.42911 2.93515 7.70949 3.60752 6.30134 4.71444C5.72611 5.1666 5.16662 5.72612 4.71416 6.30164C3.44915 7.91072 2.75024 9.93874 2.75024 12.0003C2.75024 13.3347 3.03548 14.6349 3.59931 15.8707C4.19829 17.1835 5.13911 18.3728 6.30134 19.2862C7.91057 20.5509 9.93948 21.2501 12 21.2501C12.7415 21.2501 13.4588 21.164 14.18 20.9885C16.212 20.494 17.9703 19.36 19.2939 17.6904C19.5007 17.4295 19.8629 16.888 20.0404 16.5742C21.2079 14.5103 21.545 12.1081 20.9882 9.82035C20.6406 8.39217 19.9724 7.09011 19.0074 5.96053C18.6809 5.57825 18.128 5.05187 17.6987 4.71446C16.426 3.71431 14.8638 3.05515 13.2341 2.83073C12.6629 2.75209 11.8293 2.73101 11.2475 2.78049ZM11.4482 4.02601C10.6926 4.09845 10.2439 4.18274 9.64491 4.36474C8.86504 4.60173 7.92556 5.07404 7.26981 5.55881C6.64922 6.01759 6.01729 6.64952 5.5585 7.27012C5.10759 7.88005 4.67792 8.71226 4.41127 9.4921C4.31856 9.76322 4.18121 10.3193 4.12619 10.6462C4.0356 11.1845 4.02388 11.3396 4.02388 12.0003C4.02388 12.6589 4.03582 12.818 4.12469 13.3447C4.25792 14.1343 4.4944 14.845 4.87884 15.6114C5.64073 17.1301 6.8702 18.3596 8.38896 19.1215C9.29503 19.576 10.1212 19.8234 11.1572 19.9506C11.4397 19.9853 12.5606 19.9852 12.8428 19.9506C13.9955 19.8089 14.9854 19.4874 15.9704 18.9345C17.1475 18.2738 18.2735 17.1478 18.9342 15.9707C19.4871 14.9857 19.8086 13.9958 19.9503 12.8431C19.9849 12.5609 19.9849 11.44 19.9503 11.1576C19.8231 10.1215 19.5757 9.29533 19.1212 8.38926C18.7325 7.61438 18.2721 6.97864 17.6469 6.35345C17.0217 5.72827 16.3859 5.26786 15.6111 4.87914C14.7273 4.43581 13.9308 4.19223 12.9431 4.06327C12.706 4.03233 11.6555 4.00612 11.4482 4.02601ZM11.378 8.08749H12.622V6.5023H11.378V8.08749ZM8.86975 11.0569L11.3679 11.0673L11.3782 15.2911H8.86975V16.5552H15.1303V15.2911H12.622V9.81315H8.86975V11.0569Z" fill="currentColor"/>
</svg>