<svg id="default" xmlns="http://www.w3.org/2000/svg" viewBox="0 0 59 51" fill="none">
    <path
        d="M3 18.8691H55.0645C55.8929 18.8691 56.5645 19.5407 56.5645 20.3691V44.5625C56.5645 45.3909 55.8929 46.0625 55.0645 46.0625H3C2.17157 46.0625 1.5 45.3909 1.5 44.5625V20.3691C1.5 19.5407 2.17157 18.8691 3 18.8691Z"
        stroke="currentColor" stroke-opacity="0.75" stroke-width="3" />
    <rect x="6.19336" y="23.5625" width="3.87097" height="3.87097" fill="currentColor" fill-opacity="0.75" />
    <rect x="6.19336" y="30.5312" width="3.87097" height="3.87097" fill="currentColor" fill-opacity="0.75" />
    <rect x="6.19336" y="37.498" width="3.87097" height="3.87097" fill="currentColor" fill-opacity="0.75" />
    <rect x="13.1611" y="23.5625" width="3.87097" height="3.87097" fill="currentColor" fill-opacity="0.75" />
    <rect x="13.1611" y="30.5312" width="3.87097" height="3.87097" fill="currentColor" fill-opacity="0.75" />
    <rect x="13.1611" y="37.498" width="31.7419" height="3.87097" fill="currentColor" fill-opacity="0.75" />
    <rect x="20.1289" y="23.5625" width="3.87097" height="3.87097" fill="currentColor" fill-opacity="0.75" />
    <rect x="20.1289" y="30.5312" width="3.87097" height="3.87097" fill="currentColor" fill-opacity="0.75" />
    <rect x="27.0967" y="23.5625" width="3.87097" height="3.87097" fill="currentColor" fill-opacity="0.75" />
    <rect x="27.0967" y="30.5312" width="3.87097" height="3.87097" fill="currentColor" fill-opacity="0.75" />
    <rect x="34.0645" y="23.5625" width="3.87097" height="3.87097" fill="currentColor" fill-opacity="0.75" />
    <rect x="34.0645" y="30.5312" width="3.87097" height="3.87097" fill="currentColor" fill-opacity="0.75" />
    <rect x="41.0322" y="23.5625" width="3.87097" height="3.87097" fill="currentColor" fill-opacity="0.75" />
    <rect x="41.0322" y="30.5312" width="3.87097" height="3.87097" fill="currentColor" fill-opacity="0.75" />
    <rect x="48" y="23.5625" width="3.87097" height="3.87097" fill="currentColor" fill-opacity="0.75" />
    <rect x="48" y="30.5312" width="3.87097" height="3.87097" fill="currentColor" fill-opacity="0.75" />
    <rect x="48" y="37.498" width="3.87097" height="3.87097" fill="currentColor" fill-opacity="0.75" />
    <path d="M38.7095 10.4023L29.0321 1.49912L19.3546 10.4023" stroke="currentColor" stroke-opacity="0.75"
        stroke-width="3" stroke-linecap="round" stroke-linejoin="round" />
</svg>