<svg id="default" viewBox="0 0 73 75" fill="none" xmlns="http://www.w3.org/2000/svg">
    <path d="M2.5 44.8332L9.83333 37.4998L2.5 30.1665" stroke="currentColor" stroke-width="4.5" stroke-linecap="round" stroke-linejoin="round"/>
    <path d="M35.4997 37.4998C40.5623 37.4998 44.6663 33.3958 44.6663 28.3332C44.6663 23.2706 40.5623 19.1665 35.4997 19.1665C30.4371 19.1665 26.333 23.2706 26.333 28.3332C26.333 33.3958 30.4371 37.4998 35.4997 37.4998Z" stroke="currentColor" stroke-width="4.5" stroke-linecap="round" stroke-linejoin="round"/>
    <path d="M19 52.1665C19.7122 50.5326 20.8855 49.142 22.3763 48.1651C23.8671 47.1881 25.6104 46.6673 27.3928 46.6665H43.6072C45.3896 46.6673 47.1329 47.1881 48.6237 48.1651C50.1145 49.142 51.2878 50.5326 52 52.1665" stroke="currentColor" stroke-width="4.5" stroke-linecap="round" stroke-linejoin="round"/>
    <path d="M5.92188 55.8332C9.90956 62.2755 15.889 67.242 22.9537 69.9797C30.0184 72.7174 37.7831 73.077 45.0706 71.0041C52.3581 68.9312 58.771 64.5387 63.3372 58.4926C67.9033 52.4465 70.3736 45.0764 70.3736 37.4998C70.3736 29.9232 67.9033 22.5532 63.3372 16.5071C58.771 10.461 52.3581 6.06854 45.0706 3.9956C37.7831 1.92266 30.0184 2.28231 22.9537 5.02002C15.889 7.75773 9.90956 12.7242 5.92188 19.1665" stroke="currentColor" stroke-width="4.5" stroke-linecap="round" stroke-linejoin="round"/>
</svg>
