<svg id="default" viewBox="0 0 24 24" xmlns="http://www.w3.org/2000/svg">
<path d="M23.1462 10.5968L20.2477 7.34761C20.1923 7.28299 20.1277 7.23684 20.0539 7.19992C19.98 7.16299 19.897 7.14453 19.8231 7.14453C19.7493 7.14453 19.6662 7.16299 19.5923 7.19992C19.5185 7.23684 19.4539 7.28299 19.3985 7.34761L16.5 10.5968C16.4262 10.6799 16.38 10.7815 16.3616 10.8922C16.3431 11.003 16.3616 11.1138 16.4077 11.2153C16.4539 11.3168 16.5277 11.3999 16.62 11.4645C16.7123 11.5291 16.8231 11.5568 16.9339 11.5568H18.2539V14.0491C18.2539 14.1968 18.3185 14.3445 18.42 14.4553C18.5308 14.5661 18.6693 14.6215 18.8262 14.6215H20.8385C20.9862 14.6215 21.1339 14.5568 21.2446 14.4553C21.3554 14.3445 21.4108 14.2061 21.4108 14.0491V11.5568H22.7493C22.86 11.5568 22.9616 11.5199 23.0539 11.4645C23.1462 11.3999 23.22 11.3168 23.257 11.2153C23.3031 11.1138 23.3123 11.003 23.2939 10.8922C23.2754 10.7815 23.2293 10.6799 23.1554 10.5968H23.1462Z" fill="#078333"/>
<path d="M15.0692 7.15355H12.6969C12.4938 7.15355 12.2999 7.27355 12.2076 7.44893L9.84456 12.0459L8.82917 7.57816C8.77379 7.32893 8.54302 7.14432 8.28456 7.14432H5.53379C5.33071 7.14432 5.13687 7.26432 5.04456 7.4397L0.669176 15.9412C0.47533 16.3105 0.743022 16.7535 1.15841 16.7535H3.52148C3.72456 16.7535 3.91841 16.6428 4.01071 16.4582L6.32764 11.972L7.29687 16.3289C7.35225 16.5782 7.58302 16.7628 7.84148 16.7628H10.6938C10.8969 16.7628 11.0907 16.652 11.183 16.4674L15.5769 7.96586C15.7707 7.59663 15.503 7.15355 15.0876 7.15355H15.0692Z" fill="currentColor"/>
<path d="M17.2568 15.9509L15.0784 11.714L13.2691 15.2124L13.9153 16.4586C14.0076 16.6432 14.2014 16.754 14.4045 16.754H16.7676C17.183 16.754 17.4507 16.3109 17.2568 15.9417V15.9509Z" fill="currentColor"/>
</svg>
