<svg id="default" xmlns="http://www.w3.org/2000/svg" viewBox="0 0 24 24">
  <path d="M16.0659 16.0986L15.8293 17.1647C15.6037 18.1781 14.6003 19 13.5858 19H4.11459C3.10013 19 2.46087 18.1781 2.68532 17.1647L4.18831 10.3826C4.41387 9.36924 5.41733 8.54733 6.43178 8.54733H10.0352C10.0187 8.59024 10.0044 8.63535 9.9923 8.68156L9.989 8.69257L9.9868 8.70357L9.42566 11.1176C9.33543 11.473 9.41905 11.8504 9.65231 12.1343C9.87237 12.4016 10.197 12.5557 10.5435 12.5557C10.5568 12.5557 10.57 12.5546 10.5843 12.5546L12.7441 12.5579L12.2589 14.6605C12.1621 15.017 12.2402 15.3977 12.4734 15.686C12.6935 15.9588 13.0203 16.1151 13.3702 16.1151C13.3878 16.1151 13.4065 16.1151 13.4241 16.114H15.8953C15.9525 16.1129 16.0098 16.1074 16.0659 16.0986Z" fill="#C8102E"/>
  <path d="M21.345 8.91921L20.785 11.331C20.7322 11.5346 20.5517 11.6798 20.3405 11.6875L17.0583 11.6831L16.7128 13.1784L16.32 14.8805C16.265 15.0841 16.0835 15.2282 15.8722 15.2337H13.3966C13.3878 15.2348 13.379 15.2348 13.3702 15.2348C13.2887 15.2348 13.2106 15.1985 13.1589 15.1336C13.1017 15.0632 13.0841 14.9675 13.1116 14.8805L13.8499 11.6787L10.5633 11.6743C10.5567 11.6743 10.5501 11.6754 10.5435 11.6754C10.461 11.6754 10.384 11.638 10.3323 11.5753C10.2762 11.5071 10.2564 11.4157 10.2806 11.3299L10.8439 8.9027C10.8956 8.70355 11.0695 8.56051 11.2752 8.54731C11.2796 8.54621 11.284 8.54621 11.2884 8.54621L11.9442 8.54731L14.5695 8.55171L14.5706 8.54731L15.3067 5.35319C15.3617 5.14964 15.5432 5.0055 15.7545 5H18.2598C18.3445 5 18.4227 5.03851 18.4744 5.10562C18.5283 5.17604 18.5448 5.26847 18.5184 5.35319L17.779 8.55721L21.0655 8.56272C21.0732 8.56161 21.0809 8.56161 21.0875 8.56161C21.1701 8.56161 21.2493 8.60012 21.301 8.66614L21.3021 8.66504C21.3582 8.73766 21.3747 8.83228 21.345 8.91921Z" fill="currentColor"/>
</svg>