<svg id="default" viewBox="0 0 72 72" fill="none" xmlns="http://www.w3.org/2000/svg">
<path fill-rule="evenodd" clip-rule="evenodd" d="M42.1379 11.8269L50.6467 20.3349L42.1372 28.845L44.9641 31.6698L53.4721 23.161L61.9822 31.6705L64.807 28.8437L56.2982 20.3356L64.8077 11.8255L61.9809 9.0007L53.4728 17.5095L44.9627 9L42.1379 11.8269ZM34.8033 10.9466C32.171 11.152 29.9139 11.7582 27.6277 12.8739C24.5063 14.3972 21.9027 16.672 19.9965 19.5415C18.5858 21.6651 17.6376 23.9372 17.1478 26.3678C16.7741 28.2219 16.7825 28.0291 16.7552 35.3789L16.7299 42.1674L13.2093 48.3429C11.273 51.7395 9.68872 54.5354 9.68872 54.5562C9.68872 54.5769 21.5761 54.5939 36.105 54.5939C50.634 54.5939 62.5213 54.5768 62.5213 54.5559C62.5213 54.5351 60.9354 51.7373 58.997 48.3388L55.4727 42.1596V35.2262H51.4722L51.4731 43.1955L53.5682 46.866C54.7204 48.8847 55.6632 50.5492 55.6632 50.5649C55.6632 50.5805 46.862 50.5933 36.105 50.5933C25.348 50.5933 16.5468 50.5796 16.5468 50.5629C16.5468 50.5462 17.4898 48.88 18.6423 46.8602L20.7378 43.1878L20.7379 36.3653C20.7379 32.3551 20.7639 29.2549 20.8011 28.8444C21.0618 25.9596 22.2608 22.9848 24.1026 20.6528C25.0775 19.4185 26.7597 17.9483 28.1674 17.1003C30.4025 15.7541 33.3011 14.9059 35.6672 14.9059H36.105V10.9054L35.5811 10.9161C35.293 10.922 34.943 10.9357 34.8033 10.9466ZM31.152 64.5H41.0581V60.4995H31.152V64.5Z" fill="currentColor"/>
</svg>
