<svg id="default" width="24" height="24" viewBox="0 0 24 24" fill="none" xmlns="http://www.w3.org/2000/svg">
    <path fill-rule="evenodd" clip-rule="evenodd" d="M5.36235 3.97428C4.38928 5.00336 3.74304 6.04183 3.28301 7.3157C2.96355 8.20033 2.75 9.37382 2.75 10.2446V10.4212H4.00786L4.02034 10.0751C4.06079 8.95323 4.33031 7.90612 4.84808 6.85912C5.21598 6.11521 5.63365 5.52138 6.23488 4.8874C6.50624 4.60128 6.50678 4.60053 6.4694 4.55739C6.33081 4.39744 5.66849 3.7083 5.64864 3.7034C5.6352 3.70009 5.50636 3.82199 5.36235 3.97428ZM17.9794 4.07314C17.7863 4.27803 17.5982 4.48087 17.5614 4.52393L17.4946 4.60218L17.7658 4.88819C18.3671 5.52214 18.7776 6.10614 19.1518 6.85964C19.6649 7.89289 19.9394 8.95927 19.9797 10.0751L19.9921 10.4212H21.25V10.2594C21.25 9.89336 21.1871 9.2464 21.1077 8.79592C20.8384 7.26853 20.1627 5.79075 19.1856 4.59229C18.9028 4.24542 18.3926 3.69889 18.3526 3.70001C18.3405 3.70036 18.1725 3.86826 17.9794 4.07314ZM11.5887 4.31288C10.6678 4.40171 10.0487 4.56839 9.32131 4.92336C8.33501 5.40468 7.51233 6.12349 6.90999 7.03019C6.46425 7.70121 6.16463 8.41916 6.00985 9.18719C5.89179 9.77305 5.89444 9.71211 5.88581 12.0345L5.87782 14.1796L4.76538 16.1309C4.15353 17.2042 3.65293 18.0876 3.65293 18.0942C3.65293 18.1008 7.41007 18.1061 12.0021 18.1061C18.7213 18.1061 20.3495 18.1012 20.3416 18.0808C20.3363 18.0668 19.8365 17.1887 19.2309 16.1294L18.1299 14.2035L18.1187 12.0665C18.1066 9.75208 18.1074 9.77133 17.9894 9.18623C17.6186 7.34795 16.3916 5.7618 14.6988 4.93261C14.0791 4.62905 13.479 4.44633 12.7879 4.35074C12.5827 4.32235 11.7598 4.29637 11.5887 4.31288ZM10.4349 21.2363H13.5651V19.9722H10.4349V21.2363Z" fill="currentColor" style="fill:#646F75;fill:currentColor;fill-opacity:1;"/>
</svg>
