<svg id="default" viewBox="0 0 91 26" fill="none" xmlns="http://www.w3.org/2000/svg">
<path d="M27.2257 26H3.66532C1.14344 26 -0.447582 23.9555 0.112074 21.4337L3.85149 4.56633C4.41 2.04446 6.90789 0 9.42977 0H32.8748C35.4606 0 36.9249 2.84739 36.3526 5.43323L32.8051 21.4325C32.2466 23.9544 29.7487 25.9989 27.2268 25.9989L27.2257 26Z" fill="#C8102E"/>
<path d="M10.105 5.2666C10.105 5.28602 11.5649 5.26969 12.2856 5.33594H12.2847C13.1928 5.42084 13.6345 5.96115 13.5298 6.8291C13.5237 6.88444 13.5165 6.94151 13.5054 7C13.1696 8.75084 11.2031 17.3898 10.6548 19.9658C10.528 20.5596 10.3222 20.7322 9.72412 20.7334C8.76014 20.7345 7.86388 20.7357 6.8999 20.7334C6.35782 20.7322 6.19331 20.5293 6.30615 19.9941C7.02571 16.6065 7.80518 13.2195 8.52588 9.83301C8.54299 9.752 8.55678 9.66987 8.57275 9.58887C8.61273 9.38785 8.52849 9.29492 8.32861 9.29492C8.04221 9.29493 7.75467 9.3029 7.46826 9.28809C7.03779 9.26525 6.88 9.09308 6.96436 8.66504L7.61182 5.80957C7.69634 5.44751 7.95117 5.27427 8.34521 5.26855C8.94017 5.26056 9.51002 5.2666 10.105 5.2666ZM15.9712 5.28125C17.2881 5.34065 17.8112 5.82557 17.9585 7.12305C18.0978 8.35063 18.2094 9.58166 18.3247 10.8115C18.4698 12.3329 18.6093 13.8537 18.7544 15.375C18.7487 15.4296 18.7501 15.4843 18.7456 15.54C20.1059 12.928 21.4628 10.3137 22.8276 7.70508C23.0332 7.31114 23.2589 6.92498 23.5044 6.55273C23.9989 5.80578 24.696 5.34056 25.5972 5.32227C27.2579 5.28914 28.9212 5.26464 30.5796 5.33203L30.5767 5.33301C31.5726 5.37298 31.9999 5.95081 31.8892 6.9502C31.8001 7.75082 31.6422 8.54852 31.4731 9.33887L29.146 19.9297C29.0089 20.5669 28.8135 20.7314 28.1694 20.7314C27.2136 20.7314 26.2542 20.7326 25.2983 20.7314C24.7262 20.7303 24.5739 20.5384 24.6948 19.9756C25.3995 16.6976 26.1413 13.4742 26.8745 10.2031C26.943 9.89817 26.8856 9.72193 26.688 9.68652C26.5259 9.65687 26.3987 9.79045 26.2993 9.97656C24.9379 12.5316 23.5701 15.0837 22.1938 17.6318C21.9426 18.0955 21.6654 18.5515 21.3628 18.9844C20.6376 20.0223 19.6414 20.6469 18.3647 20.6982C17.8783 20.7176 17.3894 20.6984 16.9019 20.6836V20.6523C16.8814 20.6512 16.8598 20.6525 16.8394 20.6514C15.6984 20.5509 14.9999 19.8076 14.7886 18.5205C14.6161 17.4664 14.5231 16.3994 14.4077 15.335C14.3164 14.4899 14.2263 13.6468 14.1372 12.8018C14.69 10.3212 15.1906 8.04583 15.3472 7.23242C15.5059 6.39642 15.3768 5.78656 15.1792 5.27832C15.443 5.27832 15.7085 5.26983 15.9712 5.28125Z" fill="white"/>
<path d="M38.4386 20.7715C38.9583 20.7692 39.1296 20.6561 39.2724 19.9171C39.5282 18.759 39.6687 18.2564 39.7441 17.787C40.4522 14.6529 40.8337 12.9363 41.471 9.98495C41.623 9.30765 41.4162 9.37961 40.8326 9.37733C39.9691 9.3739 39.6128 9.37618 38.7367 9.37961C38.1622 9.38189 37.9429 9.39788 37.799 10.1551C37.3262 12.3446 36.7094 15.015 36.2388 17.2057C35.9967 18.333 35.8916 18.7281 35.6518 19.8566C35.5067 20.4848 35.3605 20.8057 36.0972 20.7726C36.457 20.7737 37.1194 20.7749 37.5363 20.7749C37.9623 20.7749 38.0115 20.7749 38.4375 20.7726L38.4386 20.7715ZM41.1364 8.51157C41.5738 8.507 41.8365 8.30598 41.9325 7.88339C42.1049 7.13756 42.2089 6.63501 42.3836 5.84122C42.4567 5.47687 42.3151 5.28156 41.9416 5.27585C41.0108 5.26214 40.3769 5.261 39.4449 5.27585C39.0303 5.2827 38.8418 5.51342 38.7493 5.92459C38.5985 6.59161 38.4615 7.16383 38.3073 7.88681C38.217 8.34368 38.3575 8.507 38.8201 8.51157M44.5709 20.7715C45.0905 20.7692 45.2619 20.6561 45.4046 19.9171C45.6605 18.759 45.801 18.2564 45.8763 17.787C46.5845 14.6529 46.9659 12.9363 47.6033 9.98495C47.7552 9.30765 47.5484 9.37961 46.9648 9.37733C46.1013 9.3739 45.745 9.37618 44.869 9.37961C44.2944 9.38189 44.0752 9.39788 43.9312 10.1551C43.4584 12.3446 42.8416 15.015 42.3711 17.2057C42.1289 18.333 42.0238 18.7281 41.784 19.8566C41.6389 20.4848 41.4927 20.8057 42.2294 20.7726C42.5892 20.7737 43.2517 20.7749 43.6685 20.7749C44.0946 20.7749 44.1437 20.7749 44.5697 20.7726L44.5709 20.7715ZM45.4766 16.6711C45.9963 16.6688 46.1676 16.5558 46.3104 15.8168C46.5662 14.6586 46.7067 14.1561 46.7821 13.6867C47.4902 10.5526 47.8717 8.83594 48.509 5.88462C48.6609 5.20732 48.4542 5.27928 47.8705 5.27699C47.0071 5.27356 46.6507 5.27585 45.7747 5.27928C45.2002 5.28156 44.9809 5.29755 44.837 6.0548C44.3641 8.24431 43.7474 10.9147 43.2768 13.1053C43.0347 14.2326 42.9296 14.6278 42.6897 15.7563C42.5447 16.3844 42.3985 16.7054 43.1352 16.6723C43.4949 16.6734 44.1574 16.6746 44.5743 16.6746C45.0003 16.6746 45.0494 16.6746 45.4754 16.6723L45.4766 16.6711ZM50.6814 20.7646C51.2011 20.7623 51.3724 20.6492 51.5152 19.9103C51.771 18.7521 51.9115 18.2496 51.9869 17.7802C52.695 14.6461 53.0765 12.9294 53.7138 9.9781C53.8657 9.3008 53.659 9.37276 53.0753 9.37047C52.2119 9.36705 51.8555 9.36933 50.9795 9.37276C50.405 9.37504 50.1857 9.39103 50.0418 10.1483C49.5689 12.3378 48.9522 15.0081 48.4816 17.1988C48.2395 18.3261 48.1344 18.7213 47.8945 19.8497C47.7495 20.4779 47.6033 20.7989 48.34 20.7657C48.6997 20.7669 49.3622 20.768 49.7791 20.768C50.2051 20.768 50.2542 20.768 50.6802 20.7657L50.6814 20.7646ZM51.5871 16.6643C52.1068 16.662 52.2781 16.5489 52.4209 15.8099C52.6767 14.6518 52.8172 14.1492 52.8926 13.6798C53.6007 10.5457 53.9822 8.82909 54.6195 5.87776C54.7714 5.20047 54.5647 5.27242 53.9811 5.27014C53.1176 5.26671 52.7612 5.269 51.8852 5.27242C51.3107 5.27471 51.0914 5.2907 50.9475 6.04795C50.4746 8.23746 49.8579 10.9078 49.3873 13.0985C49.1452 14.2258 49.0401 14.621 48.8003 15.7494C48.6552 16.3776 48.509 16.6985 49.2457 16.6654C49.6055 16.6666 50.2679 16.6677 50.6848 16.6677C51.1108 16.6677 51.1599 16.6677 51.586 16.6654L51.5871 16.6643ZM56.7691 20.7589C57.2887 20.7566 57.4601 20.6435 57.6028 19.9046C57.8587 18.7464 57.9992 18.2439 58.0745 17.7744C58.7827 14.6404 59.1642 12.9237 59.8015 9.97239C59.9534 9.29509 59.7467 9.36705 59.163 9.36476C58.2995 9.36133 57.9432 9.36362 57.0672 9.36705C56.4927 9.36933 56.2734 9.38532 56.1295 10.1426C55.6566 12.3321 55.0398 15.0024 54.5693 17.1931C54.3271 18.3204 54.2221 18.7156 53.9822 19.844C53.8372 20.4722 53.691 20.7932 54.4276 20.76C54.7874 20.7612 55.4499 20.7623 55.8668 20.7623C56.2928 20.7623 56.3419 20.7623 56.7679 20.76L56.7691 20.7589ZM59.4668 8.53556C59.9043 8.53099 60.167 8.32997 60.2629 7.90737C60.4354 7.16155 60.5393 6.659 60.7141 5.8652C60.7872 5.50085 60.6455 5.30555 60.2721 5.29983C59.3412 5.28613 58.7073 5.28499 57.7753 5.29983C57.3607 5.30669 57.1722 5.5374 57.0797 5.94858C56.929 6.6156 56.7919 7.18782 56.6377 7.9108C56.5475 8.36766 56.688 8.53099 57.1505 8.53556M64.136 16.2394C63.9703 16.9053 64.0058 17.5083 64.8475 17.5083H68.5961C69.7782 17.5083 70.2396 17.168 70.5412 16.0007L71.062 13.8477C71.2276 13.1784 70.9592 12.7444 70.2054 12.7444H67.061C65.912 12.7444 64.9503 12.8735 64.6488 13.9025L64.1371 16.2394H64.136ZM63.9703 20.7886C60.6592 20.7886 60.3977 18.3215 60.8408 16.5341L61.4439 13.9048C62.192 10.877 63.6962 9.44243 66.8052 9.44243H71.2127C74.5238 9.44243 74.7123 12.1174 74.2726 13.9048L73.6695 16.5341C72.9248 19.5585 71.7313 20.7886 68.6223 20.7886H63.9703ZM80.9633 9.42301C79.876 9.50182 78.7795 10.0992 78.02 10.9409C77.4455 11.5771 77.1074 12.3424 76.9224 13.1624C76.3981 15.4844 75.9047 17.8133 75.4045 20.1398C75.3119 20.5716 75.473 20.7623 75.915 20.7646C76.7499 20.7692 77.3267 20.7669 78.1616 20.7657C78.751 20.7657 78.9348 20.6241 79.0582 20.0565C79.3677 18.6368 79.6681 17.2159 79.9799 15.7974C80.1147 15.1852 80.2483 14.5707 80.4231 13.9688C80.6047 13.3463 81.0456 13.0059 81.7034 12.9705C81.8348 12.9637 81.9661 12.95 82.0963 12.95C83.7856 12.9488 83.8027 12.9477 85.492 12.9511C85.6793 12.9511 85.8677 12.9648 86.0528 12.9911C86.3589 13.0345 86.4822 13.167 86.4856 13.4765C86.4594 13.7324 86.3806 14.1298 86.3394 14.3206C85.9157 16.3285 85.5342 17.8909 85.1048 19.8977C84.9963 20.4037 85.1779 20.7635 85.6987 20.7646C86.5062 20.7669 87.091 20.7646 87.8985 20.7646C88.5335 20.7646 88.6866 20.5465 88.8191 19.9251C89.1674 18.2941 89.5489 16.7408 89.8801 15.1064C90.0709 14.1618 90.2787 13.2127 90.3553 12.2556C90.4638 10.8861 89.8321 9.9347 88.5038 9.58634C88.1429 9.49154 87.7671 9.41502 87.3959 9.40931C86.055 9.38875 84.713 9.40131 83.3721 9.40131" fill="currentColor"/>
</svg>
