<svg id="default" viewBox="0 0 16 16" xmlns="http://www.w3.org/2000/svg">
<path fill-rule="evenodd" clip-rule="evenodd" d="M6.02262 5.50995L2.09326 9.43932L2.09326 13.9069H6.56087L14.4266 6.04113L12.1963 3.81084C10.9697 2.58419 9.96293 1.58057 9.95905 1.58057C9.95515 1.58057 8.18376 3.34879 6.02262 5.50995ZM9.43134 3.33949L8.92489 3.84609L12.1541 7.07527L12.6607 6.56882C12.9393 6.29028 13.1673 6.05599 13.1673 6.04821C13.1673 6.02971 9.97039 2.8329 9.9519 2.8329C9.94413 2.8329 9.70988 3.06087 9.43134 3.33949ZM5.63566 7.13517L2.97974 9.79111L2.97974 13.0204H6.20904L8.86499 10.3645C10.3258 8.90374 11.5209 7.70223 11.5209 7.69447C11.5209 7.67606 8.32405 4.47922 8.30563 4.47922C8.29791 4.47922 7.09641 5.6744 5.63566 7.13517Z" fill="currentColor"/>
</svg>
