<svg id="default" viewBox="0 0 19 19" fill="none" xmlns="http://www.w3.org/2000/svg">
<path d="M17.3437 5.01042C17.3437 2.88176 15.6182 1.15625 13.4896 1.15625H13.2703C13.0392 1.15629 12.8135 1.22556 12.6221 1.35512C12.4308 1.48469 12.2827 1.6686 12.1969 1.88315L11.2465 4.25885C11.1344 4.53897 11.107 4.84581 11.1676 5.14136C11.2282 5.43691 11.3742 5.70818 11.5876 5.92154L12.7735 7.10747C12.9635 7.29748 13.0433 7.57382 12.9654 7.83128C12.5958 9.04212 11.9343 10.1436 11.0392 11.0388C10.144 11.934 9.04251 12.5954 7.83167 12.965C7.57421 13.0433 7.29786 12.9631 7.10785 12.7731L5.92193 11.5872C5.70856 11.3739 5.4373 11.2278 5.14175 11.1672C4.8462 11.1066 4.53935 11.134 4.25924 11.2461L1.88315 12.1965C1.6686 12.2823 1.48469 12.4304 1.35512 12.6218C1.22556 12.8131 1.15629 13.0388 1.15625 13.2699V13.4896C1.15625 15.6182 2.88176 17.3437 5.01042 17.3437H5.20312C11.7976 17.3437 17.1641 12.0859 17.3395 5.53381C17.3395 5.53189 17.3403 5.52996 17.3414 5.5288C17.3421 5.52817 17.3427 5.5274 17.3431 5.52654C17.3435 5.52567 17.3437 5.52474 17.3437 5.52379V5.01042Z" stroke="currentColor" stroke-width="1.15625" stroke-linejoin="round"/>
</svg>
