<svg id="default" viewBox="0 0 20 20" xmlns="http://www.w3.org/2000/svg">
<path fill-rule="evenodd" clip-rule="evenodd" d="M12.1226 2.49124C12.0777 2.55574 11.43 3.51013 10.6833 4.61212L9.3256 6.61572L5.92618 7.68824C4.0565 8.27812 2.50827 8.76732 2.48568 8.77536C2.44731 8.78902 2.57644 8.92181 4.44891 10.7943L6.4532 12.7987L2.20801 17.044L2.95466 17.7906L7.19996 13.5454L9.2043 15.5497C11.0768 17.4222 11.2096 17.5513 11.2233 17.513C11.2313 17.4904 11.7205 15.9421 12.3105 14.0723L13.383 10.6727L15.4935 9.24192C16.6542 8.455 17.6072 7.80592 17.6111 7.79951C17.6151 7.79312 16.4002 6.56974 14.9113 5.08091L12.2043 2.37396L12.1226 2.49124Z" fill="currentColor"/>
</svg>
