<svg id="default" width="19" height="19" viewBox="0 0 19 19" fill="none" xmlns="http://www.w3.org/2000/svg">
    <path fill-rule="evenodd" clip-rule="evenodd" d="M2.19569 3.25962C1.01898 4.6551 0.278314 6.34683 0.0652704 8.12562C-0.0217663 8.85224 -0.021752 9.64366 0.0652847 10.3707C0.308627 12.4034 1.24865 14.332 2.7067 15.7901C3.65043 16.7338 4.77178 17.4517 6.04453 17.9269C7.39667 18.4318 8.90315 18.6075 10.3711 18.4315C12.4037 18.1878 14.3332 17.2474 15.7905 15.7901C16.3149 15.2657 16.7614 14.6975 17.1473 14.0633C18.2347 12.2764 18.6763 10.2308 18.4316 8.11383C18.3934 7.7831 18.2665 7.14395 18.1701 6.79649C17.5361 4.51105 16.0755 2.57374 14.0637 1.34948C12.8078 0.585222 11.4144 0.136911 9.93297 0.0205121C9.43164 -0.0188832 8.66833 -0.000150792 8.12608 0.0648465C6.51863 0.257567 4.94754 0.896272 3.63619 1.89019C3.17665 2.23849 2.57212 2.81319 2.19569 3.25962ZM3.2185 3.9986C2.73536 4.5842 2.47757 4.96122 2.18269 5.51354C1.79874 6.23273 1.46833 7.23122 1.3474 8.03785C1.23296 8.80124 1.23296 9.69511 1.3474 10.4585C1.45987 11.2088 1.74457 12.1013 2.10752 12.8414C2.23371 13.0987 2.52983 13.5891 2.72212 13.8592C3.03879 14.304 3.14019 14.422 3.60748 14.8893C4.07326 15.3551 4.19425 15.4592 4.62961 15.7688C5.28225 16.233 5.95217 16.5684 6.76607 16.8386C8.37907 17.3738 10.1182 17.3738 11.7312 16.8386C12.6934 16.5192 13.4527 16.1099 14.2754 15.4671C14.4997 15.2918 15.2924 14.4991 15.4675 14.275C16.1826 13.3595 16.6552 12.432 16.9609 11.3443C17.3261 10.0445 17.3261 8.4518 16.9609 7.152C16.6552 6.06434 16.1826 5.13681 15.4675 4.22139C15.2924 3.99729 14.4997 3.20451 14.2754 3.02929C13.4527 2.38642 12.6934 1.97714 11.7312 1.65779C10.9082 1.38467 10.1329 1.26067 9.24861 1.26067C8.36428 1.26067 7.58902 1.38467 6.76607 1.65779C5.82749 1.96928 5.0919 2.36033 4.30212 2.96768C4.11258 3.11346 3.35104 3.83793 3.2185 3.9986ZM3.70682 9.25535L3.70706 9.87963L8.61703 9.87975L8.61714 14.7899H9.88008L9.88019 9.87975L14.7903 9.87964V8.61671L9.88019 8.61659L9.88008 3.70647L8.61714 3.70646L8.61703 8.61659L6.16899 8.61665C4.82257 8.61669 3.71772 8.61994 3.71376 8.6239C3.70981 8.62785 3.70668 8.912 3.70682 9.25535Z" fill="currentColor"/>
</svg>
