<svg id="default" xmlns="http://www.w3.org/2000/svg" viewBox="0 0 24 24">
  <path fill-rule="evenodd" clip-rule="evenodd" d="M11.2475 2.78049C9.42911 2.93515 7.70949 3.60752 6.30134 4.71444C5.72611 5.1666 5.16662 5.72612 4.71416 6.30164C3.44915 7.91072 2.75024 9.93874 2.75024 12.0003C2.75024 13.3347 3.03548 14.6349 3.59931 15.8707C4.19829 17.1835 5.13911 18.3728 6.30134 19.2862C7.91057 20.5509 9.93948 21.2501 12 21.2501C12.7415 21.2501 13.4588 21.164 14.18 20.9885C16.212 20.494 17.9703 19.36 19.2939 17.6904C19.5007 17.4295 19.8629 16.888 20.0404 16.5742C21.2079 14.5103 21.545 12.1081 20.9882 9.82035C20.6406 8.39217 19.9724 7.09011 19.0074 5.96053C18.6809 5.57825 18.128 5.05187 17.6987 4.71446C16.426 3.71431 14.8638 3.05515 13.2341 2.83073C12.6629 2.75209 11.8293 2.73101 11.2475 2.78049ZM10.9666 13.8051L8.71902 11.5588L7.83659 12.4419L9.45174 14.0571C10.3401 14.9455 11.0729 15.6701 11.0802 15.6673C11.0895 15.6638 15.9842 9.55277 16.1971 9.27882C16.209 9.26355 16.0548 9.12814 15.724 8.86326L15.2332 8.47037L10.9666 13.8051Z" fill="currentColor"/>
</svg>