<svg id="default" xmlns="http://www.w3.org/2000/svg" viewBox="0 0 24 24">
<path fill-rule="evenodd" clip-rule="evenodd" d="M11.4281 2.76324C9.54137 2.87562 7.93339 3.47003 6.53227 4.57305C5.73143 5.20351 4.87985 6.14025 4.13377 7.2114L4.02413 7.36883L4.00407 4.16462L2.75 4.15403V9.4919H8.08731V8.22804L4.96294 8.21777L5.24365 7.8265C5.73661 7.13933 6.12958 6.66959 6.61494 6.1873C7.89774 4.91259 9.29063 4.25006 11.1071 4.05061C11.4262 4.01558 12.5583 4.01522 12.8427 4.05007C13.8777 4.17686 14.7049 4.42458 15.6109 4.8791C16.3858 5.2678 17.0215 5.72819 17.6467 6.35336C18.2718 6.97853 18.7322 7.61425 19.1209 8.3891C19.6586 9.4609 19.9375 10.5214 19.9794 11.6539L19.9922 12H21.25L21.2497 11.8144C21.2489 11.2573 21.145 10.4656 20.9879 9.82014C20.6403 8.39201 19.9722 7.08999 19.0072 5.96045C18.6806 5.57819 18.1278 5.05182 17.6985 4.71442C16.4259 3.7143 14.8637 3.05516 13.234 2.83076C12.7614 2.76568 11.9172 2.73412 11.4281 2.76324ZM2.75026 12.1856C2.75056 12.3898 2.79601 12.9819 2.83072 13.234C3.05523 14.8644 3.71411 16.426 4.71437 17.6985C5.16656 18.2738 5.72631 18.8335 6.30152 19.2856C7.59772 20.3044 9.19711 20.9704 10.8463 21.178C11.7064 21.2862 12.6938 21.2681 13.5751 21.1278C15.522 20.8179 17.1983 19.8982 18.6003 18.3707C19.0291 17.9036 19.4972 17.3172 19.8872 16.759L19.9759 16.632L19.9861 19.8455H21.25V14.5082H15.9127V15.7723H19.0428L18.8683 16.0181C18.5996 16.3968 18.3695 16.7019 18.1534 16.966C16.6466 18.8075 15.0448 19.716 12.8929 19.9498C12.5731 19.9845 11.4401 19.9847 11.1573 19.95C10.1223 19.8232 9.29513 19.5755 8.38907 19.121C6.87036 18.3591 5.64094 17.1297 4.87907 15.611C4.3414 14.5392 4.06254 13.4786 4.0206 12.3462L4.00778 12H2.75L2.75026 12.1856Z" fill="currentColor"/>
</svg>