<svg id="default" xmlns="http://www.w3.org/2000/svg" viewBox="0 0 24 24">
  <path fill-rule="evenodd" clip-rule="evenodd" d="M11.2475 2.78085C10.1816 2.8712 9.17789 3.12681 8.24068 3.54654C5.43012 4.80525 3.42901 7.36059 2.89318 10.3751C2.57708 12.1535 2.78589 13.9797 3.49493 15.6378C4.10506 17.0646 5.06801 18.3162 6.30154 19.2859C8.62647 21.1135 11.7153 21.7111 14.5757 20.8867C15.3869 20.6529 16.2148 20.2799 16.9459 19.8187C17.8075 19.2752 18.6372 18.5234 19.2855 17.6988C21.3624 15.057 21.8316 11.4651 20.505 8.36291C19.8948 6.93612 18.9319 5.68445 17.6984 4.7148C16.4146 3.70562 14.8652 3.0518 13.2339 2.83081C12.6546 2.75233 11.8289 2.73155 11.2475 2.78085ZM11.4482 4.02633C11.0402 4.0657 10.8873 4.08474 10.6363 4.12742C9.61806 4.30058 8.64941 4.6719 7.74621 5.2353C6.76363 5.84822 5.84783 6.76402 5.23491 7.7466C4.59474 8.77285 4.22856 9.80822 4.06041 11.0673C4.01097 11.4376 4.01113 12.5591 4.06071 12.9334C4.13184 13.4705 4.24621 14.004 4.36829 14.368L4.42547 14.5385L5.19797 14.5363C5.96276 14.534 5.97243 14.5335 6.16815 14.4817C6.69015 14.3437 7.15991 13.9267 7.3361 13.4449C7.43927 13.1627 7.43287 13.3022 7.44445 11.0874L7.45527 9.02071L9.50188 9.01032C11.7787 8.99876 11.6209 9.00858 11.938 8.85901C12.3213 8.67823 12.642 8.34786 12.8042 7.96675C12.9331 7.66379 12.9291 7.72788 12.9373 5.80789L12.9448 4.05978L12.8286 4.04704C12.6913 4.03201 11.5646 4.0151 11.4482 4.02633ZM14.2017 5.947C14.193 7.63257 14.1908 7.6787 14.1044 8.01747C13.8344 9.07529 13.0412 9.88477 11.9927 10.1724C11.6419 10.2686 11.5272 10.2748 10.0739 10.2748H8.70932L8.70892 11.6342C8.70852 13.0447 8.69977 13.2311 8.61911 13.5469C8.37805 14.4905 7.65529 15.2922 6.75773 15.6116C6.34401 15.7588 6.1112 15.7918 5.48389 15.7923C5.20525 15.7924 4.97726 15.7983 4.97726 15.8052C4.97726 15.8242 5.08876 16.0181 5.23541 16.2541C5.84277 17.2315 6.76257 18.1515 7.74621 18.7655C8.76825 19.4034 9.81505 19.7735 11.0669 19.9397C11.4794 19.9944 12.5634 19.9896 12.9932 19.9311C13.7304 19.8307 14.2928 19.6848 14.966 19.4193L15.2735 19.298L14.4426 18.4633C13.501 17.5174 13.4285 17.4322 13.2401 17.0511C13.0335 16.6331 12.944 16.2504 12.9434 15.7826C12.9426 15.0235 13.2355 14.3186 13.7769 13.7773C14.1852 13.3689 14.6789 13.1066 15.2804 12.9782C15.3464 12.9641 16.1632 12.9527 17.6582 12.9451L19.9354 12.9334L19.9537 12.813C19.9638 12.7468 19.9728 12.3901 19.9737 12.0204C19.9754 11.3202 19.9579 11.0887 19.8651 10.5858C19.6753 9.55761 19.3146 8.62642 18.7651 7.7466C18.151 6.7631 17.2372 5.84932 16.2537 5.23516C15.6243 4.84209 14.998 4.55994 14.2337 4.32518C14.2159 4.3197 14.2081 4.71311 14.2017 5.947ZM15.6417 14.208C15.4332 14.2273 15.3132 14.2583 15.1366 14.3386C14.7784 14.5015 14.5032 14.776 14.3393 15.1337C14.2455 15.3384 14.207 15.5289 14.2074 15.7865C14.208 16.1366 14.2811 16.3891 14.4589 16.6554C14.5152 16.7397 14.8784 17.1177 15.4855 17.7241L16.4249 18.6623L16.6252 18.5186C17.9098 17.597 18.8913 16.3344 19.454 14.8797C19.5295 14.6846 19.6848 14.2257 19.6848 14.1978C19.6848 14.1816 15.8222 14.1913 15.6417 14.208Z" fill="currentColor"/>
</svg>