<svg id="default" xmlns="http://www.w3.org/2000/svg" viewBox="0 0 24 24" fill="none">
<path fill-rule="evenodd" clip-rule="evenodd" d="M6.34315 6.34315C7.84344 4.84285 9.87827 4 12 4C14.1217 4 16.1565 4.84285 17.6569 6.34315C19.1571 7.84344 20 9.87827 20 12C20 14.1217 19.1571 16.1565 17.6569 17.6569C16.1565 19.1571 14.1217 20 12 20C9.87827 20 7.84344 19.1571 6.34315 17.6569C4.84285 16.1565 4 14.1217 4 12C4 9.87827 4.84285 7.84344 6.34315 6.34315ZM7.95899 14.627L10.5859 12.0001L7.95899 9.3732L9.3732 7.95899L12.0001 10.5859L14.627 7.95899L16.0412 9.3732L13.4143 12.0001L16.0412 14.627L14.627 16.0412L12.0001 13.4143L9.3732 16.0412L7.95899 14.627Z" fill="currentColor"/>
</svg>