<svg id="default" viewBox="0 0 24 24" xmlns="http://www.w3.org/2000/svg">
    <path fill="currentColor" fill-rule="evenodd" d="M6.34315 6.34315C7.84344 4.84285 9.87827 4 12 4C14.1217 4 16.1565 4.84285 17.6569 6.34315C19.1571 7.84344 20 9.87827 20 12C20 14.1217 19.1571 16.1565 17.6569 17.6569C16.1565 19.1571 14.1217 20 12 20C9.87827 20 7.84344 19.1571 6.34315 17.6569C4.84285 16.1565 4 14.1217 4 12C4 9.87827 4.84285 7.84344 6.34315 6.34315ZM13 7.33333V9.33333H11V7.33333H13ZM9.33333 12.3333H11V14H9.33333V16H14.6667V14H13V10.3333H9.33333V12.3333Z" />
</svg>
