<svg id="default" viewBox="0 0 24 24" xmlns="http://www.w3.org/2000/svg">
<path d="M19.8793 12C19.8793 9.91023 19.0495 7.90589 17.5718 6.42821C16.0941 4.95053 14.0898 4.12072 12 4.12072C9.91024 4.12072 7.90589 4.95052 6.42821 6.42821C4.95052 7.90589 4.12072 9.91024 4.12072 12C4.12072 14.0898 4.95053 16.0941 6.42821 17.5718C7.90589 19.0495 9.91023 19.8793 12 19.8793C14.0898 19.8793 16.0941 19.0495 17.5718 17.5718C19.0495 16.0941 19.8793 14.0898 19.8793 12ZM21.25 12C21.25 14.4532 20.2757 16.8064 18.5411 18.5411C16.8064 20.2757 14.4532 21.25 12 21.25C9.5468 21.25 7.19363 20.2757 5.45895 18.5411C3.72428 16.8064 2.75 14.4532 2.75 12C2.75 9.5468 3.72427 7.19362 5.45895 5.45895C7.19362 3.72427 9.5468 2.75 12 2.75C14.4532 2.75 16.8064 3.72428 18.5411 5.45895C20.2757 7.19363 21.25 9.5468 21.25 12Z" fill="currentColor"/>
<path d="M12.0934 11.9997C12.0935 10.9922 12.4937 10.0262 13.2061 9.31369C13.4813 9.03845 13.7955 8.81105 14.1342 8.63407C13.5008 8.23243 12.7616 8.0137 11.9997 8.0137C10.9426 8.01377 9.92841 8.43328 9.18086 9.18083C8.43332 9.92837 8.01381 10.9425 8.01374 11.9997C8.01374 13.0569 8.43341 14.071 9.18086 14.8186C9.92839 15.5662 10.9426 15.9866 11.9997 15.9867C12.7619 15.9867 13.5006 15.7663 14.1342 15.3644C13.8879 15.2356 13.6538 15.0822 13.4393 14.9008L13.2061 14.6867C12.4935 13.9741 12.0934 13.0074 12.0934 11.9997ZM13.4641 11.9997C13.4641 12.644 13.7198 13.2619 14.1753 13.7174C14.5586 14.1008 15.0568 14.3433 15.589 14.4104L16.8747 14.572L16.0173 15.5431L15.7879 15.7878C14.7833 16.7925 13.4204 17.3564 11.9997 17.3564C10.5792 17.3564 9.21709 16.7923 8.21256 15.7878C7.20797 14.7833 6.64302 13.4204 6.64302 11.9997C6.64309 10.5791 7.20803 9.21706 8.21256 8.21253C9.2171 7.20799 10.5791 6.64305 11.9997 6.64298C13.4205 6.64298 14.7833 7.20793 15.7879 8.21253C15.8671 8.29174 15.9437 8.37291 16.0173 8.45627L16.8747 9.42744L15.589 9.58994C15.0569 9.65703 14.5586 9.89877 14.1753 10.282C13.7198 10.7375 13.4642 11.3555 13.4641 11.9997Z" fill="currentColor"/>
</svg>
