<svg id="default" width="72" height="72" viewBox="0 0 72 72" fill="none" xmlns="http://www.w3.org/2000/svg">
    <path fill-rule="evenodd" clip-rule="evenodd" d="M12 36.5242C12 51.6625 12.0138 64.0484 12.0306 64.0484C12.0475 64.0484 15.111 62.5234 18.8386 60.6596C22.745 58.7063 25.6468 57.2896 25.689 57.3151C25.7292 57.3395 27.8905 58.9551 30.4919 60.9054C33.0932 62.8556 35.2573 64.4729 35.3008 64.4994C35.3537 64.5315 36.9918 63.3386 40.2409 60.9017L45.1018 57.2559L51.8947 60.6521C55.6307 62.5201 58.7012 64.0484 58.7179 64.0484C58.7347 64.0484 58.7484 51.6625 58.7484 36.5242V9H35.3742H12V36.5242ZM15.8448 35.3341C15.8448 47.7032 15.8586 57.8234 15.8755 57.8234C15.8924 57.8234 18.1828 56.685 20.9654 55.2937L26.0245 52.7639L30.6994 56.2703L35.3742 59.7767L40.049 56.2703L44.7239 52.7639L49.783 55.2937C52.5656 56.685 54.856 57.8234 54.8729 57.8234C54.8898 57.8234 54.9035 47.7032 54.9035 35.3341V12.8448H35.3742H15.8448V35.3341ZM24.633 33.3812V35.3036H35.3742H46.1153V33.3812V31.4588H35.3742H24.633V33.3812Z" fill="currentColor"/>
    <path d="M24.6331 45.4751V43.5527V41.6302H35.3742H41.0296V43.5527V45.4751H35.3742H24.6331Z" fill="currentColor"/>
    <path d="M24.6331 25.132V23.2096V21.2871H35.3742H46.1154V23.2096V25.132H35.3742H24.6331Z" fill="currentColor"/>
</svg>
