<svg id="default" viewBox="0 0 24 24" fill="none" xmlns="http://www.w3.org/2000/svg">
<g clip-path="url(#clip0_6200_198104)">
<g filter="url(#filter0_d_6200_198104)">
<path d="M19.0688 3.15218C20.6073 3.15218 22.1453 4.72446 21.9006 6.23673L21.0756 9.79696C21.0756 9.79696 21.0607 9.87129 21.0533 9.90102L19.6931 15.7951C19.1877 17.9952 18.9127 18.954 17.8498 19.6675C17.8498 19.6675 17.3593 20.0912 16.3707 20.225C15.7389 20.3141 5.63593 20.225 5.63593 20.225C3.74049 20.225 2.34755 19.3297 1.60141 17.2764C1.20807 16.1939 2.53857 16.3823 2.82845 15.1336L2.9325 14.6802C2.9325 14.6802 2.93994 14.6133 2.94737 14.5836L4.89472 6.1624C5.18459 4.90628 6.4853 3.88058 7.80088 3.88058L19.0688 3.12988V3.15218Z" fill="url(#paint0_linear_6200_198104)"/>
<path d="M15.3373 18.7909H5.08773C4.15319 18.7909 3.11121 18.8524 2.34368 18.2173C1.71842 17.7 1.43015 16.8056 1.66026 15.8186C1.66026 15.8186 2.04035 13.8928 2.04778 13.8556L3.99513 5.43444C4.27757 4.22292 5.53369 3.23438 6.79724 3.23438H19.0016C19.6408 3.23438 20.1611 3.47965 20.4807 3.88101C20.8003 4.27494 20.9341 4.83239 20.7929 5.4493L19.9679 9.00954C19.9604 9.05413 19.953 9.08386 19.9456 9.11359L18.08 16.8138C17.8793 17.6834 17.53 18.1071 16.705 18.5085C16.705 18.5085 16.1921 18.776 15.3373 18.776V18.7909Z" fill="url(#paint1_linear_6200_198104)" stroke="url(#paint2_linear_6200_198104)" stroke-width="0.21"/>
<path d="M3.02148 18.4415C3.02148 18.4415 3.32622 18.7908 5.08776 18.7908H15.3374V18.7759C16.1921 18.7759 16.705 18.5084 16.705 18.5084C17.53 18.107 17.8793 17.6833 18.08 16.8137L19.9456 9.11351C19.953 9.08378 19.9605 9.05405 19.9679 9.00945L20.7929 5.44922" stroke="url(#paint3_linear_6200_198104)" stroke-width="0.21"/>
<path fill-rule="evenodd" clip-rule="evenodd" d="M6.95617 10.6566C6.92497 10.8072 7.01859 10.9277 7.17463 10.9277H9.09387L8.50094 13.5482C8.20447 14.7831 8.54775 16.4849 10.8103 16.4849L13.6657 16.5C13.8062 16.5 13.9622 16.3795 13.9934 16.244L14.3367 14.7831C14.3679 14.6476 14.2743 14.512 14.1182 14.512H11.4968C10.8727 14.512 10.8415 14.0602 10.9663 13.5482L11.5749 10.9277H14.9452C15.1013 10.9277 15.2573 10.8072 15.2885 10.6566L15.6942 8.90958C15.7254 8.75898 15.6318 8.63849 15.4758 8.63849H7.70515C7.54911 8.63849 7.39308 8.75898 7.36187 8.90958L6.95617 10.6566ZM12.6203 6.60543C12.6203 5.85241 11.9962 5.25 11.216 5.25C10.4358 5.25 9.81167 5.85241 9.81167 6.60543C9.81167 7.35845 10.4358 7.96086 11.216 7.96086C11.9806 7.96086 12.6203 7.35845 12.6203 6.60543Z" fill="url(#paint4_linear_6200_198104)" stroke="white" stroke-width="0.358887" stroke-linecap="round" stroke-linejoin="round"/>
</g>
<g opacity="0.6" style="mix-blend-mode:overlay">
<ellipse cx="12.3964" cy="6.23731" rx="3.17126" ry="3.0127" fill="url(#paint5_radial_6200_198104)"/>
</g>
<g opacity="0.7" style="mix-blend-mode:overlay">
<ellipse cx="12.3962" cy="5.91997" rx="0.317126" ry="1.74419" fill="url(#paint6_radial_6200_198104)"/>
</g>
<g opacity="0.7" style="mix-blend-mode:overlay">
<ellipse cx="12.3967" cy="5.92046" rx="0.317126" ry="1.74419" transform="rotate(45 12.3967 5.92046)" fill="url(#paint7_radial_6200_198104)"/>
</g>
<g opacity="0.7" style="mix-blend-mode:overlay">
<ellipse cx="12.3964" cy="5.9206" rx="0.317126" ry="1.74419" transform="rotate(135 12.3964 5.9206)" fill="url(#paint8_radial_6200_198104)"/>
</g>
<g opacity="0.7" style="mix-blend-mode:overlay">
<ellipse cx="12.3961" cy="6.07884" rx="0.317126" ry="1.90276" transform="rotate(90 12.3961 6.07884)" fill="url(#paint9_radial_6200_198104)"/>
</g>
<g opacity="0.6" style="mix-blend-mode:overlay">
<ellipse cx="13.8829" cy="14.5329" rx="1.88294" ry="1.78383" fill="url(#paint10_radial_6200_198104)"/>
</g>
<g opacity="0.7" style="mix-blend-mode:overlay">
<ellipse cx="13.9822" cy="14.6514" rx="0.317126" ry="1.74419" fill="url(#paint11_radial_6200_198104)"/>
</g>
<g opacity="0.7" style="mix-blend-mode:overlay">
<ellipse cx="13.9821" cy="14.6519" rx="0.317126" ry="1.74419" transform="rotate(45 13.9821 14.6519)" fill="url(#paint12_radial_6200_198104)"/>
</g>
<g opacity="0.7" style="mix-blend-mode:overlay">
<ellipse cx="13.9819" cy="14.652" rx="0.317126" ry="1.74419" transform="rotate(135 13.9819 14.652)" fill="url(#paint13_radial_6200_198104)"/>
</g>
<g opacity="0.7" style="mix-blend-mode:overlay">
<ellipse cx="13.982" cy="14.8103" rx="0.317126" ry="1.90276" transform="rotate(90 13.982 14.8103)" fill="url(#paint14_radial_6200_198104)"/>
</g>
<g opacity="0.8" style="mix-blend-mode:overlay">
<circle cx="6.85567" cy="10.5842" r="1.48653" fill="url(#paint15_radial_6200_198104)"/>
</g>
<g opacity="0.7" style="mix-blend-mode:overlay">
<ellipse cx="7.15306" cy="10.4063" rx="0.317126" ry="1.74419" fill="url(#paint16_radial_6200_198104)"/>
</g>
<g opacity="0.7" style="mix-blend-mode:overlay">
<ellipse cx="7.15302" cy="10.4058" rx="0.317126" ry="1.74419" transform="rotate(45 7.15302 10.4058)" fill="url(#paint17_radial_6200_198104)"/>
</g>
<g opacity="0.7" style="mix-blend-mode:overlay">
<ellipse cx="7.15278" cy="10.406" rx="0.317126" ry="1.74419" transform="rotate(135 7.15278 10.406)" fill="url(#paint18_radial_6200_198104)"/>
</g>
<g opacity="0.7" style="mix-blend-mode:overlay">
<ellipse cx="7.15291" cy="10.5652" rx="0.317126" ry="1.90276" transform="rotate(90 7.15291 10.5652)" fill="url(#paint19_radial_6200_198104)"/>
</g>
<mask id="mask0_6200_198104" style="mask-type:alpha" maskUnits="userSpaceOnUse" x="1" y="3" width="20" height="15">
<path d="M6.72852 3.21191H18.4951C19.1145 3.21199 19.6123 3.46276 19.9219 3.86035C20.2317 4.25838 20.3604 4.81351 20.2227 5.43555L19.4277 9.01855V9.02246C19.4196 9.0661 19.4167 9.09095 19.4092 9.125L18.0947 15.0547C17.9023 15.9228 17.3349 16.6602 16.5469 17.0703L3.28711 17.5811C2.2659 16.8907 1.76884 15.6461 2.03613 14.4404L2.13574 13.9863L2.13672 13.9824C2.1442 13.9408 2.14639 13.919 2.15332 13.8877L4.03027 5.42285C4.30076 4.20306 5.5133 3.21191 6.72852 3.21191Z" stroke="url(#paint20_linear_6200_198104)" stroke-width="0.207662"/>
</mask>
<g mask="url(#mask0_6200_198104)">
<g opacity="0.6" style="mix-blend-mode:overlay">
<ellipse cx="6.57691" cy="3.84157" rx="3.76587" ry="3.66677" fill="url(#paint21_radial_6200_198104)"/>
</g>
<g opacity="0.4" style="mix-blend-mode:overlay">
<ellipse cx="6.57707" cy="3.44489" rx="0.396408" ry="2.18024" fill="url(#paint22_radial_6200_198104)"/>
</g>
<g opacity="0.4" style="mix-blend-mode:overlay">
<ellipse cx="6.57702" cy="3.44501" rx="0.396408" ry="2.18024" transform="rotate(45 6.57702 3.44501)" fill="url(#paint23_radial_6200_198104)"/>
</g>
<g opacity="0.4" style="mix-blend-mode:overlay">
<ellipse cx="6.57745" cy="3.44469" rx="0.396407" ry="2.18024" transform="rotate(135 6.57745 3.44469)" fill="url(#paint24_radial_6200_198104)"/>
</g>
<g opacity="0.7" style="mix-blend-mode:overlay">
<ellipse cx="6.57708" cy="3.54438" rx="0.297306" ry="2.18024" transform="rotate(90 6.57708 3.54438)" fill="url(#paint25_radial_6200_198104)"/>
</g>
</g>
<mask id="mask1_6200_198104" style="mask-type:alpha" maskUnits="userSpaceOnUse" x="1" y="3" width="20" height="18">
<path d="M6.70996 3.24219H18.584C19.2092 3.24232 19.7118 3.49506 20.0244 3.89648C20.3373 4.29837 20.4672 4.85939 20.3281 5.4873L19.5254 9.10254V9.10645C19.5172 9.1504 19.5144 9.17562 19.5068 9.20996L18.1807 15.1934C17.9847 16.0772 17.4038 16.8285 16.5977 17.2402L10.209 20.5029C9.23535 21.0002 8.0687 20.9344 7.15625 20.332L3.26367 17.7627C2.21439 17.0698 1.70145 15.801 1.97363 14.5732L2.0752 14.1152L2.07617 14.1113C2.08371 14.0694 2.08578 14.0472 2.09277 14.0156L3.98633 5.47363C4.25943 4.24252 5.4834 3.24228 6.70996 3.24219Z" fill="url(#paint26_linear_6200_198104)" stroke="url(#paint27_linear_6200_198104)" stroke-width="0.207662"/>
</mask>
<g mask="url(#mask1_6200_198104)">
<g opacity="0.6" style="mix-blend-mode:overlay">
<ellipse cx="6.55732" cy="3.87871" rx="3.8" ry="3.7" fill="url(#paint28_radial_6200_198104)"/>
</g>
<g opacity="0.4" style="mix-blend-mode:overlay">
<ellipse cx="6.55723" cy="3.47832" rx="0.4" ry="2.2" fill="url(#paint29_radial_6200_198104)"/>
</g>
<g opacity="0.4" style="mix-blend-mode:overlay">
<ellipse cx="6.55729" cy="3.47813" rx="0.4" ry="2.2" transform="rotate(45 6.55729 3.47813)" fill="url(#paint30_radial_6200_198104)"/>
</g>
<g opacity="0.4" style="mix-blend-mode:overlay">
<ellipse cx="6.55752" cy="3.47818" rx="0.4" ry="2.2" transform="rotate(135 6.55752 3.47818)" fill="url(#paint31_radial_6200_198104)"/>
</g>
<g opacity="0.7" style="mix-blend-mode:overlay">
<ellipse cx="6.55732" cy="3.57832" rx="0.3" ry="2.2" transform="rotate(90 6.55732 3.57832)" fill="url(#paint32_radial_6200_198104)"/>
</g>
</g>
</g>
<defs>
<filter id="filter0_d_6200_198104" x="0.0229272" y="2.0906" width="24.1876" height="20.8737" filterUnits="userSpaceOnUse" color-interpolation-filters="sRGB">
<feFlood flood-opacity="0" result="BackgroundImageFix"/>
<feColorMatrix in="SourceAlpha" type="matrix" values="0 0 0 0 0 0 0 0 0 0 0 0 0 0 0 0 0 0 127 0" result="hardAlpha"/>
<feOffset dx="0.415324" dy="0.830649"/>
<feGaussianBlur stdDeviation="0.93448"/>
<feComposite in2="hardAlpha" operator="out"/>
<feColorMatrix type="matrix" values="0 0 0 0 0 0 0 0 0 0 0 0 0 0 0 0 0 0 0.32 0"/>
<feBlend mode="normal" in2="BackgroundImageFix" result="effect1_dropShadow_6200_198104"/>
<feBlend mode="normal" in="SourceGraphic" in2="effect1_dropShadow_6200_198104" result="shape"/>
</filter>
<linearGradient id="paint0_linear_6200_198104" x1="16.668" y1="2.05959" x2="7.69678" y2="21.2507" gradientUnits="userSpaceOnUse">
<stop stop-color="#FC5454"/>
<stop offset="0.23" stop-color="#FF887B"/>
<stop offset="0.46" stop-color="#9A0720"/>
</linearGradient>
<linearGradient id="paint1_linear_6200_198104" x1="6.50772" y1="2.49111" x2="17.5006" y2="21.4666" gradientUnits="userSpaceOnUse">
<stop stop-color="#FF574E"/>
<stop offset="0.68" stop-color="#BE0B29"/>
</linearGradient>
<linearGradient id="paint2_linear_6200_198104" x1="5.9577" y1="2.66949" x2="18.4668" y2="21.6004" gradientUnits="userSpaceOnUse">
<stop stop-color="#FCB6B6"/>
<stop offset="0.34" stop-color="#FF9090"/>
<stop offset="0.68" stop-color="#AE3535"/>
</linearGradient>
<linearGradient id="paint3_linear_6200_198104" x1="10.7502" y1="5.43974" x2="18.4665" y2="21.6003" gradientUnits="userSpaceOnUse">
<stop offset="0.3125" stop-color="#AE3535" stop-opacity="0"/>
<stop offset="0.963863" stop-color="#FF6D6D"/>
</linearGradient>
<linearGradient id="paint4_linear_6200_198104" x1="9.11241" y1="4.26018" x2="16.3359" y2="14.5458" gradientUnits="userSpaceOnUse">
<stop offset="0.288462" stop-color="white"/>
<stop offset="1" stop-color="#C7C7C7"/>
</linearGradient>
<radialGradient id="paint5_radial_6200_198104" cx="0" cy="0" r="1" gradientUnits="userSpaceOnUse" gradientTransform="translate(12.3964 6.23731) rotate(90) scale(3.0127 3.17126)">
<stop stop-color="white"/>
<stop offset="1" stop-color="white" stop-opacity="0"/>
</radialGradient>
<radialGradient id="paint6_radial_6200_198104" cx="0" cy="0" r="1" gradientUnits="userSpaceOnUse" gradientTransform="translate(12.3962 5.91997) rotate(90) scale(1.74419 0.317126)">
<stop stop-color="white"/>
<stop offset="1" stop-color="white" stop-opacity="0"/>
</radialGradient>
<radialGradient id="paint7_radial_6200_198104" cx="0" cy="0" r="1" gradientUnits="userSpaceOnUse" gradientTransform="translate(12.3967 5.92046) rotate(90) scale(1.74419 0.317126)">
<stop stop-color="white"/>
<stop offset="1" stop-color="white" stop-opacity="0"/>
</radialGradient>
<radialGradient id="paint8_radial_6200_198104" cx="0" cy="0" r="1" gradientUnits="userSpaceOnUse" gradientTransform="translate(12.3964 5.9206) rotate(90) scale(1.74419 0.317126)">
<stop stop-color="white"/>
<stop offset="1" stop-color="white" stop-opacity="0"/>
</radialGradient>
<radialGradient id="paint9_radial_6200_198104" cx="0" cy="0" r="1" gradientUnits="userSpaceOnUse" gradientTransform="translate(12.3961 6.07884) rotate(90) scale(1.90276 0.317126)">
<stop stop-color="white"/>
<stop offset="1" stop-color="white" stop-opacity="0"/>
</radialGradient>
<radialGradient id="paint10_radial_6200_198104" cx="0" cy="0" r="1" gradientUnits="userSpaceOnUse" gradientTransform="translate(13.8829 14.5329) rotate(90) scale(1.78383 1.88294)">
<stop stop-color="white"/>
<stop offset="1" stop-color="white" stop-opacity="0"/>
</radialGradient>
<radialGradient id="paint11_radial_6200_198104" cx="0" cy="0" r="1" gradientUnits="userSpaceOnUse" gradientTransform="translate(13.9822 14.6514) rotate(90) scale(1.74419 0.317126)">
<stop stop-color="white"/>
<stop offset="1" stop-color="white" stop-opacity="0"/>
</radialGradient>
<radialGradient id="paint12_radial_6200_198104" cx="0" cy="0" r="1" gradientUnits="userSpaceOnUse" gradientTransform="translate(13.9821 14.6519) rotate(90) scale(1.74419 0.317126)">
<stop stop-color="white"/>
<stop offset="1" stop-color="white" stop-opacity="0"/>
</radialGradient>
<radialGradient id="paint13_radial_6200_198104" cx="0" cy="0" r="1" gradientUnits="userSpaceOnUse" gradientTransform="translate(13.9819 14.652) rotate(90) scale(1.74419 0.317126)">
<stop stop-color="white"/>
<stop offset="1" stop-color="white" stop-opacity="0"/>
</radialGradient>
<radialGradient id="paint14_radial_6200_198104" cx="0" cy="0" r="1" gradientUnits="userSpaceOnUse" gradientTransform="translate(13.982 14.8103) rotate(90) scale(1.90276 0.317126)">
<stop stop-color="white"/>
<stop offset="1" stop-color="white" stop-opacity="0"/>
</radialGradient>
<radialGradient id="paint15_radial_6200_198104" cx="0" cy="0" r="1" gradientUnits="userSpaceOnUse" gradientTransform="translate(6.85567 10.5842) rotate(90) scale(1.48653)">
<stop stop-color="white"/>
<stop offset="1" stop-color="white" stop-opacity="0"/>
</radialGradient>
<radialGradient id="paint16_radial_6200_198104" cx="0" cy="0" r="1" gradientUnits="userSpaceOnUse" gradientTransform="translate(7.15306 10.4063) rotate(90) scale(1.74419 0.317126)">
<stop stop-color="white"/>
<stop offset="1" stop-color="white" stop-opacity="0"/>
</radialGradient>
<radialGradient id="paint17_radial_6200_198104" cx="0" cy="0" r="1" gradientUnits="userSpaceOnUse" gradientTransform="translate(7.15302 10.4058) rotate(90) scale(1.74419 0.317126)">
<stop stop-color="white"/>
<stop offset="1" stop-color="white" stop-opacity="0"/>
</radialGradient>
<radialGradient id="paint18_radial_6200_198104" cx="0" cy="0" r="1" gradientUnits="userSpaceOnUse" gradientTransform="translate(7.15278 10.406) rotate(90) scale(1.74419 0.317126)">
<stop stop-color="white"/>
<stop offset="1" stop-color="white" stop-opacity="0"/>
</radialGradient>
<radialGradient id="paint19_radial_6200_198104" cx="0" cy="0" r="1" gradientUnits="userSpaceOnUse" gradientTransform="translate(7.15291 10.5652) rotate(90) scale(1.90276 0.317126)">
<stop stop-color="white"/>
<stop offset="1" stop-color="white" stop-opacity="0"/>
</radialGradient>
<linearGradient id="paint20_linear_6200_198104" x1="5.29438" y1="3.1084" x2="16.9478" y2="20.7483" gradientUnits="userSpaceOnUse">
<stop stop-color="#FFA3A3"/>
<stop offset="0.677885" stop-color="#AE3535"/>
</linearGradient>
<radialGradient id="paint21_radial_6200_198104" cx="0" cy="0" r="1" gradientUnits="userSpaceOnUse" gradientTransform="translate(6.57691 3.84157) rotate(90) scale(3.66677 3.76587)">
<stop stop-color="white"/>
<stop offset="1" stop-color="white" stop-opacity="0"/>
</radialGradient>
<radialGradient id="paint22_radial_6200_198104" cx="0" cy="0" r="1" gradientUnits="userSpaceOnUse" gradientTransform="translate(6.57707 3.44489) rotate(90) scale(2.18024 0.396408)">
<stop stop-color="white"/>
<stop offset="1" stop-color="white" stop-opacity="0"/>
</radialGradient>
<radialGradient id="paint23_radial_6200_198104" cx="0" cy="0" r="1" gradientUnits="userSpaceOnUse" gradientTransform="translate(6.57702 3.44501) rotate(90) scale(2.18024 0.396408)">
<stop stop-color="white"/>
<stop offset="1" stop-color="white" stop-opacity="0"/>
</radialGradient>
<radialGradient id="paint24_radial_6200_198104" cx="0" cy="0" r="1" gradientUnits="userSpaceOnUse" gradientTransform="translate(6.57745 3.44469) rotate(90) scale(2.18024 0.396407)">
<stop stop-color="white"/>
<stop offset="1" stop-color="white" stop-opacity="0"/>
</radialGradient>
<radialGradient id="paint25_radial_6200_198104" cx="0" cy="0" r="1" gradientUnits="userSpaceOnUse" gradientTransform="translate(6.57708 3.54438) rotate(90) scale(2.18024 0.297306)">
<stop stop-color="white"/>
<stop offset="1" stop-color="white" stop-opacity="0"/>
</radialGradient>
<linearGradient id="paint26_linear_6200_198104" x1="6.57715" y1="3.13867" x2="15.7079" y2="20.9384" gradientUnits="userSpaceOnUse">
<stop stop-color="#FF5A54"/>
<stop offset="0.596154" stop-color="#BE0B29"/>
</linearGradient>
<linearGradient id="paint27_linear_6200_198104" x1="5.263" y1="3.13867" x2="17.022" y2="20.9384" gradientUnits="userSpaceOnUse">
<stop stop-color="#FFA3A3"/>
<stop offset="0.677885" stop-color="#AE3535"/>
</linearGradient>
<radialGradient id="paint28_radial_6200_198104" cx="0" cy="0" r="1" gradientUnits="userSpaceOnUse" gradientTransform="translate(6.55732 3.87871) rotate(90) scale(3.7 3.8)">
<stop stop-color="white"/>
<stop offset="1" stop-color="white" stop-opacity="0"/>
</radialGradient>
<radialGradient id="paint29_radial_6200_198104" cx="0" cy="0" r="1" gradientUnits="userSpaceOnUse" gradientTransform="translate(6.55723 3.47832) rotate(90) scale(2.2 0.4)">
<stop stop-color="white"/>
<stop offset="1" stop-color="white" stop-opacity="0"/>
</radialGradient>
<radialGradient id="paint30_radial_6200_198104" cx="0" cy="0" r="1" gradientUnits="userSpaceOnUse" gradientTransform="translate(6.55729 3.47813) rotate(90) scale(2.2 0.4)">
<stop stop-color="white"/>
<stop offset="1" stop-color="white" stop-opacity="0"/>
</radialGradient>
<radialGradient id="paint31_radial_6200_198104" cx="0" cy="0" r="1" gradientUnits="userSpaceOnUse" gradientTransform="translate(6.55752 3.47818) rotate(90) scale(2.2 0.4)">
<stop stop-color="white"/>
<stop offset="1" stop-color="white" stop-opacity="0"/>
</radialGradient>
<radialGradient id="paint32_radial_6200_198104" cx="0" cy="0" r="1" gradientUnits="userSpaceOnUse" gradientTransform="translate(6.55732 3.57832) rotate(90) scale(2.2 0.3)">
<stop stop-color="white"/>
<stop offset="1" stop-color="white" stop-opacity="0"/>
</radialGradient>
<clipPath id="clip0_6200_198104">
<rect width="24" height="24" fill="white"/>
</clipPath>
</defs>
</svg>
