<svg id="default" viewBox="0 0 54 51" fill="currentColor" xmlns="http://www.w3.org/2000/svg">
<path d="M23.8844 30.5244C25.2798 30.4556 28.5677 30.4552 29.9332 30.5217C35.3555 30.7859 40.1106 31.6739 44.676 33.2742C47.9689 34.4285 51.4891 36.2293 53.4042 37.7414L54 38.2105L53.9686 51H0.0313556L0 38.2105L0.595756 37.7414C2.69279 36.0857 6.40113 34.2382 10.1107 33.0019C14.2617 31.6188 19.0065 30.7648 23.8844 30.5244Z"/>
<path d="M26.1135 0.0225564C28.0055 -0.0721903 29.7035 0.13099 31.3214 0.642621C36.3629 2.23694 39.9125 6.24469 40.7166 11.2511C40.8595 12.1409 40.8598 13.9698 40.7166 14.8933C40.2587 17.8454 38.8502 20.4467 36.5948 22.5067C34.4934 24.4258 31.9138 25.6231 28.9554 26.0518C27.9834 26.1926 26.0107 26.1904 25.0446 26.0491C23.4977 25.8229 22.2217 25.4455 20.8942 24.8225C19.4764 24.1569 18.5104 23.5155 17.3909 22.4932C15.1512 20.4474 13.7402 17.8376 13.2834 14.8933C13.141 13.9751 13.1392 12.1434 13.2805 11.2511C13.5061 9.82773 13.9 8.63116 14.5718 7.32315C16.7324 3.11712 21.2376 0.26706 26.1135 0.0225564Z"/>
</svg>
