<svg id="default" viewBox="0 0 25 24" fill="none" xmlns="http://www.w3.org/2000/svg">
    <path fill-rule="evenodd" clip-rule="evenodd" d="M9.77097 2.86768C9.09614 2.95095 8.49392 3.19184 7.94086 3.59974C7.85881 3.66025 7.69951 3.7994 7.58688 3.90893C6.23091 5.22748 6.07312 7.3259 7.2169 8.82953C8.21192 10.1376 9.91985 10.6402 11.4669 10.0801C12.222 9.80675 12.9333 9.22794 13.3521 8.54612C13.7286 7.93307 13.9086 7.29596 13.9086 6.57677C13.9086 5.9644 13.7888 5.44956 13.5232 4.9208C13.3257 4.52752 13.1293 4.25444 12.8251 3.95028C12.2621 3.38723 11.5791 3.03197 10.7954 2.89447C10.5963 2.85954 9.96972 2.84315 9.77097 2.86768ZM9.87043 4.1132C9.43598 4.17988 9.03577 4.34151 8.71739 4.57883C7.68354 5.34954 7.4009 6.74776 8.0562 7.84988C8.43537 8.48762 9.1006 8.9275 9.8481 9.03478C10.0805 9.06814 10.5288 9.04813 10.7457 8.99474C11.2326 8.87488 11.6332 8.6455 11.9713 8.29301C12.4227 7.82243 12.6589 7.23562 12.6582 6.58671C12.6577 6.15154 12.5718 5.79028 12.3839 5.43376C12.0173 4.73789 11.3701 4.26691 10.594 4.13117C10.4338 4.10314 10.0053 4.09251 9.87043 4.1132ZM9.70135 11.7906C7.84266 11.862 6.2477 12.2354 4.82769 12.9316C4.27663 13.2018 3.82583 13.4843 3.4862 13.7723L3.3457 13.8914V18.0846H12.5161V16.8313H4.59893V14.4853L4.85256 14.3342C6.33506 13.4511 8.32161 12.9919 10.4573 13.0388C11.8373 13.0691 13.0091 13.2763 14.1437 13.6907C14.4746 13.8116 14.6142 13.8715 15.0075 14.0613C15.1797 14.1445 15.3248 14.2083 15.3299 14.2033C15.3492 14.1839 15.9177 13.1479 15.9177 13.132C15.9177 13.1073 15.2309 12.773 14.9403 12.6563C13.8041 12.2 12.6633 11.9385 11.3251 11.8274C10.9773 11.7985 10.0453 11.7774 9.70135 11.7906ZM17.3301 16.8313H14.0677V18.0846H17.3301V21.3469H18.5833V18.0846H21.8457V16.8313H18.5833V13.569H17.3301V16.8313Z" fill="currentColor"/>
</svg>
