<svg id="default" xmlns="http://www.w3.org/2000/svg" viewBox="0 0 73 72" fill="currentColor">
    <path fill-rule="evenodd" clip-rule="evenodd" d="M28.1934 8.31622C26.1514 8.56819 24.3291 9.29713 22.6556 10.5314C22.4073 10.7145 21.9253 11.1356 21.5845 11.467C17.4814 15.4568 17.004 21.8065 20.465 26.3564C23.4758 30.3147 28.6439 31.8354 33.3252 30.1406C35.6101 29.3134 37.7625 27.562 39.0295 25.4988C40.1688 23.6438 40.7136 21.7159 40.7136 19.5397C40.7136 17.6867 40.3511 16.1288 39.5476 14.5288C38.9498 13.3388 38.3555 12.5125 37.4351 11.5921C35.7313 9.88835 33.6648 8.81336 31.2934 8.3973C30.6909 8.2916 28.7948 8.242 28.1934 8.31622ZM28.4944 12.0851C27.1798 12.2869 25.9687 12.7759 25.0053 13.4941C21.877 15.8262 21.0217 20.0571 23.0046 23.3921C24.152 25.3218 26.1649 26.6529 28.4268 26.9775C29.13 27.0784 30.4864 27.0179 31.1429 26.8563C32.6161 26.4936 33.8285 25.7996 34.8516 24.7329C36.2174 23.309 36.9322 21.5334 36.9301 19.5698C36.9286 18.253 36.6686 17.1598 36.1001 16.081C34.9906 13.9754 33.0322 12.5502 30.6839 12.1395C30.1991 12.0546 28.9025 12.0225 28.4944 12.0851ZM27.9827 35.3212C24.9176 35.4126 21.692 35.8795 18.9148 36.6338C15.1183 37.6649 11.3333 39.4835 9.17612 41.3128L8.75098 41.6734V54.3615H34.1526V50.5694H12.5432V43.4703L13.3106 43.0132C15.6376 41.627 18.6692 40.4884 21.7828 39.8309C25.375 39.0725 29.7027 38.8728 33.5807 39.2866C34.8399 39.4209 35.5606 39.5338 36.8914 39.805C37.5535 39.94 38.1657 40.0631 38.2518 40.0786L38.4085 40.1068L38.8617 38.2946C39.111 37.2979 39.2976 36.4717 39.2765 36.4587C39.1987 36.4106 37.2913 36.0041 36.5904 35.8863C33.7393 35.4067 31.0457 35.2299 27.9827 35.3212ZM50.3446 38.8987C45.2791 39.4759 41.005 43.1933 39.7199 48.1395C39.2595 49.9112 39.2052 51.9933 39.5719 53.8102C39.852 55.1985 40.5774 56.9492 41.3591 58.1236C43.1203 60.7697 45.7541 62.6319 48.8096 63.3916C52.874 64.402 57.2761 63.2423 60.3238 60.3583C63.6867 57.176 65.0319 52.3864 63.8032 47.9703C63.364 46.3918 62.5172 44.734 61.5117 43.4843C61.0768 42.9438 60.1194 41.9943 59.5541 41.5429C57.7263 40.0831 55.4787 39.1541 53.1436 38.8932C52.5083 38.8222 50.9898 38.8252 50.3446 38.8987ZM50.4048 42.7135C49.4198 42.8822 48.6068 43.1537 47.7412 43.603C47.4184 43.7705 47.1543 43.9235 47.1543 43.943C47.1543 43.9625 49.845 46.6689 53.1334 49.9573C59.0697 55.8933 59.1133 55.9352 59.2055 55.7944C59.3851 55.5204 59.8021 54.6496 59.9444 54.2518C60.2966 53.2667 60.4575 52.3319 60.456 51.2801C60.4526 48.9553 59.5857 46.8491 57.9498 45.1908C56.6309 43.8539 55.0019 43.0136 53.1454 42.7125C52.4849 42.6054 51.0331 42.6059 50.4048 42.7135ZM44.0967 47.2466C43.7678 47.8755 43.4332 48.8079 43.2715 49.5461C43.1388 50.1517 43.0853 51.7971 43.1771 52.4453C43.4456 54.3398 44.2959 56.06 45.6223 57.3917C47.2952 59.0714 49.4142 59.955 51.7776 59.9584C52.8294 59.96 53.7643 59.799 54.7493 59.4468C55.1471 59.3046 56.018 58.8875 56.292 58.708C56.4328 58.6158 56.3909 58.5722 50.4548 52.6359C47.1665 49.3474 44.46 46.6568 44.4406 46.6568C44.4211 46.6568 44.2664 46.9222 44.0967 47.2466Z" />
</svg>
