<svg id="default" viewBox="0 0 72 72" fill="none" xmlns="http://www.w3.org/2000/svg">
    <path fill-rule="evenodd" clip-rule="evenodd" d="M27.5604 7.99211C25.4982 8.24657 23.6579 8.98271 21.9679 10.2292C21.7171 10.4141 21.2303 10.8393 20.8861 11.174C16.7425 15.2033 16.2603 21.6157 19.7555 26.2106C22.7962 30.2079 28.0153 31.7437 32.7429 30.0321C35.0504 29.1968 37.2241 27.428 38.5036 25.3445C39.6541 23.4712 40.2043 21.5242 40.2043 19.3265C40.2043 17.4552 39.8382 15.8819 39.0267 14.2661C38.4231 13.0643 37.8229 12.2298 36.8934 11.3004C35.1728 9.57977 33.0858 8.49416 30.691 8.07399C30.0825 7.96725 28.1677 7.91716 27.5604 7.99211ZM27.8643 11.7982C26.5367 12.002 25.3137 12.4959 24.3408 13.2211C21.1815 15.5763 20.3178 19.849 22.3203 23.2169C23.479 25.1657 25.5118 26.51 27.796 26.8378C28.5062 26.9397 29.876 26.8786 30.539 26.7154C32.0268 26.3492 33.2511 25.6482 34.2843 24.5711C35.6636 23.1331 36.3855 21.3399 36.3834 19.3569C36.3819 18.0271 36.1193 16.9231 35.5452 15.8337C34.4247 13.7072 32.447 12.268 30.0754 11.8531C29.5859 11.7675 28.2765 11.735 27.8643 11.7982ZM27.3476 35.2639C24.2522 35.3562 20.9947 35.8278 18.1901 36.5895C14.3561 37.6309 10.5337 39.4674 8.35513 41.3148L7.92578 41.6789V54.4925H38.3199V50.6628H11.7554V43.4936L12.5305 43.032C14.8805 41.6321 17.942 40.4822 21.0864 39.8183C24.7141 39.0523 29.0845 38.8506 33.0009 39.2686C34.2725 39.4042 35.0004 39.5182 36.3443 39.7921C37.0129 39.9284 37.6312 40.0527 37.7182 40.0683L37.8764 40.0969L38.3341 38.2668C38.5858 37.2602 38.7743 36.4259 38.7529 36.4127C38.6745 36.3642 36.7481 35.9537 36.0403 35.8346C33.1611 35.3503 30.4408 35.1717 27.3476 35.2639ZM41.7243 44.4327L49.8696 52.5773L41.7237 60.7239L44.4298 63.428L52.5744 55.2827L60.721 63.4287L63.4251 60.7226L55.2798 52.578L63.4258 44.4314L60.7197 41.7273L52.5751 49.8726L44.4284 41.7266L41.7243 44.4327Z" fill="currentColor"/>
</svg>
