<svg id="default" viewBox="0 0 24 24" fill="none" xmlns="http://www.w3.org/2000/svg">
    <path fill-rule="evenodd" clip-rule="evenodd" d="M9.27128 2.86768C8.59644 2.95095 7.99422 3.19184 7.44117 3.59974C7.35911 3.66025 7.19981 3.7994 7.08718 3.90893C5.73121 5.22748 5.57343 7.3259 6.7172 8.82953C7.71222 10.1376 9.42015 10.6402 10.9672 10.0801C11.7223 9.80675 12.4336 9.22794 12.8524 8.54612C13.2289 7.93307 13.4089 7.29596 13.4089 6.57677C13.4089 5.9644 13.2891 5.44956 13.0236 4.9208C12.826 4.52752 12.6296 4.25444 12.3254 3.95028C11.7624 3.38723 11.0794 3.03197 10.2957 2.89447C10.0966 2.85954 9.47002 2.84315 9.27128 2.86768ZM9.37074 4.1132C8.93629 4.17988 8.53607 4.34151 8.21769 4.57883C7.18384 5.34954 6.90121 6.74776 7.55651 7.84988C7.93568 8.48762 8.6009 8.9275 9.3484 9.03478C9.5808 9.06814 10.0291 9.04813 10.246 8.99474C10.7329 8.87488 11.1335 8.6455 11.4716 8.29301C11.923 7.82243 12.1592 7.23562 12.1585 6.58671C12.1581 6.15154 12.0721 5.79028 11.8843 5.43376C11.5176 4.73789 10.8704 4.26691 10.0943 4.13117C9.93411 4.10314 9.50561 4.09251 9.37074 4.1132ZM9.20165 11.7906C7.34296 11.862 5.748 12.2354 4.328 12.9316C3.77694 13.2018 3.32613 13.4843 2.98651 13.7723L2.84601 13.8914V18.0846H12.0164V16.8313H4.09923V14.4853L4.35286 14.3342C5.83537 13.4511 7.82191 12.9919 9.95757 13.0388C11.3376 13.0691 12.5094 13.2763 13.644 13.6907C13.975 13.8116 14.1145 13.8715 14.5078 14.0613C14.68 14.1445 14.8251 14.2083 14.8302 14.2033C14.8495 14.1839 15.4181 13.1479 15.4181 13.132C15.4181 13.1073 14.7312 12.773 14.4406 12.6563C13.3044 12.2 12.1636 11.9385 10.8254 11.8274C10.4776 11.7985 9.54565 11.7774 9.20165 11.7906ZM16.8304 16.8313H13.5681V18.0846H16.8304V21.3469H18.0836V18.0846H21.346V16.8313H18.0836V13.569H16.8304V16.8313Z" fill="currentColor" style="fill-opacity:1;"/>
</svg>
