<svg id="default" xmlns="http://www.w3.org/2000/svg" viewBox="0 0 73 72" fill="currentColor">
    <path fill-rule="evenodd" clip-rule="evenodd" d="M34.2453 8.34742C28.791 8.81132 23.6356 10.827 19.4118 14.1473C17.6867 15.5033 16.0088 17.1813 14.6519 18.9072C10.8586 23.7322 8.76221 29.8155 8.76221 35.9974C8.76221 39.9977 9.62008 43.909 11.308 47.6045C12.6941 50.6389 14.5842 53.3225 17.0419 55.7457C18.3048 56.9907 19.3414 57.8522 20.7557 58.8316C21.2517 59.1751 21.3598 59.2279 21.4241 59.1582C21.5448 59.0273 23.3835 56.1729 23.3833 56.1166C23.3832 56.0889 23.0447 55.8261 22.6311 55.5325C19.459 53.2814 16.8777 50.2794 15.1458 46.8268C13.9929 44.5285 13.2837 42.397 12.8841 40.0292C12.6176 38.4497 12.5818 37.9724 12.5818 35.9974C12.5818 34.0223 12.6176 33.5451 12.8841 31.9655C13.2837 29.5977 13.9929 27.4662 15.1458 25.1679C16.3115 22.8443 17.7142 20.9081 19.5793 19.0484C21.4529 17.1801 23.3577 15.8024 25.6725 14.6412C27.9708 13.4883 30.1023 12.7791 32.4701 12.3795C34.0691 12.1097 34.5175 12.0771 36.5922 12.0797C38.2864 12.0818 38.7256 12.1017 39.5828 12.215C43.8879 12.7839 47.39 14.2844 50.8678 17.05C51.2273 17.3358 51.6735 17.7087 51.8595 17.8786L52.1976 18.1877L51.9318 18.6569C50.0009 22.065 51.484 26.4189 55.0982 27.9526C56.0157 28.3419 56.5524 28.4428 57.6841 28.439C58.5552 28.436 58.7481 28.4165 59.2567 28.2802C59.5756 28.1946 60.0333 28.0383 60.2739 27.9328C63.7743 26.3964 65.247 22.2648 63.5009 18.8793C62.0138 15.9961 58.6052 14.6155 55.5339 15.6524L55.1874 15.7693L54.9656 15.5781C53.6319 14.4284 53.1567 14.0351 52.539 13.5694C49.2272 11.0727 45.7903 9.51592 41.9479 8.77214C39.5345 8.30493 36.6284 8.14468 34.2453 8.34742ZM56.9507 19.1762C55.9728 19.4455 55.1414 20.2989 54.9196 21.2609C54.6251 22.5384 55.2709 23.8522 56.4805 24.4362C56.9222 24.6494 56.9473 24.6541 57.654 24.6541C58.3603 24.6541 58.3862 24.6493 58.8344 24.4353C59.4465 24.1429 59.9109 23.6785 60.2033 23.0663C60.4178 22.6172 60.422 22.5938 60.4205 21.886C60.419 21.2021 60.4088 21.1423 60.2276 20.7553C60.0017 20.2727 59.4442 19.662 59.0178 19.4299C58.4243 19.1069 57.5791 19.0032 56.9507 19.1762ZM34.6365 37.8628H48.2364V34.1326L38.3975 34.1018L38.3669 19.509H34.6365V37.8628ZM60.4522 36.6195C60.4522 37.3225 60.3173 38.844 60.1786 39.7059C60.0277 40.6441 59.7039 42.1209 59.5762 42.4536C59.5499 42.5221 59.9179 42.6461 61.3063 43.0366C62.2763 43.3095 63.0946 43.5365 63.1249 43.5411C63.2048 43.5533 63.3703 42.9816 63.6115 41.8605C63.9758 40.1665 64.1517 38.7613 64.2231 36.9752L64.2622 35.9974H60.4522V36.6195ZM57.759 47.0717C57.3166 47.8766 56.8458 48.6734 56.5091 49.1874C54.9479 51.5701 52.7267 53.8661 50.3729 55.5304C49.959 55.8231 49.6204 56.086 49.6204 56.1147C49.6204 56.1724 51.457 59.025 51.5798 59.1582C51.6441 59.228 51.7522 59.1752 52.2482 58.8321C55.0722 56.8784 57.5177 54.4176 59.4219 51.6132C60.3612 50.2298 61.2441 48.6765 61.1433 48.5844C61.1107 48.5546 60.3595 48.1591 59.474 47.7055L57.8639 46.8807L57.759 47.0717ZM27.7354 58.4219C27.7123 58.4833 27.4142 59.2491 27.073 60.1238C26.7317 60.9984 26.4525 61.7468 26.4525 61.787C26.4525 61.959 29.0763 62.7855 30.725 63.1329C32.7829 63.5665 34.1766 63.7043 36.5019 63.7043C38.8273 63.7043 40.221 63.5665 42.2789 63.1329C43.9037 62.7905 46.5506 61.9596 46.552 61.7914C46.5526 61.7109 45.2881 58.4342 45.2311 58.3685C45.2098 58.3438 44.9771 58.4066 44.7141 58.5079C43.5863 58.9422 41.747 59.4231 40.3564 59.6473C38.8875 59.8841 38.4107 59.9175 36.5019 59.9175C34.3715 59.9175 33.257 59.8107 31.5172 59.4395C30.4644 59.2149 28.538 58.6406 27.8821 58.3559C27.8082 58.3238 27.765 58.3432 27.7354 58.4219Z" />
</svg>
