<svg id="default" viewBox="0 0 19 19" fill="none" xmlns="http://www.w3.org/2000/svg">
    <path d="M9.25 0C4.14143 0 0 4.14143 0 9.25C0 10.9307 0.448368 12.5068 1.23179 13.865L0 18.5L4.80538 17.364C6.12453 18.0881 7.63896 18.5 9.25 18.5C14.3586 18.5 18.5 14.3586 18.5 9.25C18.5 4.14143 14.3586 0 9.25 0ZM9.25 16.8432C7.70397 16.8432 6.2661 16.3812 5.06643 15.5875L2.22745 16.3106L3.02372 13.597C2.16219 12.3655 1.65678 10.8667 1.65678 9.24974C1.65678 5.05615 5.05641 1.65652 9.25 1.65652C13.4436 1.65652 16.8432 5.05615 16.8432 9.24974C16.8432 13.4433 13.4436 16.843 9.25 16.843V16.8432Z" fill="currentColor"/>
    <path d="M11.4173 10.471L13.6553 11.526C13.7581 11.5743 13.8239 11.6786 13.8146 11.7917C13.7905 12.0862 13.6723 12.6764 13.1432 13.2054C11.6498 14.6988 8.96812 13.0091 8.85891 12.9438C8.19934 12.5895 7.57265 12.1154 6.97834 11.5214C6.38403 10.9273 5.90996 10.3004 5.55564 9.64082C5.49012 9.53187 3.80045 6.85014 5.29407 5.35653C5.82312 4.82748 6.41332 4.70928 6.70778 4.68513C6.82109 4.67588 6.92515 4.74166 6.97346 4.84444L8.02873 7.08242C8.07857 7.18828 8.05673 7.31419 7.974 7.39692L7.18749 8.18343C7.01739 8.35353 6.96755 8.61844 7.08471 8.82862C7.37172 9.34328 7.75765 9.83892 8.20473 10.295C8.66081 10.7421 9.15646 11.1283 9.67112 11.415C9.8813 11.5322 10.1459 11.4823 10.3163 11.3122L11.1028 10.5257C11.1855 10.443 11.3114 10.4209 11.4173 10.471Z" fill="currentColor"/>
</svg>
