<svg id="default" xmlns="http://www.w3.org/2000/svg" viewBox="0 0 24 24" fill="currentColor">
  <path d="M15.681 13.3868L15.6712 15.6817L13.3763 15.6915V13.3868H15.681Z"/>
  <path fill-rule="evenodd" clip-rule="evenodd" d="M9.42804 9.06256C13.0136 9.06256 14.9299 9.06928 15.0599 9.08209C17.6117 9.33561 19.6281 11.3067 19.9593 13.8712C20.0017 14.2 20.0019 14.8594 19.9593 15.1905C19.798 16.4444 19.2724 17.5219 18.3919 18.4024C17.5114 19.2829 16.434 19.8085 15.18 19.9698C14.849 20.0124 14.1906 20.0122 13.8616 19.9698C13.1899 19.8831 12.6098 19.7031 12.0071 19.3936C10.3923 18.5642 9.28241 16.9586 9.08234 15.1622L9.06085 14.9639L3.99152 14.9542V9.06256H9.42804ZM5.57745 13.3868H8.13605C10.1626 13.3868 10.6915 13.3916 10.6956 13.4102C10.6957 13.4232 10.677 13.6767 10.6546 13.9727C10.6185 14.449 10.6163 14.5438 10.636 14.8028C10.6948 15.5747 10.954 16.2722 11.4075 16.877C11.547 17.0629 11.8911 17.4182 12.0735 17.5655C12.9745 18.2922 14.1487 18.5774 15.303 18.3506C16.0325 18.2072 16.7337 17.8291 17.2767 17.2862C18.2568 16.3058 18.6373 14.9061 18.2933 13.5479C18.1653 13.0426 17.8934 12.5036 17.555 12.084C17.4077 11.9015 17.0524 11.5574 16.8665 11.418C16.2879 10.9842 15.594 10.7178 14.8685 10.6505C14.7217 10.6368 13.182 10.63 10.1146 10.6299H5.57745V13.3868Z"/>
  <path d="M6.46808 5.02155C6.47501 5.02138 6.88508 5.50674 7.37921 6.09967L8.27765 7.1778L7.67902 7.67584C7.35392 7.94674 7.08151 8.1694 7.06769 8.17487C7.06031 8.17487 6.65278 7.6938 6.16241 7.10553C5.5063 6.31837 5.27503 6.02822 5.28741 6.00885C5.2977 5.99354 5.56405 5.76555 5.88019 5.50201C6.19446 5.24001 6.45743 5.02491 6.46808 5.02155Z"/>
  <path d="M13.1995 5.02155C13.2375 5.02699 14.3953 6.01268 14.389 6.03424C14.384 6.04727 13.9819 6.53469 13.4964 7.11725C12.9649 7.75504 12.6101 8.16614 12.5901 8.16705C12.5725 8.16026 11.5346 7.30567 11.4066 7.19244C11.3978 7.18466 11.7949 6.69273 12.2894 6.09967C12.7838 5.50666 13.1935 5.02155 13.1995 5.02155Z"/>
  <path d="M10.6194 4.07721V6.96686H9.05206V4.07721H10.6194Z"/>
</svg>