<svg id="default" xmlns="http://www.w3.org/2000/svg" viewBox="0 0 24 24" fill="currentColor">
<path fill-rule="evenodd" clip-rule="evenodd" d="M7.01538 4.38462C5.62926 4.38462 4.38462 5.65734 4.38462 7.38462V16.6154C4.38462 18.3427 5.62926 19.6154 7.01538 19.6154H16.9846C18.3707 19.6154 19.6154 18.3427 19.6154 16.6154V7.38462C19.6154 5.65734 18.3707 4.38462 16.9846 4.38462H7.01538ZM3 7.38462C3 5.03348 4.73094 3 7.01538 3H16.9846C19.2691 3 21 5.03348 21 7.38462V16.6154C21 18.9665 19.2691 21 16.9846 21H7.01538C4.73094 21 3 18.9665 3 16.6154V7.38462Z"/>
<path d="M15.7876 10.9801C15.7554 10.8608 15.7081 10.7557 15.6456 10.6648C15.5831 10.572 15.5064 10.4934 15.4155 10.429C15.3246 10.3646 15.2204 10.3163 15.103 10.2841C14.9856 10.25 14.8568 10.233 14.7166 10.233C14.4344 10.233 14.1901 10.3011 13.9837 10.4375C13.7791 10.5739 13.621 10.7727 13.5092 11.0341C13.3975 11.2936 13.3416 11.6089 13.3416 11.9801C13.3416 12.3532 13.3956 12.6714 13.5035 12.9347C13.6115 13.1979 13.7677 13.3987 13.9723 13.5369C14.1768 13.6752 14.4249 13.7443 14.7166 13.7443C14.9742 13.7443 15.192 13.7027 15.37 13.6193C15.5499 13.5341 15.6863 13.4138 15.7791 13.2585C15.8719 13.1032 15.9183 12.9205 15.9183 12.7102L16.1797 12.7415H14.7649V11.7159H17.2734V12.4858C17.2734 13.0066 17.1626 13.4527 16.941 13.8239C16.7213 14.1951 16.4183 14.4801 16.032 14.679C15.6475 14.8778 15.2052 14.9773 14.7052 14.9773C14.1503 14.9773 13.6626 14.857 13.2422 14.6165C12.8217 14.3759 12.4941 14.0331 12.2592 13.5881C12.0244 13.1411 11.907 12.6108 11.907 11.9972C11.907 11.5199 11.978 11.0966 12.12 10.7273C12.2621 10.3561 12.46 10.0417 12.7138 9.78409C12.9695 9.52652 13.2649 9.33144 13.6001 9.19886C13.9373 9.06629 14.2999 9 14.6882 9C15.0253 9 15.3388 9.0483 15.6285 9.14489C15.9202 9.24148 16.1778 9.37784 16.4013 9.55398C16.6266 9.73011 16.8094 9.93939 16.9496 10.1818C17.0897 10.4242 17.1768 10.6903 17.2109 10.9801H15.7876Z"/>
<path d="M8.47159 10.5341L9.19034 11.9716L9.93466 10.5341H11.3352L10.1165 12.7159L11.3807 14.8977H9.99148L9.19034 13.4489L8.40909 14.8977H7L8.26705 12.7159L7.0625 10.5341H8.47159Z"/>
</svg>