<svg id="default" viewBox="0 0 247 22" fill="none" xmlns="http://www.w3.org/2000/svg">
<path d="M28.0071 5.9675L30.3536 10.725L32.572 5.9675H36.9128V16.5733H33.409L33.313 16.4771V10.34L31.8356 13.5208C31.7121 13.5987 29.2055 13.5896 28.9036 13.5575C28.8121 13.5483 28.7343 13.5483 28.6886 13.4521L27.2661 10.34V16.5733H23.6663V5.9675H28.0071Z" fill="currentColor"/>
<path d="M74.3973 5.9675V9.56542H76.7758V5.9675H80.8879V16.5687H76.7758V12.3292H74.3973V16.5687H70.3447V5.9675H74.3973Z" fill="currentColor"/>
<path d="M37.8139 16.5688L40.8007 6.02709L46.5824 5.95834L49.6424 16.5688H45.3977L45.018 14.7308H42.4383L41.958 16.5688H37.8093H37.8139ZM44.4371 12.0083L43.6961 8.53875L42.9551 12.0083H44.4326H44.4371Z" fill="currentColor"/>
<path d="M68.9221 6.42583L68.7392 9.18042C68.4464 9.07958 68.1949 8.86875 67.9021 8.76333C67.0651 8.46083 65.6517 8.415 64.8375 8.78167C63.5476 9.36375 63.2914 11.0642 63.6574 12.2971C64.284 14.4054 67.2938 14.3504 68.8032 13.2917L69.0319 16.0554C68.9221 16.2342 67.4264 16.5687 67.1474 16.6146C62.9941 17.2837 59.1062 15.4596 59.4172 10.7525C59.742 5.82083 65.0708 4.90417 68.9221 6.42583Z" fill="currentColor"/>
<path d="M58.9003 5.9675V8.66708H56.1376V16.5687H52.085V8.66708H49.3222V5.9675H58.9003Z" fill="currentColor"/>
<path d="M94.386 16.5871L97.4141 5.99041L103.1 5.98125L106.215 16.5917H102.066L101.586 14.7583H99.0058L98.5301 16.5917H94.3814L94.386 16.5871ZM101.073 12.0221L100.364 8.61666C100.232 8.65333 100.232 8.82291 100.204 8.9375C99.9527 9.95041 99.7971 11 99.5959 12.0267H101.073V12.0221Z" fill="currentColor"/>
<path d="M135.653 6.37542L135.402 9.19875C134.917 8.96042 134.395 8.74959 133.865 8.64875C133.334 8.54792 131.761 8.36459 131.418 8.77709C131.098 9.16667 131.532 9.41875 131.848 9.57459C133.504 10.3813 135.676 10.3629 136.161 12.6546C137.117 17.1738 131.043 17.1921 128.193 16.3121C127.873 16.2113 127.562 16.0554 127.251 15.9363L127.502 13.0533C127.905 13.2413 128.271 13.475 128.692 13.6308C129.542 13.9517 130.732 14.1488 131.633 14.0021C132.447 13.8646 132.177 13.2917 131.573 12.9983C129.949 12.21 127.475 12.155 127.246 9.74417C126.816 5.22042 132.74 5.32125 135.662 6.37542H135.653Z" fill="currentColor"/>
<path d="M94.2579 5.98125V8.45625L94.1619 8.5525H89.757V10.2254H93.8737V12.7967H89.757V16.4908L89.661 16.5871H85.741L85.645 16.4908V5.98125H94.2579Z" fill="currentColor"/>
<path d="M115.857 9.19416C115.482 9.02916 115.129 8.79541 114.727 8.68541C112.353 8.03458 110.432 9.02458 110.647 11.6737C110.862 14.3229 114.114 14.5292 115.921 13.31L116.168 16.0371C116.108 16.3075 114.05 16.6787 113.702 16.7154C109.732 17.1371 106.324 15.2579 106.53 10.8946C106.713 7.03541 109.86 5.53666 113.378 5.78875C113.743 5.81625 116.044 6.22875 116.09 6.52208L115.852 9.19416H115.857Z" fill="currentColor"/>
<path d="M126.528 5.98125V8.68083H123.829V16.4908L123.733 16.5871H119.813L119.717 16.4908V8.68083H117.014V5.98125H126.528Z" fill="currentColor"/>
<path d="M225.442 3.46041L225.598 3.63916L227.245 9.88625L228.841 3.52458C228.978 3.42375 230.41 3.33208 230.469 3.7125C230.963 5.73375 231.425 7.75958 231.887 9.78541C231.91 9.89083 231.842 9.9 232.02 9.88625L233.635 3.63916C233.671 3.58875 233.818 3.465 233.859 3.465H235.062C235.231 3.465 235.194 3.96 235.13 4.07C234.243 6.31125 233.813 8.99708 232.894 11.1971C232.843 11.3162 232.793 11.5133 232.688 11.5912C232.464 11.7608 231.242 11.7517 231.082 11.5179L229.619 5.47708C229.44 5.46333 229.509 5.47708 229.486 5.57791C229.038 7.54416 228.58 9.50583 228.072 11.4583C227.88 11.77 227.057 11.7425 226.728 11.6829C226.27 11.6004 226.252 11.2521 226.124 10.8808C225.42 8.81375 224.642 6.31583 224.102 4.2075C224.075 4.08833 223.892 3.47416 224.102 3.47416H225.438L225.442 3.46041Z" fill="currentColor"/>
<path d="M215.398 14.1717C215.654 14.0112 216.459 14.5979 216.724 14.7308C223.809 18.3012 231.238 18.8008 238.748 16.17C239.096 16.0508 239.983 15.5879 240.267 15.6475C240.61 15.7162 240.724 16.1058 240.487 16.3717C240.038 16.8712 238.117 17.8429 237.445 18.1408C230.849 21.0421 223.041 20.2583 217.204 16.06C216.752 15.7346 215.796 15.0517 215.457 14.6621C215.357 14.5475 215.265 14.2542 215.402 14.1671L215.398 14.1717Z" fill="currentColor"/>
<path d="M221.6 5.83458C221.39 4.28542 219.61 4.39083 218.458 4.69792C218.138 4.785 217.429 5.14708 217.163 5.05542L217.063 4.95458C217.081 4.67958 216.957 4.11125 217.15 3.92333C217.538 3.54292 219.199 3.20833 219.757 3.19C224.669 3.02958 222.515 7.26917 223.247 10.0054C223.325 10.2942 223.663 10.7846 223.59 11.0413C223.558 11.1513 222.863 11.6508 222.748 11.6783C222.09 11.8433 221.801 10.5279 221.664 10.6196C221.518 10.9542 221.001 11.3071 220.681 11.4767C219.08 12.3246 216.674 11.8708 216.514 9.78542C216.281 6.74667 219.313 6.41208 221.596 7.07208C221.559 6.6825 221.646 6.21042 221.596 5.83458H221.6ZM219.313 7.95667C217.731 8.20417 217.712 10.4592 219.162 10.615C220.612 10.7708 221.911 9.69375 221.573 8.13542C221.431 7.93833 219.62 7.90625 219.313 7.95667Z" fill="currentColor"/>
<path d="M159.754 5.33041C159.827 5.35333 159.923 5.5275 159.942 5.61L161.09 10.0787L162.357 5.39458L163.784 5.33958L165.097 10.1475L166.281 5.64666C166.286 5.56875 166.451 5.33041 166.496 5.33041H167.8L167.832 5.54125L165.801 11.6417C165.678 11.7929 164.255 11.9121 164.228 11.4858L163.025 7.07208L161.817 11.6187C161.744 11.7654 161.625 11.7471 161.488 11.7608C161.232 11.7883 160.44 11.8067 160.285 11.6233L158.313 5.335H159.75L159.754 5.33041Z" fill="currentColor"/>
<path d="M191.26 2.5575C191.324 2.32834 192.28 2.35584 192.5 2.38792C192.669 2.41084 192.761 2.44292 192.797 2.62625L192.738 11.6646C192.61 11.825 191.645 11.8204 191.494 11.6233C191.379 11.4721 191.448 11.1971 191.292 11.22C189.133 12.7508 186.883 11.5958 186.714 8.98334C186.526 6.06834 188.493 4.015 191.26 5.73375V2.5575ZM189.44 6.3525C188.072 6.58167 188.045 8.90542 188.488 9.88167C188.969 10.9404 190.487 10.8625 191.247 10.1704L191.26 6.83834C190.89 6.36625 190.012 6.25625 189.44 6.3525Z" fill="currentColor"/>
<path d="M199.416 5.8025C200.985 4.5925 203.125 4.96833 203.78 6.95291C204.059 7.80541 204.049 9.18958 203.748 10.0329C203.029 12.0496 200.889 12.4437 199.288 11.1512C199.233 11.3071 199.228 11.6462 199.073 11.7104C198.89 11.7837 198.062 11.8112 197.948 11.66L197.888 2.62166C197.966 2.21375 198.959 2.41541 199.288 2.42C199.32 2.43833 199.42 2.60333 199.42 2.62166V5.79791L199.416 5.8025ZM199.43 6.75125L199.448 10.2162C200.724 11.0733 202.234 10.8258 202.412 9.1025C202.65 6.83375 201.68 5.5825 199.425 6.75125H199.43Z" fill="currentColor"/>
<path d="M145.753 11.22V14.1992C145.753 14.4604 144.509 14.3825 144.285 14.3V5.43125L144.385 5.33041H145.456L145.657 5.86666C148.415 3.98291 150.601 5.79333 150.368 8.91C150.176 11.4858 147.93 12.7967 145.757 11.22H145.753ZM146.805 6.3525C146.576 6.38458 145.831 6.63208 145.767 6.85208L145.753 10.1154C145.785 10.2942 146.32 10.5142 146.503 10.5692C148.406 11.1421 148.968 9.66625 148.822 8.04833C148.708 6.79708 148.109 6.17375 146.809 6.3525H146.805Z" fill="currentColor"/>
<path d="M241.374 4.9225C241.04 5.00958 240.766 4.76666 240.464 4.68416C239.704 4.47791 237.943 4.22125 237.523 5.115C236.859 6.52666 239.521 6.87041 240.34 7.21875C241.625 7.76416 242.261 8.8825 241.722 10.2529C240.981 12.1321 238.081 12.1779 236.489 11.5408C235.725 11.2337 235.661 10.8946 235.844 10.0925C235.995 9.96416 236.928 10.3904 237.175 10.4546C238.012 10.67 240.18 10.89 240.317 9.6525C240.4 8.91 240.002 8.67625 239.398 8.42875C238.103 7.90166 236.169 7.80541 235.922 6.0225C235.611 3.74 237.934 2.98833 239.796 3.28166C240.775 3.4375 241.827 3.66208 241.378 4.92708L241.374 4.9225Z" fill="currentColor"/>
<path d="M153.954 5.14709C156.603 4.8125 157.92 6.51292 157.71 9.04292C157.522 11.3071 155.573 12.4483 153.446 11.77C150.62 10.8671 150.821 5.54125 153.95 5.14709H153.954ZM154.224 6.3525C152.911 6.5725 152.879 8.72209 153.19 9.69834C153.671 11.1971 155.697 11.0871 156.081 9.48292C156.42 8.07125 156.127 6.03167 154.224 6.3525Z" fill="currentColor"/>
<path d="M205.998 5.33041L206.218 5.64666L207.736 10.2804L209.374 5.33041H210.746C210.778 5.33041 210.856 5.44041 210.851 5.5L207.718 13.475C207.16 14.4971 205.934 14.7629 204.909 14.2862L204.928 13.3558C205.015 13.2321 205.655 13.3146 205.861 13.2871C206.588 13.1908 206.798 12.4025 206.968 11.7929L204.562 5.5C204.557 5.445 204.63 5.33041 204.667 5.33041H206.003H205.998Z" fill="currentColor"/>
<path d="M181.44 8.87791C181.348 11.1467 183.827 10.8396 185.341 10.4225C185.52 10.4775 185.52 11.3483 185.314 11.5179C184.6 12.1137 182.377 12.0037 181.55 11.6142C179.683 10.7342 179.56 7.53041 180.745 6.07291C181.929 4.61541 184.857 4.71625 185.47 6.61833C185.63 7.10875 185.685 8.13083 185.57 8.63041C185.547 8.73125 185.492 8.80916 185.419 8.87791H181.444H181.44ZM184.244 7.87416C184.486 5.55041 181.417 5.79791 181.435 7.87416H184.244Z" fill="currentColor"/>
<path d="M169.909 8.87792C169.744 8.92375 169.909 9.49208 169.959 9.63417C170.494 11.1787 172.566 10.7067 173.778 10.4225C173.938 10.4729 173.92 11.2246 173.874 11.3758C173.751 11.7883 171.917 11.9717 171.509 11.9625C168.701 11.8708 167.763 9.185 168.728 6.82917C169.694 4.47333 173.751 4.48708 174.021 7.1775C174.066 7.65417 174.094 8.47458 173.856 8.8825H169.913L169.909 8.87792ZM172.685 7.87417C172.813 6.66417 171.903 5.88042 170.746 6.37083C170.133 6.6275 169.913 7.26917 169.808 7.87417H172.68H172.685Z" fill="currentColor"/>
<path d="M176.66 5.33042L176.893 6.20125C177.41 5.68333 178.448 4.98208 179.217 5.3075C179.427 5.39917 179.391 6.19667 179.349 6.42125C179.272 6.82458 178.828 6.58625 178.531 6.59542C178.009 6.61375 177.419 6.81083 176.975 7.08125L176.948 11.5683C176.857 11.8846 175.786 11.7471 175.493 11.6829V5.42667L175.594 5.32583H176.664L176.66 5.33042Z" fill="currentColor"/>
<path d="M240.166 13.6492C240.711 13.5942 242.536 13.5621 242.92 13.9333C243.204 14.2037 242.993 15.2854 242.911 15.6612C242.737 16.4679 242.307 17.4396 241.781 18.0767C241.63 18.26 240.985 19.0208 240.811 18.645C240.734 18.48 241.168 17.5954 241.25 17.3433C241.41 16.8667 241.95 15.3587 241.616 14.9692C241.365 14.6804 240.198 14.685 239.814 14.6987C239.27 14.7217 238.588 14.9004 238.071 14.9004C237.76 14.9004 237.783 14.6529 237.971 14.4604C238.346 14.0708 239.622 13.7042 240.166 13.6492Z" fill="currentColor"/>
<path d="M18.4106 5.335H3.7233V17.1096H18.4106V5.335Z" fill="#D20515"/>
<path d="M15.8309 11.5362C15.84 11.5637 15.8126 11.5867 15.7623 11.6233L15.7302 11.6417L15.7394 11.6646C15.7394 11.6646 15.7348 11.7012 15.7119 11.7104L15.6616 11.7333C15.6616 11.7333 15.6159 11.7425 15.6067 11.7333L15.5976 11.715L15.5381 11.7471L15.5473 11.77C15.5473 11.77 15.5427 11.8067 15.5198 11.8158L15.4695 11.8387C15.4695 11.8387 15.4238 11.8479 15.4146 11.8296L15.4055 11.8112C15.2179 11.8983 15.0075 11.9946 14.788 12.0954L14.8017 12.1229C14.8017 12.1229 14.7971 12.155 14.7743 12.1687L14.7239 12.1917C14.7239 12.1917 14.6782 12.2008 14.6736 12.1825L14.6599 12.155L14.5913 12.1871L14.605 12.2146C14.605 12.2146 14.6004 12.2467 14.5776 12.2604L14.5273 12.2833C14.5044 12.2925 14.4815 12.2925 14.4724 12.2787L14.4586 12.2512C14.358 12.2925 14.2528 12.3108 14.1751 12.1596C14.143 12.0908 14.1385 11.935 14.1156 11.8525C14.111 11.8387 14.1019 11.8296 14.0927 11.8204C14.0836 11.8112 14.0699 11.8067 14.0561 11.8021C13.1001 11.6187 12.7754 11.825 12.1625 11.6692C11.9704 11.6233 11.8651 11.4446 11.6273 11.44C11.1104 11.4262 10.9549 11.4308 10.3969 11.4125C10.374 11.495 10.3694 11.5133 10.3694 11.5133L8.39343 11.5042L8.69532 11.6508L8.79137 12.5217C8.79137 12.5217 8.71361 12.5446 8.68617 12.5492C8.70446 12.7233 8.72276 12.9571 8.73191 13.1725C8.74106 13.365 8.7502 13.5621 8.7502 13.6858C8.7502 13.7683 8.73191 13.8508 8.69074 13.9196C8.65415 13.9837 8.60383 14.0387 8.54437 14.08C8.52608 14.0937 8.44832 14.1442 8.36141 14.1946C8.2745 14.245 8.1693 14.3046 8.11441 14.3275C8.12356 14.3504 8.1327 14.3733 8.14185 14.3962C6.94345 14.9783 5.45687 15.1754 4.97202 16.1012C4.91256 16.2067 4.72045 16.1517 4.71587 16.0371V15.8492H4.69758C4.69758 15.8492 4.67013 15.8262 4.67013 15.8033V15.7483C4.67013 15.7254 4.68385 15.7025 4.70215 15.7025H4.72502C4.72959 15.6475 4.74332 15.5971 4.75704 15.5467H4.73874C4.73874 15.5467 4.72045 15.51 4.72959 15.4871L4.74789 15.4367C4.75704 15.4137 4.77533 15.4 4.78906 15.4046H4.80735C4.89426 15.2121 5.05893 15.1204 5.13669 14.9325H5.12296C5.12296 14.9325 5.10467 14.9004 5.10924 14.8775L5.12754 14.8271C5.13669 14.8042 5.15498 14.7904 5.16871 14.795H5.18243C5.19615 14.7721 5.2053 14.74 5.22359 14.7125L5.2053 14.7033C5.2053 14.7033 5.19158 14.6712 5.2053 14.6483L5.23274 14.6025C5.23274 14.6025 5.26476 14.5704 5.27848 14.5796H5.28763H5.29678C5.29678 14.5796 5.30135 14.5796 5.30593 14.575C5.31508 14.5658 5.31965 14.5567 5.3288 14.5521C5.36539 14.5246 5.41113 14.5108 5.45687 14.5108C5.50261 14.5108 5.54835 14.5246 5.58495 14.5521C5.65813 14.5979 5.95545 14.7675 6.23904 14.5108C6.70559 14.0892 7.25448 13.5162 7.66615 13.4979C7.55637 13.255 7.35969 12.7508 7.33682 12.5629L7.20417 12.5354C7.13098 12.3796 6.95717 11.6646 6.90685 11.1237C6.90685 11.1237 6.84739 10.5417 6.90685 10.34C6.87483 10.34 6.81537 10.3858 6.80165 10.3858C6.72846 10.2025 6.97089 8.635 7.21332 8.18125L7.58382 8.03458C7.54722 8.03 7.27735 8.01625 6.57295 7.96125C6.175 8.31416 5.72217 8.69 5.48889 8.89625C5.44772 8.92375 5.38369 9.14833 5.38369 9.14833C5.38369 9.14833 5.26933 9.24916 5.15956 9.32708C5.01776 9.42791 4.66556 9.50583 4.59237 9.38666C4.57408 9.35916 4.57865 9.34541 4.59237 9.32708C4.64726 9.2675 4.85309 9.17125 4.92171 9.04291C4.81193 9.1025 4.68385 9.1575 4.5878 9.14833C4.54663 9.14833 4.52376 9.04291 4.57865 9.02458C4.72502 8.96041 4.84395 8.93291 4.93085 8.80916C5.01776 8.68541 5.11839 8.61208 5.25104 8.6075C5.25104 8.6075 5.90513 7.75041 6.29393 7.33791C6.39913 7.22791 6.60039 7.26458 6.60039 7.26458L6.63241 7.13625C6.63241 7.13625 7.95889 6.97583 8.57639 7.18208C8.56267 6.80625 8.73191 6.30666 9.31739 6.30666C9.61928 6.30666 10.063 6.5725 10.1224 6.89791C10.1407 6.99875 10.0813 7.06291 10.0538 7.19125C10.0035 7.38375 10.0767 7.59458 10.0538 7.66333C10.0355 7.71833 9.97606 7.71375 9.92117 7.78708C9.87543 7.86041 9.83426 7.93833 9.79767 8.01625L9.71991 8.195L9.30824 8.16291C9.1573 8.48833 8.84626 9.1575 8.73648 9.8175C9.06124 9.845 10.5341 10.0604 10.5341 10.0604L10.5707 10.1796C10.5707 10.1796 11.1928 10.2529 11.6959 10.4958C11.8103 10.5233 12.0939 10.4821 12.2814 10.5646C12.2951 10.5554 12.3271 10.5233 12.3409 10.5187C13.0041 10.725 13.5484 11.0687 14.1888 11.2246C14.1888 11.2246 14.4861 11.2979 14.5867 11.3162C14.756 11.3483 14.9252 11.3712 15.099 11.3804C15.3049 11.3987 15.4146 11.3942 15.5656 11.4033C15.6708 11.4079 15.7989 11.3896 15.8446 11.5454M16.7777 9.51958C16.6176 9.51958 16.4575 9.56541 16.3249 9.65708C16.1922 9.74875 16.087 9.8725 16.023 10.0237C15.9589 10.175 15.9452 10.3354 15.9772 10.4958C16.0093 10.6562 16.087 10.7983 16.2014 10.9129C16.3157 11.0275 16.4621 11.1054 16.6176 11.1375C16.7777 11.1696 16.9378 11.1512 17.0887 11.0917C17.2397 11.0321 17.3632 10.9267 17.4547 10.7892C17.5461 10.6562 17.5919 10.4958 17.5919 10.3354C17.5919 10.12 17.505 9.90916 17.354 9.75791C17.2031 9.60666 16.9927 9.51958 16.7777 9.51958Z" fill="white"/>
</svg>
